<?xml version="1.0" encoding="UTF-8" standalone="no"?>
<!-- Created with Inkscape (http://www.inkscape.org/) -->

<svg
   xmlns:dc="http://purl.org/dc/elements/1.1/"
   xmlns:cc="http://creativecommons.org/ns#"
   xmlns:rdf="http://www.w3.org/1999/02/22-rdf-syntax-ns#"
   xmlns:svg="http://www.w3.org/2000/svg"
   xmlns="http://www.w3.org/2000/svg"
   xmlns:sodipodi="http://sodipodi.sourceforge.net/DTD/sodipodi-0.dtd"
   xmlns:inkscape="http://www.inkscape.org/namespaces/inkscape"
   width="200"
   height="200"
   id="svg2"
   version="1.1"
   inkscape:version="0.48.3.1 r9886"
   sodipodi:docname="slash.svg"
   inkscape:export-filename="/media/henry/Work/Projects/MoonWar/Art/effect/slash2.png"
   inkscape:export-xdpi="90"
   inkscape:export-ydpi="90">
  <defs
     id="defs4">
    <clipPath
       clipPathUnits="userSpaceOnUse"
       id="clipPath3230">
      <path
         inkscape:connector-curvature="0"
         id="path3232"
         d="m 16.28125,878.14343 0,113.25 152.71875,0 0,-113.25 -152.71875,0 z m 76.5625,32.59375 c 15.75346,0 28.53125,12.77779 28.53125,28.53125 0,15.75346 -12.77779,28.53125 -28.53125,28.53125 -15.753461,0 -28.53125,-12.77779 -28.53125,-28.53125 0,-15.75346 12.777789,-28.53125 28.53125,-28.53125 z"
         style="fill:#00ff00;fill-opacity:1;stroke:none;display:inline" />
    </clipPath>
    <clipPath
       clipPathUnits="userSpaceOnUse"
       id="clipPath3266">
      <path
         style="fill:#00ff00;fill-opacity:1;stroke:none;display:inline"
         d="m 16.28125,25.78125 0,113.25 152.71875,0 0,-113.25 -152.71875,0 z M 92.84375,58.375 c 15.75346,0 28.53125,12.777789 28.53125,28.53125 0,15.75346 -12.77779,28.53125 -28.53125,28.53125 -15.753461,0 -28.53125,-12.77779 -28.53125,-28.53125 0,-15.753461 12.777789,-28.53125 28.53125,-28.53125 z"
         id="path3268"
         inkscape:connector-curvature="0" />
    </clipPath>
    <clipPath
       clipPathUnits="userSpaceOnUse"
       id="clipPath3277">
      <path
         style="fill:#00ff00;fill-opacity:1;stroke:none;display:inline"
         d="m 16.28125,25.78125 0,113.25 152.71875,0 0,-113.25 -152.71875,0 z M 92.84375,58.375 c 15.75346,0 28.53125,12.777789 28.53125,28.53125 0,15.75346 -12.77779,28.53125 -28.53125,28.53125 -15.753461,0 -28.53125,-12.77779 -28.53125,-28.53125 0,-15.753461 12.777789,-28.53125 28.53125,-28.53125 z"
         id="path3279"
         inkscape:connector-curvature="0" />
    </clipPath>
    <clipPath
       clipPathUnits="userSpaceOnUse"
       id="clipPath3296">
      <path
         style="fill:#00ff00;fill-opacity:1;stroke:none;display:inline"
         d="m 16.28125,25.78125 0,113.25 152.71875,0 0,-113.25 -152.71875,0 z M 92.84375,58.375 c 15.75346,0 28.53125,12.777789 28.53125,28.53125 0,15.75346 -12.77779,28.53125 -28.53125,28.53125 -15.753461,0 -28.53125,-12.77779 -28.53125,-28.53125 0,-15.753461 12.777789,-28.53125 28.53125,-28.53125 z"
         id="path3298"
         inkscape:connector-curvature="0" />
    </clipPath>
    <clipPath
       clipPathUnits="userSpaceOnUse"
       id="clipPath3312">
      <path
         style="fill:#00ff00;fill-opacity:1;stroke:none;display:inline"
         d="m 16.28125,25.78125 0,113.25 152.71875,0 0,-113.25 -152.71875,0 z M 92.84375,58.375 c 15.75346,0 28.53125,12.777789 28.53125,28.53125 0,15.75346 -12.77779,28.53125 -28.53125,28.53125 -15.753461,0 -28.53125,-12.77779 -28.53125,-28.53125 0,-15.753461 12.777789,-28.53125 28.53125,-28.53125 z"
         id="path3314"
         inkscape:connector-curvature="0" />
    </clipPath>
    <clipPath
       clipPathUnits="userSpaceOnUse"
       id="clipPath3335">
      <path
         style="fill:#00ff00;fill-opacity:1;stroke:none;display:inline"
         d="m 16.28125,25.78125 0,113.25 152.71875,0 0,-113.25 -152.71875,0 z M 92.84375,58.375 c 15.75346,0 28.53125,12.777789 28.53125,28.53125 0,15.75346 -12.77779,28.53125 -28.53125,28.53125 -15.753461,0 -28.53125,-12.77779 -28.53125,-28.53125 0,-15.753461 12.777789,-28.53125 28.53125,-28.53125 z"
         id="path3337"
         inkscape:connector-curvature="0" />
    </clipPath>
  </defs>
  <sodipodi:namedview
     id="base"
     pagecolor="#ffffff"
     bordercolor="#666666"
     borderopacity="1.0"
     inkscape:pageopacity="0"
     inkscape:pageshadow="2"
     inkscape:zoom="4.0833333"
     inkscape:cx="78.237692"
     inkscape:cy="120.75466"
     inkscape:document-units="px"
     inkscape:current-layer="layer9"
     showgrid="false"
     width="200px"
     inkscape:window-width="1366"
     inkscape:window-height="710"
     inkscape:window-x="0"
     inkscape:window-y="27"
     inkscape:window-maximized="1" />
  <metadata
     id="metadata7">
    <rdf:RDF>
      <cc:Work
         rdf:about="">
        <dc:format>image/svg+xml</dc:format>
        <dc:type
           rdf:resource="http://purl.org/dc/dcmitype/StillImage" />
        <dc:title></dc:title>
      </cc:Work>
    </rdf:RDF>
  </metadata>
  <g
     inkscape:label="anim1"
     inkscape:groupmode="layer"
     id="layer1"
     transform="translate(0,-852.36218)"
     style="display:none">
    <g
       id="g3079">
      <path
         sodipodi:end="3.8554323"
         sodipodi:start="3.8344884"
         transform="translate(20.938245,885.23522)"
         d="m 51.017896,23.181537 c 0.18488,-0.222689 0.372086,-0.443435 0.561589,-0.662203 l 31.335966,27.144065 z"
         sodipodi:ry="41.457726"
         sodipodi:rx="41.457726"
         sodipodi:cy="49.663399"
         sodipodi:cx="82.915451"
         id="path3010"
         style="fill:#ffe6d5;fill-opacity:1;stroke:none"
         sodipodi:type="arc" />
      <path
         sodipodi:end="3.8554323"
         sodipodi:start="3.8344884"
         sodipodi:type="arc"
         style="fill:#ffb380;fill-opacity:1;stroke:none"
         id="path3008"
         sodipodi:cx="82.915451"
         sodipodi:cy="49.663399"
         sodipodi:rx="41.457726"
         sodipodi:ry="41.457726"
         d="m 51.017896,23.181537 c 0.18488,-0.222689 0.372086,-0.443435 0.561589,-0.662203 l 31.335966,27.144065 z"
         transform="translate(21.566393,892.56361)" />
      <path
         sodipodi:end="3.8554323"
         sodipodi:start="3.8344884"
         transform="translate(21.35701,895.49496)"
         d="m 51.017896,23.181537 c 0.18488,-0.222689 0.372086,-0.443435 0.561589,-0.662203 l 31.335966,27.144065 z"
         sodipodi:ry="41.457726"
         sodipodi:rx="41.457726"
         sodipodi:cy="49.663399"
         sodipodi:cx="82.915451"
         id="path3006"
         style="fill:#ff6600;fill-opacity:1;stroke:none"
         sodipodi:type="arc" />
    </g>
  </g>
  <g
     inkscape:groupmode="layer"
     id="layer2"
     inkscape:label="anim2"
     style="display:none">
    <path
       sodipodi:end="4.0648718"
       sodipodi:start="3.8344884"
       transform="translate(20.938245,32.873036)"
       d="m 51.017896,23.181537 a 41.457726,41.457726 0 0 1 6.889923,-6.584153 l 25.007632,33.066015 z"
       sodipodi:ry="41.457726"
       sodipodi:rx="41.457726"
       sodipodi:cy="49.663399"
       sodipodi:cx="82.915451"
       id="path3025"
       style="fill:#ffe6d5;fill-opacity:1;stroke:none;display:inline"
       sodipodi:type="arc" />
    <path
       sodipodi:end="4.0648718"
       sodipodi:start="3.8344884"
       sodipodi:type="arc"
       style="fill:#ffb380;fill-opacity:1;stroke:none;display:inline"
       id="path3027"
       sodipodi:cx="82.915451"
       sodipodi:cy="49.663399"
       sodipodi:rx="41.457726"
       sodipodi:ry="41.457726"
       d="m 51.017896,23.181537 a 41.457726,41.457726 0 0 1 6.889923,-6.584153 l 25.007632,33.066015 z"
       transform="translate(21.566393,40.201426)" />
    <path
       sodipodi:end="4.0648718"
       sodipodi:start="3.8344884"
       transform="translate(21.35701,43.132776)"
       d="m 51.017896,23.181537 a 41.457726,41.457726 0 0 1 6.889923,-6.584153 l 25.007632,33.066015 z"
       sodipodi:ry="41.457726"
       sodipodi:rx="41.457726"
       sodipodi:cy="49.663399"
       sodipodi:cx="82.915451"
       id="path3029"
       style="fill:#ff6600;fill-opacity:1;stroke:none;display:inline"
       sodipodi:type="arc" />
  </g>
  <g
     inkscape:groupmode="layer"
     id="layer4"
     inkscape:label="anim3"
     style="display:none">
    <g
       id="g3136">
      <path
         sodipodi:type="arc"
         style="fill:#ffe6d5;fill-opacity:1;stroke:none;display:inline"
         id="path3085"
         sodipodi:cx="82.915451"
         sodipodi:cy="49.663399"
         sodipodi:rx="41.457726"
         sodipodi:ry="41.457726"
         d="M 60.275306,14.933486 A 41.457726,41.457726 0 0 1 120.64037,32.471159 L 82.915451,49.663399 z"
         transform="translate(20.938245,32.873034)"
         sodipodi:start="4.134685"
         sodipodi:end="5.8555796" />
      <path
         transform="translate(21.566393,40.201424)"
         d="M 60.275306,14.933486 A 41.457726,41.457726 0 0 1 120.64037,32.471159 L 82.915451,49.663399 z"
         sodipodi:ry="41.457726"
         sodipodi:rx="41.457726"
         sodipodi:cy="49.663399"
         sodipodi:cx="82.915451"
         id="path3087"
         style="fill:#ffb380;fill-opacity:1;stroke:none;display:inline"
         sodipodi:type="arc"
         sodipodi:start="4.134685"
         sodipodi:end="5.8555796" />
      <path
         sodipodi:type="arc"
         style="fill:#ff6600;fill-opacity:1;stroke:none;display:inline"
         id="path3089"
         sodipodi:cx="82.915451"
         sodipodi:cy="49.663399"
         sodipodi:rx="41.457726"
         sodipodi:ry="41.457726"
         d="M 60.275306,14.933486 A 41.457726,41.457726 0 0 1 120.64037,32.471159 L 82.915451,49.663399 z"
         transform="translate(21.35701,43.132774)"
         sodipodi:start="4.134685"
         sodipodi:end="5.8555796" />
    </g>
  </g>
  <g
     inkscape:groupmode="layer"
     id="layer5"
     inkscape:label="anim4"
     style="display:none">
    <path
       sodipodi:type="arc"
       style="fill:#ffe6d5;fill-opacity:1;stroke:none;display:inline"
       id="path3134"
       sodipodi:cx="82.915451"
       sodipodi:cy="49.663399"
       sodipodi:rx="41.457726"
       sodipodi:ry="41.457726"
       d="M 65.986998,11.81937 A 41.457726,41.457726 0 0 1 123.83988,43.035088 L 82.915451,49.663399 z"
       transform="translate(20.938245,32.873039)"
       sodipodi:start="4.2917646"
       sodipodi:end="6.122615" />
    <path
       transform="translate(21.566393,40.201429)"
       d="M 65.986998,11.81937 A 41.457726,41.457726 0 0 1 123.83988,43.035088 L 82.915451,49.663399 z"
       sodipodi:ry="41.457726"
       sodipodi:rx="41.457726"
       sodipodi:cy="49.663399"
       sodipodi:cx="82.915451"
       id="path3136"
       style="fill:#ffb380;fill-opacity:1;stroke:none;display:inline"
       sodipodi:type="arc"
       sodipodi:start="4.2917646"
       sodipodi:end="6.122615" />
    <path
       sodipodi:type="arc"
       style="fill:#ff6600;fill-opacity:1;stroke:none;display:inline"
       id="path3138"
       sodipodi:cx="82.915451"
       sodipodi:cy="49.663399"
       sodipodi:rx="41.457726"
       sodipodi:ry="41.457726"
       d="M 65.986998,11.81937 A 41.457726,41.457726 0 0 1 123.83988,43.035088 L 82.915451,49.663399 z"
       transform="translate(21.35701,43.132779)"
       sodipodi:start="4.2917646"
       sodipodi:end="6.122615" />
    <path
       sodipodi:end="6.122615"
       sodipodi:start="4.2917646"
       transform="translate(20.938245,32.873039)"
       d="M 65.986998,11.81937 A 41.457726,41.457726 0 0 1 123.83988,43.035088 L 82.915451,49.663399 z"
       sodipodi:ry="41.457726"
       sodipodi:rx="41.457726"
       sodipodi:cy="49.663399"
       sodipodi:cx="82.915451"
       id="path3170"
       style="fill:#ffe6d5;fill-opacity:1;stroke:none;display:inline"
       sodipodi:type="arc" />
    <path
       sodipodi:end="6.122615"
       sodipodi:start="4.2917646"
       sodipodi:type="arc"
       style="fill:#ffb380;fill-opacity:1;stroke:none;display:inline"
       id="path3172"
       sodipodi:cx="82.915451"
       sodipodi:cy="49.663399"
       sodipodi:rx="41.457726"
       sodipodi:ry="41.457726"
       d="M 65.986998,11.81937 A 41.457726,41.457726 0 0 1 123.83988,43.035088 L 82.915451,49.663399 z"
       transform="translate(21.566393,40.201429)" />
    <path
       sodipodi:end="6.122615"
       sodipodi:start="4.2917646"
       transform="translate(21.35701,43.132779)"
       d="M 65.986998,11.81937 A 41.457726,41.457726 0 0 1 123.83988,43.035088 L 82.915451,49.663399 z"
       sodipodi:ry="41.457726"
       sodipodi:rx="41.457726"
       sodipodi:cy="49.663399"
       sodipodi:cx="82.915451"
       id="path3174"
       style="fill:#ff6600;fill-opacity:1;stroke:none;display:inline"
       sodipodi:type="arc" />
  </g>
  <g
     inkscape:groupmode="layer"
     id="layer6"
     inkscape:label="anim5"
     style="display:none">
    <path
       sodipodi:type="arc"
       style="fill:#ffe6d5;fill-opacity:1;stroke:none;display:inline"
       id="path3134-2"
       sodipodi:cx="82.915451"
       sodipodi:cy="49.663399"
       sodipodi:rx="41.457726"
       sodipodi:ry="41.457726"
       d="m 95.313003,10.102765 a 41.457726,41.457726 0 0 1 29.060177,39.560633 l -41.457729,10e-7 z"
       transform="translate(20.938245,32.873039)"
       sodipodi:start="5.0160763"
       sodipodi:end="6.2831853" />
    <path
       transform="translate(21.566393,40.201429)"
       d="m 95.313003,10.102765 a 41.457726,41.457726 0 0 1 29.060177,39.560633 l -41.457729,10e-7 z"
       sodipodi:ry="41.457726"
       sodipodi:rx="41.457726"
       sodipodi:cy="49.663399"
       sodipodi:cx="82.915451"
       id="path3136-3"
       style="fill:#ffb380;fill-opacity:1;stroke:none;display:inline"
       sodipodi:type="arc"
       sodipodi:start="5.0160763"
       sodipodi:end="6.2831853" />
    <path
       sodipodi:type="arc"
       style="fill:#ff6600;fill-opacity:1;stroke:none;display:inline"
       id="path3138-2"
       sodipodi:cx="82.915451"
       sodipodi:cy="49.663399"
       sodipodi:rx="41.457726"
       sodipodi:ry="41.457726"
       d="m 95.313003,10.102765 a 41.457726,41.457726 0 0 1 29.060177,39.560633 l -41.457729,10e-7 z"
       transform="translate(21.35701,43.132779)"
       sodipodi:start="5.0160763"
       sodipodi:end="6.2831853" />
  </g>
  <g
     inkscape:groupmode="layer"
     id="layer7"
     inkscape:label="anim6"
     style="display:none">
    <path
       sodipodi:end="6.4332836"
       sodipodi:start="5.6496308"
       transform="translate(20.938249,32.873035)"
       d="m 116.3274,25.119879 a 41.457726,41.457726 0 0 1 7.57964,30.742914 L 82.915451,49.663399 z"
       sodipodi:ry="41.457726"
       sodipodi:rx="41.457726"
       sodipodi:cy="49.663399"
       sodipodi:cx="82.915451"
       id="path3187"
       style="fill:#ffe6d5;fill-opacity:1;stroke:none;display:inline"
       sodipodi:type="arc" />
    <path
       sodipodi:end="6.4332836"
       sodipodi:start="5.6496308"
       sodipodi:type="arc"
       style="fill:#ffb380;fill-opacity:1;stroke:none;display:inline"
       id="path3189"
       sodipodi:cx="82.915451"
       sodipodi:cy="49.663399"
       sodipodi:rx="41.457726"
       sodipodi:ry="41.457726"
       d="m 116.3274,25.119879 a 41.457726,41.457726 0 0 1 7.57964,30.742914 L 82.915451,49.663399 z"
       transform="translate(21.566397,40.201424)" />
    <path
       sodipodi:end="6.4332836"
       sodipodi:start="5.6496308"
       transform="translate(21.357014,43.132774)"
       d="m 116.3274,25.119879 a 41.457726,41.457726 0 0 1 7.57964,30.742914 L 82.915451,49.663399 z"
       sodipodi:ry="41.457726"
       sodipodi:rx="41.457726"
       sodipodi:cy="49.663399"
       sodipodi:cx="82.915451"
       id="path3191"
       style="fill:#ff6600;fill-opacity:1;stroke:none;display:inline"
       sodipodi:type="arc" />
  </g>
  <g
     style="display:none"
     transform="translate(0,-852.36218)"
     id="g3145"
     inkscape:groupmode="layer"
     inkscape:label="anim1 cliped">
    <g
       id="g3147"
       clip-path="url(#clipPath3230)">
      <path
         sodipodi:type="arc"
         style="fill:#ffe6d5;fill-opacity:1;stroke:none"
         id="path3149"
         sodipodi:cx="82.915451"
         sodipodi:cy="49.663399"
         sodipodi:rx="41.457726"
         sodipodi:ry="41.457726"
         d="m 51.017896,23.181537 a 41.457726,41.457726 0 0 1 0.561589,-0.662203 l 31.335966,27.144065 z"
         transform="translate(20.938245,885.23522)"
         sodipodi:start="3.8344884"
         sodipodi:end="3.8554323" />
      <path
         transform="translate(21.566393,892.56361)"
         d="m 51.017896,23.181537 a 41.457726,41.457726 0 0 1 0.561589,-0.662203 l 31.335966,27.144065 z"
         sodipodi:ry="41.457726"
         sodipodi:rx="41.457726"
         sodipodi:cy="49.663399"
         sodipodi:cx="82.915451"
         id="path3151"
         style="fill:#ffb380;fill-opacity:1;stroke:none"
         sodipodi:type="arc"
         sodipodi:start="3.8344884"
         sodipodi:end="3.8554323" />
      <path
         sodipodi:type="arc"
         style="fill:#ff6600;fill-opacity:1;stroke:none"
         id="path3153"
         sodipodi:cx="82.915451"
         sodipodi:cy="49.663399"
         sodipodi:rx="41.457726"
         sodipodi:ry="41.457726"
         d="m 51.017896,23.181537 a 41.457726,41.457726 0 0 1 0.561589,-0.662203 l 31.335966,27.144065 z"
         transform="translate(21.35701,895.49496)"
         sodipodi:start="3.8344884"
         sodipodi:end="3.8554323" />
    </g>
  </g>
  <g
     style="display:none"
     inkscape:label="anim2 cliped"
     id="g3155"
     inkscape:groupmode="layer">
    <g
       id="g3261"
       clip-path="url(#clipPath3266)">
      <path
         sodipodi:end="4.0648718"
         sodipodi:start="3.8344884"
         transform="translate(20.938245,32.873036)"
         d="m 51.017896,23.181537 a 41.457726,41.457726 0 0 1 6.889923,-6.584153 l 25.007632,33.066015 z"
         sodipodi:ry="41.457726"
         sodipodi:rx="41.457726"
         sodipodi:cy="49.663399"
         sodipodi:cx="82.915451"
         id="path3157"
         style="fill:#ffe6d5;fill-opacity:1;stroke:none;display:inline"
         sodipodi:type="arc" />
      <path
         sodipodi:end="4.0648718"
         sodipodi:start="3.8344884"
         sodipodi:type="arc"
         style="fill:#ffb380;fill-opacity:1;stroke:none;display:inline"
         id="path3159"
         sodipodi:cx="82.915451"
         sodipodi:cy="49.663399"
         sodipodi:rx="41.457726"
         sodipodi:ry="41.457726"
         d="m 51.017896,23.181537 a 41.457726,41.457726 0 0 1 6.889923,-6.584153 l 25.007632,33.066015 z"
         transform="translate(21.566393,40.201426)" />
      <path
         sodipodi:end="4.0648718"
         sodipodi:start="3.8344884"
         transform="translate(21.35701,43.132776)"
         d="m 51.017896,23.181537 a 41.457726,41.457726 0 0 1 6.889923,-6.584153 l 25.007632,33.066015 z"
         sodipodi:ry="41.457726"
         sodipodi:rx="41.457726"
         sodipodi:cy="49.663399"
         sodipodi:cx="82.915451"
         id="path3161"
         style="fill:#ff6600;fill-opacity:1;stroke:none;display:inline"
         sodipodi:type="arc" />
    </g>
  </g>
  <g
     style="display:none"
     inkscape:label="anim3 cliped"
     id="g3163"
     inkscape:groupmode="layer">
    <g
       id="g3165"
       clip-path="url(#clipPath3277)">
      <path
         sodipodi:end="5.8555796"
         sodipodi:start="4.134685"
         transform="translate(20.938245,32.873034)"
         d="M 60.275306,14.933486 A 41.457726,41.457726 0 0 1 120.64037,32.471159 L 82.915451,49.663399 z"
         sodipodi:ry="41.457726"
         sodipodi:rx="41.457726"
         sodipodi:cy="49.663399"
         sodipodi:cx="82.915451"
         id="path3167"
         style="fill:#ffe6d5;fill-opacity:1;stroke:none;display:inline"
         sodipodi:type="arc" />
      <path
         sodipodi:end="5.8555796"
         sodipodi:start="4.134685"
         sodipodi:type="arc"
         style="fill:#ffb380;fill-opacity:1;stroke:none;display:inline"
         id="path3169"
         sodipodi:cx="82.915451"
         sodipodi:cy="49.663399"
         sodipodi:rx="41.457726"
         sodipodi:ry="41.457726"
         d="M 60.275306,14.933486 A 41.457726,41.457726 0 0 1 120.64037,32.471159 L 82.915451,49.663399 z"
         transform="translate(21.566393,40.201424)" />
      <path
         sodipodi:end="5.8555796"
         sodipodi:start="4.134685"
         transform="translate(21.35701,43.132774)"
         d="M 60.275306,14.933486 A 41.457726,41.457726 0 0 1 120.64037,32.471159 L 82.915451,49.663399 z"
         sodipodi:ry="41.457726"
         sodipodi:rx="41.457726"
         sodipodi:cy="49.663399"
         sodipodi:cx="82.915451"
         id="path3171"
         style="fill:#ff6600;fill-opacity:1;stroke:none;display:inline"
         sodipodi:type="arc" />
    </g>
  </g>
  <g
     style="display:none"
     inkscape:label="anim4 cliped"
     id="g3173"
     inkscape:groupmode="layer">
    <g
       id="g3288"
       clip-path="url(#clipPath3296)">
      <path
         sodipodi:type="arc"
         style="fill:#ffe6d5;fill-opacity:1;stroke:none;display:inline"
         id="path3175"
         sodipodi:cx="82.915451"
         sodipodi:cy="49.663399"
         sodipodi:rx="41.457726"
         sodipodi:ry="41.457726"
         d="M 65.986998,11.81937 A 41.457726,41.457726 0 0 1 123.83988,43.035088 L 82.915451,49.663399 z"
         transform="translate(20.938245,32.873039)"
         sodipodi:start="4.2917646"
         sodipodi:end="6.122615" />
      <path
         transform="translate(21.566393,40.201429)"
         d="M 65.986998,11.81937 A 41.457726,41.457726 0 0 1 123.83988,43.035088 L 82.915451,49.663399 z"
         sodipodi:ry="41.457726"
         sodipodi:rx="41.457726"
         sodipodi:cy="49.663399"
         sodipodi:cx="82.915451"
         id="path3177"
         style="fill:#ffb380;fill-opacity:1;stroke:none;display:inline"
         sodipodi:type="arc"
         sodipodi:start="4.2917646"
         sodipodi:end="6.122615" />
      <path
         sodipodi:type="arc"
         style="fill:#ff6600;fill-opacity:1;stroke:none;display:inline"
         id="path3179"
         sodipodi:cx="82.915451"
         sodipodi:cy="49.663399"
         sodipodi:rx="41.457726"
         sodipodi:ry="41.457726"
         d="M 65.986998,11.81937 A 41.457726,41.457726 0 0 1 123.83988,43.035088 L 82.915451,49.663399 z"
         transform="translate(21.35701,43.132779)"
         sodipodi:start="4.2917646"
         sodipodi:end="6.122615" />
      <path
         sodipodi:end="6.122615"
         sodipodi:start="4.2917646"
         transform="translate(20.938245,32.873039)"
         d="M 65.986998,11.81937 A 41.457726,41.457726 0 0 1 123.83988,43.035088 L 82.915451,49.663399 z"
         sodipodi:ry="41.457726"
         sodipodi:rx="41.457726"
         sodipodi:cy="49.663399"
         sodipodi:cx="82.915451"
         id="path3181"
         style="fill:#ffe6d5;fill-opacity:1;stroke:none;display:inline"
         sodipodi:type="arc" />
      <path
         sodipodi:end="6.122615"
         sodipodi:start="4.2917646"
         sodipodi:type="arc"
         style="fill:#ffb380;fill-opacity:1;stroke:none;display:inline"
         id="path3183"
         sodipodi:cx="82.915451"
         sodipodi:cy="49.663399"
         sodipodi:rx="41.457726"
         sodipodi:ry="41.457726"
         d="M 65.986998,11.81937 A 41.457726,41.457726 0 0 1 123.83988,43.035088 L 82.915451,49.663399 z"
         transform="translate(21.566393,40.201429)" />
      <path
         sodipodi:end="6.122615"
         sodipodi:start="4.2917646"
         transform="translate(21.35701,43.132779)"
         d="M 65.986998,11.81937 A 41.457726,41.457726 0 0 1 123.83988,43.035088 L 82.915451,49.663399 z"
         sodipodi:ry="41.457726"
         sodipodi:rx="41.457726"
         sodipodi:cy="49.663399"
         sodipodi:cx="82.915451"
         id="path3185"
         style="fill:#ff6600;fill-opacity:1;stroke:none;display:inline"
         sodipodi:type="arc" />
    </g>
  </g>
  <g
     style="display:inline"
     inkscape:label="anim5 cliped"
     id="g3187"
     inkscape:groupmode="layer">
    <g
       id="g3307"
       clip-path="url(#clipPath3312)">
      <path
         sodipodi:type="arc"
         style="fill:#ffe6d5;fill-opacity:1;stroke:none;display:inline"
         id="path3190"
         sodipodi:cx="82.915451"
         sodipodi:cy="49.663399"
         sodipodi:rx="41.457726"
         sodipodi:ry="41.457726"
         d="m 95.313003,10.102765 a 41.457726,41.457726 0 0 1 29.060177,39.560633 l -41.457729,10e-7 z"
         transform="translate(20.938245,32.873039)"
         sodipodi:start="5.0160763"
         sodipodi:end="6.2831853" />
      <path
         transform="translate(21.566393,40.201429)"
         d="m 95.313003,10.102765 a 41.457726,41.457726 0 0 1 29.060177,39.560633 l -41.457729,10e-7 z"
         sodipodi:ry="41.457726"
         sodipodi:rx="41.457726"
         sodipodi:cy="49.663399"
         sodipodi:cx="82.915451"
         id="path3192"
         style="fill:#ffb380;fill-opacity:1;stroke:none;display:inline"
         sodipodi:type="arc"
         sodipodi:start="5.0160763"
         sodipodi:end="6.2831853" />
      <path
         sodipodi:type="arc"
         style="fill:#ff6600;fill-opacity:1;stroke:none;display:inline"
         id="path3194"
         sodipodi:cx="82.915451"
         sodipodi:cy="49.663399"
         sodipodi:rx="41.457726"
         sodipodi:ry="41.457726"
         d="m 95.313003,10.102765 a 41.457726,41.457726 0 0 1 29.060177,39.560633 l -41.457729,10e-7 z"
         transform="translate(21.35701,43.132779)"
         sodipodi:start="5.0160763"
         sodipodi:end="6.2831853" />
    </g>
  </g>
  <g
     style="display:none"
     inkscape:label="anim6 cliped"
     id="g3196"
     inkscape:groupmode="layer">
    <g
       id="g3330"
       clip-path="url(#clipPath3335)">
      <path
         sodipodi:end="6.4332836"
         sodipodi:start="5.6496308"
         transform="translate(20.938249,32.873035)"
         d="m 116.3274,25.119879 a 41.457726,41.457726 0 0 1 7.57964,30.742914 L 82.915451,49.663399 z"
         sodipodi:ry="41.457726"
         sodipodi:rx="41.457726"
         sodipodi:cy="49.663399"
         sodipodi:cx="82.915451"
         id="path3198"
         style="fill:#ffe6d5;fill-opacity:1;stroke:none;display:inline"
         sodipodi:type="arc" />
      <path
         sodipodi:end="6.4332836"
         sodipodi:start="5.6496308"
         sodipodi:type="arc"
         style="fill:#ffb380;fill-opacity:1;stroke:none;display:inline"
         id="path3200"
         sodipodi:cx="82.915451"
         sodipodi:cy="49.663399"
         sodipodi:rx="41.457726"
         sodipodi:ry="41.457726"
         d="m 116.3274,25.119879 a 41.457726,41.457726 0 0 1 7.57964,30.742914 L 82.915451,49.663399 z"
         transform="translate(21.566397,40.201424)" />
      <path
         sodipodi:end="6.4332836"
         sodipodi:start="5.6496308"
         transform="translate(21.357014,43.132774)"
         d="m 116.3274,25.119879 a 41.457726,41.457726 0 0 1 7.57964,30.742914 L 82.915451,49.663399 z"
         sodipodi:ry="41.457726"
         sodipodi:rx="41.457726"
         sodipodi:cy="49.663399"
         sodipodi:cx="82.915451"
         id="path3202"
         style="fill:#ff6600;fill-opacity:1;stroke:none;display:inline"
         sodipodi:type="arc" />
    </g>
  </g>
  <g
     inkscape:groupmode="layer"
     id="layer8"
     inkscape:label="clip"
     style="display:none">
    <path
       style="fill:#00ff00;fill-opacity:1;stroke:none"
       d="m 16.28125,25.78125 0,113.25 152.71875,0 0,-113.25 -152.71875,0 z M 92.84375,58.375 c 15.75346,0 28.53125,12.777789 28.53125,28.53125 0,15.75346 -12.77779,28.53125 -28.53125,28.53125 -15.753461,0 -28.53125,-12.77779 -28.53125,-28.53125 0,-15.753461 12.777789,-28.53125 28.53125,-28.53125 z"
       id="rect3111"
       inkscape:connector-curvature="0" />
  </g>
  <g
     inkscape:groupmode="layer"
     id="layer3"
     inkscape:label="testCover"
     style="display:none">
    <path
       transform="matrix(0.68803015,0,0,0.68803015,35.794976,52.738509)"
       d="m 124.37318,49.663399 a 41.457726,41.457726 0 1 1 -82.915454,0 41.457726,41.457726 0 1 1 82.915454,0 z"
       sodipodi:ry="41.457726"
       sodipodi:rx="41.457726"
       sodipodi:cy="49.663399"
       sodipodi:cx="82.915451"
       id="path3012"
       style="fill:#800080;fill-opacity:1;stroke:none;display:inline"
       sodipodi:type="arc" />
  </g>
  <g
     inkscape:groupmode="layer"
     id="layer9"
     inkscape:label="export">
    <path
       style="fill:#00ffcd;fill-opacity:0;stroke:none"
       d="m 68.228592,39.818672 c 26.552582,0 53.105168,0 79.657748,0 0,20.145327 0,40.290655 0,60.435978 -26.55258,0 -53.105166,0 -79.657748,0 0,-20.145323 0,-40.290651 0,-60.435978 z"
       id="rect3340"
       inkscape:connector-curvature="0"
       inkscape:export-filename="/media/henry/Work/Projects/MoonWar/Art/effect/slash5.png"
       inkscape:export-xdpi="90"
       inkscape:export-ydpi="90" />
  </g>
</svg>
