<?xml version="1.0" encoding="UTF-8" standalone="no"?>
<!-- Created with Inkscape (http://www.inkscape.org/) -->

<svg
   xmlns:dc="http://purl.org/dc/elements/1.1/"
   xmlns:cc="http://creativecommons.org/ns#"
   xmlns:rdf="http://www.w3.org/1999/02/22-rdf-syntax-ns#"
   xmlns:svg="http://www.w3.org/2000/svg"
   xmlns="http://www.w3.org/2000/svg"
   xmlns:sodipodi="http://sodipodi.sourceforge.net/DTD/sodipodi-0.dtd"
   xmlns:inkscape="http://www.inkscape.org/namespaces/inkscape"
   width="20"
   height="20"
   id="svg3792"
   version="1.1"
   inkscape:version="0.48.4 r9939"
   sodipodi:docname="bouncer.svg"
   inkscape:export-filename="/media/henry/Work/Projects/MoonWar/Art/character/bouncer.png"
   inkscape:export-xdpi="40.542526"
   inkscape:export-ydpi="40.542526">
  <defs
     id="defs3794" />
  <sodipodi:namedview
     id="base"
     pagecolor="#ffffff"
     bordercolor="#666666"
     borderopacity="1.0"
     inkscape:pageopacity="0.0"
     inkscape:pageshadow="2"
     inkscape:zoom="15.839192"
     inkscape:cx="19.105412"
     inkscape:cy="12.897328"
     inkscape:document-units="px"
     inkscape:current-layer="layer1"
     showgrid="false"
     inkscape:window-width="1301"
     inkscape:window-height="744"
     inkscape:window-x="65"
     inkscape:window-y="24"
     inkscape:window-maximized="1" />
  <metadata
     id="metadata3797">
    <rdf:RDF>
      <cc:Work
         rdf:about="">
        <dc:format>image/svg+xml</dc:format>
        <dc:type
           rdf:resource="http://purl.org/dc/dcmitype/StillImage" />
        <dc:title></dc:title>
      </cc:Work>
    </rdf:RDF>
  </metadata>
  <g
     inkscape:label="Layer 1"
     inkscape:groupmode="layer"
     id="layer1"
     transform="translate(0,-1032.3622)">
    <path
       sodipodi:type="arc"
       style="fill:#989fb9;fill-opacity:1;stroke:none"
       id="path3802"
       sodipodi:cx="-28.284271"
       sodipodi:cy="-2.223356"
       sodipodi:rx="20.455589"
       sodipodi:ry="20.455589"
       d="m -7.8286819,-2.223356 c 0,11.29731 -9.1582791,20.455589 -20.4555891,20.455589 -11.29731,0 -20.45559,-9.158279 -20.45559,-20.455589 0,-11.29731 9.15828,-20.455589 20.45559,-20.455589 11.29731,0 20.4555891,9.158279 20.4555891,20.455589 z"
       transform="matrix(0.48886394,0,0,0.48886394,23.827161,1043.4491)"
       inkscape:export-filename="/media/henry/Work/Projects/MoonWar/Art/character/path4349.png"
       inkscape:export-xdpi="89.82"
       inkscape:export-ydpi="89.82" />
    <path
       sodipodi:nodetypes="sssss"
       inkscape:connector-curvature="0"
       id="path3828"
       d="m 48.679235,1071.9904 c 0.989623,-0.7732 3.264346,-2.0269 6.288288,-5.078 2.754097,-2.7788 6.16031,-1.5228 4.767681,2.8916 -2.777523,8.8045 -9.547761,7.5012 -10.598595,5.4602 -1.150265,-2.2341 -3.18336,-1.1441 -0.457374,-3.2738 z"
       style="fill:#6f799c;fill-opacity:1;stroke:none" />
    <path
       style="fill:#000000;fill-opacity:0.5140187;stroke:none"
       d="m 13.783421,1034.4634 c -1.892451,-2.8102 -7.5777112,-1.7074 -10.1583408,0.3374 -2.5806297,2.0448 -4.7413413,7.5741 -2.2525286,9.8373 0.6327366,0.5754 1.6896457,-0.3885 2.4354549,-0.807 3.5507824,-1.9927 6.8779785,-4.6378 9.3204035,-7.8956 0.322161,-0.4298 0.955006,-1.0266 0.655011,-1.4721 z"
       id="path3832"
       inkscape:connector-curvature="0"
       sodipodi:nodetypes="asaaaa"
       inkscape:export-filename="/media/henry/Work/Projects/MoonWar/Art/character/path4349.png"
       inkscape:export-xdpi="89.82"
       inkscape:export-ydpi="89.82" />
    <path
       sodipodi:nodetypes="asaaaa"
       inkscape:connector-curvature="0"
       id="path4343"
       d="m 12.365814,1034.725 c -0.674685,-1.0019 -2.7015612,-0.6086 -3.6215923,0.1204 -0.9200312,0.7289 -1.6903556,2.7002 -0.8030585,3.507 0.2255796,0.2052 0.6023827,-0.1385 0.8682743,-0.2876 1.2659045,-0.7105 2.4520975,-1.6535 3.3228565,-2.8149 0.114855,-0.1532 0.340473,-0.3661 0.23352,-0.5249 z"
       style="fill:#e83b52;fill-opacity:1;stroke:none"
       inkscape:export-filename="/media/henry/Work/Projects/MoonWar/Art/character/path4349.png"
       inkscape:export-xdpi="89.82"
       inkscape:export-ydpi="89.82" />
    <path
       style="fill:#e8344c;fill-opacity:1;stroke:none"
       d="m 6.4311677,1039.397 c -0.674685,-1.0019 -2.7015611,-0.6086 -3.6215922,0.1204 -0.9200312,0.7289 -1.6903556,2.7002 -0.8030585,3.507 0.2255796,0.2052 0.6023827,-0.1385 0.8682743,-0.2876 1.2659044,-0.7105 2.4520974,-1.6535 3.3228564,-2.8149 0.114855,-0.1532 0.340473,-0.3661 0.23352,-0.5249 z"
       id="path4345"
       inkscape:connector-curvature="0"
       sodipodi:nodetypes="asaaaa"
       inkscape:export-filename="/media/henry/Work/Projects/MoonWar/Art/character/path4349.png"
       inkscape:export-xdpi="89.82"
       inkscape:export-ydpi="89.82" />
    <path
       sodipodi:nodetypes="asaaaa"
       inkscape:connector-curvature="0"
       id="path4349"
       d="m 16.56134,1035.7261 c -2.986319,-0.9515 -4.989195,3.5328 -7.5698244,5.5776 -2.5806297,2.0448 -7.2823162,3.1035 -6.9244841,6.1755 0.3948031,3.3893 5.6053627,5.2071 9.0014465,4.8751 3.714393,-0.3632 7.593393,-3.5516 8.625923,-7.138 0.921652,-3.2013 0.04104,-8.4788 -3.133061,-9.4902 z"
       style="fill:#000000;fill-opacity:0.5140187;stroke:none"
       inkscape:export-xdpi="89.82"
       inkscape:export-ydpi="89.82" />
  </g>
</svg>
