<?xml version="1.0" encoding="UTF-8" standalone="no"?>
<!-- Created with Inkscape (http://www.inkscape.org/) -->

<svg
   xmlns:dc="http://purl.org/dc/elements/1.1/"
   xmlns:cc="http://creativecommons.org/ns#"
   xmlns:rdf="http://www.w3.org/1999/02/22-rdf-syntax-ns#"
   xmlns:svg="http://www.w3.org/2000/svg"
   xmlns="http://www.w3.org/2000/svg"
   xmlns:sodipodi="http://sodipodi.sourceforge.net/DTD/sodipodi-0.dtd"
   xmlns:inkscape="http://www.inkscape.org/namespaces/inkscape"
   width="8"
   height="8"
   id="svg2"
   version="1.1"
   inkscape:version="0.48.4 r9939"
   sodipodi:docname="New document 1">
  <defs
     id="defs4" />
  <sodipodi:namedview
     id="base"
     pagecolor="#ffffff"
     bordercolor="#666666"
     borderopacity="1.0"
     inkscape:pageopacity="0.0"
     inkscape:pageshadow="2"
     inkscape:zoom="11.2"
     inkscape:cx="36.139717"
     inkscape:cy="-2.7659986"
     inkscape:document-units="px"
     inkscape:current-layer="layer1"
     showgrid="false"
     inkscape:window-width="1301"
     inkscape:window-height="744"
     inkscape:window-x="65"
     inkscape:window-y="24"
     inkscape:window-maximized="1" />
  <metadata
     id="metadata7">
    <rdf:RDF>
      <cc:Work
         rdf:about="">
        <dc:format>image/svg+xml</dc:format>
        <dc:type
           rdf:resource="http://purl.org/dc/dcmitype/StillImage" />
        <dc:title></dc:title>
      </cc:Work>
    </rdf:RDF>
  </metadata>
  <g
     inkscape:label="Layer 1"
     inkscape:groupmode="layer"
     id="layer1"
     transform="translate(0,-1044.3622)">
    <g
       id="g3826">
      <path
         transform="matrix(1.0067415,0,0,1.0067415,1.8202247,1046.0161)"
         d="m 6.1383929,2.3303571 a 3.9732144,3.9732144 0 1 1 -7.9464288,0 3.9732144,3.9732144 0 1 1 7.9464288,0 z"
         sodipodi:ry="3.9732144"
         sodipodi:rx="3.9732144"
         sodipodi:cy="2.3303571"
         sodipodi:cx="2.1651785"
         id="path2985"
         style="fill:#ca172f;fill-opacity:1;stroke:none"
         sodipodi:type="arc" />
      <path
         sodipodi:type="arc"
         style="fill:#ffffff;fill-opacity:0.65420562;stroke:none"
         id="path3755"
         sodipodi:cx="2.1651785"
         sodipodi:cy="2.3303571"
         sodipodi:rx="3.9732144"
         sodipodi:ry="3.9732144"
         d="m 6.1383929,2.3303571 a 3.9732144,3.9732144 0 1 1 -7.9464288,0 3.9732144,3.9732144 0 1 1 7.9464288,0 z"
         transform="matrix(0.39719777,0.32836482,-0.22711923,0.27472873,5.0260226,1045.5542)" />
    </g>
    <g
       id="g3810">
      <path
         sodipodi:type="arc"
         style="fill:#ca172f;fill-opacity:1;stroke:none"
         id="path3757"
         sodipodi:cx="2.1651785"
         sodipodi:cy="2.3303571"
         sodipodi:rx="3.9732144"
         sodipodi:ry="3.9732144"
         d="m 6.1383929,2.3303571 a 3.9732144,3.9732144 0 1 1 -7.9464288,0 3.9732144,3.9732144 0 1 1 7.9464288,0 z"
         transform="matrix(1.0067415,0,0,1.0067415,11.606078,1046.0161)" />
      <path
         transform="matrix(0.39719777,0.32836482,-0.22711923,0.27472873,14.811875,1045.5542)"
         d="m 6.1383929,2.3303571 a 3.9732144,3.9732144 0 1 1 -7.9464288,0 3.9732144,3.9732144 0 1 1 7.9464288,0 z"
         sodipodi:ry="3.9732144"
         sodipodi:rx="3.9732144"
         sodipodi:cy="2.3303571"
         sodipodi:cx="2.1651785"
         id="path3759"
         style="fill:#ffffff;fill-opacity:0.65420562;stroke:none"
         sodipodi:type="arc" />
      <path
         transform="matrix(1.0067415,0,0,1.0067415,11.606078,1046.0161)"
         d="m 6.1383929,2.3303571 a 3.9732144,3.9732144 0 1 1 -7.9464288,0 3.9732144,3.9732144 0 1 1 7.9464288,0 z"
         sodipodi:ry="3.9732144"
         sodipodi:rx="3.9732144"
         sodipodi:cy="2.3303571"
         sodipodi:cx="2.1651785"
         id="path3761"
         style="fill:#17ca1f;fill-opacity:1;stroke:none"
         sodipodi:type="arc" />
      <path
         sodipodi:type="arc"
         style="fill:#ffffff;fill-opacity:0.65420562;stroke:none"
         id="path3763"
         sodipodi:cx="2.1651785"
         sodipodi:cy="2.3303571"
         sodipodi:rx="3.9732144"
         sodipodi:ry="3.9732144"
         d="m 6.1383929,2.3303571 a 3.9732144,3.9732144 0 1 1 -7.9464288,0 3.9732144,3.9732144 0 1 1 7.9464288,0 z"
         transform="matrix(0.39719777,0.32836482,-0.22711923,0.27472873,14.811875,1045.5542)" />
      <path
         sodipodi:type="arc"
         style="fill:#ca172f;fill-opacity:1;stroke:none"
         id="path3765"
         sodipodi:cx="2.1651785"
         sodipodi:cy="2.3303571"
         sodipodi:rx="3.9732144"
         sodipodi:ry="3.9732144"
         d="m 6.1383929,2.3303571 a 3.9732144,3.9732144 0 1 1 -7.9464288,0 3.9732144,3.9732144 0 1 1 7.9464288,0 z"
         transform="matrix(1.0067415,0,0,1.0067415,11.606078,1046.0161)" />
      <path
         transform="matrix(0.39719777,0.32836482,-0.22711923,0.27472873,14.811875,1045.5542)"
         d="m 6.1383929,2.3303571 a 3.9732144,3.9732144 0 1 1 -7.9464288,0 3.9732144,3.9732144 0 1 1 7.9464288,0 z"
         sodipodi:ry="3.9732144"
         sodipodi:rx="3.9732144"
         sodipodi:cy="2.3303571"
         sodipodi:cx="2.1651785"
         id="path3767"
         style="fill:#ffffff;fill-opacity:0.65420562;stroke:none"
         sodipodi:type="arc" />
      <path
         transform="matrix(1.0067415,0,0,1.0067415,11.606078,1046.0161)"
         d="m 6.1383929,2.3303571 a 3.9732144,3.9732144 0 1 1 -7.9464288,0 3.9732144,3.9732144 0 1 1 7.9464288,0 z"
         sodipodi:ry="3.9732144"
         sodipodi:rx="3.9732144"
         sodipodi:cy="2.3303571"
         sodipodi:cx="2.1651785"
         id="path3769"
         style="fill:#ca172f;fill-opacity:1;stroke:none"
         sodipodi:type="arc" />
      <path
         sodipodi:type="arc"
         style="fill:#ffffff;fill-opacity:0.65420562;stroke:none"
         id="path3771"
         sodipodi:cx="2.1651785"
         sodipodi:cy="2.3303571"
         sodipodi:rx="3.9732144"
         sodipodi:ry="3.9732144"
         d="m 6.1383929,2.3303571 a 3.9732144,3.9732144 0 1 1 -7.9464288,0 3.9732144,3.9732144 0 1 1 7.9464288,0 z"
         transform="matrix(0.39719777,0.32836482,-0.22711923,0.27472873,14.811875,1045.5542)" />
      <path
         sodipodi:type="arc"
         style="fill:#ca172f;fill-opacity:1;stroke:none"
         id="path3773"
         sodipodi:cx="2.1651785"
         sodipodi:cy="2.3303571"
         sodipodi:rx="3.9732144"
         sodipodi:ry="3.9732144"
         d="m 6.1383929,2.3303571 a 3.9732144,3.9732144 0 1 1 -7.9464288,0 3.9732144,3.9732144 0 1 1 7.9464288,0 z"
         transform="matrix(1.0067415,0,0,1.0067415,11.606078,1046.0161)" />
      <path
         transform="matrix(0.39719777,0.32836482,-0.22711923,0.27472873,14.811875,1045.5542)"
         d="m 6.1383929,2.3303571 a 3.9732144,3.9732144 0 1 1 -7.9464288,0 3.9732144,3.9732144 0 1 1 7.9464288,0 z"
         sodipodi:ry="3.9732144"
         sodipodi:rx="3.9732144"
         sodipodi:cy="2.3303571"
         sodipodi:cx="2.1651785"
         id="path3775"
         style="fill:#ffffff;fill-opacity:0.65420562;stroke:none"
         sodipodi:type="arc" />
      <path
         transform="matrix(1.0067415,0,0,1.0067415,11.606078,1046.0161)"
         d="m 6.1383929,2.3303571 a 3.9732144,3.9732144 0 1 1 -7.9464288,0 3.9732144,3.9732144 0 1 1 7.9464288,0 z"
         sodipodi:ry="3.9732144"
         sodipodi:rx="3.9732144"
         sodipodi:cy="2.3303571"
         sodipodi:cx="2.1651785"
         id="path3777"
         style="fill:#ca172f;fill-opacity:1;stroke:none"
         sodipodi:type="arc" />
      <path
         sodipodi:type="arc"
         style="fill:#ffffff;fill-opacity:0.65420562;stroke:none"
         id="path3779"
         sodipodi:cx="2.1651785"
         sodipodi:cy="2.3303571"
         sodipodi:rx="3.9732144"
         sodipodi:ry="3.9732144"
         d="m 6.1383929,2.3303571 a 3.9732144,3.9732144 0 1 1 -7.9464288,0 3.9732144,3.9732144 0 1 1 7.9464288,0 z"
         transform="matrix(0.39719777,0.32836482,-0.22711923,0.27472873,14.811875,1045.5542)" />
      <path
         sodipodi:type="arc"
         style="fill:#17ca84;fill-opacity:1;stroke:none"
         id="path3781"
         sodipodi:cx="2.1651785"
         sodipodi:cy="2.3303571"
         sodipodi:rx="3.9732144"
         sodipodi:ry="3.9732144"
         d="m 6.1383929,2.3303571 a 3.9732144,3.9732144 0 1 1 -7.9464288,0 3.9732144,3.9732144 0 1 1 7.9464288,0 z"
         transform="matrix(1.0067415,0,0,1.0067415,11.606078,1046.0161)" />
      <path
         transform="matrix(0.39719777,0.32836482,-0.22711923,0.27472873,14.811875,1045.5542)"
         d="m 6.1383929,2.3303571 a 3.9732144,3.9732144 0 1 1 -7.9464288,0 3.9732144,3.9732144 0 1 1 7.9464288,0 z"
         sodipodi:ry="3.9732144"
         sodipodi:rx="3.9732144"
         sodipodi:cy="2.3303571"
         sodipodi:cx="2.1651785"
         id="path3783"
         style="fill:#ffffff;fill-opacity:0.65420562;stroke:none"
         sodipodi:type="arc" />
    </g>
    <g
       id="g3789">
      <path
         transform="matrix(1.0067415,0,0,1.0067415,30.546438,1046.0161)"
         d="m 6.1383929,2.3303571 a 3.9732144,3.9732144 0 1 1 -7.9464288,0 3.9732144,3.9732144 0 1 1 7.9464288,0 z"
         sodipodi:ry="3.9732144"
         sodipodi:rx="3.9732144"
         sodipodi:cy="2.3303571"
         sodipodi:cx="2.1651785"
         id="path3785"
         style="fill:#173dca;fill-opacity:1;stroke:none"
         sodipodi:type="arc" />
      <path
         sodipodi:type="arc"
         style="fill:#ffffff;fill-opacity:0.65420562;stroke:none"
         id="path3787"
         sodipodi:cx="2.1651785"
         sodipodi:cy="2.3303571"
         sodipodi:rx="3.9732144"
         sodipodi:ry="3.9732144"
         d="m 6.1383929,2.3303571 a 3.9732144,3.9732144 0 1 1 -7.9464288,0 3.9732144,3.9732144 0 1 1 7.9464288,0 z"
         transform="matrix(0.39719777,0.32836482,-0.22711923,0.27472873,33.752235,1045.5542)" />
    </g>
    <path
       transform="matrix(1.0067415,0,0,1.0067415,40.647964,1046.0161)"
       d="m 6.1383929,2.3303571 a 3.9732144,3.9732144 0 1 1 -7.9464288,0 3.9732144,3.9732144 0 1 1 7.9464288,0 z"
       sodipodi:ry="3.9732144"
       sodipodi:rx="3.9732144"
       sodipodi:cy="2.3303571"
       sodipodi:cx="2.1651785"
       id="path3793"
       style="fill:#178eca;fill-opacity:1;stroke:none"
       sodipodi:type="arc" />
    <path
       sodipodi:type="arc"
       style="fill:#ffffff;fill-opacity:0.65420562;stroke:none"
       id="path3795"
       sodipodi:cx="2.1651785"
       sodipodi:cy="2.3303571"
       sodipodi:rx="3.9732144"
       sodipodi:ry="3.9732144"
       d="m 6.1383929,2.3303571 a 3.9732144,3.9732144 0 1 1 -7.9464288,0 3.9732144,3.9732144 0 1 1 7.9464288,0 z"
       transform="matrix(0.39719777,0.32836482,-0.22711923,0.27472873,43.853761,1045.5542)" />
    <g
       id="g3838">
      <path
         sodipodi:type="arc"
         style="fill:#ca7b17;fill-opacity:1;stroke:none"
         id="path3832"
         sodipodi:cx="2.1651785"
         sodipodi:cy="2.3303571"
         sodipodi:rx="3.9732144"
         sodipodi:ry="3.9732144"
         d="m 6.1383929,2.3303571 a 3.9732144,3.9732144 0 1 1 -7.9464288,0 3.9732144,3.9732144 0 1 1 7.9464288,0 z"
         transform="matrix(1.0067415,0,0,1.0067415,21.260724,1046.0161)" />
      <path
         transform="matrix(0.39719777,0.32836482,-0.22711923,0.27472873,24.466521,1045.5542)"
         d="m 6.1383929,2.3303571 a 3.9732144,3.9732144 0 1 1 -7.9464288,0 3.9732144,3.9732144 0 1 1 7.9464288,0 z"
         sodipodi:ry="3.9732144"
         sodipodi:rx="3.9732144"
         sodipodi:cy="2.3303571"
         sodipodi:cx="2.1651785"
         id="path3834"
         style="fill:#ffffff;fill-opacity:0.65420562;stroke:none"
         sodipodi:type="arc" />
    </g>
  </g>
</svg>
