<?xml version="1.0" encoding="UTF-8" standalone="no"?>
<!-- Created with Inkscape (http://www.inkscape.org/) -->

<svg
   xmlns:dc="http://purl.org/dc/elements/1.1/"
   xmlns:cc="http://creativecommons.org/ns#"
   xmlns:rdf="http://www.w3.org/1999/02/22-rdf-syntax-ns#"
   xmlns:svg="http://www.w3.org/2000/svg"
   xmlns="http://www.w3.org/2000/svg"
   xmlns:sodipodi="http://sodipodi.sourceforge.net/DTD/sodipodi-0.dtd"
   xmlns:inkscape="http://www.inkscape.org/namespaces/inkscape"
   width="50"
   height="10"
   id="svg2"
   version="1.1"
   inkscape:version="0.48.3.1 r9886"
   sodipodi:docname="bullet.svg"
   inkscape:export-filename="/media/henry/Work/Projects/MoonWar/Art/character/bullet.png"
   inkscape:export-xdpi="90"
   inkscape:export-ydpi="90">
  <defs
     id="defs4" />
  <sodipodi:namedview
     id="base"
     pagecolor="#ffffff"
     bordercolor="#666666"
     borderopacity="1.0"
     inkscape:pageopacity="0.0"
     inkscape:pageshadow="2"
     inkscape:zoom="4"
     inkscape:cx="57.796109"
     inkscape:cy="-25.809434"
     inkscape:document-units="px"
     inkscape:current-layer="layer1"
     showgrid="true"
     inkscape:window-width="1366"
     inkscape:window-height="710"
     inkscape:window-x="0"
     inkscape:window-y="27"
     inkscape:window-maximized="1"
     inkscape:snap-grids="false"
     inkscape:snap-to-guides="false"
     showguides="true"
     inkscape:guide-bbox="true">
    <inkscape:grid
       type="xygrid"
       id="grid3778"
       empspacing="5"
       visible="true"
       enabled="true"
       snapvisiblegridlinesonly="true"
       spacingx="10px"
       spacingy="10px" />
  </sodipodi:namedview>
  <metadata
     id="metadata7">
    <rdf:RDF>
      <cc:Work
         rdf:about="">
        <dc:format>image/svg+xml</dc:format>
        <dc:type
           rdf:resource="http://purl.org/dc/dcmitype/StillImage" />
        <dc:title></dc:title>
      </cc:Work>
    </rdf:RDF>
  </metadata>
  <g
     inkscape:label="Layer 1"
     inkscape:groupmode="layer"
     id="layer1"
     transform="translate(0,-1042.3622)">
    <path
       transform="matrix(0.74828241,0,0,0.74828241,-90.237805,810.87653)"
       d="m 133.74735,315.96097 c 0,3.57225 -2.89588,6.46813 -6.46813,6.46813 -3.57225,0 -6.46813,-2.89588 -6.46813,-6.46813 0,-3.57225 2.89588,-6.46813 6.46813,-6.46813 3.57225,0 6.46813,2.89588 6.46813,6.46813 z"
       sodipodi:ry="6.468132"
       sodipodi:rx="6.468132"
       sodipodi:cy="315.96097"
       sodipodi:cx="127.27922"
       id="path3757"
       style="fill:#556557;fill-opacity:1;stroke:none"
       sodipodi:type="arc" />
    <path
       sodipodi:type="arc"
       style="fill:#a4ecbc;fill-opacity:1;stroke:none"
       id="path3780"
       sodipodi:cx="127.27922"
       sodipodi:cy="315.96097"
       sodipodi:rx="6.468132"
       sodipodi:ry="6.468132"
       d="m 133.74735,315.96097 c 0,3.57225 -2.89588,6.46813 -6.46813,6.46813 -3.57225,0 -6.46813,-2.89588 -6.46813,-6.46813 0,-3.57225 2.89588,-6.46813 6.46813,-6.46813 3.57225,0 6.46813,2.89588 6.46813,6.46813 z"
       transform="matrix(0.62668613,0,0,0.62668613,-74.736352,849.31183)" />
    <path
       transform="matrix(0.5515275,0,0,0.5515275,-65.170221,873.05902)"
       d="m 133.74735,315.96097 c 0,3.57225 -2.89588,6.46813 -6.46813,6.46813 -3.57225,0 -6.46813,-2.89588 -6.46813,-6.46813 0,-3.57225 2.89588,-6.46813 6.46813,-6.46813 3.57225,0 6.46813,2.89588 6.46813,6.46813 z"
       sodipodi:ry="6.468132"
       sodipodi:rx="6.468132"
       sodipodi:cy="315.96097"
       sodipodi:cx="127.27922"
       id="path3755"
       style="fill:#28c95c;fill-opacity:1;stroke:none"
       sodipodi:type="arc" />
    <path
       style="fill:#556557;fill-opacity:1;stroke:none"
       d="M 14.28125 0.15625 C 12.193424 0.45733672 10.525511 2.0816552 10.1875 4.15625 L 14.28125 4.15625 L 14.28125 0.15625 z M 15.59375 0.15625 L 15.59375 4.15625 L 19.75 4.15625 C 19.408681 2.0613516 17.710367 0.43378905 15.59375 0.15625 z M 10.15625 5.5 C 10.407002 7.6816626 12.117497 9.4086844 14.28125 9.71875 L 14.28125 5.5 L 10.15625 5.5 z M 15.59375 5.5 L 15.59375 9.71875 C 17.786526 9.4330561 19.528136 7.7022176 19.78125 5.5 L 15.59375 5.5 z "
       transform="translate(0,1042.3622)"
       id="path3782" />
    <path
       style="fill:#a4ecbc;fill-opacity:1;stroke:none"
       d="M 14.28125 0.96875 C 12.651447 1.262526 11.361976 2.5400319 11.03125 4.15625 L 14.28125 4.15625 L 14.28125 0.96875 z M 15.59375 0.96875 L 15.59375 4.15625 L 18.96875 4.15625 C 18.629868 2.5001788 17.280485 1.2197296 15.59375 0.96875 z M 11 5.5 C 11.232307 7.2458122 12.564227 8.6308745 14.28125 8.9375 L 14.28125 5.5 L 11 5.5 z M 15.59375 5.5 L 15.59375 8.9375 C 17.369372 8.6759145 18.762232 7.2868499 19 5.5 L 15.59375 5.5 z "
       transform="translate(0,1042.3622)"
       id="path3784" />
    <path
       style="fill:#28c95c;fill-opacity:1;stroke:none"
       d="M 15.59375 1.46875 L 15.59375 4.15625 L 18.46875 4.15625 C 18.144256 2.7657205 17.015041 1.7046253 15.59375 1.46875 z M 14.28125 1.5 C 12.91941 1.7769401 11.846072 2.8071685 11.53125 4.15625 L 14.28125 4.15625 L 14.28125 1.5 z M 11.46875 5.5 C 11.690943 6.9794276 12.827474 8.1393379 14.28125 8.4375 L 14.28125 5.5 L 11.46875 5.5 z M 15.59375 5.5 L 15.59375 8.46875 C 17.108397 8.2151968 18.302603 7.0224029 18.53125 5.5 L 15.59375 5.5 z "
       transform="translate(0,1042.3622)"
       id="path3786" />
    <path
       style="fill:#556557;fill-opacity:1;stroke:none"
       d="M 20.65625 0.15625 C 20.509971 0.28860692 20.384279 0.44845175 20.25 0.59375 L 20.25 3.90625 L 24.09375 3.90625 L 24.09375 0.15625 L 20.65625 0.15625 z M 25.84375 0.15625 L 25.84375 3.90625 L 29.875 3.90625 L 29.875 0.75 C 29.694826 0.54540347 29.515702 0.33745361 29.3125 0.15625 L 25.84375 0.15625 z M 20.25 5.6875 L 20.25 9.34375 C 20.404465 9.5091097 20.579511 9.6640827 20.75 9.8125 L 24.09375 9.8125 L 24.09375 5.6875 L 20.25 5.6875 z M 25.84375 5.6875 L 25.84375 9.8125 L 29.21875 9.8125 C 29.455374 9.6097455 29.669401 9.389242 29.875 9.15625 L 29.875 5.6875 L 25.84375 5.6875 z "
       transform="translate(0,1042.3622)"
       id="path3816" />
    <path
       id="path3818"
       d="m 24.313327,1043.331 c -1.629803,0.2937 -2.919274,1.5712 -3.25,3.1875 l 3.25,0 0,-3.1875 z m 1.3125,0 0,3.1875 3.375,0 c -0.338882,-1.6561 -1.688265,-2.9366 -3.375,-3.1875 z m -4.59375,4.5312 c 0.232307,1.7458 1.564227,3.1309 3.28125,3.4375 l 0,-3.4375 -3.28125,0 z m 4.59375,0 0,3.4375 c 1.775622,-0.2616 3.168482,-1.6507 3.40625,-3.4375 l -3.40625,0 z"
       style="fill:#a4ecbc;fill-opacity:1;stroke:none"
       inkscape:connector-curvature="0" />
    <path
       id="path3820"
       d="m 25.821982,1042.6747 0,3.5754 3.824804,0 c -0.431696,-1.85 -1.933966,-3.2616 -3.824804,-3.5754 z m -1.746106,0.041 c -1.811746,0.3684 -3.239679,1.739 -3.658508,3.5338 l 3.658508,0 0,-3.5338 z m -3.741656,5.3215 c 0.295598,1.9681 1.807601,3.5112 3.741656,3.9079 l 0,-3.9079 -3.741656,0 z m 5.487762,0 0,3.9496 c 2.015036,-0.3374 3.603768,-1.9243 3.907952,-3.9496 l -3.907952,0 z"
       style="fill:#28c95c;fill-opacity:1;stroke:none"
       inkscape:connector-curvature="0" />
    <path
       inkscape:connector-curvature="0"
       style="fill:#a4ecbc;fill-opacity:1;stroke:none"
       d="m 34.336745,1043.7729 c -1.449012,0.2613 -2.595444,1.3971 -2.889483,2.8341 l 2.889483,0 0,-2.8341 z m 1.166908,0 0,2.8341 3.000617,0 c -0.30129,-1.4726 -1.500989,-2.6109 -3.000617,-2.8341 z m -4.084174,4.0287 c 0.206537,1.5521 1.390709,2.7836 2.917266,3.0562 l 0,-3.0562 -2.917266,0 z m 4.084174,0 0,3.0562 c 1.578655,-0.2327 2.817007,-1.4676 3.0284,-3.0562 l -3.0284,0 z"
       id="path3836" />
    <path
       style="fill:#28c95c;fill-opacity:1;stroke:none"
       d="M 31.15625 0.1875 C 30.790114 0.47521703 30.478438 0.825518 30.1875 1.1875 L 30.1875 3.5625 L 33.75 3.5625 L 33.75 0.1875 L 31.15625 0.1875 z M 36 0.1875 L 36 3.5625 L 39.875 3.5625 L 39.875 1.34375 C 39.556127 0.91912554 39.201711 0.51841042 38.78125 0.1875 L 36 0.1875 z M 30.1875 5.875 L 30.1875 8.75 C 30.513935 9.1549507 30.895618 9.4991725 31.3125 9.8125 L 33.75 9.8125 L 33.75 5.875 L 30.1875 5.875 z M 36 5.875 L 36 9.8125 L 38.71875 9.8125 C 39.150548 9.4801122 39.544306 9.0891563 39.875 8.65625 L 39.875 5.875 L 36 5.875 z "
       transform="translate(0,1042.3622)"
       id="path3838" />
    <path
       style="fill:#a4ecbc;fill-opacity:1;stroke:none"
       d="M 42.03125 0.375 C 41.334376 0.83416337 40.743926 1.4402877 40.3125 2.15625 L 40.3125 3.875 L 44.03125 3.875 L 44.03125 0.375 L 42.03125 0.375 z M 45.8125 0.375 L 45.8125 3.875 L 49.75 3.875 L 49.75 2.25 C 49.304655 1.4848258 48.685283 0.85009688 47.9375 0.375 L 45.8125 0.375 z M 40.3125 5.6875 L 40.3125 7.75 C 40.80783 8.5905474 41.525924 9.2798247 42.375 9.75 L 44.03125 9.75 L 44.03125 5.6875 L 40.3125 5.6875 z M 45.8125 5.6875 L 45.8125 9.75 L 47.59375 9.75 C 48.496982 9.2655072 49.239012 8.5421115 49.75 7.65625 L 49.75 5.6875 L 45.8125 5.6875 z "
       transform="translate(0,1042.3622)"
       id="path3852" />
  </g>
</svg>
