<?xml version="1.0" encoding="UTF-8" standalone="no"?>
<!-- Created with Inkscape (http://www.inkscape.org/) -->

<svg
   xmlns:dc="http://purl.org/dc/elements/1.1/"
   xmlns:cc="http://creativecommons.org/ns#"
   xmlns:rdf="http://www.w3.org/1999/02/22-rdf-syntax-ns#"
   xmlns:svg="http://www.w3.org/2000/svg"
   xmlns="http://www.w3.org/2000/svg"
   xmlns:xlink="http://www.w3.org/1999/xlink"
   xmlns:sodipodi="http://sodipodi.sourceforge.net/DTD/sodipodi-0.dtd"
   xmlns:inkscape="http://www.inkscape.org/namespaces/inkscape"
   width="40"
   height="40"
   id="svg4923"
   version="1.1"
   inkscape:version="0.48.4 r9939"
   sodipodi:docname="bWalk.svg"
   inkscape:export-filename="/media/henry/Work/Projects/MoonWar/Art/character/bWalk.png"
   inkscape:export-xdpi="90"
   inkscape:export-ydpi="90">
  <defs
     id="defs4925" />
  <sodipodi:namedview
     id="base"
     pagecolor="#ffffff"
     bordercolor="#666666"
     borderopacity="1.0"
     inkscape:pageopacity="0.0"
     inkscape:pageshadow="2"
     inkscape:zoom="5.6"
     inkscape:cx="32.955582"
     inkscape:cy="13.392001"
     inkscape:document-units="px"
     inkscape:current-layer="layer1"
     showgrid="true"
     inkscape:snap-grids="false"
     inkscape:snap-to-guides="false"
     inkscape:window-width="471"
     inkscape:window-height="383"
     inkscape:window-x="523"
     inkscape:window-y="247"
     inkscape:window-maximized="0">
    <inkscape:grid
       type="xygrid"
       id="grid4931"
       empspacing="5"
       visible="true"
       enabled="true"
       snapvisiblegridlinesonly="true"
       spacingx="10px"
       spacingy="10px" />
  </sodipodi:namedview>
  <metadata
     id="metadata4928">
    <rdf:RDF>
      <cc:Work
         rdf:about="">
        <dc:format>image/svg+xml</dc:format>
        <dc:type
           rdf:resource="http://purl.org/dc/dcmitype/StillImage" />
        <dc:title></dc:title>
      </cc:Work>
    </rdf:RDF>
  </metadata>
  <g
     inkscape:label="Layer 1"
     inkscape:groupmode="layer"
     id="layer1"
     transform="translate(0,-1012.3622)">
    <rect
       style="fill:#595b64;fill-opacity:1;stroke:none"
       id="rect4933"
       width="40"
       height="40"
       x="0"
       y="1012.3622" />
    <g
       id="g5468"
       transform="translate(-0.63134534,0)">
      <path
         transform="matrix(1.1290323,0,0,1.1290323,3.4459238,1017.7098)"
         d="m 14.394674,9.4428854 c 0,4.3236616 -3.505021,7.8286826 -7.8286826,7.8286826 -4.3236619,0 -7.8286824,-3.505021 -7.8286824,-7.8286826 0,-4.3236619 3.5050205,-7.8286824 7.8286824,-7.8286824 4.3236616,0 7.8286826,3.5050205 7.8286826,7.8286824 z"
         sodipodi:ry="7.8286824"
         sodipodi:rx="7.8286824"
         sodipodi:cy="9.4428854"
         sodipodi:cx="6.5659914"
         id="path4954"
         style="fill:#d38f68;fill-opacity:1;stroke:none"
         sodipodi:type="arc" />
      <path
         sodipodi:type="arc"
         style="fill:#20a4bd;fill-opacity:1;stroke:none"
         id="path5464"
         sodipodi:cx="6.5659914"
         sodipodi:cy="9.4428854"
         sodipodi:rx="7.8286824"
         sodipodi:ry="7.8286824"
         d="m 14.394674,9.4428854 c 0,4.3236616 -3.505021,7.8286826 -7.8286826,7.8286826 -4.3236619,0 -7.8286824,-3.505021 -7.8286824,-7.8286826 0,-4.3236619 3.5050205,-7.8286824 7.8286824,-7.8286824 4.3236616,0 7.8286826,3.5050205 7.8286826,7.8286824 z"
         transform="matrix(0.80645166,0,0,0.80645166,5.5639855,1020.7559)" />
      <path
         transform="matrix(0.33870974,0,0,0.33870974,11.539364,1025.1727)"
         d="m 14.394674,9.4428854 c 0,4.3236616 -3.505021,7.8286826 -7.8286826,7.8286826 -4.3236619,0 -7.8286824,-3.505021 -7.8286824,-7.8286826 0,-4.3236619 3.5050205,-7.8286824 7.8286824,-7.8286824 4.3236616,0 7.8286826,3.5050205 7.8286826,7.8286824 z"
         sodipodi:ry="7.8286824"
         sodipodi:rx="7.8286824"
         sodipodi:cy="9.4428854"
         sodipodi:cx="6.5659914"
         id="path5466"
         style="fill:#595b64;fill-opacity:1;stroke:none"
         sodipodi:type="arc" />
    </g>
    <use
       x="0"
       y="0"
       xlink:href="#g5468"
       id="use5473"
       transform="translate(19.192898,0)"
       width="40"
       height="40" />
  </g>
</svg>
