<?xml version="1.0" encoding="UTF-8" standalone="no"?>
<!-- Created with Inkscape (http://www.inkscape.org/) -->

<svg
   xmlns:dc="http://purl.org/dc/elements/1.1/"
   xmlns:cc="http://creativecommons.org/ns#"
   xmlns:rdf="http://www.w3.org/1999/02/22-rdf-syntax-ns#"
   xmlns:svg="http://www.w3.org/2000/svg"
   xmlns="http://www.w3.org/2000/svg"
   xmlns:xlink="http://www.w3.org/1999/xlink"
   xmlns:sodipodi="http://sodipodi.sourceforge.net/DTD/sodipodi-0.dtd"
   xmlns:inkscape="http://www.inkscape.org/namespaces/inkscape"
   width="40"
   height="40"
   id="svg2"
   version="1.1"
   inkscape:version="0.48.4 r9939"
   sodipodi:docname="ACatch.svg">
  <defs
     id="defs4" />
  <sodipodi:namedview
     id="base"
     pagecolor="#ffffff"
     bordercolor="#666666"
     borderopacity="1.0"
     inkscape:pageopacity="0.0"
     inkscape:pageshadow="2"
     inkscape:zoom="3.959798"
     inkscape:cx="146.51047"
     inkscape:cy="21.625836"
     inkscape:document-units="px"
     inkscape:current-layer="layer1"
     showgrid="true"
     inkscape:snap-grids="false"
     inkscape:snap-to-guides="false"
     inkscape:snap-page="false"
     showborder="true"
     borderlayer="true"
     inkscape:window-width="1301"
     inkscape:window-height="744"
     inkscape:window-x="65"
     inkscape:window-y="24"
     inkscape:window-maximized="1">
    <inkscape:grid
       type="xygrid"
       id="grid2987"
       empspacing="5"
       visible="true"
       enabled="true"
       snapvisiblegridlinesonly="true"
       spacingx="10px"
       spacingy="10px" />
  </sodipodi:namedview>
  <metadata
     id="metadata7">
    <rdf:RDF>
      <cc:Work
         rdf:about="">
        <dc:format>image/svg+xml</dc:format>
        <dc:type
           rdf:resource="http://purl.org/dc/dcmitype/StillImage" />
        <dc:title></dc:title>
      </cc:Work>
    </rdf:RDF>
  </metadata>
  <g
     inkscape:label="Layer 1"
     inkscape:groupmode="layer"
     id="layer1"
     transform="translate(0,-1012.3622)">
    <path
       style="fill:#595b64;fill-opacity:1;stroke:none"
       d="m 0,1012.3622 40,0 -10.038391,20 -19.923218,0 z"
       id="rect2989"
       inkscape:connector-curvature="0"
       sodipodi:nodetypes="ccccc" />
    <g
       id="g4914">
      <rect
         y="1031.0282"
         x="15.661511"
         height="19.697975"
         width="8.7125654"
         id="rect4904"
         style="fill:#6f799c;fill-opacity:1;stroke:none" />
      <path
         sodipodi:type="arc"
         style="fill:#989fb9;fill-opacity:1;stroke:none"
         id="path4902"
         sodipodi:cx="-10.714286"
         sodipodi:cy="24.464285"
         sodipodi:rx="3.6607144"
         sodipodi:ry="3.6607144"
         d="m -7.0535715,24.464285 c 0,2.021757 -1.6389576,3.660714 -3.6607145,3.660714 -2.021757,0 -3.660714,-1.638957 -3.660714,-3.660714 0,-2.021757 1.638957,-3.660714 3.660714,-3.660714 2.0217569,0 3.6607145,1.638957 3.6607145,3.660714 z"
         transform="matrix(1.3658536,0,0,1.3658536,34.657895,998.80746)" />
      <path
         transform="translate(30.798156,1007.9187)"
         d="m -7.0535715,24.464285 c 0,2.021757 -1.6389576,3.660714 -3.6607145,3.660714 -2.021757,0 -3.660714,-1.638957 -3.660714,-3.660714 0,-2.021757 1.638957,-3.660714 3.660714,-3.660714 2.0217569,0 3.6607145,1.638957 3.6607145,3.660714 z"
         sodipodi:ry="3.6607144"
         sodipodi:rx="3.6607144"
         sodipodi:cy="24.464285"
         sodipodi:cx="-10.714286"
         id="path4900"
         style="fill:#e6834d;fill-opacity:1;stroke:none"
         sodipodi:type="arc" />
    </g>
    <use
       x="0"
       y="0"
       xlink:href="#rect2989"
       id="use4919"
       transform="translate(50,0)"
       width="40"
       height="40" />
    <use
       x="0"
       y="0"
       xlink:href="#g4914"
       id="use4921"
       transform="matrix(0,-1,1,0,-977.16467,1067.3859)"
       width="40"
       height="40" />
    <use
       height="40"
       width="40"
       transform="matrix(0,1,-1,0,1151.4561,1002.3622)"
       id="use2990"
       xlink:href="#rect2989"
       y="0"
       x="0" />
    <use
       x="0"
       y="0"
       xlink:href="#rect2989"
       id="use2992"
       transform="matrix(-1,0,0,-1,211.9759,2044.7244)"
       width="40"
       height="40" />
    <use
       height="40"
       width="40"
       transform="matrix(0,-1,1,0,-774.5753,1042.3622)"
       id="use2994"
       xlink:href="#rect2989"
       y="0"
       x="0" />
  </g>
</svg>
