<?xml version="1.0" encoding="UTF-8" standalone="no"?>
<!-- Created with Inkscape (http://www.inkscape.org/) -->

<svg
   xmlns:dc="http://purl.org/dc/elements/1.1/"
   xmlns:cc="http://creativecommons.org/ns#"
   xmlns:rdf="http://www.w3.org/1999/02/22-rdf-syntax-ns#"
   xmlns:svg="http://www.w3.org/2000/svg"
   xmlns="http://www.w3.org/2000/svg"
   xmlns:xlink="http://www.w3.org/1999/xlink"
   xmlns:sodipodi="http://sodipodi.sourceforge.net/DTD/sodipodi-0.dtd"
   xmlns:inkscape="http://www.inkscape.org/namespaces/inkscape"
   width="200"
   height="200"
   id="svg3187"
   version="1.1"
   inkscape:version="0.48.3.1 r9886"
   sodipodi:docname="moon.svg">
  <defs
     id="defs3189">
    <radialGradient
       r="168.69548"
       fy="295.14209"
       fx="396.98996"
       cy="295.14209"
       cx="396.98996"
       gradientUnits="userSpaceOnUse"
       id="radialGradient3792"
       xlink:href="#linearGradient3765-4"
       inkscape:collect="always" />
    <linearGradient
       id="linearGradient3765-4">
      <stop
         style="stop-color:#c9d6d3;stop-opacity:1;"
         offset="0"
         id="stop3767-6" />
      <stop
         style="stop-color:#808a84;stop-opacity:1;"
         offset="1"
         id="stop3769-9" />
    </linearGradient>
    <radialGradient
       r="168.69548"
       fy="295.14209"
       fx="396.98996"
       cy="295.14209"
       cx="396.98996"
       gradientUnits="userSpaceOnUse"
       id="radialGradient3132"
       xlink:href="#linearGradient3765-4"
       inkscape:collect="always" />
    <radialGradient
       inkscape:collect="always"
       xlink:href="#linearGradient3765-4"
       id="radialGradient3183"
       gradientUnits="userSpaceOnUse"
       cx="396.98996"
       cy="295.14209"
       fx="396.98996"
       fy="295.14209"
       r="168.69548" />
  </defs>
  <sodipodi:namedview
     id="base"
     pagecolor="#ffffff"
     bordercolor="#666666"
     borderopacity="1.0"
     inkscape:pageopacity="0.0"
     inkscape:pageshadow="2"
     inkscape:zoom="1"
     inkscape:cx="125.11889"
     inkscape:cy="100.9857"
     inkscape:document-units="px"
     inkscape:current-layer="layer1"
     showgrid="false"
     inkscape:window-width="1366"
     inkscape:window-height="710"
     inkscape:window-x="0"
     inkscape:window-y="27"
     inkscape:window-maximized="1" />
  <metadata
     id="metadata3192">
    <rdf:RDF>
      <cc:Work
         rdf:about="">
        <dc:format>image/svg+xml</dc:format>
        <dc:type
           rdf:resource="http://purl.org/dc/dcmitype/StillImage" />
        <dc:title></dc:title>
      </cc:Work>
    </rdf:RDF>
  </metadata>
  <g
     inkscape:label="Layer 1"
     inkscape:groupmode="layer"
     id="layer1"
     transform="translate(0,-852.36218)">
    <g
       id="g3035">
      <path
         transform="matrix(0.52646486,0,0,0.52646486,-107.35249,796.79072)"
         d="m 565.68544,295.14209 c 0,93.16794 -75.52754,168.69548 -168.69548,168.69548 -93.16794,0 -168.69548,-75.52754 -168.69548,-168.69548 0,-93.16794 75.52754,-168.69548 168.69548,-168.69548 93.16794,0 168.69548,75.52754 168.69548,168.69548 z"
         sodipodi:ry="168.69548"
         sodipodi:rx="168.69548"
         sodipodi:cy="295.14209"
         sodipodi:cx="396.98996"
         id="path3763"
         style="fill:url(#radialGradient3132);fill-opacity:1;stroke:none;display:inline"
         sodipodi:type="arc" />
      <path
         sodipodi:nodetypes="sssss"
         inkscape:connector-curvature="0"
         id="path3812"
         d="m 180.88845,952.17265 c 0,43.76287 -7.78211,16.66432 -25.41997,-24.78125 -6.26431,-14.71992 -29.42945,-30.45223 -38.75895,-34.01829 -43.730866,-16.71547 -58.823608,-20.44012 -15.06076,-20.44012 43.76288,0 79.23968,35.4768 79.23968,79.23966 z"
         style="fill:#bdc2bf;fill-opacity:1;stroke:none;display:inline" />
      <path
         style="fill:#727c76;fill-opacity:1;stroke:none;display:inline"
         d="m 23.51888,950.93762 c 0,-43.76286 7.782111,-16.66433 25.419979,24.78127 6.264303,14.7199 29.42945,30.45221 38.758941,34.01821 43.73087,16.7155 58.8236,20.4402 15.06074,20.4402 -43.762858,0 -79.23966,-35.47682 -79.23966,-79.23968 z"
         id="path3815"
         inkscape:connector-curvature="0"
         sodipodi:nodetypes="sssss" />
      <path
         transform="matrix(0.635002,0,0,0.72708426,-176.37564,828.25736)"
         d="m 472.85713,73.571426 c 0,8.284272 -16.30963,15 -36.42857,15 -20.11895,0 -36.42857,-6.715728 -36.42857,-15 0,-8.284271 16.30962,-15 36.42857,-15 20.11894,0 36.42857,6.715729 36.42857,15 z"
         sodipodi:ry="15"
         sodipodi:rx="36.42857"
         sodipodi:cy="73.571426"
         sodipodi:cx="436.42856"
         id="path3843"
         style="fill:#77817c;fill-opacity:1;stroke:none;display:inline"
         sodipodi:type="arc" />
      <path
         sodipodi:type="arc"
         style="fill:#494f4c;fill-opacity:1;stroke:none;display:inline"
         id="path3819"
         sodipodi:cx="436.42856"
         sodipodi:cy="73.571426"
         sodipodi:rx="36.42857"
         sodipodi:ry="15"
         d="m 472.85713,73.571426 c 0,8.284272 -16.30963,15 -36.42857,15 -20.11895,0 -36.42857,-6.715728 -36.42857,-15 0,-8.284271 16.30962,-15 36.42857,-15 20.11894,0 36.42857,6.715729 36.42857,15 z"
         transform="matrix(0.60403807,0,0,0.69163032,-162.86212,828.75989)" />
      <path
         transform="matrix(0.4732839,0,0,0.4732839,-105.43733,847.8685)"
         d="m 472.85713,73.571426 c 0,8.284272 -16.30963,15 -36.42857,15 -20.11895,0 -36.42857,-6.715728 -36.42857,-15 0,-8.284271 16.30962,-15 36.42857,-15 20.11894,0 36.42857,6.715729 36.42857,15 z"
         sodipodi:ry="15"
         sodipodi:rx="36.42857"
         sodipodi:cy="73.571426"
         sodipodi:cx="436.42856"
         id="path3817"
         style="fill:#212422;fill-opacity:1;stroke:none;display:inline"
         sodipodi:type="arc" />
      <path
         sodipodi:type="arc"
         style="fill:#77817c;fill-opacity:1;stroke:none;display:inline"
         id="path3883"
         sodipodi:cx="436.42856"
         sodipodi:cy="73.571426"
         sodipodi:rx="36.42857"
         sodipodi:ry="15"
         d="m 472.85713,73.571426 c 0,8.284272 -16.30963,15 -36.42857,15 -20.11895,0 -36.42857,-6.715728 -36.42857,-15 0,-8.284271 16.30962,-15 36.42857,-15 20.11894,0 36.42857,6.715729 36.42857,15 z"
         transform="matrix(0.2390433,0.3732978,-0.42743013,0.27370722,83.407738,723.25668)" />
      <path
         transform="matrix(0.22738711,0.35509513,-0.40658786,0.26036074,88.199402,731.39005)"
         d="m 472.85713,73.571426 c 0,8.284272 -16.30963,15 -36.42857,15 -20.11895,0 -36.42857,-6.715728 -36.42857,-15 0,-8.284271 16.30962,-15 36.42857,-15 20.11894,0 36.42857,6.715729 36.42857,15 z"
         sodipodi:ry="15"
         sodipodi:rx="36.42857"
         sodipodi:cy="73.571426"
         sodipodi:cx="436.42856"
         id="path3885"
         style="fill:#494f4c;fill-opacity:1;stroke:none;display:inline"
         sodipodi:type="arc" />
      <path
         sodipodi:type="arc"
         style="fill:#212422;fill-opacity:1;stroke:none;display:inline"
         id="path3887"
         sodipodi:cx="436.42856"
         sodipodi:cy="73.571426"
         sodipodi:rx="36.42857"
         sodipodi:ry="15"
         d="m 472.85713,73.571426 c 0,8.284272 -16.30963,15 -36.42857,15 -20.11895,0 -36.42857,-6.715728 -36.42857,-15 0,-8.284271 16.30962,-15 36.42857,-15 20.11894,0 36.42857,6.715729 36.42857,15 z"
         transform="matrix(0.17816534,0.27822879,-0.27822879,0.17816534,98.583317,772.34161)" />
      <path
         transform="matrix(-0.28220436,0.34183865,-0.39140902,-0.32312709,295.42397,868.4434)"
         d="m 472.85713,73.571426 c 0,8.284272 -16.30963,15 -36.42857,15 -20.11895,0 -36.42857,-6.715728 -36.42857,-15 0,-8.284271 16.30962,-15 36.42857,-15 20.11894,0 36.42857,6.715729 36.42857,15 z"
         sodipodi:ry="15"
         sodipodi:rx="36.42857"
         sodipodi:cy="73.571426"
         sodipodi:cx="436.42856"
         id="path3889"
         style="fill:#77817c;fill-opacity:1;stroke:none;display:inline"
         sodipodi:type="arc" />
      <path
         sodipodi:type="arc"
         style="fill:#494f4c;fill-opacity:1;stroke:none;display:inline"
         id="path3891"
         sodipodi:cx="436.42856"
         sodipodi:cy="73.571426"
         sodipodi:rx="36.42857"
         sodipodi:ry="15"
         d="m 472.85713,73.571426 c 0,8.284272 -16.30963,15 -36.42857,15 -20.11895,0 -36.42857,-6.715728 -36.42857,-15 0,-8.284271 16.30962,-15 36.42857,-15 20.11894,0 36.42857,6.715729 36.42857,15 z"
         transform="matrix(-0.26844355,0.32516996,-0.37232323,-0.30737082,289.14783,875.49476)" />
      <path
         transform="matrix(-0.21033441,0.25478145,-0.25478145,-0.21033441,253.34073,897.91593)"
         d="m 472.85713,73.571426 c 0,8.284272 -16.30963,15 -36.42857,15 -20.11895,0 -36.42857,-6.715728 -36.42857,-15 0,-8.284271 16.30962,-15 36.42857,-15 20.11894,0 36.42857,6.715729 36.42857,15 z"
         sodipodi:ry="15"
         sodipodi:rx="36.42857"
         sodipodi:cy="73.571426"
         sodipodi:cx="436.42856"
         id="path3893"
         style="fill:#212422;fill-opacity:1;stroke:none;display:inline"
         sodipodi:type="arc" />
      <path
         sodipodi:type="arc"
         style="fill:#77817c;fill-opacity:1;stroke:none;display:inline"
         id="path3895"
         sodipodi:cx="436.42856"
         sodipodi:cy="73.571426"
         sodipodi:rx="36.42857"
         sodipodi:ry="15"
         d="m 472.85713,73.571426 c 0,8.284272 -16.30963,15 -36.42857,15 -20.11895,0 -36.42857,-6.715728 -36.42857,-15 0,-8.284271 16.30962,-15 36.42857,-15 20.11894,0 36.42857,6.715729 36.42857,15 z"
         transform="matrix(-0.3205815,-0.60390693,0.69148002,-0.36706935,133.71035,1272.603)" />
      <path
         transform="matrix(-0.30494936,-0.57445925,0.65776222,-0.34917038,127.36594,1259.4973)"
         d="m 472.85713,73.571426 c 0,8.284272 -16.30963,15 -36.42857,15 -20.11895,0 -36.42857,-6.715728 -36.42857,-15 0,-8.284271 16.30962,-15 36.42857,-15 20.11894,0 36.42857,6.715729 36.42857,15 z"
         sodipodi:ry="15"
         sodipodi:rx="36.42857"
         sodipodi:cy="73.571426"
         sodipodi:cx="436.42856"
         id="path3897"
         style="fill:#494f4c;fill-opacity:1;stroke:none;display:inline"
         sodipodi:type="arc" />
      <path
         sodipodi:type="arc"
         style="fill:#212422;fill-opacity:1;stroke:none;display:inline"
         id="path3899"
         sodipodi:cx="436.42856"
         sodipodi:cy="73.571426"
         sodipodi:rx="36.42857"
         sodipodi:ry="15"
         d="m 472.85713,73.571426 c 0,8.284272 -16.30963,15 -36.42857,15 -20.11895,0 -36.42857,-6.715728 -36.42857,-15 0,-8.284271 16.30962,-15 36.42857,-15 20.11894,0 36.42857,6.715729 36.42857,15 z"
         transform="matrix(-0.23893792,-0.45010785,0.45010785,-0.23893792,116.54786,1195.2376)" />
      <path
         transform="matrix(-0.44211423,-0.0320617,0.03671102,-0.50622565,281.61557,1079.6546)"
         d="m 472.85713,73.571426 c 0,8.284272 -16.30963,15 -36.42857,15 -20.11895,0 -36.42857,-6.715728 -36.42857,-15 0,-8.284271 16.30962,-15 36.42857,-15 20.11894,0 36.42857,6.715729 36.42857,15 z"
         sodipodi:ry="15"
         sodipodi:rx="36.42857"
         sodipodi:cy="73.571426"
         sodipodi:cx="436.42856"
         id="path3901"
         style="fill:#77817c;fill-opacity:1;stroke:none;display:inline"
         sodipodi:type="arc" />
      <path
         sodipodi:type="arc"
         style="fill:#494f4c;fill-opacity:1;stroke:none;display:inline"
         id="path3903"
         sodipodi:cx="436.42856"
         sodipodi:cy="73.571426"
         sodipodi:rx="36.42857"
         sodipodi:ry="15"
         d="m 472.85713,73.571426 c 0,8.284272 -16.30963,15 -36.42857,15 -20.11895,0 -36.42857,-6.715728 -36.42857,-15 0,-8.284271 16.30962,-15 36.42857,-15 20.11894,0 36.42857,6.715729 36.42857,15 z"
         transform="matrix(-0.42055594,-0.03049832,0.03492091,-0.48154119,272.23227,1078.6222)" />
      <path
         transform="matrix(-0.32951951,-0.02389644,0.02389644,-0.32951951,233.2156,1062.4186)"
         d="m 472.85713,73.571426 c 0,8.284272 -16.30963,15 -36.42857,15 -20.11895,0 -36.42857,-6.715728 -36.42857,-15 0,-8.284271 16.30962,-15 36.42857,-15 20.11894,0 36.42857,6.715729 36.42857,15 z"
         sodipodi:ry="15"
         sodipodi:rx="36.42857"
         sodipodi:cy="73.571426"
         sodipodi:cx="436.42856"
         id="path3905"
         style="fill:#212422;fill-opacity:1;stroke:none;display:inline"
         sodipodi:type="arc" />
      <path
         sodipodi:type="arc"
         style="fill:#77817c;fill-opacity:1;stroke:none;display:inline"
         id="path3907"
         sodipodi:cx="436.42856"
         sodipodi:cy="73.571426"
         sodipodi:rx="36.42857"
         sodipodi:ry="15"
         d="m 472.85713,73.571426 c 0,8.284272 -16.30963,15 -36.42857,15 -20.11895,0 -36.42857,-6.715728 -36.42857,-15 0,-8.284271 16.30962,-15 36.42857,-15 20.11894,0 36.42857,6.715729 36.42857,15 z"
         transform="matrix(0.22430525,-0.38233508,0.43777788,0.256832,-91.929915,1064.5514)" />
      <path
         transform="matrix(0.21336773,-0.36369172,0.41643102,0.2443084,-86.853879,1056.5924)"
         d="m 472.85713,73.571426 c 0,8.284272 -16.30963,15 -36.42857,15 -20.11895,0 -36.42857,-6.715728 -36.42857,-15 0,-8.284271 16.30962,-15 36.42857,-15 20.11894,0 36.42857,6.715729 36.42857,15 z"
         sodipodi:ry="15"
         sodipodi:rx="36.42857"
         sodipodi:cy="73.571426"
         sodipodi:cx="436.42856"
         id="path3909"
         style="fill:#494f4c;fill-opacity:1;stroke:none;display:inline"
         sodipodi:type="arc" />
      <path
         sodipodi:type="arc"
         style="fill:#212422;fill-opacity:1;stroke:none;display:inline"
         id="path3911"
         sodipodi:cx="436.42856"
         sodipodi:cy="73.571426"
         sodipodi:rx="36.42857"
         sodipodi:ry="15"
         d="m 472.85713,73.571426 c 0,8.284272 -16.30963,15 -36.42857,15 -20.11895,0 -36.42857,-6.715728 -36.42857,-15 0,-8.284271 16.30962,-15 36.42857,-15 20.11894,0 36.42857,6.715729 36.42857,15 z"
         transform="matrix(0.16718066,-0.2849645,0.2849645,0.16718066,-55.064108,1028.7668)" />
      <path
         transform="matrix(-0.03180997,-0.44213243,0.50624653,-0.03642276,-9.7543324,1147.7303)"
         d="m 472.85713,73.571426 c 0,8.284272 -16.30963,15 -36.42857,15 -20.11895,0 -36.42857,-6.715728 -36.42857,-15 0,-8.284271 16.30962,-15 36.42857,-15 20.11894,0 36.42857,6.715729 36.42857,15 z"
         sodipodi:ry="15"
         sodipodi:rx="36.42857"
         sodipodi:cy="73.571426"
         sodipodi:cx="436.42856"
         id="path3913"
         style="fill:#77817c;fill-opacity:1;stroke:none;display:inline"
         sodipodi:type="arc" />
      <path
         sodipodi:type="arc"
         style="fill:#494f4c;fill-opacity:1;stroke:none;display:inline"
         id="path3915"
         sodipodi:cx="436.42856"
         sodipodi:cy="73.571426"
         sodipodi:rx="36.42857"
         sodipodi:ry="15"
         d="m 472.85713,73.571426 c 0,8.284272 -16.30963,15 -36.42857,15 -20.11895,0 -36.42857,-6.715728 -36.42857,-15 0,-8.284271 16.30962,-15 36.42857,-15 20.11894,0 36.42857,6.715729 36.42857,15 z"
         transform="matrix(-0.03025885,-0.42057322,0.481561,-0.03464672,-10.08137,1138.2961)" />
      <path
         transform="matrix(-0.02370882,-0.32953306,0.32953306,-0.02370882,0.34670294,1097.3557)"
         d="m 472.85713,73.571426 c 0,8.284272 -16.30963,15 -36.42857,15 -20.11895,0 -36.42857,-6.715728 -36.42857,-15 0,-8.284271 16.30962,-15 36.42857,-15 20.11894,0 36.42857,6.715729 36.42857,15 z"
         sodipodi:ry="15"
         sodipodi:rx="36.42857"
         sodipodi:cy="73.571426"
         sodipodi:cx="436.42856"
         id="path3917"
         style="fill:#212422;fill-opacity:1;stroke:none;display:inline"
         sodipodi:type="arc" />
      <path
         sodipodi:type="arc"
         style="fill:#77817c;fill-opacity:1;stroke:none;display:inline"
         id="path3919"
         sodipodi:cx="436.42856"
         sodipodi:cy="73.571426"
         sodipodi:rx="36.42857"
         sodipodi:ry="15"
         d="m 472.85713,73.571426 c 0,8.284272 -16.30963,15 -36.42857,15 -20.11895,0 -36.42857,-6.715728 -36.42857,-15 0,-8.284271 16.30962,-15 36.42857,-15 20.11894,0 36.42857,6.715729 36.42857,15 z"
         transform="matrix(0.36497922,-0.25156139,0.28804054,0.41790525,-130.46979,959.24798)" />
      <path
         transform="matrix(0.34718215,-0.23929478,0.27399516,0.39752739,-122.50356,954.18331)"
         d="m 472.85713,73.571426 c 0,8.284272 -16.30963,15 -36.42857,15 -20.11895,0 -36.42857,-6.715728 -36.42857,-15 0,-8.284271 16.30962,-15 36.42857,-15 20.11894,0 36.42857,6.715729 36.42857,15 z"
         sodipodi:ry="15"
         sodipodi:rx="36.42857"
         sodipodi:cy="73.571426"
         sodipodi:cx="436.42856"
         id="path3921"
         style="fill:#494f4c;fill-opacity:1;stroke:none;display:inline"
         sodipodi:type="arc" />
      <path
         sodipodi:type="arc"
         style="fill:#212422;fill-opacity:1;stroke:none;display:inline"
         id="path3923"
         sodipodi:cx="436.42856"
         sodipodi:cy="73.571426"
         sodipodi:rx="36.42857"
         sodipodi:ry="15"
         d="m 472.85713,73.571426 c 0,8.284272 -16.30963,15 -36.42857,15 -20.11895,0 -36.42857,-6.715728 -36.42857,-15 0,-8.284271 16.30962,-15 36.42857,-15 20.11894,0 36.42857,6.715729 36.42857,15 z"
         transform="matrix(0.27202872,-0.18749541,0.18749541,0.27202872,-81.927563,942.41702)" />
      <path
         transform="matrix(0.15760417,0.4970876,-0.56917077,0.18045848,156.44727,696.74172)"
         d="m 472.85713,73.571426 a 36.42857,15 0 1 1 -72.85714,0 36.42857,15 0 1 1 72.85714,0 z"
         sodipodi:ry="15"
         sodipodi:rx="36.42857"
         sodipodi:cy="73.571426"
         sodipodi:cx="436.42856"
         id="path3925"
         style="fill:#77817c;fill-opacity:1;stroke:none;display:inline"
         sodipodi:type="arc" />
      <path
         sodipodi:type="arc"
         style="fill:#494f4c;fill-opacity:1;stroke:none;display:inline"
         id="path3927"
         sodipodi:cx="436.42856"
         sodipodi:cy="73.571426"
         sodipodi:rx="36.42857"
         sodipodi:ry="15"
         d="m 472.85713,73.571426 a 36.42857,15 0 1 1 -72.85714,0 36.42857,15 0 1 1 72.85714,0 z"
         transform="matrix(0.14991906,0.47284864,-0.54141693,0.171659,159.40788,707.44501)" />
      <path
         transform="matrix(0.11746657,0.3704926,-0.3704926,0.11746657,158.70196,757.1405)"
         d="m 472.85713,73.571426 a 36.42857,15 0 1 1 -72.85714,0 36.42857,15 0 1 1 72.85714,0 z"
         sodipodi:ry="15"
         sodipodi:rx="36.42857"
         sodipodi:cy="73.571426"
         sodipodi:cx="436.42856"
         id="path3929"
         style="fill:#212422;fill-opacity:1;stroke:none;display:inline"
         sodipodi:type="arc" />
      <path
         sodipodi:type="arc"
         style="fill:#77817c;fill-opacity:1;stroke:none;display:inline"
         id="path3931"
         sodipodi:cx="436.42856"
         sodipodi:cy="73.571426"
         sodipodi:rx="36.42857"
         sodipodi:ry="15"
         d="m 472.85713,73.571426 c 0,8.284272 -16.30963,15 -36.42857,15 -20.11895,0 -36.42857,-6.715728 -36.42857,-15 0,-8.284271 16.30962,-15 36.42857,-15 20.11894,0 36.42857,6.715729 36.42857,15 z"
         transform="matrix(0.19527135,0.11643967,-0.13332472,0.22358785,64.391235,812.09079)" />
      <path
         transform="matrix(0.18574955,0.11076186,-0.12682356,0.21268528,68.454687,814.72329)"
         d="m 472.85713,73.571426 c 0,8.284272 -16.30963,15 -36.42857,15 -20.11895,0 -36.42857,-6.715728 -36.42857,-15 0,-8.284271 16.30962,-15 36.42857,-15 20.11894,0 36.42857,6.715729 36.42857,15 z"
         sodipodi:ry="15"
         sodipodi:rx="36.42857"
         sodipodi:cy="73.571426"
         sodipodi:cx="436.42856"
         id="path3933"
         style="fill:#494f4c;fill-opacity:1;stroke:none;display:inline"
         sodipodi:type="arc" />
      <path
         sodipodi:type="arc"
         style="fill:#212422;fill-opacity:1;stroke:none;display:inline"
         id="path3935"
         sodipodi:cx="436.42856"
         sodipodi:cy="73.571426"
         sodipodi:rx="36.42857"
         sodipodi:ry="15"
         d="m 472.85713,73.571426 c 0,8.284272 -16.30963,15 -36.42857,15 -20.11895,0 -36.42857,-6.715728 -36.42857,-15 0,-8.284271 16.30962,-15 36.42857,-15 20.11894,0 36.42857,6.715729 36.42857,15 z"
         transform="matrix(0.14554093,0.08678559,-0.08678559,0.14554093,82.609615,831.12937)" />
      <path
         transform="matrix(-0.35023685,0.27171143,-0.31111257,-0.40102508,331.79919,932.7855)"
         d="m 472.85713,73.571426 c 0,8.284272 -16.30963,15 -36.42857,15 -20.11895,0 -36.42857,-6.715728 -36.42857,-15 0,-8.284271 16.30962,-15 36.42857,-15 20.11894,0 36.42857,6.715729 36.42857,15 z"
         sodipodi:ry="15"
         sodipodi:rx="36.42857"
         sodipodi:cy="73.571426"
         sodipodi:cx="436.42856"
         id="path3937"
         style="fill:#77817c;fill-opacity:1;stroke:none;display:inline"
         sodipodi:type="arc" />
      <path
         sodipodi:type="arc"
         style="fill:#494f4c;fill-opacity:1;stroke:none;display:inline"
         id="path3939"
         sodipodi:cx="436.42856"
         sodipodi:cy="73.571426"
         sodipodi:rx="36.42857"
         sodipodi:ry="15"
         d="m 472.85713,73.571426 c 0,8.284272 -16.30963,15 -36.42857,15 -20.11895,0 -36.42857,-6.715728 -36.42857,-15 0,-8.284271 16.30962,-15 36.42857,-15 20.11894,0 36.42857,6.715729 36.42857,15 z"
         transform="matrix(-0.33315867,0.25846226,-0.29594217,-0.38147036,324.13074,938.29063)" />
      <path
         transform="matrix(-0.26104085,0.20251375,-0.20251375,-0.26104085,284.28158,952.32277)"
         d="m 472.85713,73.571426 c 0,8.284272 -16.30963,15 -36.42857,15 -20.11895,0 -36.42857,-6.715728 -36.42857,-15 0,-8.284271 16.30962,-15 36.42857,-15 20.11894,0 36.42857,6.715729 36.42857,15 z"
         sodipodi:ry="15"
         sodipodi:rx="36.42857"
         sodipodi:cy="73.571426"
         sodipodi:cx="436.42856"
         id="path3941"
         style="fill:#212422;fill-opacity:1;stroke:none;display:inline"
         sodipodi:type="arc" />
      <path
         sodipodi:type="arc"
         style="fill:#77817c;fill-opacity:1;stroke:none;display:inline"
         id="path3943"
         sodipodi:cx="436.42856"
         sodipodi:cy="73.571426"
         sodipodi:rx="36.42857"
         sodipodi:ry="15"
         d="m 472.85713,73.571426 c 0,8.284272 -16.30963,15 -36.42857,15 -20.11895,0 -36.42857,-6.715728 -36.42857,-15 0,-8.284271 16.30962,-15 36.42857,-15 20.11894,0 36.42857,6.715729 36.42857,15 z"
         transform="matrix(-0.08749775,0.28302922,-0.32407156,-0.10018592,247.28898,864.2008)" />
      <path
         transform="matrix(-0.08323122,0.26922816,-0.30826922,-0.09530067,245.20295,870.15473)"
         d="m 472.85713,73.571426 c 0,8.284272 -16.30963,15 -36.42857,15 -20.11895,0 -36.42857,-6.715728 -36.42857,-15 0,-8.284271 16.30962,-15 36.42857,-15 20.11894,0 36.42857,6.715729 36.42857,15 z"
         sodipodi:ry="15"
         sodipodi:rx="36.42857"
         sodipodi:cy="73.571426"
         sodipodi:cx="436.42856"
         id="path3945"
         style="fill:#494f4c;fill-opacity:1;stroke:none;display:inline"
         sodipodi:type="arc" />
      <path
         sodipodi:type="arc"
         style="fill:#212422;fill-opacity:1;stroke:none;display:inline"
         id="path3947"
         sodipodi:cx="436.42856"
         sodipodi:cy="73.571426"
         sodipodi:rx="36.42857"
         sodipodi:ry="15"
         d="m 472.85713,73.571426 c 0,8.284272 -16.30963,15 -36.42857,15 -20.11895,0 -36.42857,-6.715728 -36.42857,-15 0,-8.284271 16.30962,-15 36.42857,-15 20.11894,0 36.42857,6.715729 36.42857,15 z"
         transform="matrix(-0.0652144,0.21094919,-0.21094919,-0.0652144,228.77336,893.11675)" />
      <path
         transform="matrix(-0.18615991,-0.16405707,0.18784718,-0.21315515,121.22311,1104.5164)"
         d="m 472.85713,73.571426 c 0,8.284272 -16.30963,15 -36.42857,15 -20.11895,0 -36.42857,-6.715728 -36.42857,-15 0,-8.284271 16.30962,-15 36.42857,-15 20.11894,0 36.42857,6.715729 36.42857,15 z"
         sodipodi:ry="15"
         sodipodi:rx="36.42857"
         sodipodi:cy="73.571426"
         sodipodi:cx="436.42856"
         id="path3949"
         style="fill:#77817c;fill-opacity:1;stroke:none;display:inline"
         sodipodi:type="arc" />
      <path
         sodipodi:type="arc"
         style="fill:#494f4c;fill-opacity:1;stroke:none;display:inline"
         id="path3951"
         sodipodi:cx="436.42856"
         sodipodi:cy="73.571426"
         sodipodi:rx="36.42857"
         sodipodi:ry="15"
         d="m 472.85713,73.571426 c 0,8.284272 -16.30963,15 -36.42857,15 -20.11895,0 -36.42857,-6.715728 -36.42857,-15 0,-8.284271 16.30962,-15 36.42857,-15 20.11894,0 36.42857,6.715729 36.42857,15 z"
         transform="matrix(-0.17708239,-0.15605735,0.1786874,-0.2027613,117.39124,1100.8777)" />
      <path
         transform="matrix(-0.13874993,-0.12227611,0.12227611,-0.13874993,105.49318,1080.4397)"
         d="m 472.85713,73.571426 c 0,8.284272 -16.30963,15 -36.42857,15 -20.11895,0 -36.42857,-6.715728 -36.42857,-15 0,-8.284271 16.30962,-15 36.42857,-15 20.11894,0 36.42857,6.715729 36.42857,15 z"
         sodipodi:ry="15"
         sodipodi:rx="36.42857"
         sodipodi:cy="73.571426"
         sodipodi:cx="436.42856"
         id="path3953"
         style="fill:#212422;fill-opacity:1;stroke:none;display:inline"
         sodipodi:type="arc" />
      <path
         transform="matrix(-0.01144665,-0.22706403,0.25999081,-0.01310652,39.361164,1054.341)"
         d="m 472.85713,73.571426 c 0,8.284272 -16.30963,15 -36.42857,15 -20.11895,0 -36.42857,-6.715728 -36.42857,-15 0,-8.284271 16.30962,-15 36.42857,-15 20.11894,0 36.42857,6.715729 36.42857,15 z"
         sodipodi:ry="15"
         sodipodi:rx="36.42857"
         sodipodi:cy="73.571426"
         sodipodi:cx="436.42856"
         id="path3955"
         style="fill:#77817c;fill-opacity:1;stroke:none;display:inline"
         sodipodi:type="arc" />
      <path
         sodipodi:type="arc"
         style="fill:#494f4c;fill-opacity:1;stroke:none;display:inline"
         id="path3957"
         sodipodi:cx="436.42856"
         sodipodi:cy="73.571426"
         sodipodi:rx="36.42857"
         sodipodi:ry="15"
         d="m 472.85713,73.571426 c 0,8.284272 -16.30963,15 -36.42857,15 -20.11895,0 -36.42857,-6.715728 -36.42857,-15 0,-8.284271 16.30962,-15 36.42857,-15 20.11894,0 36.42857,6.715729 36.42857,15 z"
         transform="matrix(-0.01088848,-0.21599195,0.24731319,-0.01246743,39.29727,1049.4999)" />
      <path
         transform="matrix(-0.00853148,-0.16923686,0.16923686,-0.00853148,45.094965,1028.6214)"
         d="m 472.85713,73.571426 c 0,8.284272 -16.30963,15 -36.42857,15 -20.11895,0 -36.42857,-6.715728 -36.42857,-15 0,-8.284271 16.30962,-15 36.42857,-15 20.11894,0 36.42857,6.715729 36.42857,15 z"
         sodipodi:ry="15"
         sodipodi:rx="36.42857"
         sodipodi:cy="73.571426"
         sodipodi:cx="436.42856"
         id="path3959"
         style="fill:#212422;fill-opacity:1;stroke:none;display:inline"
         sodipodi:type="arc" />
      <path
         sodipodi:type="arc"
         style="fill:#77817c;fill-opacity:1;stroke:none;display:inline"
         id="path3961"
         sodipodi:cx="436.42856"
         sodipodi:cy="73.571426"
         sodipodi:rx="36.42857"
         sodipodi:ry="15"
         d="m 472.85713,73.571426 c 0,8.284272 -16.30963,15 -36.42857,15 -20.11895,0 -36.42857,-6.715728 -36.42857,-15 0,-8.284271 16.30962,-15 36.42857,-15 20.11894,0 36.42857,6.715729 36.42857,15 z"
         transform="matrix(-8.7376892e-4,0.22735069,-0.26031905,-0.0010005,191.51879,846.28815)" />
      <path
         transform="matrix(-8.311739e-4,0.21626463,-0.24762541,-9.5170474e-4,191.32029,851.12572)"
         d="m 472.85713,73.571426 c 0,8.284272 -16.30963,15 -36.42857,15 -20.11895,0 -36.42857,-6.715728 -36.42857,-15 0,-8.284271 16.30962,-15 36.42857,-15 20.11894,0 36.42857,6.715729 36.42857,15 z"
         sodipodi:ry="15"
         sodipodi:rx="36.42857"
         sodipodi:cy="73.571426"
         sodipodi:cx="436.42856"
         id="path3963"
         style="fill:#494f4c;fill-opacity:1;stroke:none;display:inline"
         sodipodi:type="arc" />
      <path
         sodipodi:type="arc"
         style="fill:#212422;fill-opacity:1;stroke:none;display:inline"
         id="path3965"
         sodipodi:cx="436.42856"
         sodipodi:cy="73.571426"
         sodipodi:rx="36.42857"
         sodipodi:ry="15"
         d="m 472.85713,73.571426 c 0,8.284272 -16.30963,15 -36.42857,15 -20.11895,0 -36.42857,-6.715728 -36.42857,-15 0,-8.284271 16.30962,-15 36.42857,-15 20.11894,0 36.42857,6.715729 36.42857,15 z"
         transform="matrix(-6.5124462e-4,0.16945051,-0.16945051,-6.5124462e-4,184.39979,871.6593)" />
    </g>
    <g
       id="g3085"
       transform="matrix(1.5179466,0,0,1.5179466,270.30228,-483.1746)"
       inkscape:export-filename="/media/henry/Work/Projects/MoonWar/Art/moon.png"
       inkscape:export-xdpi="90"
       inkscape:export-ydpi="90">
      <path
         sodipodi:type="arc"
         style="fill:url(#radialGradient3183);fill-opacity:1;stroke:none;display:inline"
         id="path3087"
         sodipodi:cx="396.98996"
         sodipodi:cy="295.14209"
         sodipodi:rx="168.69548"
         sodipodi:ry="168.69548"
         d="m 565.68544,295.14209 c 0,93.16794 -75.52754,168.69548 -168.69548,168.69548 -93.16794,0 -168.69548,-75.52754 -168.69548,-168.69548 0,-93.16794 75.52754,-168.69548 168.69548,-168.69548 93.16794,0 168.69548,75.52754 168.69548,168.69548 z"
         transform="matrix(0.52646486,0,0,0.52646486,-107.35249,796.79072)" />
      <path
         style="fill:#bdc2bf;fill-opacity:1;stroke:none;display:inline"
         d="m 180.88845,952.17265 c 0,43.76287 -7.78211,16.66432 -25.41997,-24.78125 -6.26431,-14.71992 -29.42945,-30.45223 -38.75895,-34.01829 -43.730866,-16.71547 -58.823608,-20.44012 -15.06076,-20.44012 43.76288,0 79.23968,35.4768 79.23968,79.23966 z"
         id="path3089"
         inkscape:connector-curvature="0"
         sodipodi:nodetypes="sssss" />
      <path
         sodipodi:nodetypes="sssss"
         inkscape:connector-curvature="0"
         id="path3091"
         d="m 23.51888,950.93762 c 0,-43.76286 7.782111,-16.66433 25.419979,24.78127 6.264303,14.7199 29.42945,30.45221 38.758941,34.01821 43.73087,16.7155 58.8236,20.4402 15.06074,20.4402 -43.762858,0 -79.23966,-35.47682 -79.23966,-79.23968 z"
         style="fill:#727c76;fill-opacity:1;stroke:none;display:inline" />
      <path
         sodipodi:type="arc"
         style="fill:#77817c;fill-opacity:1;stroke:none;display:inline"
         id="path3093"
         sodipodi:cx="436.42856"
         sodipodi:cy="73.571426"
         sodipodi:rx="36.42857"
         sodipodi:ry="15"
         d="m 472.85713,73.571426 c 0,8.284272 -16.30963,15 -36.42857,15 -20.11895,0 -36.42857,-6.715728 -36.42857,-15 0,-8.284271 16.30962,-15 36.42857,-15 20.11894,0 36.42857,6.715729 36.42857,15 z"
         transform="matrix(0.635002,0,0,0.72708426,-176.37564,828.25736)" />
      <path
         transform="matrix(0.60403807,0,0,0.69163032,-162.86212,828.75989)"
         d="m 472.85713,73.571426 c 0,8.284272 -16.30963,15 -36.42857,15 -20.11895,0 -36.42857,-6.715728 -36.42857,-15 0,-8.284271 16.30962,-15 36.42857,-15 20.11894,0 36.42857,6.715729 36.42857,15 z"
         sodipodi:ry="15"
         sodipodi:rx="36.42857"
         sodipodi:cy="73.571426"
         sodipodi:cx="436.42856"
         id="path3095"
         style="fill:#494f4c;fill-opacity:1;stroke:none;display:inline"
         sodipodi:type="arc" />
      <path
         sodipodi:type="arc"
         style="fill:#212422;fill-opacity:1;stroke:none;display:inline"
         id="path3097"
         sodipodi:cx="436.42856"
         sodipodi:cy="73.571426"
         sodipodi:rx="36.42857"
         sodipodi:ry="15"
         d="m 472.85713,73.571426 c 0,8.284272 -16.30963,15 -36.42857,15 -20.11895,0 -36.42857,-6.715728 -36.42857,-15 0,-8.284271 16.30962,-15 36.42857,-15 20.11894,0 36.42857,6.715729 36.42857,15 z"
         transform="matrix(0.4732839,0,0,0.4732839,-105.43733,847.8685)" />
      <path
         transform="matrix(0.2390433,0.3732978,-0.42743013,0.27370722,83.407738,723.25668)"
         d="m 472.85713,73.571426 c 0,8.284272 -16.30963,15 -36.42857,15 -20.11895,0 -36.42857,-6.715728 -36.42857,-15 0,-8.284271 16.30962,-15 36.42857,-15 20.11894,0 36.42857,6.715729 36.42857,15 z"
         sodipodi:ry="15"
         sodipodi:rx="36.42857"
         sodipodi:cy="73.571426"
         sodipodi:cx="436.42856"
         id="path3099"
         style="fill:#77817c;fill-opacity:1;stroke:none;display:inline"
         sodipodi:type="arc" />
      <path
         sodipodi:type="arc"
         style="fill:#494f4c;fill-opacity:1;stroke:none;display:inline"
         id="path3101"
         sodipodi:cx="436.42856"
         sodipodi:cy="73.571426"
         sodipodi:rx="36.42857"
         sodipodi:ry="15"
         d="m 472.85713,73.571426 c 0,8.284272 -16.30963,15 -36.42857,15 -20.11895,0 -36.42857,-6.715728 -36.42857,-15 0,-8.284271 16.30962,-15 36.42857,-15 20.11894,0 36.42857,6.715729 36.42857,15 z"
         transform="matrix(0.22738711,0.35509513,-0.40658786,0.26036074,88.199402,731.39005)" />
      <path
         transform="matrix(0.17816534,0.27822879,-0.27822879,0.17816534,98.583317,772.34161)"
         d="m 472.85713,73.571426 c 0,8.284272 -16.30963,15 -36.42857,15 -20.11895,0 -36.42857,-6.715728 -36.42857,-15 0,-8.284271 16.30962,-15 36.42857,-15 20.11894,0 36.42857,6.715729 36.42857,15 z"
         sodipodi:ry="15"
         sodipodi:rx="36.42857"
         sodipodi:cy="73.571426"
         sodipodi:cx="436.42856"
         id="path3103"
         style="fill:#212422;fill-opacity:1;stroke:none;display:inline"
         sodipodi:type="arc" />
      <path
         sodipodi:type="arc"
         style="fill:#77817c;fill-opacity:1;stroke:none;display:inline"
         id="path3105"
         sodipodi:cx="436.42856"
         sodipodi:cy="73.571426"
         sodipodi:rx="36.42857"
         sodipodi:ry="15"
         d="m 472.85713,73.571426 c 0,8.284272 -16.30963,15 -36.42857,15 -20.11895,0 -36.42857,-6.715728 -36.42857,-15 0,-8.284271 16.30962,-15 36.42857,-15 20.11894,0 36.42857,6.715729 36.42857,15 z"
         transform="matrix(-0.28220436,0.34183865,-0.39140902,-0.32312709,295.42397,868.4434)" />
      <path
         transform="matrix(-0.26844355,0.32516996,-0.37232323,-0.30737082,289.14783,875.49476)"
         d="m 472.85713,73.571426 c 0,8.284272 -16.30963,15 -36.42857,15 -20.11895,0 -36.42857,-6.715728 -36.42857,-15 0,-8.284271 16.30962,-15 36.42857,-15 20.11894,0 36.42857,6.715729 36.42857,15 z"
         sodipodi:ry="15"
         sodipodi:rx="36.42857"
         sodipodi:cy="73.571426"
         sodipodi:cx="436.42856"
         id="path3107"
         style="fill:#494f4c;fill-opacity:1;stroke:none;display:inline"
         sodipodi:type="arc" />
      <path
         sodipodi:type="arc"
         style="fill:#212422;fill-opacity:1;stroke:none;display:inline"
         id="path3109"
         sodipodi:cx="436.42856"
         sodipodi:cy="73.571426"
         sodipodi:rx="36.42857"
         sodipodi:ry="15"
         d="m 472.85713,73.571426 c 0,8.284272 -16.30963,15 -36.42857,15 -20.11895,0 -36.42857,-6.715728 -36.42857,-15 0,-8.284271 16.30962,-15 36.42857,-15 20.11894,0 36.42857,6.715729 36.42857,15 z"
         transform="matrix(-0.21033441,0.25478145,-0.25478145,-0.21033441,253.34073,897.91593)" />
      <path
         transform="matrix(-0.3205815,-0.60390693,0.69148002,-0.36706935,133.71035,1272.603)"
         d="m 472.85713,73.571426 c 0,8.284272 -16.30963,15 -36.42857,15 -20.11895,0 -36.42857,-6.715728 -36.42857,-15 0,-8.284271 16.30962,-15 36.42857,-15 20.11894,0 36.42857,6.715729 36.42857,15 z"
         sodipodi:ry="15"
         sodipodi:rx="36.42857"
         sodipodi:cy="73.571426"
         sodipodi:cx="436.42856"
         id="path3111"
         style="fill:#77817c;fill-opacity:1;stroke:none;display:inline"
         sodipodi:type="arc" />
      <path
         sodipodi:type="arc"
         style="fill:#494f4c;fill-opacity:1;stroke:none;display:inline"
         id="path3113"
         sodipodi:cx="436.42856"
         sodipodi:cy="73.571426"
         sodipodi:rx="36.42857"
         sodipodi:ry="15"
         d="m 472.85713,73.571426 c 0,8.284272 -16.30963,15 -36.42857,15 -20.11895,0 -36.42857,-6.715728 -36.42857,-15 0,-8.284271 16.30962,-15 36.42857,-15 20.11894,0 36.42857,6.715729 36.42857,15 z"
         transform="matrix(-0.30494936,-0.57445925,0.65776222,-0.34917038,127.36594,1259.4973)" />
      <path
         transform="matrix(-0.23893792,-0.45010785,0.45010785,-0.23893792,116.54786,1195.2376)"
         d="m 472.85713,73.571426 c 0,8.284272 -16.30963,15 -36.42857,15 -20.11895,0 -36.42857,-6.715728 -36.42857,-15 0,-8.284271 16.30962,-15 36.42857,-15 20.11894,0 36.42857,6.715729 36.42857,15 z"
         sodipodi:ry="15"
         sodipodi:rx="36.42857"
         sodipodi:cy="73.571426"
         sodipodi:cx="436.42856"
         id="path3115"
         style="fill:#212422;fill-opacity:1;stroke:none;display:inline"
         sodipodi:type="arc" />
      <path
         sodipodi:type="arc"
         style="fill:#77817c;fill-opacity:1;stroke:none;display:inline"
         id="path3117"
         sodipodi:cx="436.42856"
         sodipodi:cy="73.571426"
         sodipodi:rx="36.42857"
         sodipodi:ry="15"
         d="m 472.85713,73.571426 c 0,8.284272 -16.30963,15 -36.42857,15 -20.11895,0 -36.42857,-6.715728 -36.42857,-15 0,-8.284271 16.30962,-15 36.42857,-15 20.11894,0 36.42857,6.715729 36.42857,15 z"
         transform="matrix(-0.44211423,-0.0320617,0.03671102,-0.50622565,281.61557,1079.6546)" />
      <path
         transform="matrix(-0.42055594,-0.03049832,0.03492091,-0.48154119,272.23227,1078.6222)"
         d="m 472.85713,73.571426 c 0,8.284272 -16.30963,15 -36.42857,15 -20.11895,0 -36.42857,-6.715728 -36.42857,-15 0,-8.284271 16.30962,-15 36.42857,-15 20.11894,0 36.42857,6.715729 36.42857,15 z"
         sodipodi:ry="15"
         sodipodi:rx="36.42857"
         sodipodi:cy="73.571426"
         sodipodi:cx="436.42856"
         id="path3119"
         style="fill:#494f4c;fill-opacity:1;stroke:none;display:inline"
         sodipodi:type="arc" />
      <path
         sodipodi:type="arc"
         style="fill:#212422;fill-opacity:1;stroke:none;display:inline"
         id="path3121"
         sodipodi:cx="436.42856"
         sodipodi:cy="73.571426"
         sodipodi:rx="36.42857"
         sodipodi:ry="15"
         d="m 472.85713,73.571426 c 0,8.284272 -16.30963,15 -36.42857,15 -20.11895,0 -36.42857,-6.715728 -36.42857,-15 0,-8.284271 16.30962,-15 36.42857,-15 20.11894,0 36.42857,6.715729 36.42857,15 z"
         transform="matrix(-0.32951951,-0.02389644,0.02389644,-0.32951951,233.2156,1062.4186)" />
      <path
         transform="matrix(0.22430525,-0.38233508,0.43777788,0.256832,-91.929915,1064.5514)"
         d="m 472.85713,73.571426 c 0,8.284272 -16.30963,15 -36.42857,15 -20.11895,0 -36.42857,-6.715728 -36.42857,-15 0,-8.284271 16.30962,-15 36.42857,-15 20.11894,0 36.42857,6.715729 36.42857,15 z"
         sodipodi:ry="15"
         sodipodi:rx="36.42857"
         sodipodi:cy="73.571426"
         sodipodi:cx="436.42856"
         id="path3123"
         style="fill:#77817c;fill-opacity:1;stroke:none;display:inline"
         sodipodi:type="arc" />
      <path
         sodipodi:type="arc"
         style="fill:#494f4c;fill-opacity:1;stroke:none;display:inline"
         id="path3125"
         sodipodi:cx="436.42856"
         sodipodi:cy="73.571426"
         sodipodi:rx="36.42857"
         sodipodi:ry="15"
         d="m 472.85713,73.571426 c 0,8.284272 -16.30963,15 -36.42857,15 -20.11895,0 -36.42857,-6.715728 -36.42857,-15 0,-8.284271 16.30962,-15 36.42857,-15 20.11894,0 36.42857,6.715729 36.42857,15 z"
         transform="matrix(0.21336773,-0.36369172,0.41643102,0.2443084,-86.853879,1056.5924)" />
      <path
         transform="matrix(0.16718066,-0.2849645,0.2849645,0.16718066,-55.064108,1028.7668)"
         d="m 472.85713,73.571426 c 0,8.284272 -16.30963,15 -36.42857,15 -20.11895,0 -36.42857,-6.715728 -36.42857,-15 0,-8.284271 16.30962,-15 36.42857,-15 20.11894,0 36.42857,6.715729 36.42857,15 z"
         sodipodi:ry="15"
         sodipodi:rx="36.42857"
         sodipodi:cy="73.571426"
         sodipodi:cx="436.42856"
         id="path3127"
         style="fill:#212422;fill-opacity:1;stroke:none;display:inline"
         sodipodi:type="arc" />
      <path
         sodipodi:type="arc"
         style="fill:#77817c;fill-opacity:1;stroke:none;display:inline"
         id="path3129"
         sodipodi:cx="436.42856"
         sodipodi:cy="73.571426"
         sodipodi:rx="36.42857"
         sodipodi:ry="15"
         d="m 472.85713,73.571426 c 0,8.284272 -16.30963,15 -36.42857,15 -20.11895,0 -36.42857,-6.715728 -36.42857,-15 0,-8.284271 16.30962,-15 36.42857,-15 20.11894,0 36.42857,6.715729 36.42857,15 z"
         transform="matrix(-0.03180997,-0.44213243,0.50624653,-0.03642276,-9.7543324,1147.7303)" />
      <path
         transform="matrix(-0.03025885,-0.42057322,0.481561,-0.03464672,-10.08137,1138.2961)"
         d="m 472.85713,73.571426 c 0,8.284272 -16.30963,15 -36.42857,15 -20.11895,0 -36.42857,-6.715728 -36.42857,-15 0,-8.284271 16.30962,-15 36.42857,-15 20.11894,0 36.42857,6.715729 36.42857,15 z"
         sodipodi:ry="15"
         sodipodi:rx="36.42857"
         sodipodi:cy="73.571426"
         sodipodi:cx="436.42856"
         id="path3131"
         style="fill:#494f4c;fill-opacity:1;stroke:none;display:inline"
         sodipodi:type="arc" />
      <path
         sodipodi:type="arc"
         style="fill:#212422;fill-opacity:1;stroke:none;display:inline"
         id="path3133"
         sodipodi:cx="436.42856"
         sodipodi:cy="73.571426"
         sodipodi:rx="36.42857"
         sodipodi:ry="15"
         d="m 472.85713,73.571426 c 0,8.284272 -16.30963,15 -36.42857,15 -20.11895,0 -36.42857,-6.715728 -36.42857,-15 0,-8.284271 16.30962,-15 36.42857,-15 20.11894,0 36.42857,6.715729 36.42857,15 z"
         transform="matrix(-0.02370882,-0.32953306,0.32953306,-0.02370882,0.34670294,1097.3557)" />
      <path
         transform="matrix(0.36497922,-0.25156139,0.28804054,0.41790525,-130.46979,959.24798)"
         d="m 472.85713,73.571426 c 0,8.284272 -16.30963,15 -36.42857,15 -20.11895,0 -36.42857,-6.715728 -36.42857,-15 0,-8.284271 16.30962,-15 36.42857,-15 20.11894,0 36.42857,6.715729 36.42857,15 z"
         sodipodi:ry="15"
         sodipodi:rx="36.42857"
         sodipodi:cy="73.571426"
         sodipodi:cx="436.42856"
         id="path3135"
         style="fill:#77817c;fill-opacity:1;stroke:none;display:inline"
         sodipodi:type="arc" />
      <path
         sodipodi:type="arc"
         style="fill:#494f4c;fill-opacity:1;stroke:none;display:inline"
         id="path3137"
         sodipodi:cx="436.42856"
         sodipodi:cy="73.571426"
         sodipodi:rx="36.42857"
         sodipodi:ry="15"
         d="m 472.85713,73.571426 c 0,8.284272 -16.30963,15 -36.42857,15 -20.11895,0 -36.42857,-6.715728 -36.42857,-15 0,-8.284271 16.30962,-15 36.42857,-15 20.11894,0 36.42857,6.715729 36.42857,15 z"
         transform="matrix(0.34718215,-0.23929478,0.27399516,0.39752739,-122.50356,954.18331)" />
      <path
         transform="matrix(0.27202872,-0.18749541,0.18749541,0.27202872,-81.927563,942.41702)"
         d="m 472.85713,73.571426 c 0,8.284272 -16.30963,15 -36.42857,15 -20.11895,0 -36.42857,-6.715728 -36.42857,-15 0,-8.284271 16.30962,-15 36.42857,-15 20.11894,0 36.42857,6.715729 36.42857,15 z"
         sodipodi:ry="15"
         sodipodi:rx="36.42857"
         sodipodi:cy="73.571426"
         sodipodi:cx="436.42856"
         id="path3139"
         style="fill:#212422;fill-opacity:1;stroke:none;display:inline"
         sodipodi:type="arc" />
      <path
         sodipodi:type="arc"
         style="fill:#77817c;fill-opacity:1;stroke:none;display:inline"
         id="path3141"
         sodipodi:cx="436.42856"
         sodipodi:cy="73.571426"
         sodipodi:rx="36.42857"
         sodipodi:ry="15"
         d="m 472.85713,73.571426 c 0,8.284272 -16.30963,15 -36.42857,15 -20.11895,0 -36.42857,-6.715728 -36.42857,-15 0,-8.284271 16.30962,-15 36.42857,-15 20.11894,0 36.42857,6.715729 36.42857,15 z"
         transform="matrix(0.15760417,0.4970876,-0.56917077,0.18045848,156.44727,696.74172)" />
      <path
         transform="matrix(0.14991906,0.47284864,-0.54141693,0.171659,159.40788,707.44501)"
         d="m 472.85713,73.571426 c 0,8.284272 -16.30963,15 -36.42857,15 -20.11895,0 -36.42857,-6.715728 -36.42857,-15 0,-8.284271 16.30962,-15 36.42857,-15 20.11894,0 36.42857,6.715729 36.42857,15 z"
         sodipodi:ry="15"
         sodipodi:rx="36.42857"
         sodipodi:cy="73.571426"
         sodipodi:cx="436.42856"
         id="path3143"
         style="fill:#494f4c;fill-opacity:1;stroke:none;display:inline"
         sodipodi:type="arc" />
      <path
         sodipodi:type="arc"
         style="fill:#212422;fill-opacity:1;stroke:none;display:inline"
         id="path3145"
         sodipodi:cx="436.42856"
         sodipodi:cy="73.571426"
         sodipodi:rx="36.42857"
         sodipodi:ry="15"
         d="m 472.85713,73.571426 c 0,8.284272 -16.30963,15 -36.42857,15 -20.11895,0 -36.42857,-6.715728 -36.42857,-15 0,-8.284271 16.30962,-15 36.42857,-15 20.11894,0 36.42857,6.715729 36.42857,15 z"
         transform="matrix(0.11746657,0.3704926,-0.3704926,0.11746657,158.70196,757.1405)" />
      <path
         transform="matrix(0.19527135,0.11643967,-0.13332472,0.22358785,64.391235,812.09079)"
         d="m 472.85713,73.571426 c 0,8.284272 -16.30963,15 -36.42857,15 -20.11895,0 -36.42857,-6.715728 -36.42857,-15 0,-8.284271 16.30962,-15 36.42857,-15 20.11894,0 36.42857,6.715729 36.42857,15 z"
         sodipodi:ry="15"
         sodipodi:rx="36.42857"
         sodipodi:cy="73.571426"
         sodipodi:cx="436.42856"
         id="path3147"
         style="fill:#77817c;fill-opacity:1;stroke:none;display:inline"
         sodipodi:type="arc" />
      <path
         sodipodi:type="arc"
         style="fill:#494f4c;fill-opacity:1;stroke:none;display:inline"
         id="path3149"
         sodipodi:cx="436.42856"
         sodipodi:cy="73.571426"
         sodipodi:rx="36.42857"
         sodipodi:ry="15"
         d="m 472.85713,73.571426 c 0,8.284272 -16.30963,15 -36.42857,15 -20.11895,0 -36.42857,-6.715728 -36.42857,-15 0,-8.284271 16.30962,-15 36.42857,-15 20.11894,0 36.42857,6.715729 36.42857,15 z"
         transform="matrix(0.18574955,0.11076186,-0.12682356,0.21268528,68.454687,814.72329)" />
      <path
         transform="matrix(0.14554093,0.08678559,-0.08678559,0.14554093,82.609615,831.12937)"
         d="m 472.85713,73.571426 c 0,8.284272 -16.30963,15 -36.42857,15 -20.11895,0 -36.42857,-6.715728 -36.42857,-15 0,-8.284271 16.30962,-15 36.42857,-15 20.11894,0 36.42857,6.715729 36.42857,15 z"
         sodipodi:ry="15"
         sodipodi:rx="36.42857"
         sodipodi:cy="73.571426"
         sodipodi:cx="436.42856"
         id="path3151"
         style="fill:#212422;fill-opacity:1;stroke:none;display:inline"
         sodipodi:type="arc" />
      <path
         sodipodi:type="arc"
         style="fill:#77817c;fill-opacity:1;stroke:none;display:inline"
         id="path3153"
         sodipodi:cx="436.42856"
         sodipodi:cy="73.571426"
         sodipodi:rx="36.42857"
         sodipodi:ry="15"
         d="m 472.85713,73.571426 c 0,8.284272 -16.30963,15 -36.42857,15 -20.11895,0 -36.42857,-6.715728 -36.42857,-15 0,-8.284271 16.30962,-15 36.42857,-15 20.11894,0 36.42857,6.715729 36.42857,15 z"
         transform="matrix(-0.35023685,0.27171143,-0.31111257,-0.40102508,331.79919,932.7855)" />
      <path
         transform="matrix(-0.33315867,0.25846226,-0.29594217,-0.38147036,324.13074,938.29063)"
         d="m 472.85713,73.571426 c 0,8.284272 -16.30963,15 -36.42857,15 -20.11895,0 -36.42857,-6.715728 -36.42857,-15 0,-8.284271 16.30962,-15 36.42857,-15 20.11894,0 36.42857,6.715729 36.42857,15 z"
         sodipodi:ry="15"
         sodipodi:rx="36.42857"
         sodipodi:cy="73.571426"
         sodipodi:cx="436.42856"
         id="path3155"
         style="fill:#494f4c;fill-opacity:1;stroke:none;display:inline"
         sodipodi:type="arc" />
      <path
         sodipodi:type="arc"
         style="fill:#212422;fill-opacity:1;stroke:none;display:inline"
         id="path3157"
         sodipodi:cx="436.42856"
         sodipodi:cy="73.571426"
         sodipodi:rx="36.42857"
         sodipodi:ry="15"
         d="m 472.85713,73.571426 c 0,8.284272 -16.30963,15 -36.42857,15 -20.11895,0 -36.42857,-6.715728 -36.42857,-15 0,-8.284271 16.30962,-15 36.42857,-15 20.11894,0 36.42857,6.715729 36.42857,15 z"
         transform="matrix(-0.26104085,0.20251375,-0.20251375,-0.26104085,284.28158,952.32277)" />
      <path
         transform="matrix(-0.08749775,0.28302922,-0.32407156,-0.10018592,247.28898,864.2008)"
         d="m 472.85713,73.571426 c 0,8.284272 -16.30963,15 -36.42857,15 -20.11895,0 -36.42857,-6.715728 -36.42857,-15 0,-8.284271 16.30962,-15 36.42857,-15 20.11894,0 36.42857,6.715729 36.42857,15 z"
         sodipodi:ry="15"
         sodipodi:rx="36.42857"
         sodipodi:cy="73.571426"
         sodipodi:cx="436.42856"
         id="path3159"
         style="fill:#77817c;fill-opacity:1;stroke:none;display:inline"
         sodipodi:type="arc" />
      <path
         sodipodi:type="arc"
         style="fill:#494f4c;fill-opacity:1;stroke:none;display:inline"
         id="path3161"
         sodipodi:cx="436.42856"
         sodipodi:cy="73.571426"
         sodipodi:rx="36.42857"
         sodipodi:ry="15"
         d="m 472.85713,73.571426 c 0,8.284272 -16.30963,15 -36.42857,15 -20.11895,0 -36.42857,-6.715728 -36.42857,-15 0,-8.284271 16.30962,-15 36.42857,-15 20.11894,0 36.42857,6.715729 36.42857,15 z"
         transform="matrix(-0.08323122,0.26922816,-0.30826922,-0.09530067,245.20295,870.15473)" />
      <path
         transform="matrix(-0.0652144,0.21094919,-0.21094919,-0.0652144,228.77336,893.11675)"
         d="m 472.85713,73.571426 c 0,8.284272 -16.30963,15 -36.42857,15 -20.11895,0 -36.42857,-6.715728 -36.42857,-15 0,-8.284271 16.30962,-15 36.42857,-15 20.11894,0 36.42857,6.715729 36.42857,15 z"
         sodipodi:ry="15"
         sodipodi:rx="36.42857"
         sodipodi:cy="73.571426"
         sodipodi:cx="436.42856"
         id="path3163"
         style="fill:#212422;fill-opacity:1;stroke:none;display:inline"
         sodipodi:type="arc" />
      <path
         sodipodi:type="arc"
         style="fill:#77817c;fill-opacity:1;stroke:none;display:inline"
         id="path3165"
         sodipodi:cx="436.42856"
         sodipodi:cy="73.571426"
         sodipodi:rx="36.42857"
         sodipodi:ry="15"
         d="m 472.85713,73.571426 c 0,8.284272 -16.30963,15 -36.42857,15 -20.11895,0 -36.42857,-6.715728 -36.42857,-15 0,-8.284271 16.30962,-15 36.42857,-15 20.11894,0 36.42857,6.715729 36.42857,15 z"
         transform="matrix(-0.18615991,-0.16405707,0.18784718,-0.21315515,121.22311,1104.5164)" />
      <path
         transform="matrix(-0.17708239,-0.15605735,0.1786874,-0.2027613,117.39124,1100.8777)"
         d="m 472.85713,73.571426 c 0,8.284272 -16.30963,15 -36.42857,15 -20.11895,0 -36.42857,-6.715728 -36.42857,-15 0,-8.284271 16.30962,-15 36.42857,-15 20.11894,0 36.42857,6.715729 36.42857,15 z"
         sodipodi:ry="15"
         sodipodi:rx="36.42857"
         sodipodi:cy="73.571426"
         sodipodi:cx="436.42856"
         id="path3167"
         style="fill:#494f4c;fill-opacity:1;stroke:none;display:inline"
         sodipodi:type="arc" />
      <path
         sodipodi:type="arc"
         style="fill:#212422;fill-opacity:1;stroke:none;display:inline"
         id="path3169"
         sodipodi:cx="436.42856"
         sodipodi:cy="73.571426"
         sodipodi:rx="36.42857"
         sodipodi:ry="15"
         d="m 472.85713,73.571426 c 0,8.284272 -16.30963,15 -36.42857,15 -20.11895,0 -36.42857,-6.715728 -36.42857,-15 0,-8.284271 16.30962,-15 36.42857,-15 20.11894,0 36.42857,6.715729 36.42857,15 z"
         transform="matrix(-0.13874993,-0.12227611,0.12227611,-0.13874993,105.49318,1080.4397)" />
      <path
         sodipodi:type="arc"
         style="fill:#77817c;fill-opacity:1;stroke:none;display:inline"
         id="path3171"
         sodipodi:cx="436.42856"
         sodipodi:cy="73.571426"
         sodipodi:rx="36.42857"
         sodipodi:ry="15"
         d="m 472.85713,73.571426 c 0,8.284272 -16.30963,15 -36.42857,15 -20.11895,0 -36.42857,-6.715728 -36.42857,-15 0,-8.284271 16.30962,-15 36.42857,-15 20.11894,0 36.42857,6.715729 36.42857,15 z"
         transform="matrix(-0.01144665,-0.22706403,0.25999081,-0.01310652,39.361164,1054.341)" />
      <path
         transform="matrix(-0.01088848,-0.21599195,0.24731319,-0.01246743,39.29727,1049.4999)"
         d="m 472.85713,73.571426 c 0,8.284272 -16.30963,15 -36.42857,15 -20.11895,0 -36.42857,-6.715728 -36.42857,-15 0,-8.284271 16.30962,-15 36.42857,-15 20.11894,0 36.42857,6.715729 36.42857,15 z"
         sodipodi:ry="15"
         sodipodi:rx="36.42857"
         sodipodi:cy="73.571426"
         sodipodi:cx="436.42856"
         id="path3173"
         style="fill:#494f4c;fill-opacity:1;stroke:none;display:inline"
         sodipodi:type="arc" />
      <path
         sodipodi:type="arc"
         style="fill:#212422;fill-opacity:1;stroke:none;display:inline"
         id="path3175"
         sodipodi:cx="436.42856"
         sodipodi:cy="73.571426"
         sodipodi:rx="36.42857"
         sodipodi:ry="15"
         d="m 472.85713,73.571426 c 0,8.284272 -16.30963,15 -36.42857,15 -20.11895,0 -36.42857,-6.715728 -36.42857,-15 0,-8.284271 16.30962,-15 36.42857,-15 20.11894,0 36.42857,6.715729 36.42857,15 z"
         transform="matrix(-0.00853148,-0.16923686,0.16923686,-0.00853148,45.094965,1028.6214)" />
      <path
         transform="matrix(-8.7376892e-4,0.22735069,-0.26031905,-0.0010005,191.51879,846.28815)"
         d="m 472.85713,73.571426 c 0,8.284272 -16.30963,15 -36.42857,15 -20.11895,0 -36.42857,-6.715728 -36.42857,-15 0,-8.284271 16.30962,-15 36.42857,-15 20.11894,0 36.42857,6.715729 36.42857,15 z"
         sodipodi:ry="15"
         sodipodi:rx="36.42857"
         sodipodi:cy="73.571426"
         sodipodi:cx="436.42856"
         id="path3177"
         style="fill:#77817c;fill-opacity:1;stroke:none;display:inline"
         sodipodi:type="arc" />
      <path
         sodipodi:type="arc"
         style="fill:#494f4c;fill-opacity:1;stroke:none;display:inline"
         id="path3179"
         sodipodi:cx="436.42856"
         sodipodi:cy="73.571426"
         sodipodi:rx="36.42857"
         sodipodi:ry="15"
         d="m 472.85713,73.571426 c 0,8.284272 -16.30963,15 -36.42857,15 -20.11895,0 -36.42857,-6.715728 -36.42857,-15 0,-8.284271 16.30962,-15 36.42857,-15 20.11894,0 36.42857,6.715729 36.42857,15 z"
         transform="matrix(-8.311739e-4,0.21626463,-0.24762541,-9.5170474e-4,191.32029,851.12572)" />
      <path
         transform="matrix(-6.5124462e-4,0.16945051,-0.16945051,-6.5124462e-4,184.39979,871.6593)"
         d="m 472.85713,73.571426 c 0,8.284272 -16.30963,15 -36.42857,15 -20.11895,0 -36.42857,-6.715728 -36.42857,-15 0,-8.284271 16.30962,-15 36.42857,-15 20.11894,0 36.42857,6.715729 36.42857,15 z"
         sodipodi:ry="15"
         sodipodi:rx="36.42857"
         sodipodi:cy="73.571426"
         sodipodi:cx="436.42856"
         id="path3181"
         style="fill:#212422;fill-opacity:1;stroke:none;display:inline"
         sodipodi:type="arc" />
    </g>
  </g>
</svg>
