<?xml version="1.0" encoding="UTF-8" standalone="no"?>
<!-- Created with Inkscape (http://www.inkscape.org/) -->

<svg
   xmlns:dc="http://purl.org/dc/elements/1.1/"
   xmlns:cc="http://creativecommons.org/ns#"
   xmlns:rdf="http://www.w3.org/1999/02/22-rdf-syntax-ns#"
   xmlns:svg="http://www.w3.org/2000/svg"
   xmlns="http://www.w3.org/2000/svg"
   xmlns:sodipodi="http://sodipodi.sourceforge.net/DTD/sodipodi-0.dtd"
   xmlns:inkscape="http://www.inkscape.org/namespaces/inkscape"
   width="550"
   height="440"
   id="svg3829"
   version="1.1"
   inkscape:version="0.48.3.1 r9886"
   sodipodi:docname="ashPush.svg">
  <defs
     id="defs3831" />
  <sodipodi:namedview
     id="base"
     pagecolor="#ffffff"
     bordercolor="#666666"
     borderopacity="1.0"
     inkscape:pageopacity="0.0"
     inkscape:pageshadow="2"
     inkscape:zoom="3.959798"
     inkscape:cx="424.66814"
     inkscape:cy="216.50555"
     inkscape:document-units="px"
     inkscape:current-layer="layer1"
     showgrid="false"
     inkscape:window-width="1366"
     inkscape:window-height="710"
     inkscape:window-x="0"
     inkscape:window-y="27"
     inkscape:window-maximized="1" />
  <metadata
     id="metadata3834">
    <rdf:RDF>
      <cc:Work
         rdf:about="">
        <dc:format>image/svg+xml</dc:format>
        <dc:type
           rdf:resource="http://purl.org/dc/dcmitype/StillImage" />
        <dc:title></dc:title>
      </cc:Work>
    </rdf:RDF>
  </metadata>
  <g
     inkscape:label="Layer 1"
     inkscape:groupmode="layer"
     id="layer1"
     transform="translate(0,-612.36218)">
    <path
       transform="matrix(-0.18426324,-0.6768014,0.6768014,-0.18426324,279.92526,1096.7449)"
       d="m 368.70569,273.32483 a 37.375645,39.39595 0 1 1 -74.75129,0 37.375645,39.39595 0 1 1 74.75129,0 z"
       sodipodi:ry="39.39595"
       sodipodi:rx="37.375645"
       sodipodi:cy="273.32483"
       sodipodi:cx="331.33005"
       id="path4359"
       style="fill:#c6c0a5;fill-opacity:1;stroke:none"
       sodipodi:type="arc" />
    <path
       transform="matrix(-0.18426324,-0.6768014,0.6768014,-0.18426324,272.34911,1092.1993)"
       d="m 336.3808,320.29694 a 35.860416,35.860416 0 1 1 -71.72083,0 35.860416,35.860416 0 1 1 71.72083,0 z"
       sodipodi:ry="35.860416"
       sodipodi:rx="35.860416"
       sodipodi:cy="320.29694"
       sodipodi:cx="300.52039"
       id="path4361"
       style="fill:#c6c0a5;fill-opacity:1;stroke:none"
       sodipodi:type="arc" />
    <path
       transform="matrix(-0.1547953,-0.56856524,0.56856524,-0.1547953,293.04585,1050.9904)"
       d="m 398.0001,360.19794 a 41.921329,40.406101 0 1 1 -83.84266,0 41.921329,40.406101 0 1 1 83.84266,0 z"
       sodipodi:ry="40.406101"
       sodipodi:rx="41.921329"
       sodipodi:cy="360.19794"
       sodipodi:cx="356.07877"
       id="path4363"
       style="fill:#c6c0a5;fill-opacity:1;stroke:none"
       sodipodi:type="arc" />
    <path
       transform="matrix(-0.18426324,-0.6768014,0.6768014,-0.18426324,273.86434,1097.7551)"
       d="m 421.2336,295.04312 a 38.385796,37.880722 0 1 1 -76.77159,0 38.385796,37.880722 0 1 1 76.77159,0 z"
       sodipodi:ry="37.880722"
       sodipodi:rx="38.385796"
       sodipodi:cy="295.04312"
       sodipodi:cx="382.84781"
       id="path4365"
       style="fill:#c6c0a5;fill-opacity:1;stroke:none"
       sodipodi:type="arc" />
    <path
       transform="matrix(-0.18426324,-0.6768014,0.6768014,-0.18426324,273.86434,1097.7551)"
       d="m 372.74629,307.67001 a 28.789347,31.31473 0 1 1 -57.5787,0 28.789347,31.31473 0 1 1 57.5787,0 z"
       sodipodi:ry="31.31473"
       sodipodi:rx="28.789347"
       sodipodi:cy="307.67001"
       sodipodi:cx="343.95694"
       id="path4367"
       style="fill:#c6c0a5;fill-opacity:1;stroke:none"
       sodipodi:type="arc" />
    <path
       transform="matrix(-0.18426324,-0.6768014,0.6768014,-0.18426324,291.50474,1097.0665)"
       d="m 407.09147,239.48473 a 30.304577,33.840111 0 1 1 -60.60915,0 30.304577,33.840111 0 1 1 60.60915,0 z"
       sodipodi:ry="33.840111"
       sodipodi:rx="30.304577"
       sodipodi:cy="239.48473"
       sodipodi:cx="376.7869"
       id="path4369"
       style="fill:#c6c0a5;fill-opacity:1;stroke:none"
       sodipodi:type="arc" />
    <path
       sodipodi:type="arc"
       style="fill:#686349;fill-opacity:1;stroke:none"
       id="path4347"
       sodipodi:cx="331.33005"
       sodipodi:cy="273.32483"
       sodipodi:rx="37.375645"
       sodipodi:ry="39.39595"
       d="m 368.70569,273.32483 a 37.375645,39.39595 0 1 1 -74.75129,0 37.375645,39.39595 0 1 1 74.75129,0 z"
       transform="matrix(-0.09400499,-0.34528162,0.34528162,-0.09400499,338.35373,962.00234)" />
    <path
       sodipodi:type="arc"
       style="fill:#686349;fill-opacity:1;stroke:none"
       id="path4349"
       sodipodi:cx="300.52039"
       sodipodi:cy="320.29694"
       sodipodi:rx="35.860416"
       sodipodi:ry="35.860416"
       d="m 336.3808,320.29694 a 35.860416,35.860416 0 1 1 -71.72083,0 35.860416,35.860416 0 1 1 71.72083,0 z"
       transform="matrix(-0.11712234,-0.43019194,0.43019194,-0.11712234,325.1542,992.47414)" />
    <path
       sodipodi:type="arc"
       style="fill:#686349;fill-opacity:1;stroke:none"
       id="path4351"
       sodipodi:cx="356.07877"
       sodipodi:cy="360.19794"
       sodipodi:rx="41.921329"
       sodipodi:ry="40.406101"
       d="m 398.0001,360.19794 a 41.921329,40.406101 0 1 1 -83.84266,0 41.921329,40.406101 0 1 1 83.84266,0 z"
       transform="matrix(-0.11381264,-0.41803537,0.41803537,-0.11381264,326.29714,985.24221)" />
    <path
       sodipodi:type="arc"
       style="fill:#686349;fill-opacity:1;stroke:none"
       id="path4353"
       sodipodi:cx="382.84781"
       sodipodi:cy="295.04312"
       sodipodi:rx="38.385796"
       sodipodi:ry="37.880722"
       d="m 421.2336,295.04312 a 38.385796,37.880722 0 1 1 -76.77159,0 38.385796,37.880722 0 1 1 76.77159,0 z"
       transform="matrix(-0.11378319,-0.41792721,0.41792721,-0.11378319,328.50563,976.50699)" />
    <path
       sodipodi:type="arc"
       style="fill:#686349;fill-opacity:1;stroke:none"
       id="path4357"
       sodipodi:cx="376.7869"
       sodipodi:cy="239.48473"
       sodipodi:rx="30.304577"
       sodipodi:ry="33.840111"
       d="m 407.09147,239.48473 a 30.304577,33.840111 0 1 1 -60.60915,0 30.304577,33.840111 0 1 1 60.60915,0 z"
       transform="matrix(-0.14066847,-0.5166772,0.5166772,-0.14066847,317.08963,1027.4808)" />
  </g>
</svg>
