<?xml version="1.0" encoding="UTF-8" standalone="no"?>
<!-- Created with Inkscape (http://www.inkscape.org/) -->

<svg
   xmlns:dc="http://purl.org/dc/elements/1.1/"
   xmlns:cc="http://creativecommons.org/ns#"
   xmlns:rdf="http://www.w3.org/1999/02/22-rdf-syntax-ns#"
   xmlns:svg="http://www.w3.org/2000/svg"
   xmlns="http://www.w3.org/2000/svg"
   xmlns:sodipodi="http://sodipodi.sourceforge.net/DTD/sodipodi-0.dtd"
   xmlns:inkscape="http://www.inkscape.org/namespaces/inkscape"
   width="256"
   height="32"
   id="svg2"
   version="1.1"
   inkscape:version="0.48.4 r9939"
   sodipodi:docname="Explosion.svg">
  <defs
     id="defs4" />
  <sodipodi:namedview
     id="base"
     pagecolor="#ffffff"
     bordercolor="#666666"
     borderopacity="1.0"
     inkscape:pageopacity="0.0"
     inkscape:pageshadow="2"
     inkscape:zoom="8.1825513"
     inkscape:cx="220.70506"
     inkscape:cy="19.091433"
     inkscape:document-units="px"
     inkscape:current-layer="layer1"
     showgrid="true"
     inkscape:snap-from-guide="true"
     objecttolerance="4"
     gridtolerance="3"
     guidetolerance="3"
     inkscape:window-width="1360"
     inkscape:window-height="703"
     inkscape:window-x="1358"
     inkscape:window-y="-8"
     inkscape:window-maximized="1">
    <inkscape:grid
       type="xygrid"
       id="grid2993"
       empspacing="5"
       visible="true"
       enabled="true"
       snapvisiblegridlinesonly="false"
       spacingx="32px"
       spacingy="32px"
       color="#ff0000"
       opacity="1"
       empcolor="#ff003c"
       empopacity="1" />
    <inkscape:grid
       type="xygrid"
       id="grid3781"
       empspacing="5"
       visible="true"
       enabled="true"
       snapvisiblegridlinesonly="true"
       spacingx="4px"
       spacingy="4px" />
  </sodipodi:namedview>
  <metadata
     id="metadata7">
    <rdf:RDF>
      <cc:Work
         rdf:about="">
        <dc:format>image/svg+xml</dc:format>
        <dc:type
           rdf:resource="http://purl.org/dc/dcmitype/StillImage" />
        <dc:title></dc:title>
      </cc:Work>
    </rdf:RDF>
  </metadata>
  <g
     inkscape:label="Layer 1"
     inkscape:groupmode="layer"
     id="layer1"
     transform="translate(0,-1020.3622)">
    <path
       sodipodi:open="true"
       sodipodi:end="6.1850134"
       sodipodi:start="0"
       transform="matrix(8.8658203,0,0,8.8658203,106.25653,983.83312)"
       d="M 5.6735351,5.8467879 A 1.1517179,1.1517179 0 1 1 5.6679896,5.7339031"
       sodipodi:ry="1.1517179"
       sodipodi:rx="1.1517179"
       sodipodi:cy="5.8467879"
       sodipodi:cx="4.5218172"
       id="path3885"
       style="fill:#d45500;fill-opacity:0.57526881;stroke:none"
       sodipodi:type="arc" />
    <path
       transform="matrix(6.7040985,0,0,6.7040985,102.55313,949.62834)"
       d="m 7.4854561,12.629514 a 1.2245475,1.2245475 0 1 1 -2.449095,0 1.2245475,1.2245475 0 1 1 2.449095,0 z"
       sodipodi:ry="1.2245475"
       sodipodi:rx="1.2245475"
       sodipodi:cy="12.629514"
       sodipodi:cx="6.2609086"
       id="path3899"
       style="fill:#ffffff;fill-opacity:1;stroke:none"
       sodipodi:type="arc" />
    <path
       sodipodi:type="arc"
       style="fill:none;stroke:none"
       id="path2998"
       sodipodi:cx="16"
       sodipodi:cy="16"
       sodipodi:rx="16"
       sodipodi:ry="16"
       d="M 0,15.999999 A 16,16 0 0 1 31.999081,15.828542 L 16,16 z"
       transform="translate(0,1020.3622)"
       sodipodi:start="3.1415927"
       sodipodi:end="6.272469" />
    <path
       sodipodi:type="arc"
       style="fill:none;stroke:none"
       id="path3005"
       sodipodi:cx="16.131887"
       sodipodi:cy="15.134845"
       sodipodi:rx="7.088254"
       sodipodi:ry="7.088254"
       d="m 23.220141,15.134845 a 7.088254,7.088254 0 1 1 -0.03413,-0.69475"
       transform="translate(0,1020.3622)"
       sodipodi:start="0"
       sodipodi:end="6.1850134"
       sodipodi:open="true" />
    <rect
       style="fill:none;stroke:none"
       id="rect3007"
       width="38.863186"
       height="17.842842"
       x="44.240482"
       y="8.0465908"
       transform="translate(0,1020.3622)" />
    <path
       sodipodi:type="arc"
       style="fill:#ff7f2a;fill-opacity:0.13978495;stroke:none"
       id="path3779"
       sodipodi:cx="4.5218172"
       sodipodi:cy="5.8467879"
       sodipodi:rx="1.1517179"
       sodipodi:ry="1.1517179"
       d="M 5.6735351,5.8467879 A 1.1517179,1.1517179 0 1 1 5.6679896,5.7339031"
       transform="translate(-0.48524755,1018.4968)"
       sodipodi:start="0"
       sodipodi:end="6.1850134"
       sodipodi:open="true" />
    <path
       sodipodi:open="true"
       sodipodi:end="6.1850134"
       sodipodi:start="0"
       transform="matrix(2.8569628,0,0,2.8569628,4.8855351,1016.9298)"
       d="M 5.6735351,5.8467879 A 1.1517179,1.1517179 0 1 1 5.6679896,5.7339031"
       sodipodi:ry="1.1517179"
       sodipodi:rx="1.1517179"
       sodipodi:cy="5.8467879"
       sodipodi:cx="4.5218172"
       id="path3783"
       style="fill:#ff7f2a;fill-opacity:0.27956989;stroke:none"
       sodipodi:type="arc" />
    <path
       sodipodi:type="arc"
       style="fill:#ff7f2a;fill-opacity:0.24193548;stroke:none"
       id="path3785"
       sodipodi:cx="4.5218172"
       sodipodi:cy="5.8467879"
       sodipodi:rx="1.1517179"
       sodipodi:ry="1.1517179"
       d="M 5.6735351,5.8467879 A 1.1517179,1.1517179 0 1 1 5.6679896,5.7339031"
       transform="matrix(4.2364209,0,0,4.2364209,-11.251235,1019.6189)"
       sodipodi:start="0"
       sodipodi:end="6.1850134"
       sodipodi:open="true" />
    <path
       sodipodi:open="true"
       sodipodi:end="6.1850134"
       sodipodi:start="0"
       transform="matrix(3.3875236,0,0,3.3875236,9.8299048,1025.6734)"
       d="M 5.6735351,5.8467879 A 1.1517179,1.1517179 0 1 1 5.6679896,5.7339031"
       sodipodi:ry="1.1517179"
       sodipodi:rx="1.1517179"
       sodipodi:cy="5.8467879"
       sodipodi:cx="4.5218172"
       id="path3787"
       style="fill:#ff7f2a;fill-opacity:0.2311828;stroke:none"
       sodipodi:type="arc" />
    <path
       sodipodi:type="arc"
       style="fill:#ff7f2a;fill-opacity:0.27419356;stroke:none"
       id="path3789"
       sodipodi:cx="4.5218172"
       sodipodi:cy="5.8467879"
       sodipodi:rx="1.1517179"
       sodipodi:ry="1.1517179"
       d="M 5.6735351,5.8467879 A 1.1517179,1.1517179 0 1 1 5.6679896,5.7339031"
       transform="matrix(2.6977946,0,0,2.6977946,15.932117,1013.644)"
       sodipodi:start="0"
       sodipodi:end="6.1850134"
       sodipodi:open="true" />
    <path
       transform="matrix(1.8918317,0,0,1.8918317,12.921156,1020.5259)"
       d="m 7.4854561,12.629514 a 1.2245475,1.2245475 0 1 1 -2.449095,0 1.2245475,1.2245475 0 1 1 2.449095,0 z"
       sodipodi:ry="1.2245475"
       sodipodi:rx="1.2245475"
       sodipodi:cy="12.629514"
       sodipodi:cx="6.2609086"
       id="path3795"
       style="fill:#ffffff;fill-opacity:1;stroke:none"
       sodipodi:type="arc" />
    <path
       transform="matrix(1.7959456,0,0,1.7959456,-4.5460187,1019.775)"
       d="m 7.4854561,12.629514 a 1.2245475,1.2245475 0 1 1 -2.449095,0 1.2245475,1.2245475 0 1 1 2.449095,0 z"
       sodipodi:ry="1.2245475"
       sodipodi:rx="1.2245475"
       sodipodi:cy="12.629514"
       sodipodi:cx="6.2609086"
       id="path3797"
       style="fill:#ffffff;fill-opacity:1;stroke:none"
       sodipodi:type="arc" />
    <path
       sodipodi:type="arc"
       style="fill:#ffffff;stroke:none;stroke-width:0.10000000000000001;stroke-miterlimit:4;stroke-opacity:1;stroke-dasharray:none;fill-opacity:1"
       id="path3799"
       sodipodi:cx="6.2609086"
       sodipodi:cy="12.629514"
       sodipodi:rx="1.2245475"
       sodipodi:ry="1.2245475"
       d="m 7.4854561,12.629514 a 1.2245475,1.2245475 0 1 1 -2.449095,0 1.2245475,1.2245475 0 1 1 2.449095,0 z"
       transform="matrix(0.23779797,0,0,0.23779797,2.0624608,1020.7707)" />
    <path
       transform="matrix(0.66916793,0,0,0.66916793,12.091116,1023.4763)"
       d="m 7.4854561,12.629514 a 1.2245475,1.2245475 0 1 1 -2.449095,0 1.2245475,1.2245475 0 1 1 2.449095,0 z"
       sodipodi:ry="1.2245475"
       sodipodi:rx="1.2245475"
       sodipodi:cy="12.629514"
       sodipodi:cx="6.2609086"
       id="path3801"
       style="fill:#ffffff;stroke:none;stroke-width:0.10000000000000001;stroke-miterlimit:4;stroke-opacity:1;stroke-dasharray:none;fill-opacity:1"
       sodipodi:type="arc" />
    <path
       sodipodi:type="arc"
       style="fill:none;stroke:#84132a;stroke-width:0.10000000000000001;stroke-miterlimit:4;stroke-opacity:0;stroke-dasharray:none"
       id="path3803"
       sodipodi:cx="6.2609086"
       sodipodi:cy="12.629514"
       sodipodi:rx="1.2245475"
       sodipodi:ry="1.2245475"
       d="m 7.4854561,12.629514 a 1.2245475,1.2245475 0 1 1 -2.449095,0 1.2245475,1.2245475 0 1 1 2.449095,0 z"
       transform="matrix(1.7838402,0,0,1.7838402,16.519222,1006.2875)" />
    <path
       sodipodi:end="6.272469"
       sodipodi:start="3.1415927"
       transform="translate(32.019353,1020.3622)"
       d="M 0,15.999999 A 16,16 0 0 1 31.999081,15.828542 L 16,16 z"
       sodipodi:ry="16"
       sodipodi:rx="16"
       sodipodi:cy="16"
       sodipodi:cx="16"
       id="path3813"
       style="fill:none;stroke:none"
       sodipodi:type="arc" />
    <path
       sodipodi:open="true"
       sodipodi:end="6.1850134"
       sodipodi:start="0"
       transform="translate(32.019353,1020.3622)"
       d="m 23.220141,15.134845 a 7.088254,7.088254 0 1 1 -0.03413,-0.69475"
       sodipodi:ry="7.088254"
       sodipodi:rx="7.088254"
       sodipodi:cy="15.134845"
       sodipodi:cx="16.131887"
       id="path3815"
       style="fill:none;stroke:none"
       sodipodi:type="arc" />
    <path
       sodipodi:open="true"
       sodipodi:end="6.1850134"
       sodipodi:start="0"
       transform="matrix(2.3505873,0,0,2.3505873,26.982493,1012.1557)"
       d="M 5.6735351,5.8467879 A 1.1517179,1.1517179 0 1 1 5.6679896,5.7339031"
       sodipodi:ry="1.1517179"
       sodipodi:rx="1.1517179"
       sodipodi:cy="5.8467879"
       sodipodi:cx="4.5218172"
       id="path3817"
       style="fill:#ff7f2a;fill-opacity:0.5;stroke:none"
       sodipodi:type="arc" />
    <path
       sodipodi:type="arc"
       style="fill:#ff7f2a;fill-opacity:0.47849461;stroke:none"
       id="path3819"
       sodipodi:cx="4.5218172"
       sodipodi:cy="5.8467879"
       sodipodi:rx="1.1517179"
       sodipodi:ry="1.1517179"
       d="M 5.6735351,5.8467879 A 1.1517179,1.1517179 0 1 1 5.6679896,5.7339031"
       transform="matrix(5.2580069,0,0,5.2580069,25.529307,1003.3235)"
       sodipodi:start="0"
       sodipodi:end="6.1850134"
       sodipodi:open="true" />
    <path
       sodipodi:open="true"
       sodipodi:end="6.1850134"
       sodipodi:start="0"
       transform="matrix(2.7732847,0,0,2.7732847,27.42736,1027.8711)"
       d="M 5.6735351,5.8467879 A 1.1517179,1.1517179 0 1 1 5.6679896,5.7339031"
       sodipodi:ry="1.1517179"
       sodipodi:rx="1.1517179"
       sodipodi:cy="5.8467879"
       sodipodi:cx="4.5218172"
       id="path3821"
       style="fill:#d45500;fill-opacity:0.46774194;stroke:none"
       sodipodi:type="arc" />
    <path
       sodipodi:type="arc"
       style="fill:#ff7f2a;fill-opacity:0.50537634;stroke:none"
       id="path3823"
       sodipodi:cx="4.5218172"
       sodipodi:cy="5.8467879"
       sodipodi:rx="1.1517179"
       sodipodi:ry="1.1517179"
       d="M 5.6735351,5.8467879 A 1.1517179,1.1517179 0 1 1 5.6679896,5.7339031"
       transform="matrix(2.599681,0,0,2.599681,46.319111,1031.1871)"
       sodipodi:start="0"
       sodipodi:end="6.1850134"
       sodipodi:open="true" />
    <path
       sodipodi:open="true"
       sodipodi:end="6.1850134"
       sodipodi:start="0"
       transform="matrix(1.7598868,0,0,1.7598868,53.272723,1018.0475)"
       d="M 5.6735351,5.8467879 A 1.1517179,1.1517179 0 1 1 5.6679896,5.7339031"
       sodipodi:ry="1.1517179"
       sodipodi:rx="1.1517179"
       sodipodi:cy="5.8467879"
       sodipodi:cx="4.5218172"
       id="path3825"
       style="fill:#ff7f2a;fill-opacity:0.45698926;stroke:none"
       sodipodi:type="arc" />
    <path
       sodipodi:type="arc"
       style="fill:#ffffff;fill-opacity:1;stroke:none"
       id="path3827"
       sodipodi:cx="6.2609086"
       sodipodi:cy="12.629514"
       sodipodi:rx="1.2245475"
       sodipodi:ry="1.2245475"
       d="m 7.4854561,12.629514 a 1.2245475,1.2245475 0 1 1 -2.449095,0 1.2245475,1.2245475 0 1 1 2.449095,0 z"
       transform="matrix(1.4518449,0,0,1.4518449,48.691424,1027.2368)" />
    <path
       sodipodi:type="arc"
       style="fill:#ffffff;fill-opacity:1;stroke:none"
       id="path3829"
       sodipodi:cx="6.2609086"
       sodipodi:cy="12.629514"
       sodipodi:rx="1.2245475"
       sodipodi:ry="1.2245475"
       d="m 7.4854561,12.629514 a 1.2245475,1.2245475 0 1 1 -2.449095,0 1.2245475,1.2245475 0 1 1 2.449095,0 z"
       transform="matrix(1.1756784,0,0,1.1756784,31.816791,1027.9733)" />
    <path
       transform="matrix(0.55896488,0,0,0.55896488,32.971103,1017.5007)"
       d="m 7.4854561,12.629514 a 1.2245475,1.2245475 0 1 1 -2.449095,0 1.2245475,1.2245475 0 1 1 2.449095,0 z"
       sodipodi:ry="1.2245475"
       sodipodi:rx="1.2245475"
       sodipodi:cy="12.629514"
       sodipodi:cx="6.2609086"
       id="path3831"
       style="fill:#ffffff;fill-opacity:1;stroke:none"
       sodipodi:type="arc" />
    <path
       sodipodi:type="arc"
       style="fill:#ffffff;fill-opacity:1;stroke:none"
       id="path3833"
       sodipodi:cx="6.2609086"
       sodipodi:cy="12.629514"
       sodipodi:rx="1.2245475"
       sodipodi:ry="1.2245475"
       d="m 7.4854561,12.629514 a 1.2245475,1.2245475 0 1 1 -2.449095,0 1.2245475,1.2245475 0 1 1 2.449095,0 z"
       transform="matrix(3.1369412,0,0,3.1369412,28.589433,993.03596)" />
    <path
       transform="matrix(1.7838402,0,0,1.7838402,48.538575,1006.2875)"
       d="m 7.4854561,12.629514 a 1.2245475,1.2245475 0 1 1 -2.449095,0 1.2245475,1.2245475 0 1 1 2.449095,0 z"
       sodipodi:ry="1.2245475"
       sodipodi:rx="1.2245475"
       sodipodi:cy="12.629514"
       sodipodi:cx="6.2609086"
       id="path3835"
       style="fill:none;stroke:#84132a;stroke-width:0.1;stroke-miterlimit:4;stroke-opacity:0;stroke-dasharray:none"
       sodipodi:type="arc" />
    <path
       sodipodi:type="arc"
       style="fill:none;stroke:none"
       id="path3837"
       sodipodi:cx="16.131887"
       sodipodi:cy="15.134845"
       sodipodi:rx="7.088254"
       sodipodi:ry="7.088254"
       d="m 23.220141,15.134845 a 7.088254,7.088254 0 1 1 -0.03413,-0.69475"
       transform="translate(64.283129,1019.918)"
       sodipodi:start="0"
       sodipodi:end="6.1850134"
       sodipodi:open="true" />
    <path
       sodipodi:type="arc"
       style="fill:#d45500;fill-opacity:1;stroke:none"
       id="path3839"
       sodipodi:cx="4.5218172"
       sodipodi:cy="5.8467879"
       sodipodi:rx="1.1517179"
       sodipodi:ry="1.1517179"
       d="M 5.6735351,5.8467879 A 1.1517179,1.1517179 0 1 1 5.6679896,5.7339031"
       transform="matrix(1.2894657,0,0,1.2894657,62.822354,1016.6935)"
       sodipodi:start="0"
       sodipodi:end="6.1850134"
       sodipodi:open="true" />
    <path
       sodipodi:open="true"
       sodipodi:end="6.1850134"
       sodipodi:start="0"
       transform="matrix(8.8658203,0,0,8.8658203,41.845845,984.59604)"
       d="M 5.6735351,5.8467879 A 1.1517179,1.1517179 0 1 1 5.6679896,5.7339031"
       sodipodi:ry="1.1517179"
       sodipodi:rx="1.1517179"
       sodipodi:cy="5.8467879"
       sodipodi:cx="4.5218172"
       id="path3841"
       style="fill:#ff9955;fill-opacity:1;stroke:none"
       sodipodi:type="arc" />
    <path
       sodipodi:type="arc"
       style="fill:#ff7f2a;fill-opacity:0.48387095;stroke:none"
       id="path3843"
       sodipodi:cx="4.5218172"
       sodipodi:cy="5.8467879"
       sodipodi:rx="1.1517179"
       sodipodi:ry="1.1517179"
       d="M 5.6735351,5.8467879 A 1.1517179,1.1517179 0 1 1 5.6679896,5.7339031"
       transform="matrix(2.7732847,0,0,2.7732847,58.591235,1032.1931)"
       sodipodi:start="0"
       sodipodi:end="6.1850134"
       sodipodi:open="true" />
    <path
       sodipodi:open="true"
       sodipodi:end="6.1850134"
       sodipodi:start="0"
       transform="matrix(2.599681,0,0,2.599681,78.582887,1030.7429)"
       d="M 5.6735351,5.8467879 A 1.1517179,1.1517179 0 1 1 5.6679896,5.7339031"
       sodipodi:ry="1.1517179"
       sodipodi:rx="1.1517179"
       sodipodi:cy="5.8467879"
       sodipodi:cx="4.5218172"
       id="path3845"
       style="fill:#d45500;fill-opacity:1;stroke:none"
       sodipodi:type="arc" />
    <path
       sodipodi:type="arc"
       style="fill:#ff7f2a;fill-opacity:0.41935483;stroke:none"
       id="path3847"
       sodipodi:cx="4.5218172"
       sodipodi:cy="5.8467879"
       sodipodi:rx="1.1517179"
       sodipodi:ry="1.1517179"
       d="M 5.6735351,5.8467879 A 1.1517179,1.1517179 0 1 1 5.6679896,5.7339031"
       transform="matrix(1.7598868,0,0,1.7598868,85.536499,1017.6033)"
       sodipodi:start="0"
       sodipodi:end="6.1850134"
       sodipodi:open="true" />
    <path
       transform="matrix(1.4518449,0,0,1.4518449,80.9552,1026.7926)"
       d="m 7.4854561,12.629514 a 1.2245475,1.2245475 0 1 1 -2.449095,0 1.2245475,1.2245475 0 1 1 2.449095,0 z"
       sodipodi:ry="1.2245475"
       sodipodi:rx="1.2245475"
       sodipodi:cy="12.629514"
       sodipodi:cx="6.2609086"
       id="path3849"
       style="fill:#ffffff;fill-opacity:1;stroke:none"
       sodipodi:type="arc" />
    <path
       transform="matrix(2.1729251,0,0,2.0081449,56.858269,1022.4343)"
       d="m 7.4854561,12.629514 a 1.2245475,1.2245475 0 1 1 -2.449095,0 1.2245475,1.2245475 0 1 1 2.449095,0 z"
       sodipodi:ry="1.2245475"
       sodipodi:rx="1.2245475"
       sodipodi:cy="12.629514"
       sodipodi:cx="6.2609086"
       id="path3851"
       style="fill:#ffffff;fill-opacity:1;stroke:none"
       sodipodi:type="arc" />
    <path
       sodipodi:type="arc"
       style="fill:#ffffff;fill-opacity:1;stroke:none"
       id="path3853"
       sodipodi:cx="6.2609086"
       sodipodi:cy="12.629514"
       sodipodi:rx="1.2245475"
       sodipodi:ry="1.2245475"
       d="m 7.4854561,12.629514 a 1.2245475,1.2245475 0 1 1 -2.449095,0 1.2245475,1.2245475 0 1 1 2.449095,0 z"
       transform="matrix(0.55613525,0,0,0.55613525,64.850949,1016.7801)" />
    <path
       transform="matrix(5.5820698,0,0,5.5820698,44.87232,963.84964)"
       d="m 7.4854561,12.629514 a 1.2245475,1.2245475 0 1 1 -2.449095,0 1.2245475,1.2245475 0 1 1 2.449095,0 z"
       sodipodi:ry="1.2245475"
       sodipodi:rx="1.2245475"
       sodipodi:cy="12.629514"
       sodipodi:cx="6.2609086"
       id="path3855"
       style="fill:#ffffff;fill-opacity:1;stroke:none"
       sodipodi:type="arc" />
    <path
       sodipodi:type="arc"
       style="fill:none;stroke:#84132a;stroke-width:0.1;stroke-miterlimit:4;stroke-opacity:0;stroke-dasharray:none"
       id="path3857"
       sodipodi:cx="6.2609086"
       sodipodi:cy="12.629514"
       sodipodi:rx="1.2245475"
       sodipodi:ry="1.2245475"
       d="m 7.4854561,12.629514 a 1.2245475,1.2245475 0 1 1 -2.449095,0 1.2245475,1.2245475 0 1 1 2.449095,0 z"
       transform="matrix(1.7838402,0,0,1.7838402,80.802351,1005.8433)" />
    <path
       sodipodi:open="true"
       sodipodi:end="6.1850134"
       sodipodi:start="0"
       transform="translate(96.430037,1019.3995)"
       d="m 23.220141,15.134845 a 7.088254,7.088254 0 1 1 -0.03413,-0.69475"
       sodipodi:ry="7.088254"
       sodipodi:rx="7.088254"
       sodipodi:cy="15.134845"
       sodipodi:cx="16.131887"
       id="path3859"
       style="fill:none;stroke:none"
       sodipodi:type="arc" />
    <path
       sodipodi:open="true"
       sodipodi:end="6.1850134"
       sodipodi:start="0"
       transform="matrix(1.2894657,0,0,1.2894657,94.969262,1016.175)"
       d="M 5.6735351,5.8467879 A 1.1517179,1.1517179 0 1 1 5.6679896,5.7339031"
       sodipodi:ry="1.1517179"
       sodipodi:rx="1.1517179"
       sodipodi:cy="5.8467879"
       sodipodi:cx="4.5218172"
       id="path3861"
       style="fill:#d45500;fill-opacity:0.38172042;stroke:none"
       sodipodi:type="arc" />
    <path
       sodipodi:type="arc"
       style="fill:#d45500;fill-opacity:1;stroke:none"
       id="path3863"
       sodipodi:cx="4.5218172"
       sodipodi:cy="5.8467879"
       sodipodi:rx="1.1517179"
       sodipodi:ry="1.1517179"
       d="M 5.6735351,5.8467879 A 1.1517179,1.1517179 0 1 1 5.6679896,5.7339031"
       transform="matrix(8.8658203,0,0,8.8658203,73.992753,984.07754)"
       sodipodi:start="0"
       sodipodi:end="6.1850134"
       sodipodi:open="true" />
    <path
       sodipodi:open="true"
       sodipodi:end="6.1850134"
       sodipodi:start="0"
       transform="matrix(1.49773,0,0,1.49773,98.474397,1036.8424)"
       d="M 5.6735351,5.8467879 A 1.1517179,1.1517179 0 1 1 5.6679896,5.7339031"
       sodipodi:ry="1.1517179"
       sodipodi:rx="1.1517179"
       sodipodi:cy="5.8467879"
       sodipodi:cx="4.5218172"
       id="path3865"
       style="fill:#ff9955;fill-opacity:1;stroke:none"
       sodipodi:type="arc" />
    <path
       sodipodi:type="arc"
       style="fill:#d45500;fill-opacity:0.20430107;stroke:none"
       id="path3867"
       sodipodi:cx="4.5218172"
       sodipodi:cy="5.8467879"
       sodipodi:rx="1.1517179"
       sodipodi:ry="1.1517179"
       d="M 5.6735351,5.8467879 A 1.1517179,1.1517179 0 1 1 5.6679896,5.7339031"
       transform="matrix(2.599681,0,0,2.599681,110.72979,1030.2244)"
       sodipodi:start="0"
       sodipodi:end="6.1850134"
       sodipodi:open="true" />
    <path
       sodipodi:open="true"
       sodipodi:end="6.1850134"
       sodipodi:start="0"
       transform="matrix(1.7598868,0,0,1.7598868,117.68341,1017.0848)"
       d="M 5.6735351,5.8467879 A 1.1517179,1.1517179 0 1 1 5.6679896,5.7339031"
       sodipodi:ry="1.1517179"
       sodipodi:rx="1.1517179"
       sodipodi:cy="5.8467879"
       sodipodi:cx="4.5218172"
       id="path3869"
       style="fill:#ff7f2a;fill-opacity:0.41935485;stroke:none"
       sodipodi:type="arc" />
    <path
       sodipodi:type="arc"
       style="fill:#ffffff;fill-opacity:1;stroke:none"
       id="path3871"
       sodipodi:cx="6.2609086"
       sodipodi:cy="12.629514"
       sodipodi:rx="1.2245475"
       sodipodi:ry="1.2245475"
       d="m 7.4854561,12.629514 a 1.2245475,1.2245475 0 1 1 -2.449095,0 1.2245475,1.2245475 0 1 1 2.449095,0 z"
       transform="matrix(1.4518449,0,0,1.4518449,113.10211,1026.2741)" />
    <path
       sodipodi:type="arc"
       style="fill:#ffffff;fill-opacity:1;stroke:none"
       id="path3873"
       sodipodi:cx="6.2609086"
       sodipodi:cy="12.629514"
       sodipodi:rx="1.2245475"
       sodipodi:ry="1.2245475"
       d="m 7.4854561,12.629514 a 1.2245475,1.2245475 0 1 1 -2.449095,0 1.2245475,1.2245475 0 1 1 2.449095,0 z"
       transform="matrix(0.87357915,0,0,0.8073327,99.43789,1035.0233)" />
    <path
       transform="matrix(0.73256046,0,0,0.73256046,95.634026,1013.947)"
       d="m 7.4854561,12.629514 a 1.2245475,1.2245475 0 1 1 -2.449095,0 1.2245475,1.2245475 0 1 1 2.449095,0 z"
       sodipodi:ry="1.2245475"
       sodipodi:rx="1.2245475"
       sodipodi:cy="12.629514"
       sodipodi:cx="6.2609086"
       id="path3875"
       style="fill:#ffffff;fill-opacity:1;stroke:none"
       sodipodi:type="arc" />
    <path
       sodipodi:type="arc"
       style="fill:#ffffff;fill-opacity:1;stroke:none"
       id="path3877"
       sodipodi:cx="6.2609086"
       sodipodi:cy="12.629514"
       sodipodi:rx="1.2245475"
       sodipodi:ry="1.2245475"
       d="m 7.4854561,12.629514 a 1.2245475,1.2245475 0 1 1 -2.449095,0 1.2245475,1.2245475 0 1 1 2.449095,0 z"
       transform="matrix(6.0054903,0,0,6.0054903,74.541063,958.32921)" />
    <path
       transform="matrix(1.7838402,0,0,1.7838402,112.94926,1005.3248)"
       d="m 7.4854561,12.629514 a 1.2245475,1.2245475 0 1 1 -2.449095,0 1.2245475,1.2245475 0 1 1 2.449095,0 z"
       sodipodi:ry="1.2245475"
       sodipodi:rx="1.2245475"
       sodipodi:cy="12.629514"
       sodipodi:cx="6.2609086"
       id="path3879"
       style="fill:none;stroke:#84132a;stroke-width:0.1;stroke-miterlimit:4;stroke-opacity:0;stroke-dasharray:none"
       sodipodi:type="arc" />
    <path
       sodipodi:type="arc"
       style="fill:none;stroke:none"
       id="path3881"
       sodipodi:cx="16.131887"
       sodipodi:cy="15.134845"
       sodipodi:rx="7.088254"
       sodipodi:ry="7.088254"
       d="m 23.220141,15.134845 a 7.088254,7.088254 0 1 1 -0.03413,-0.69475"
       transform="translate(128.69381,1019.1551)"
       sodipodi:start="0"
       sodipodi:end="6.1850134"
       sodipodi:open="true" />
    <path
       sodipodi:type="arc"
       style="fill:#ff9955;fill-opacity:1;stroke:none"
       id="path3883"
       sodipodi:cx="4.5218172"
       sodipodi:cy="5.8467879"
       sodipodi:rx="1.1517179"
       sodipodi:ry="1.1517179"
       d="M 5.6735351,5.8467879 A 1.1517179,1.1517179 0 1 1 5.6679896,5.7339031"
       transform="matrix(3.3153466,0,0,3.3153466,129.39292,1008.7521)"
       sodipodi:start="0"
       sodipodi:end="6.1850134"
       sodipodi:open="true" />
    <path
       sodipodi:type="arc"
       style="fill:#ff9955;fill-opacity:1;stroke:none"
       id="path3887"
       sodipodi:cx="4.5218172"
       sodipodi:cy="5.8467879"
       sodipodi:rx="1.1517179"
       sodipodi:ry="1.1517179"
       d="M 5.6735351,5.8467879 A 1.1517179,1.1517179 0 1 1 5.6679896,5.7339031"
       transform="matrix(5.0524872,0,0,5.0524872,116.55848,1013.3088)"
       sodipodi:start="0"
       sodipodi:end="6.1850134"
       sodipodi:open="true" />
    <path
       sodipodi:open="true"
       sodipodi:end="6.1850134"
       sodipodi:start="0"
       transform="matrix(3.7626867,0,0,3.7626867,136.65447,1016.4829)"
       d="M 5.6735351,5.8467879 A 1.1517179,1.1517179 0 1 1 5.6679896,5.7339031"
       sodipodi:ry="1.1517179"
       sodipodi:rx="1.1517179"
       sodipodi:cy="5.8467879"
       sodipodi:cx="4.5218172"
       id="path3889"
       style="fill:#ff9955;fill-opacity:1;stroke:none"
       sodipodi:type="arc" />
    <path
       transform="matrix(2.1013492,0,0,2.1013492,139.56958,1010.8518)"
       d="m 7.4854561,12.629514 a 1.2245475,1.2245475 0 1 1 -2.449095,0 1.2245475,1.2245475 0 1 1 2.449095,0 z"
       sodipodi:ry="1.2245475"
       sodipodi:rx="1.2245475"
       sodipodi:cy="12.629514"
       sodipodi:cx="6.2609086"
       id="path3893"
       style="fill:#ffffff;fill-opacity:1;stroke:none"
       sodipodi:type="arc" />
    <path
       transform="matrix(2.9469581,0,0,3.022884,119.68658,1003.391)"
       d="m 7.4854561,12.629514 a 1.2245475,1.2245475 0 1 1 -2.449095,0 1.2245475,1.2245475 0 1 1 2.449095,0 z"
       sodipodi:ry="1.2245475"
       sodipodi:rx="1.2245475"
       sodipodi:cy="12.629514"
       sodipodi:cx="6.2609086"
       id="path3895"
       style="fill:#ffffff;fill-opacity:1;stroke:none;opacity:1"
       sodipodi:type="arc" />
    <path
       sodipodi:type="arc"
       style="fill:#ffffff;fill-opacity:1;stroke:none"
       id="path3897"
       sodipodi:cx="6.2609086"
       sodipodi:cy="12.629514"
       sodipodi:rx="1.2245475"
       sodipodi:ry="1.2245475"
       d="m 7.4854561,12.629514 a 1.2245475,1.2245475 0 1 1 -2.449095,0 1.2245475,1.2245475 0 1 1 2.449095,0 z"
       transform="matrix(1.883487,0,0,1.883487,131.66057,1003.5823)" />
    <path
       sodipodi:type="arc"
       style="fill:none;stroke:#84132a;stroke-width:0.1;stroke-miterlimit:4;stroke-opacity:0;stroke-dasharray:none"
       id="path3901"
       sodipodi:cx="6.2609086"
       sodipodi:cy="12.629514"
       sodipodi:rx="1.2245475"
       sodipodi:ry="1.2245475"
       d="m 7.4854561,12.629514 a 1.2245475,1.2245475 0 1 1 -2.449095,0 1.2245475,1.2245475 0 1 1 2.449095,0 z"
       transform="matrix(1.7838402,0,0,1.7838402,145.21304,1005.0804)" />
    <path
       sodipodi:type="arc"
       style="fill:#d45500;fill-opacity:0.2311828;stroke:none"
       id="path3903"
       sodipodi:cx="4.5218172"
       sodipodi:cy="5.8467879"
       sodipodi:rx="1.1517179"
       sodipodi:ry="1.1517179"
       d="M 5.6735351,5.8467879 A 1.1517179,1.1517179 0 1 1 5.6679896,5.7339031"
       transform="matrix(8.8658203,0,0,8.8658203,138.16621,983.73187)"
       sodipodi:start="0"
       sodipodi:end="6.1850134"
       sodipodi:open="true" />
    <path
       sodipodi:type="arc"
       style="fill:#ffffff;fill-opacity:1;stroke:none"
       id="path3905"
       sodipodi:cx="6.2609086"
       sodipodi:cy="12.629514"
       sodipodi:rx="1.2245475"
       sodipodi:ry="1.2245475"
       d="m 7.4854561,12.629514 a 1.2245475,1.2245475 0 1 1 -2.449095,0 1.2245475,1.2245475 0 1 1 2.449095,0 z"
       transform="matrix(6.7040985,0,0,6.7040985,134.46281,949.52709)" />
    <path
       sodipodi:open="true"
       sodipodi:end="6.1850134"
       sodipodi:start="0"
       transform="translate(160.60349,1019.0538)"
       d="m 23.220141,15.134845 a 7.088254,7.088254 0 1 1 -0.03413,-0.69475"
       sodipodi:ry="7.088254"
       sodipodi:rx="7.088254"
       sodipodi:cy="15.134845"
       sodipodi:cx="16.131887"
       id="path3907"
       style="fill:none;stroke:none"
       sodipodi:type="arc" />
    <path
       sodipodi:open="true"
       sodipodi:end="6.1850134"
       sodipodi:start="0"
       transform="matrix(3.8459074,0,0,3.8459074,158.53687,1005.4265)"
       d="M 5.6735351,5.8467879 A 1.1517179,1.1517179 0 1 1 5.6679896,5.7339031"
       sodipodi:ry="1.1517179"
       sodipodi:rx="1.1517179"
       sodipodi:cy="5.8467879"
       sodipodi:cx="4.5218172"
       id="path3909"
       style="fill:#d45500;fill-opacity:1;stroke:none"
       sodipodi:type="arc" />
    <path
       sodipodi:open="true"
       sodipodi:end="6.1850134"
       sodipodi:start="0"
       transform="matrix(8.3950202,0,0,8.3950202,132.68168,992.99221)"
       d="M 5.6735351,5.8467879 A 1.1517179,1.1517179 0 1 1 5.6679896,5.7339031"
       sodipodi:ry="1.1517179"
       sodipodi:rx="1.1517179"
       sodipodi:cy="5.8467879"
       sodipodi:cx="4.5218172"
       id="path3911"
       style="fill:#d45500;fill-opacity:1;stroke:none"
       sodipodi:type="arc" />
    <path
       sodipodi:type="arc"
       style="fill:#d45500;fill-opacity:0.5;stroke:none"
       id="path3913"
       sodipodi:cx="4.5218172"
       sodipodi:cy="5.8467879"
       sodipodi:rx="1.1517179"
       sodipodi:ry="1.1517179"
       d="M 5.6735351,5.8467879 A 1.1517179,1.1517179 0 1 1 5.6679896,5.7339031"
       transform="matrix(2.1494852,0,0,2.1494852,178.7537,1017.4744)"
       sodipodi:start="0"
       sodipodi:end="6.1850134"
       sodipodi:open="true" />
    <path
       sodipodi:type="arc"
       style="fill:#ffffff;fill-opacity:1;stroke:none"
       id="path3915"
       sodipodi:cx="6.2609086"
       sodipodi:cy="12.629514"
       sodipodi:rx="1.2245475"
       sodipodi:ry="1.2245475"
       d="m 7.4854561,12.629514 a 1.2245475,1.2245475 0 1 1 -2.449095,0 1.2245475,1.2245475 0 1 1 2.449095,0 z"
       transform="matrix(1.2004239,0,0,1.2004239,180.24616,1014.0848)" />
    <path
       sodipodi:type="arc"
       style="fill:#ffffff;fill-opacity:1;stroke:none"
       id="path3917"
       sodipodi:cx="6.2609086"
       sodipodi:cy="12.629514"
       sodipodi:rx="1.2245475"
       sodipodi:ry="1.2245475"
       d="m 7.4854561,12.629514 a 1.2245475,1.2245475 0 1 1 -2.449095,0 1.2245475,1.2245475 0 1 1 2.449095,0 z"
       transform="matrix(5.918145,0,0,6.0706211,132.00083,963.95078)" />
    <path
       transform="matrix(1.5860978,0,0,1.5860978,164.18322,1006.2587)"
       d="m 7.4854561,12.629514 a 1.2245475,1.2245475 0 1 1 -2.449095,0 1.2245475,1.2245475 0 1 1 2.449095,0 z"
       sodipodi:ry="1.2245475"
       sodipodi:rx="1.2245475"
       sodipodi:cy="12.629514"
       sodipodi:cx="6.2609086"
       id="path3919"
       style="fill:#ffffff;fill-opacity:1;stroke:none"
       sodipodi:type="arc" />
    <path
       transform="matrix(1.7838402,0,0,1.7838402,177.12272,1004.9791)"
       d="m 7.4854561,12.629514 a 1.2245475,1.2245475 0 1 1 -2.449095,0 1.2245475,1.2245475 0 1 1 2.449095,0 z"
       sodipodi:ry="1.2245475"
       sodipodi:rx="1.2245475"
       sodipodi:cy="12.629514"
       sodipodi:cx="6.2609086"
       id="path3921"
       style="fill:none;stroke:#84132a;stroke-width:0.1;stroke-miterlimit:4;stroke-opacity:0;stroke-dasharray:none"
       sodipodi:type="arc" />
    <path
       sodipodi:open="true"
       sodipodi:end="6.1850134"
       sodipodi:start="0"
       transform="matrix(1.7780926,0,0,1.7780926,157.26913,1013.4195)"
       d="M 5.6735351,5.8467879 A 1.1517179,1.1517179 0 1 1 5.6679896,5.7339031"
       sodipodi:ry="1.1517179"
       sodipodi:rx="1.1517179"
       sodipodi:cy="5.8467879"
       sodipodi:cx="4.5218172"
       id="path3923"
       style="fill:#ff9955;fill-opacity:1;stroke:none"
       sodipodi:type="arc" />
    <path
       transform="matrix(0.99301214,0,0,0.99301214,158.64669,1010.7585)"
       d="m 7.4854561,12.629514 a 1.2245475,1.2245475 0 1 1 -2.449095,0 1.2245475,1.2245475 0 1 1 2.449095,0 z"
       sodipodi:ry="1.2245475"
       sodipodi:rx="1.2245475"
       sodipodi:cy="12.629514"
       sodipodi:cx="6.2609086"
       id="path3925"
       style="fill:#ffffff;fill-opacity:1;stroke:none"
       sodipodi:type="arc" />
    <path
       sodipodi:open="true"
       sodipodi:end="6.1850134"
       sodipodi:start="0"
       transform="matrix(8.8658203,0,0,8.8658203,170.5156,983.60966)"
       d="M 5.6735351,5.8467879 A 1.1517179,1.1517179 0 1 1 5.6679896,5.7339031"
       sodipodi:ry="1.1517179"
       sodipodi:rx="1.1517179"
       sodipodi:cy="5.8467879"
       sodipodi:cx="4.5218172"
       id="path3927"
       style="fill:#d45500;fill-opacity:0.07526882;stroke:none"
       sodipodi:type="arc" />
    <path
       transform="matrix(6.7040985,0,0,6.7040985,166.8122,949.40488)"
       d="m 7.4854561,12.629514 a 1.2245475,1.2245475 0 1 1 -2.449095,0 1.2245475,1.2245475 0 1 1 2.449095,0 z"
       sodipodi:ry="1.2245475"
       sodipodi:rx="1.2245475"
       sodipodi:cy="12.629514"
       sodipodi:cx="6.2609086"
       id="path3929"
       style="fill:#ffffff;fill-opacity:1;stroke:none"
       sodipodi:type="arc" />
    <path
       sodipodi:type="arc"
       style="fill:none;stroke:none"
       id="path3931"
       sodipodi:cx="16.131887"
       sodipodi:cy="15.134845"
       sodipodi:rx="7.088254"
       sodipodi:ry="7.088254"
       d="m 23.220141,15.134845 a 7.088254,7.088254 0 1 1 -0.03413,-0.69475"
       transform="translate(192.95288,1018.9316)"
       sodipodi:start="0"
       sodipodi:end="6.1850134"
       sodipodi:open="true" />
    <path
       sodipodi:type="arc"
       style="fill:#d45500;fill-opacity:0.56451613;stroke:none"
       id="path3933"
       sodipodi:cx="4.5218172"
       sodipodi:cy="5.8467879"
       sodipodi:rx="1.1517179"
       sodipodi:ry="1.1517179"
       d="M 5.6735351,5.8467879 A 1.1517179,1.1517179 0 1 1 5.6679896,5.7339031"
       transform="matrix(3.8459074,0,0,3.8459074,190.88626,1005.3043)"
       sodipodi:start="0"
       sodipodi:end="6.1850134"
       sodipodi:open="true" />
    <path
       sodipodi:type="arc"
       style="fill:#d45500;fill-opacity:0.48924732;stroke:none"
       id="path3935"
       sodipodi:cx="4.5218172"
       sodipodi:cy="5.8467879"
       sodipodi:rx="1.1517179"
       sodipodi:ry="1.1517179"
       d="M 5.6735351,5.8467879 A 1.1517179,1.1517179 0 1 1 5.6679896,5.7339031"
       transform="matrix(8.3950202,0,0,8.3950202,165.03107,992.87)"
       sodipodi:start="0"
       sodipodi:end="6.1850134"
       sodipodi:open="true" />
    <path
       sodipodi:open="true"
       sodipodi:end="6.1850134"
       sodipodi:start="0"
       transform="matrix(4.2054133,0,0,4.2054133,199.28596,1007.119)"
       d="M 5.6735351,5.8467879 A 1.1517179,1.1517179 0 1 1 5.6679896,5.7339031"
       sodipodi:ry="1.1517179"
       sodipodi:rx="1.1517179"
       sodipodi:cy="5.8467879"
       sodipodi:cx="4.5218172"
       id="path3937"
       style="fill:#d45500;fill-opacity:1;stroke:none"
       sodipodi:type="arc" />
    <path
       transform="matrix(2.3485989,0,0,2.3485989,202.45034,1000.854)"
       d="m 7.4854561,12.629514 a 1.2245475,1.2245475 0 1 1 -2.449095,0 1.2245475,1.2245475 0 1 1 2.449095,0 z"
       sodipodi:ry="1.2245475"
       sodipodi:rx="1.2245475"
       sodipodi:cy="12.629514"
       sodipodi:cx="6.2609086"
       id="path3939"
       style="fill:#ffffff;fill-opacity:1;stroke:none"
       sodipodi:type="arc" />
    <path
       transform="matrix(6.4171508,0,0,6.320124,161.10378,960.49415)"
       d="m 7.4854561,12.629514 a 1.2245475,1.2245475 0 1 1 -2.449095,0 1.2245475,1.2245475 0 1 1 2.449095,0 z"
       sodipodi:ry="1.2245475"
       sodipodi:rx="1.2245475"
       sodipodi:cy="12.629514"
       sodipodi:cx="6.2609086"
       id="path3941"
       style="fill:#ffffff;fill-opacity:1;stroke:none"
       sodipodi:type="arc" />
    <path
       sodipodi:type="arc"
       style="fill:#ffffff;fill-opacity:1;stroke:none"
       id="path3943"
       sodipodi:cx="6.2609086"
       sodipodi:cy="12.629514"
       sodipodi:rx="1.2245475"
       sodipodi:ry="1.2245475"
       d="m 7.4854561,12.629514 a 1.2245475,1.2245475 0 1 1 -2.449095,0 1.2245475,1.2245475 0 1 1 2.449095,0 z"
       transform="matrix(2.5841095,0,0,2.5841095,190.773,994.14318)" />
    <path
       sodipodi:type="arc"
       style="fill:none;stroke:#84132a;stroke-width:0.1;stroke-miterlimit:4;stroke-opacity:0;stroke-dasharray:none"
       id="path3945"
       sodipodi:cx="6.2609086"
       sodipodi:cy="12.629514"
       sodipodi:rx="1.2245475"
       sodipodi:ry="1.2245475"
       d="m 7.4854561,12.629514 a 1.2245475,1.2245475 0 1 1 -2.449095,0 1.2245475,1.2245475 0 1 1 2.449095,0 z"
       transform="matrix(3.4900381,0,0,3.4900381,197.07268,985.11648)" />
    <path
       sodipodi:type="arc"
       style="fill:#d45500;fill-opacity:0.48387095;stroke:none"
       id="path3947"
       sodipodi:cx="4.5218172"
       sodipodi:cy="5.8467879"
       sodipodi:rx="1.1517179"
       sodipodi:ry="1.1517179"
       d="M 5.6735351,5.8467879 A 1.1517179,1.1517179 0 1 1 5.6679896,5.7339031"
       transform="matrix(1.7780926,0,0,1.7780926,189.61852,1013.2973)"
       sodipodi:start="0"
       sodipodi:end="6.1850134"
       sodipodi:open="true" />
    <path
       sodipodi:type="arc"
       style="fill:#ffffff;fill-opacity:1;stroke:none"
       id="path3949"
       sodipodi:cx="6.2609086"
       sodipodi:cy="12.629514"
       sodipodi:rx="1.2245475"
       sodipodi:ry="1.2245475"
       d="m 7.4854561,12.629514 a 1.2245475,1.2245475 0 1 1 -2.449095,0 1.2245475,1.2245475 0 1 1 2.449095,0 z"
       transform="matrix(1.2425151,0,0,1.2425151,189.37286,1007.5463)" />
    <path
       sodipodi:open="true"
       sodipodi:end="6.1850134"
       sodipodi:start="0"
       transform="translate(225.09979,1018.9316)"
       d="m 23.220141,15.134845 a 7.088254,7.088254 0 1 1 -0.03413,-0.69475"
       sodipodi:ry="7.088254"
       sodipodi:rx="7.088254"
       sodipodi:cy="15.134845"
       sodipodi:cx="16.131887"
       id="path3955"
       style="fill:none;stroke:none"
       sodipodi:type="arc" />
    <path
       sodipodi:open="true"
       sodipodi:end="6.1850134"
       sodipodi:start="0"
       transform="matrix(10.888655,0,0,10.888655,191.34062,975.29607)"
       d="M 5.6735351,5.8467879 A 1.1517179,1.1517179 0 1 1 5.6679896,5.7339031"
       sodipodi:ry="1.1517179"
       sodipodi:rx="1.1517179"
       sodipodi:cy="5.8467879"
       sodipodi:cx="4.5218172"
       id="path3959"
       style="fill:#d45500;fill-opacity:0.07526882;stroke:none"
       sodipodi:type="arc" />
    <path
       sodipodi:type="arc"
       style="fill:#ffffff;fill-opacity:1;stroke:none"
       id="path3965"
       sodipodi:cx="6.2609086"
       sodipodi:cy="12.629514"
       sodipodi:rx="1.2245475"
       sodipodi:ry="1.2245475"
       d="m 7.4854561,12.629514 a 1.2245475,1.2245475 0 1 1 -2.449095,0 1.2245475,1.2245475 0 1 1 2.449095,0 z"
       transform="matrix(8.3232852,0,0,8.1974378,186.24677,933.30338)" />
    <path
       sodipodi:open="true"
       sodipodi:end="6.1850134"
       sodipodi:start="0"
       transform="matrix(1.7780926,0,0,1.7780926,221.76543,1013.2973)"
       d="M 5.6735351,5.8467879 A 1.1517179,1.1517179 0 1 1 5.6679896,5.7339031"
       sodipodi:ry="1.1517179"
       sodipodi:rx="1.1517179"
       sodipodi:cy="5.8467879"
       sodipodi:cx="4.5218172"
       id="path3971"
       style="fill:#d45500;fill-opacity:0.24731183;stroke:none"
       sodipodi:type="arc" />
    <path
       transform="matrix(1.2425151,0,0,1.2425151,221.51977,1007.5463)"
       d="m 7.4854561,12.629514 a 1.2245475,1.2245475 0 1 1 -2.449095,0 1.2245475,1.2245475 0 1 1 2.449095,0 z"
       sodipodi:ry="1.2245475"
       sodipodi:rx="1.2245475"
       sodipodi:cy="12.629514"
       sodipodi:cx="6.2609086"
       id="path3973"
       style="fill:#ffffff;fill-opacity:1;stroke:none"
       sodipodi:type="arc" />
    <path
       sodipodi:type="arc"
       style="fill:#d45500;fill-opacity:0.22580644;stroke:none"
       id="path3961"
       sodipodi:cx="4.5218172"
       sodipodi:cy="5.8467879"
       sodipodi:rx="1.1517179"
       sodipodi:ry="1.1517179"
       d="M 5.6735351,5.8467879 A 1.1517179,1.1517179 0 1 1 5.6679896,5.7339031"
       transform="matrix(4.2054133,0,0,4.2054133,231.43287,1007.119)"
       sodipodi:start="0"
       sodipodi:end="6.1850134"
       sodipodi:open="true" />
    <path
       sodipodi:type="arc"
       style="fill:#ffffff;fill-opacity:1;stroke:none"
       id="path3963"
       sodipodi:cx="6.2609086"
       sodipodi:cy="12.629514"
       sodipodi:rx="1.2245475"
       sodipodi:ry="1.2245475"
       d="m 7.4854561,12.629514 a 1.2245475,1.2245475 0 1 1 -2.449095,0 1.2245475,1.2245475 0 1 1 2.449095,0 z"
       transform="matrix(3.5462129,0,0,3.4963123,227.34352,986.90889)" />
    <path
       transform="matrix(3.4900381,0,0,3.4900381,229.21959,985.11648)"
       d="m 7.4854561,12.629514 a 1.2245475,1.2245475 0 1 1 -2.449095,0 1.2245475,1.2245475 0 1 1 2.449095,0 z"
       sodipodi:ry="1.2245475"
       sodipodi:rx="1.2245475"
       sodipodi:cy="12.629514"
       sodipodi:cx="6.2609086"
       id="path3969"
       style="fill:none;stroke:#84132a;stroke-width:0.1;stroke-miterlimit:4;stroke-opacity:0;stroke-dasharray:none"
       sodipodi:type="arc" />
    <path
       sodipodi:open="true"
       sodipodi:end="6.1850134"
       sodipodi:start="0"
       transform="matrix(3.8459074,0,0,3.8459074,223.03317,1005.3043)"
       d="M 5.6735351,5.8467879 A 1.1517179,1.1517179 0 1 1 5.6679896,5.7339031"
       sodipodi:ry="1.1517179"
       sodipodi:rx="1.1517179"
       sodipodi:cy="5.8467879"
       sodipodi:cx="4.5218172"
       id="path3957"
       style="fill:#d45500;fill-opacity:0.15591398;stroke:none"
       sodipodi:type="arc" />
    <path
       transform="matrix(2.5841095,0,0,2.5841095,222.91991,994.14318)"
       d="m 7.4854561,12.629514 a 1.2245475,1.2245475 0 1 1 -2.449095,0 1.2245475,1.2245475 0 1 1 2.449095,0 z"
       sodipodi:ry="1.2245475"
       sodipodi:rx="1.2245475"
       sodipodi:cy="12.629514"
       sodipodi:cx="6.2609086"
       id="path3967"
       style="fill:#ffffff;fill-opacity:1;stroke:none"
       sodipodi:type="arc" />
  </g>
</svg>
