<?xml version="1.0" encoding="UTF-8" standalone="no"?>
<!-- Created with Inkscape (http://www.inkscape.org/) -->

<svg
   xmlns:dc="http://purl.org/dc/elements/1.1/"
   xmlns:cc="http://creativecommons.org/ns#"
   xmlns:rdf="http://www.w3.org/1999/02/22-rdf-syntax-ns#"
   xmlns:svg="http://www.w3.org/2000/svg"
   xmlns="http://www.w3.org/2000/svg"
   xmlns:sodipodi="http://sodipodi.sourceforge.net/DTD/sodipodi-0.dtd"
   xmlns:inkscape="http://www.inkscape.org/namespaces/inkscape"
   width="96"
   height="32"
   id="svg2"
   version="1.1"
   inkscape:version="0.48.3.1 r9886"
   sodipodi:docname="smoke.svg"
   inkscape:export-filename="/media/henry/Work/Projects/MoonWar/Art/effect/smoke.png"
   inkscape:export-xdpi="90"
   inkscape:export-ydpi="90">
  <defs
     id="defs4" />
  <sodipodi:namedview
     id="base"
     pagecolor="#ffffff"
     bordercolor="#666666"
     borderopacity="1.0"
     inkscape:pageopacity="0.0"
     inkscape:pageshadow="2"
     inkscape:zoom="8.2312202"
     inkscape:cx="47.116995"
     inkscape:cy="19.152523"
     inkscape:document-units="px"
     inkscape:current-layer="layer1"
     showgrid="true"
     inkscape:window-width="1366"
     inkscape:window-height="710"
     inkscape:window-x="0"
     inkscape:window-y="27"
     inkscape:window-maximized="1"
     inkscape:snap-grids="false">
    <inkscape:grid
       type="xygrid"
       id="grid3850"
       empspacing="5"
       visible="true"
       enabled="true"
       snapvisiblegridlinesonly="true"
       spacingx="32px"
       spacingy="32px" />
  </sodipodi:namedview>
  <metadata
     id="metadata7">
    <rdf:RDF>
      <cc:Work
         rdf:about="">
        <dc:format>image/svg+xml</dc:format>
        <dc:type
           rdf:resource="http://purl.org/dc/dcmitype/StillImage" />
        <dc:title></dc:title>
      </cc:Work>
    </rdf:RDF>
  </metadata>
  <g
     inkscape:label="Layer 1"
     inkscape:groupmode="layer"
     id="layer1"
     transform="translate(0,-1020.3622)">
    <path
       sodipodi:type="arc"
       style="fill:#686349;fill-opacity:1;stroke:none"
       id="path3776"
       sodipodi:cx="18.401875"
       sodipodi:cy="21.115633"
       sodipodi:rx="6.5626192"
       sodipodi:ry="6.5626192"
       d="m 24.964494,21.115633 c 0,3.624435 -2.938185,6.562619 -6.562619,6.562619 -3.624435,0 -6.56262,-2.938184 -6.56262,-6.562619 0,-3.624434 2.938185,-6.562619 6.56262,-6.562619 3.624434,0 6.562619,2.938185 6.562619,6.562619 z"
       transform="matrix(0.49309424,0,0,0.47833513,-0.30779739,1021.2168)" />
    <path
       sodipodi:type="arc"
       style="fill:#686349;fill-opacity:1;stroke:none"
       id="path3778"
       sodipodi:cx="15.521581"
       sodipodi:cy="33.196865"
       sodipodi:rx="11.095778"
       sodipodi:ry="11.095778"
       d="m 26.617359,33.196865 c 0,6.128029 -4.967749,11.095779 -11.095778,11.095779 -6.1280295,0 -11.0957788,-4.96775 -11.0957788,-11.095779 0,-6.128029 4.9677493,-11.095778 11.0957788,-11.095778 6.128029,0 11.095778,4.967749 11.095778,11.095778 z"
       transform="matrix(0.49309424,0,0,0.47833513,-0.30779739,1021.2168)" />
    <path
       sodipodi:type="arc"
       style="fill:#686349;fill-opacity:1;stroke:none"
       id="path3780"
       sodipodi:cx="34.243488"
       sodipodi:cy="44.398003"
       sodipodi:rx="16.428967"
       sodipodi:ry="16.428967"
       d="m 50.672455,44.398003 c 0,9.073467 -7.355499,16.428966 -16.428967,16.428966 -9.073467,0 -16.428966,-7.355499 -16.428966,-16.428966 0,-9.073468 7.355499,-16.428967 16.428966,-16.428967 9.073468,0 16.428967,7.355499 16.428967,16.428967 z"
       transform="matrix(0.49309424,0,0,0.47833513,-0.30779739,1021.2168)" />
    <path
       sodipodi:type="arc"
       style="fill:#686349;fill-opacity:1;stroke:none"
       id="path3782"
       sodipodi:cx="37.843853"
       sodipodi:cy="32.236767"
       sodipodi:rx="22.356802"
       sodipodi:ry="22.356802"
       d="m 60.200655,32.236767 c 0,12.347321 -10.009481,22.356802 -22.356802,22.356802 -12.347321,0 -22.356802,-10.009481 -22.356802,-22.356802 0,-12.347321 10.009481,-22.3568022 22.356802,-22.3568022 12.347321,0 22.356802,10.0094812 22.356802,22.3568022 z"
       transform="matrix(0.49309424,0,0,0.47833513,-0.30779739,1021.2168)" />
    <path
       sodipodi:type="arc"
       style="fill:#686349;fill-opacity:1;stroke:none"
       id="path3784"
       sodipodi:cx="42.164291"
       sodipodi:cy="13.674876"
       sodipodi:rx="9.5051565"
       sodipodi:ry="9.5051565"
       d="m 51.669448,13.674876 c 0,5.249553 -4.255604,9.505157 -9.505157,9.505157 -5.249553,0 -9.505156,-4.255604 -9.505156,-9.505157 0,-5.2495528 4.255603,-9.5051563 9.505156,-9.5051563 5.249553,0 9.505157,4.2556035 9.505157,9.5051563 z"
       transform="matrix(0.49309424,0,0,0.47833513,-0.30779739,1021.2168)" />
    <path
       sodipodi:type="arc"
       style="fill:#686349;fill-opacity:1;stroke:none"
       id="path3786"
       sodipodi:cx="54.245522"
       sodipodi:cy="44.878052"
       sodipodi:rx="7.7011738"
       sodipodi:ry="7.7011738"
       d="m 61.946695,44.878052 c 0,4.253241 -3.447933,7.701174 -7.701173,7.701174 -4.253241,0 -7.701174,-3.447933 -7.701174,-7.701174 0,-4.253241 3.447933,-7.701174 7.701174,-7.701174 4.25324,0 7.701173,3.447933 7.701173,7.701174 z"
       transform="matrix(0.49309424,0,0,0.47833513,-0.30779739,1021.2168)" />
    <path
       transform="matrix(0.44645543,0,0,0.4330923,1.2399696,1022.6871)"
       d="m 24.964494,21.115633 c 0,3.624435 -2.938185,6.562619 -6.562619,6.562619 -3.624435,0 -6.56262,-2.938184 -6.56262,-6.562619 0,-3.624434 2.938185,-6.562619 6.56262,-6.562619 3.624434,0 6.562619,2.938185 6.562619,6.562619 z"
       sodipodi:ry="6.5626192"
       sodipodi:rx="6.5626192"
       sodipodi:cy="21.115633"
       sodipodi:cx="18.401875"
       id="path3788"
       style="fill:#686349;fill-opacity:1;stroke:none"
       sodipodi:type="arc" />
    <path
       transform="matrix(0.44645543,0,0,0.4330923,1.2399696,1022.6871)"
       d="m 26.617359,33.196865 c 0,6.128029 -4.967749,11.095779 -11.095778,11.095779 -6.1280295,0 -11.0957788,-4.96775 -11.0957788,-11.095779 0,-6.128029 4.9677493,-11.095778 11.0957788,-11.095778 6.128029,0 11.095778,4.967749 11.095778,11.095778 z"
       sodipodi:ry="11.095778"
       sodipodi:rx="11.095778"
       sodipodi:cy="33.196865"
       sodipodi:cx="15.521581"
       id="path3790"
       style="fill:#686349;fill-opacity:1;stroke:none"
       sodipodi:type="arc" />
    <path
       transform="matrix(0.44645543,0,0,0.4330923,1.2399696,1022.6871)"
       d="m 50.672455,44.398003 c 0,9.073467 -7.355499,16.428966 -16.428967,16.428966 -9.073467,0 -16.428966,-7.355499 -16.428966,-16.428966 0,-9.073468 7.355499,-16.428967 16.428966,-16.428967 9.073468,0 16.428967,7.355499 16.428967,16.428967 z"
       sodipodi:ry="16.428967"
       sodipodi:rx="16.428967"
       sodipodi:cy="44.398003"
       sodipodi:cx="34.243488"
       id="path3792"
       style="fill:#686349;fill-opacity:1;stroke:none"
       sodipodi:type="arc" />
    <path
       transform="matrix(0.44645543,0,0,0.4330923,1.2399696,1022.6871)"
       d="m 60.200655,32.236767 c 0,12.347321 -10.009481,22.356802 -22.356802,22.356802 -12.347321,0 -22.356802,-10.009481 -22.356802,-22.356802 0,-12.347321 10.009481,-22.3568022 22.356802,-22.3568022 12.347321,0 22.356802,10.0094812 22.356802,22.3568022 z"
       sodipodi:ry="22.356802"
       sodipodi:rx="22.356802"
       sodipodi:cy="32.236767"
       sodipodi:cx="37.843853"
       id="path3794"
       style="fill:#686349;fill-opacity:1;stroke:none"
       sodipodi:type="arc" />
    <path
       transform="matrix(0.44645543,0,0,0.4330923,1.2399696,1022.6871)"
       d="m 51.669448,13.674876 c 0,5.249553 -4.255604,9.505157 -9.505157,9.505157 -5.249553,0 -9.505156,-4.255604 -9.505156,-9.505157 0,-5.2495528 4.255603,-9.5051563 9.505156,-9.5051563 5.249553,0 9.505157,4.2556035 9.505157,9.5051563 z"
       sodipodi:ry="9.5051565"
       sodipodi:rx="9.5051565"
       sodipodi:cy="13.674876"
       sodipodi:cx="42.164291"
       id="path3796"
       style="fill:#686349;fill-opacity:1;stroke:none"
       sodipodi:type="arc" />
    <path
       transform="matrix(0.44645543,0,0,0.4330923,1.2399696,1022.6871)"
       d="m 61.946695,44.878052 c 0,4.253241 -3.447933,7.701174 -7.701173,7.701174 -4.253241,0 -7.701174,-3.447933 -7.701174,-7.701174 0,-4.253241 3.447933,-7.701174 7.701174,-7.701174 4.25324,0 7.701173,3.447933 7.701173,7.701174 z"
       sodipodi:ry="7.7011738"
       sodipodi:rx="7.7011738"
       sodipodi:cy="44.878052"
       sodipodi:cx="54.245522"
       id="path3798"
       style="fill:#686349;fill-opacity:1;stroke:none"
       sodipodi:type="arc" />
    <path
       transform="matrix(0.41120866,0,0,0.39890052,2.4096779,1023.7983)"
       d="m 24.964494,21.115633 c 0,3.624435 -2.938185,6.562619 -6.562619,6.562619 -3.624435,0 -6.56262,-2.938184 -6.56262,-6.562619 0,-3.624434 2.938185,-6.562619 6.56262,-6.562619 3.624434,0 6.562619,2.938185 6.562619,6.562619 z"
       sodipodi:ry="6.5626192"
       sodipodi:rx="6.5626192"
       sodipodi:cy="21.115633"
       sodipodi:cx="18.401875"
       id="path3802"
       style="fill:#a09769;fill-opacity:1;stroke:none"
       sodipodi:type="arc" />
    <path
       transform="matrix(0.41120866,0,0,0.39890052,2.4096779,1023.7983)"
       d="m 26.617359,33.196865 c 0,6.128029 -4.967749,11.095779 -11.095778,11.095779 -6.1280295,0 -11.0957788,-4.96775 -11.0957788,-11.095779 0,-6.128029 4.9677493,-11.095778 11.0957788,-11.095778 6.128029,0 11.095778,4.967749 11.095778,11.095778 z"
       sodipodi:ry="11.095778"
       sodipodi:rx="11.095778"
       sodipodi:cy="33.196865"
       sodipodi:cx="15.521581"
       id="path3804"
       style="fill:#a09769;fill-opacity:1;stroke:none"
       sodipodi:type="arc" />
    <path
       transform="matrix(0.41120866,0,0,0.39890052,2.4096779,1023.7983)"
       d="m 50.672455,44.398003 c 0,9.073467 -7.355499,16.428966 -16.428967,16.428966 -9.073467,0 -16.428966,-7.355499 -16.428966,-16.428966 0,-9.073468 7.355499,-16.428967 16.428966,-16.428967 9.073468,0 16.428967,7.355499 16.428967,16.428967 z"
       sodipodi:ry="16.428967"
       sodipodi:rx="16.428967"
       sodipodi:cy="44.398003"
       sodipodi:cx="34.243488"
       id="path3806"
       style="fill:#a09769;fill-opacity:1;stroke:none"
       sodipodi:type="arc" />
    <path
       transform="matrix(0.41120866,0,0,0.39890052,2.4096779,1023.7983)"
       d="m 60.200655,32.236767 c 0,12.347321 -10.009481,22.356802 -22.356802,22.356802 -12.347321,0 -22.356802,-10.009481 -22.356802,-22.356802 0,-12.347321 10.009481,-22.3568022 22.356802,-22.3568022 12.347321,0 22.356802,10.0094812 22.356802,22.3568022 z"
       sodipodi:ry="22.356802"
       sodipodi:rx="22.356802"
       sodipodi:cy="32.236767"
       sodipodi:cx="37.843853"
       id="path3808"
       style="fill:#a09769;fill-opacity:1;stroke:none"
       sodipodi:type="arc" />
    <path
       transform="matrix(0.41120866,0,0,0.39890052,2.4096779,1023.7983)"
       d="m 51.669448,13.674876 c 0,5.249553 -4.255604,9.505157 -9.505157,9.505157 -5.249553,0 -9.505156,-4.255604 -9.505156,-9.505157 0,-5.2495528 4.255603,-9.5051563 9.505156,-9.5051563 5.249553,0 9.505157,4.2556035 9.505157,9.5051563 z"
       sodipodi:ry="9.5051565"
       sodipodi:rx="9.5051565"
       sodipodi:cy="13.674876"
       sodipodi:cx="42.164291"
       id="path3810"
       style="fill:#a09769;fill-opacity:1;stroke:none"
       sodipodi:type="arc" />
    <path
       transform="matrix(0.41120866,0,0,0.39890052,2.4096779,1023.7983)"
       d="m 61.946695,44.878052 c 0,4.253241 -3.447933,7.701174 -7.701173,7.701174 -4.253241,0 -7.701174,-3.447933 -7.701174,-7.701174 0,-4.253241 3.447933,-7.701174 7.701174,-7.701174 4.25324,0 7.701173,3.447933 7.701173,7.701174 z"
       sodipodi:ry="7.7011738"
       sodipodi:rx="7.7011738"
       sodipodi:cy="44.878052"
       sodipodi:cx="54.245522"
       id="path3812"
       style="fill:#a09769;fill-opacity:1;stroke:none"
       sodipodi:type="arc" />
    <path
       sodipodi:type="arc"
       style="fill:#a09769;fill-opacity:1;stroke:none"
       id="path3814"
       sodipodi:cx="18.401875"
       sodipodi:cy="21.115633"
       sodipodi:rx="6.5626192"
       sodipodi:ry="6.5626192"
       d="m 24.964494,21.115633 c 0,3.624435 -2.938185,6.562619 -6.562619,6.562619 -3.624435,0 -6.56262,-2.938184 -6.56262,-6.562619 0,-3.624434 2.938185,-6.562619 6.56262,-6.562619 3.624434,0 6.562619,2.938185 6.562619,6.562619 z"
       transform="matrix(0.37231491,0,0,0.36117093,3.7004153,1025.0244)" />
    <path
       sodipodi:type="arc"
       style="fill:#a09769;fill-opacity:1;stroke:none"
       id="path3816"
       sodipodi:cx="15.521581"
       sodipodi:cy="33.196865"
       sodipodi:rx="11.095778"
       sodipodi:ry="11.095778"
       d="m 26.617359,33.196865 c 0,6.128029 -4.967749,11.095779 -11.095778,11.095779 -6.1280295,0 -11.0957788,-4.96775 -11.0957788,-11.095779 0,-6.128029 4.9677493,-11.095778 11.0957788,-11.095778 6.128029,0 11.095778,4.967749 11.095778,11.095778 z"
       transform="matrix(0.37231491,0,0,0.36117093,3.7004153,1025.0244)" />
    <path
       sodipodi:type="arc"
       style="fill:#a09769;fill-opacity:1;stroke:none"
       id="path3818"
       sodipodi:cx="34.243488"
       sodipodi:cy="44.398003"
       sodipodi:rx="16.428967"
       sodipodi:ry="16.428967"
       d="m 50.672455,44.398003 c 0,9.073467 -7.355499,16.428966 -16.428967,16.428966 -9.073467,0 -16.428966,-7.355499 -16.428966,-16.428966 0,-9.073468 7.355499,-16.428967 16.428966,-16.428967 9.073468,0 16.428967,7.355499 16.428967,16.428967 z"
       transform="matrix(0.37231491,0,0,0.36117093,3.7004153,1025.0244)" />
    <path
       sodipodi:type="arc"
       style="fill:#a09769;fill-opacity:1;stroke:none"
       id="path3820"
       sodipodi:cx="37.843853"
       sodipodi:cy="32.236767"
       sodipodi:rx="22.356802"
       sodipodi:ry="22.356802"
       d="m 60.200655,32.236767 c 0,12.347321 -10.009481,22.356802 -22.356802,22.356802 -12.347321,0 -22.356802,-10.009481 -22.356802,-22.356802 0,-12.347321 10.009481,-22.3568022 22.356802,-22.3568022 12.347321,0 22.356802,10.0094812 22.356802,22.3568022 z"
       transform="matrix(0.37231491,0,0,0.36117093,3.7004153,1025.0244)" />
    <path
       sodipodi:type="arc"
       style="fill:#a09769;fill-opacity:1;stroke:none"
       id="path3822"
       sodipodi:cx="42.164291"
       sodipodi:cy="13.674876"
       sodipodi:rx="9.5051565"
       sodipodi:ry="9.5051565"
       d="m 51.669448,13.674876 c 0,5.249553 -4.255604,9.505157 -9.505157,9.505157 -5.249553,0 -9.505156,-4.255604 -9.505156,-9.505157 0,-5.2495528 4.255603,-9.5051563 9.505156,-9.5051563 5.249553,0 9.505157,4.2556035 9.505157,9.5051563 z"
       transform="matrix(0.37231491,0,0,0.36117093,3.7004153,1025.0244)" />
    <path
       sodipodi:type="arc"
       style="fill:#a09769;fill-opacity:1;stroke:none"
       id="path3824"
       sodipodi:cx="54.245522"
       sodipodi:cy="44.878052"
       sodipodi:rx="7.7011738"
       sodipodi:ry="7.7011738"
       d="m 61.946695,44.878052 c 0,4.253241 -3.447933,7.701174 -7.701173,7.701174 -4.253241,0 -7.701174,-3.447933 -7.701174,-7.701174 0,-4.253241 3.447933,-7.701174 7.701174,-7.701174 4.25324,0 7.701173,3.447933 7.701173,7.701174 z"
       transform="matrix(0.37231491,0,0,0.36117093,3.7004153,1025.0244)" />
    <path
       sodipodi:type="arc"
       style="fill:#c6c0a5;fill-opacity:1;stroke:none"
       id="path3826"
       sodipodi:cx="18.401875"
       sodipodi:cy="21.115633"
       sodipodi:rx="6.5626192"
       sodipodi:ry="6.5626192"
       d="m 24.964494,21.115633 c 0,3.624435 -2.938185,6.562619 -6.562619,6.562619 -3.624435,0 -6.56262,-2.938184 -6.56262,-6.562619 0,-3.624434 2.938185,-6.562619 6.56262,-6.562619 3.624434,0 6.562619,2.938185 6.562619,6.562619 z"
       transform="matrix(0.29049645,0,0,0.28180142,6.4156633,1027.6038)" />
    <path
       sodipodi:type="arc"
       style="fill:#c6c0a5;fill-opacity:1;stroke:none"
       id="path3828"
       sodipodi:cx="15.521581"
       sodipodi:cy="33.196865"
       sodipodi:rx="11.095778"
       sodipodi:ry="11.095778"
       d="m 26.617359,33.196865 c 0,6.128029 -4.967749,11.095779 -11.095778,11.095779 -6.1280295,0 -11.0957788,-4.96775 -11.0957788,-11.095779 0,-6.128029 4.9677493,-11.095778 11.0957788,-11.095778 6.128029,0 11.095778,4.967749 11.095778,11.095778 z"
       transform="matrix(0.29049645,0,0,0.28180142,6.4156633,1027.6038)" />
    <path
       sodipodi:type="arc"
       style="fill:#c6c0a5;fill-opacity:1;stroke:none"
       id="path3830"
       sodipodi:cx="34.243488"
       sodipodi:cy="44.398003"
       sodipodi:rx="16.428967"
       sodipodi:ry="16.428967"
       d="m 50.672455,44.398003 c 0,9.073467 -7.355499,16.428966 -16.428967,16.428966 -9.073467,0 -16.428966,-7.355499 -16.428966,-16.428966 0,-9.073468 7.355499,-16.428967 16.428966,-16.428967 9.073468,0 16.428967,7.355499 16.428967,16.428967 z"
       transform="matrix(0.29049645,0,0,0.28180142,6.4156633,1027.6038)" />
    <path
       sodipodi:type="arc"
       style="fill:#c6c0a5;fill-opacity:1;stroke:none"
       id="path3832"
       sodipodi:cx="37.843853"
       sodipodi:cy="32.236767"
       sodipodi:rx="22.356802"
       sodipodi:ry="22.356802"
       d="m 60.200655,32.236767 c 0,12.347321 -10.009481,22.356802 -22.356802,22.356802 -12.347321,0 -22.356802,-10.009481 -22.356802,-22.356802 0,-12.347321 10.009481,-22.3568022 22.356802,-22.3568022 12.347321,0 22.356802,10.0094812 22.356802,22.3568022 z"
       transform="matrix(0.29049645,0,0,0.28180142,6.4156633,1027.6038)" />
    <path
       sodipodi:type="arc"
       style="fill:#c6c0a5;fill-opacity:1;stroke:none"
       id="path3834"
       sodipodi:cx="42.164291"
       sodipodi:cy="13.674876"
       sodipodi:rx="9.5051565"
       sodipodi:ry="9.5051565"
       d="m 51.669448,13.674876 c 0,5.249553 -4.255604,9.505157 -9.505157,9.505157 -5.249553,0 -9.505156,-4.255604 -9.505156,-9.505157 0,-5.2495528 4.255603,-9.5051563 9.505156,-9.5051563 5.249553,0 9.505157,4.2556035 9.505157,9.5051563 z"
       transform="matrix(0.29049645,0,0,0.28180142,6.4156633,1027.6038)" />
    <path
       sodipodi:type="arc"
       style="fill:#c6c0a5;fill-opacity:1;stroke:none"
       id="path3836"
       sodipodi:cx="54.245522"
       sodipodi:cy="44.878052"
       sodipodi:rx="7.7011738"
       sodipodi:ry="7.7011738"
       d="m 61.946695,44.878052 c 0,4.253241 -3.447933,7.701174 -7.701173,7.701174 -4.253241,0 -7.701174,-3.447933 -7.701174,-7.701174 0,-4.253241 3.447933,-7.701174 7.701174,-7.701174 4.25324,0 7.701173,3.447933 7.701173,7.701174 z"
       transform="matrix(0.29049645,0,0,0.28180142,6.4156633,1027.6038)" />
    <path
       transform="matrix(0.26302015,0,0,0.25514753,7.3274986,1028.47)"
       d="m 24.964494,21.115633 c 0,3.624435 -2.938185,6.562619 -6.562619,6.562619 -3.624435,0 -6.56262,-2.938184 -6.56262,-6.562619 0,-3.624434 2.938185,-6.562619 6.56262,-6.562619 3.624434,0 6.562619,2.938185 6.562619,6.562619 z"
       sodipodi:ry="6.5626192"
       sodipodi:rx="6.5626192"
       sodipodi:cy="21.115633"
       sodipodi:cx="18.401875"
       id="path3838"
       style="fill:#c6c0a5;fill-opacity:1;stroke:none"
       sodipodi:type="arc" />
    <path
       transform="matrix(0.26302015,0,0,0.25514753,7.3274986,1028.47)"
       d="m 26.617359,33.196865 c 0,6.128029 -4.967749,11.095779 -11.095778,11.095779 -6.1280295,0 -11.0957788,-4.96775 -11.0957788,-11.095779 0,-6.128029 4.9677493,-11.095778 11.0957788,-11.095778 6.128029,0 11.095778,4.967749 11.095778,11.095778 z"
       sodipodi:ry="11.095778"
       sodipodi:rx="11.095778"
       sodipodi:cy="33.196865"
       sodipodi:cx="15.521581"
       id="path3840"
       style="fill:#c6c0a5;fill-opacity:1;stroke:none"
       sodipodi:type="arc" />
    <path
       transform="matrix(0.26302015,0,0,0.25514753,7.3274986,1028.47)"
       d="m 50.672455,44.398003 c 0,9.073467 -7.355499,16.428966 -16.428967,16.428966 -9.073467,0 -16.428966,-7.355499 -16.428966,-16.428966 0,-9.073468 7.355499,-16.428967 16.428966,-16.428967 9.073468,0 16.428967,7.355499 16.428967,16.428967 z"
       sodipodi:ry="16.428967"
       sodipodi:rx="16.428967"
       sodipodi:cy="44.398003"
       sodipodi:cx="34.243488"
       id="path3842"
       style="fill:#c6c0a5;fill-opacity:1;stroke:none"
       sodipodi:type="arc" />
    <path
       transform="matrix(0.26302015,0,0,0.25514753,7.3274986,1028.47)"
       d="m 60.200655,32.236767 c 0,12.347321 -10.009481,22.356802 -22.356802,22.356802 -12.347321,0 -22.356802,-10.009481 -22.356802,-22.356802 0,-12.347321 10.009481,-22.3568022 22.356802,-22.3568022 12.347321,0 22.356802,10.0094812 22.356802,22.3568022 z"
       sodipodi:ry="22.356802"
       sodipodi:rx="22.356802"
       sodipodi:cy="32.236767"
       sodipodi:cx="37.843853"
       id="path3844"
       style="fill:#c6c0a5;fill-opacity:1;stroke:none"
       sodipodi:type="arc" />
    <path
       transform="matrix(0.26302015,0,0,0.25514753,7.3274986,1028.47)"
       d="m 51.669448,13.674876 c 0,5.249553 -4.255604,9.505157 -9.505157,9.505157 -5.249553,0 -9.505156,-4.255604 -9.505156,-9.505157 0,-5.2495528 4.255603,-9.5051563 9.505156,-9.5051563 5.249553,0 9.505157,4.2556035 9.505157,9.5051563 z"
       sodipodi:ry="9.5051565"
       sodipodi:rx="9.5051565"
       sodipodi:cy="13.674876"
       sodipodi:cx="42.164291"
       id="path3846"
       style="fill:#c6c0a5;fill-opacity:1;stroke:none"
       sodipodi:type="arc" />
    <path
       transform="matrix(0.26302015,0,0,0.25514753,7.3274986,1028.47)"
       d="m 61.946695,44.878052 c 0,4.253241 -3.447933,7.701174 -7.701173,7.701174 -4.253241,0 -7.701174,-3.447933 -7.701174,-7.701174 0,-4.253241 3.447933,-7.701174 7.701174,-7.701174 4.25324,0 7.701173,3.447933 7.701173,7.701174 z"
       sodipodi:ry="7.7011738"
       sodipodi:rx="7.7011738"
       sodipodi:cy="44.878052"
       sodipodi:cx="54.245522"
       id="path3848"
       style="fill:#c6c0a5;fill-opacity:1;stroke:none"
       sodipodi:type="arc" />
    <path
       sodipodi:type="arc"
       style="fill:#686349;fill-opacity:1;stroke:none"
       id="path3855"
       sodipodi:cx="74.970139"
       sodipodi:cy="39.256161"
       sodipodi:rx="9.7867422"
       sodipodi:ry="9.7867422"
       d="m 84.756881,39.256161 c 0,5.405068 -4.381674,9.786742 -9.786742,9.786742 -5.405069,0 -9.786743,-4.381674 -9.786743,-9.786742 0,-5.405069 4.381674,-9.786742 9.786743,-9.786742 5.405068,0 9.786742,4.381673 9.786742,9.786742 z"
       transform="matrix(0.49309424,0,0,0.47833513,1.5145327,1021.4598)" />
    <path
       sodipodi:type="arc"
       style="fill:#686349;fill-opacity:1;stroke:none"
       id="path3859"
       sodipodi:cx="92.143097"
       sodipodi:cy="16.358879"
       sodipodi:rx="16.065029"
       sodipodi:ry="16.065029"
       d="m 108.20813,16.358879 c 0,8.872471 -7.19256,16.065029 -16.065033,16.065029 -8.872471,0 -16.065029,-7.192558 -16.065029,-16.065029 0,-8.8724705 7.192558,-16.06502905 16.065029,-16.06502905 8.872473,0 16.065033,7.19255855 16.065033,16.06502905 z"
       transform="matrix(0.49309424,0,0,0.47833513,1.5145327,1021.8131)" />
    <path
       sodipodi:type="arc"
       style="fill:#686349;fill-opacity:1;stroke:none"
       id="path3861"
       sodipodi:cx="76.078072"
       sodipodi:cy="26.14562"
       sodipodi:rx="10.710019"
       sodipodi:ry="10.710019"
       d="m 86.788091,26.14562 c 0,5.914981 -4.795039,10.710019 -10.710019,10.710019 -5.914981,0 -10.71002,-4.795038 -10.71002,-10.710019 0,-5.91498 4.795039,-10.710019 10.71002,-10.710019 5.91498,0 10.710019,4.795039 10.710019,10.710019 z"
       transform="matrix(0.49309424,0,0,0.47833513,1.5145327,1021.4598)" />
    <path
       sodipodi:type="arc"
       style="fill:#686349;fill-opacity:1;stroke:none"
       id="path3863"
       sodipodi:cx="106.17692"
       sodipodi:cy="41.656685"
       sodipodi:rx="18.650206"
       sodipodi:ry="18.650206"
       d="m 124.82712,41.656685 c 0,10.300224 -8.34998,18.650205 -18.6502,18.650205 -10.300226,0 -18.650208,-8.349981 -18.650208,-18.650205 0,-10.300224 8.349982,-18.650206 18.650208,-18.650206 10.30022,0 18.6502,8.349982 18.6502,18.650206 z"
       transform="matrix(0.49309424,0,0,0.47833513,1.5145327,1021.4598)" />
    <path
       sodipodi:type="arc"
       style="fill:#686349;fill-opacity:1;stroke:none"
       id="path3867"
       sodipodi:cx="110.424"
       sodipodi:cy="14.143013"
       sodipodi:rx="12.371919"
       sodipodi:ry="12.371919"
       d="m 122.79592,14.143013 c 0,6.832822 -5.53909,12.371919 -12.37192,12.371919 -6.83282,0 -12.371915,-5.539097 -12.371915,-12.371919 0,-6.832822 5.539095,-12.3719187 12.371915,-12.3719187 6.83283,0 12.37192,5.5390967 12.37192,12.3719187 z"
       transform="matrix(0.49309424,0,0,0.47833513,1.5145327,1021.4598)" />
    <path
       sodipodi:type="arc"
       style="fill:#686349;fill-opacity:1;stroke:none"
       id="path3871"
       sodipodi:cx="84.202911"
       sodipodi:cy="48.85825"
       sodipodi:rx="12.925885"
       sodipodi:ry="12.925885"
       d="m 97.128797,48.85825 c 0,7.138769 -5.787116,12.925885 -12.925886,12.925885 -7.138769,0 -12.925885,-5.787116 -12.925885,-12.925885 0,-7.13877 5.787116,-12.925886 12.925885,-12.925886 7.13877,0 12.925886,5.787116 12.925886,12.925886 z"
       transform="matrix(0.49309424,0,0,0.47833513,1.5145327,1021.4598)" />
    <path
       transform="matrix(0.37684933,0,0,0.36556963,12.55841,1025.0015)"
       d="m 84.756881,39.256161 c 0,5.405068 -4.381674,9.786742 -9.786742,9.786742 -5.405069,0 -9.786743,-4.381674 -9.786743,-9.786742 0,-5.405069 4.381674,-9.786742 9.786743,-9.786742 5.405068,0 9.786742,4.381673 9.786742,9.786742 z"
       sodipodi:ry="9.7867422"
       sodipodi:rx="9.7867422"
       sodipodi:cy="39.256161"
       sodipodi:cx="74.970139"
       id="path3873"
       style="fill:#a09769;fill-opacity:1;stroke:none"
       sodipodi:type="arc" />
    <path
       transform="matrix(0.37684933,0,0,0.36556963,12.55841,1025.2716)"
       d="m 108.20813,16.358879 c 0,8.872471 -7.19256,16.065029 -16.065033,16.065029 -8.872471,0 -16.065029,-7.192558 -16.065029,-16.065029 0,-8.8724705 7.192558,-16.06502905 16.065029,-16.06502905 8.872473,0 16.065033,7.19255855 16.065033,16.06502905 z"
       sodipodi:ry="16.065029"
       sodipodi:rx="16.065029"
       sodipodi:cy="16.358879"
       sodipodi:cx="92.143097"
       id="path3875"
       style="fill:#a09769;fill-opacity:1;stroke:none"
       sodipodi:type="arc" />
    <path
       transform="matrix(0.37684933,0,0,0.36556963,12.55841,1025.0015)"
       d="m 86.788091,26.14562 c 0,5.914981 -4.795039,10.710019 -10.710019,10.710019 -5.914981,0 -10.71002,-4.795038 -10.71002,-10.710019 0,-5.91498 4.795039,-10.710019 10.71002,-10.710019 5.91498,0 10.710019,4.795039 10.710019,10.710019 z"
       sodipodi:ry="10.710019"
       sodipodi:rx="10.710019"
       sodipodi:cy="26.14562"
       sodipodi:cx="76.078072"
       id="path3877"
       style="fill:#a09769;fill-opacity:1;stroke:none"
       sodipodi:type="arc" />
    <path
       transform="matrix(0.37684933,0,0,0.36556963,12.55841,1025.0015)"
       d="m 124.82712,41.656685 c 0,10.300224 -8.34998,18.650205 -18.6502,18.650205 -10.300226,0 -18.650208,-8.349981 -18.650208,-18.650205 0,-10.300224 8.349982,-18.650206 18.650208,-18.650206 10.30022,0 18.6502,8.349982 18.6502,18.650206 z"
       sodipodi:ry="18.650206"
       sodipodi:rx="18.650206"
       sodipodi:cy="41.656685"
       sodipodi:cx="106.17692"
       id="path3879"
       style="fill:#a09769;fill-opacity:1;stroke:none"
       sodipodi:type="arc" />
    <path
       transform="matrix(0.37684933,0,0,0.36556963,12.55841,1025.0015)"
       d="m 122.79592,14.143013 c 0,6.832822 -5.53909,12.371919 -12.37192,12.371919 -6.83282,0 -12.371915,-5.539097 -12.371915,-12.371919 0,-6.832822 5.539095,-12.3719187 12.371915,-12.3719187 6.83283,0 12.37192,5.5390967 12.37192,12.3719187 z"
       sodipodi:ry="12.371919"
       sodipodi:rx="12.371919"
       sodipodi:cy="14.143013"
       sodipodi:cx="110.424"
       id="path3881"
       style="fill:#a09769;fill-opacity:1;stroke:none"
       sodipodi:type="arc" />
    <path
       transform="matrix(0.37684933,0,0,0.36556963,12.55841,1025.0015)"
       d="m 97.128797,48.85825 c 0,7.138769 -5.787116,12.925885 -12.925886,12.925885 -7.138769,0 -12.925885,-5.787116 -12.925885,-12.925885 0,-7.13877 5.787116,-12.925886 12.925885,-12.925886 7.13877,0 12.925886,5.787116 12.925886,12.925886 z"
       sodipodi:ry="12.925885"
       sodipodi:rx="12.925885"
       sodipodi:cy="48.85825"
       sodipodi:cx="84.202911"
       id="path3883"
       style="fill:#a09769;fill-opacity:1;stroke:none"
       sodipodi:type="arc" />
    <path
       sodipodi:type="arc"
       style="fill:#c6c0a5;fill-opacity:1;stroke:none"
       id="path3885"
       sodipodi:cx="74.970139"
       sodipodi:cy="39.256161"
       sodipodi:rx="9.7867422"
       sodipodi:ry="9.7867422"
       d="m 84.756881,39.256161 c 0,5.405068 -4.381674,9.786742 -9.786742,9.786742 -5.405069,0 -9.786743,-4.381674 -9.786743,-9.786742 0,-5.405069 4.381674,-9.786742 9.786743,-9.786742 5.405068,0 9.786742,4.381673 9.786742,9.786742 z"
       transform="matrix(0.26082715,0,0,0.25302018,23.581127,1028.5365)" />
    <path
       sodipodi:type="arc"
       style="fill:#c6c0a5;fill-opacity:1;stroke:none"
       id="path3887"
       sodipodi:cx="92.143097"
       sodipodi:cy="16.358879"
       sodipodi:rx="16.065029"
       sodipodi:ry="16.065029"
       d="m 108.20813,16.358879 c 0,8.872471 -7.19256,16.065029 -16.065033,16.065029 -8.872471,0 -16.065029,-7.192558 -16.065029,-16.065029 0,-8.8724705 7.192558,-16.06502905 16.065029,-16.06502905 8.872473,0 16.065033,7.19255855 16.065033,16.06502905 z"
       transform="matrix(0.26082715,0,0,0.25302018,22.852707,1027.2219)" />
    <path
       sodipodi:type="arc"
       style="fill:#c6c0a5;fill-opacity:1;stroke:none"
       id="path3889"
       sodipodi:cx="76.078072"
       sodipodi:cy="26.14562"
       sodipodi:rx="10.710019"
       sodipodi:ry="10.710019"
       d="m 86.788091,26.14562 c 0,5.914981 -4.795039,10.710019 -10.710019,10.710019 -5.914981,0 -10.71002,-4.795038 -10.71002,-10.710019 0,-5.91498 4.795039,-10.710019 10.71002,-10.710019 5.91498,0 10.710019,4.795039 10.710019,10.710019 z"
       transform="matrix(0.26082715,0,0,0.25302018,22.306391,1028.8015)" />
    <path
       sodipodi:type="arc"
       style="fill:#c6c0a5;fill-opacity:1;stroke:none"
       id="path3891"
       sodipodi:cx="106.17692"
       sodipodi:cy="41.656685"
       sodipodi:rx="18.650206"
       sodipodi:ry="18.650206"
       d="m 124.82712,41.656685 c 0,10.300224 -8.34998,18.650205 -18.6502,18.650205 -10.300226,0 -18.650208,-8.349981 -18.650208,-18.650205 0,-10.300224 8.349982,-18.650206 18.650208,-18.650206 10.30022,0 18.6502,8.349982 18.6502,18.650206 z"
       transform="matrix(0.26082715,0,0,0.25302018,24.946916,1030.1264)" />
    <path
       sodipodi:type="arc"
       style="fill:#c6c0a5;fill-opacity:1;stroke:none"
       id="path3893"
       sodipodi:cx="110.424"
       sodipodi:cy="14.143013"
       sodipodi:rx="12.371919"
       sodipodi:ry="12.371919"
       d="m 122.79592,14.143013 c 0,6.832822 -5.53909,12.371919 -12.37192,12.371919 -6.83282,0 -12.371915,-5.539097 -12.371915,-12.371919 0,-6.832822 5.539095,-12.3719187 12.371915,-12.3719187 6.83283,0 12.37192,5.5390967 12.37192,12.3719187 z"
       transform="matrix(0.26082715,0,0,0.25302018,24.764811,1026.9467)" />
    <path
       sodipodi:type="arc"
       style="fill:#c6c0a5;fill-opacity:1;stroke:none"
       id="path3895"
       sodipodi:cx="84.202911"
       sodipodi:cy="48.85825"
       sodipodi:rx="12.925885"
       sodipodi:ry="12.925885"
       d="m 97.128797,48.85825 c 0,7.138769 -5.787116,12.925885 -12.925886,12.925885 -7.138769,0 -12.925885,-5.787116 -12.925885,-12.925885 0,-7.13877 5.787116,-12.925886 12.925885,-12.925886 7.13877,0 12.925886,5.787116 12.925886,12.925886 z"
       transform="matrix(0.26082715,0,0,0.25302018,22.579549,1030.3914)" />
    <path
       transform="matrix(0.52437752,0,0,0.50868205,9.223958,1023.8034)"
       d="m 86.788091,26.14562 c 0,5.914981 -4.795039,10.710019 -10.710019,10.710019 -5.914981,0 -10.71002,-4.795038 -10.71002,-10.710019 0,-5.91498 4.795039,-10.710019 10.71002,-10.710019 5.91498,0 10.710019,4.795039 10.710019,10.710019 z"
       sodipodi:ry="10.710019"
       sodipodi:rx="10.710019"
       sodipodi:cy="26.14562"
       sodipodi:cx="76.078072"
       id="path3897"
       style="fill:#c6c0a5;fill-opacity:1;stroke:none"
       sodipodi:type="arc" />
    <path
       sodipodi:type="arc"
       style="fill:#686349;fill-opacity:1;stroke:none"
       id="path3899"
       sodipodi:cx="170.52936"
       sodipodi:cy="42.764618"
       sodipodi:rx="18.126598"
       sodipodi:ry="18.126598"
       d="m 188.65596,42.764618 c 0,10.011044 -8.11556,18.126598 -18.1266,18.126598 -10.01105,0 -18.1266,-8.115554 -18.1266,-18.126598 0,-10.011044 8.11555,-18.126598 18.1266,-18.126598 10.01104,0 18.1266,8.115554 18.1266,18.126598 z"
       transform="matrix(0.49309424,0,0,0.47833513,-2.0963667,1015.6627)" />
    <path
       sodipodi:type="arc"
       style="fill:#686349;fill-opacity:1;stroke:none"
       id="path3901"
       sodipodi:cx="144.58527"
       sodipodi:cy="53.843948"
       sodipodi:rx="9.0481195"
       sodipodi:ry="9.0481195"
       d="m 153.63339,53.843948 c 0,4.997139 -4.05099,9.04812 -9.04812,9.04812 -4.99714,0 -9.04812,-4.050981 -9.04812,-9.04812 0,-4.997138 4.05098,-9.048119 9.04812,-9.048119 4.99713,0 9.04812,4.050981 9.04812,9.048119 z"
       transform="matrix(0.49309424,0,0,0.47833513,2.7294194,1019.6375)" />
    <path
       sodipodi:type="arc"
       style="fill:#686349;fill-opacity:1;stroke:none"
       id="path3903"
       sodipodi:cx="165.72832"
       sodipodi:cy="54.490242"
       sodipodi:rx="8.9557924"
       sodipodi:ry="8.9557924"
       d="m 174.68411,54.490242 c 0,4.946148 -4.00965,8.955792 -8.95579,8.955792 -4.94615,0 -8.9558,-4.009644 -8.9558,-8.955792 0,-4.946148 4.00965,-8.955792 8.9558,-8.955792 4.94614,0 8.95579,4.009644 8.95579,8.955792 z"
       transform="matrix(0.49309424,0,0,0.47833513,2.7294194,1019.6375)" />
    <path
       sodipodi:type="arc"
       style="fill:#686349;fill-opacity:1;stroke:none"
       id="path3905"
       sodipodi:cx="149.57097"
       sodipodi:cy="21.344578"
       sodipodi:rx="16.249685"
       sodipodi:ry="16.249685"
       d="m 165.82065,21.344578 c 0,8.974453 -7.27523,16.249685 -16.24968,16.249685 -8.97445,0 -16.24969,-7.275232 -16.24969,-16.249685 0,-8.974454 7.27524,-16.2496855 16.24969,-16.2496855 8.97445,0 16.24968,7.2752315 16.24968,16.2496855 z"
       transform="matrix(0.49309424,0,0,0.47833513,2.7294194,1019.6375)" />
    <path
       sodipodi:type="arc"
       style="fill:#686349;fill-opacity:1;stroke:none"
       id="path3907"
       sodipodi:cx="177.08464"
       sodipodi:cy="23.7451"
       sodipodi:rx="7.5708756"
       sodipodi:ry="7.5708756"
       d="m 184.65552,23.7451 c 0,4.181279 -3.3896,7.570876 -7.57088,7.570876 -4.18128,0 -7.57088,-3.389597 -7.57088,-7.570876 0,-4.181279 3.3896,-7.570876 7.57088,-7.570876 4.18128,0 7.57088,3.389597 7.57088,7.570876 z"
       transform="matrix(0.49309424,0,0,0.47833513,2.7294194,1019.6375)" />
    <path
       sodipodi:type="arc"
       style="fill:#686349;fill-opacity:1;stroke:none"
       id="path3909"
       sodipodi:cx="178.19257"
       sodipodi:cy="46.088417"
       sodipodi:rx="6.2782874"
       sodipodi:ry="6.2782874"
       d="m 184.47085,46.088417 c 0,3.467402 -2.81088,6.278287 -6.27828,6.278287 -3.46741,0 -6.27829,-2.810885 -6.27829,-6.278287 0,-3.467402 2.81088,-6.278287 6.27829,-6.278287 3.4674,0 6.27828,2.810885 6.27828,6.278287 z"
       transform="matrix(0.49309424,0,0,0.47833513,2.7294194,1019.6375)" />
    <path
       sodipodi:type="arc"
       style="fill:#686349;fill-opacity:1;stroke:none"
       id="path3911"
       sodipodi:cx="155.75693"
       sodipodi:cy="50.427818"
       sodipodi:rx="6.9245815"
       sodipodi:ry="6.9245815"
       d="m 162.68151,50.427818 c 0,3.824341 -3.10024,6.924582 -6.92458,6.924582 -3.82434,0 -6.92458,-3.100241 -6.92458,-6.924582 0,-3.82434 3.10024,-6.924581 6.92458,-6.924581 3.82434,0 6.92458,3.100241 6.92458,6.924581 z"
       transform="matrix(0.49309424,0,0,0.47833513,2.7294194,1019.6375)" />
    <path
       sodipodi:type="arc"
       style="fill:#686349;fill-opacity:1;stroke:none"
       id="path3913"
       sodipodi:cx="147.44742"
       sodipodi:cy="39.902454"
       sodipodi:rx="8.5864811"
       sodipodi:ry="8.5864811"
       d="m 156.0339,39.902454 c 0,4.742183 -3.8443,8.586481 -8.58648,8.586481 -4.74218,0 -8.58648,-3.844298 -8.58648,-8.586481 0,-4.742182 3.8443,-8.586481 8.58648,-8.586481 4.74218,0 8.58648,3.844299 8.58648,8.586481 z"
       transform="matrix(0.49309424,0,0,0.47833513,2.7294194,1019.6375)" />
    <path
       transform="matrix(0.39731334,0,0,0.38542112,14.069067,1019.619)"
       d="m 188.65596,42.764618 c 0,10.011044 -8.11556,18.126598 -18.1266,18.126598 -10.01105,0 -18.1266,-8.115554 -18.1266,-18.126598 0,-10.011044 8.11555,-18.126598 18.1266,-18.126598 10.01104,0 18.1266,8.115554 18.1266,18.126598 z"
       sodipodi:ry="18.126598"
       sodipodi:rx="18.126598"
       sodipodi:cy="42.764618"
       sodipodi:cx="170.52936"
       id="path3915"
       style="fill:#a09769;fill-opacity:1;stroke:none"
       sodipodi:type="arc" />
    <path
       transform="matrix(0.39731334,0,0,0.38542112,17.957471,1022.8217)"
       d="m 153.63339,53.843948 c 0,4.997139 -4.05099,9.04812 -9.04812,9.04812 -4.99714,0 -9.04812,-4.050981 -9.04812,-9.04812 0,-4.997138 4.05098,-9.048119 9.04812,-9.048119 4.99713,0 9.04812,4.050981 9.04812,9.048119 z"
       sodipodi:ry="9.0481195"
       sodipodi:rx="9.0481195"
       sodipodi:cy="53.843948"
       sodipodi:cx="144.58527"
       id="path3917"
       style="fill:#a09769;fill-opacity:1;stroke:none"
       sodipodi:type="arc" />
    <path
       transform="matrix(0.39731334,0,0,0.38542112,17.957471,1022.8217)"
       d="m 174.68411,54.490242 c 0,4.946148 -4.00965,8.955792 -8.95579,8.955792 -4.94615,0 -8.9558,-4.009644 -8.9558,-8.955792 0,-4.946148 4.00965,-8.955792 8.9558,-8.955792 4.94614,0 8.95579,4.009644 8.95579,8.955792 z"
       sodipodi:ry="8.9557924"
       sodipodi:rx="8.9557924"
       sodipodi:cy="54.490242"
       sodipodi:cx="165.72832"
       id="path3919"
       style="fill:#a09769;fill-opacity:1;stroke:none"
       sodipodi:type="arc" />
    <path
       transform="matrix(0.39731334,0,0,0.38542112,17.957471,1022.8217)"
       d="m 165.82065,21.344578 c 0,8.974453 -7.27523,16.249685 -16.24968,16.249685 -8.97445,0 -16.24969,-7.275232 -16.24969,-16.249685 0,-8.974454 7.27524,-16.2496855 16.24969,-16.2496855 8.97445,0 16.24968,7.2752315 16.24968,16.2496855 z"
       sodipodi:ry="16.249685"
       sodipodi:rx="16.249685"
       sodipodi:cy="21.344578"
       sodipodi:cx="149.57097"
       id="path3921"
       style="fill:#a09769;fill-opacity:1;stroke:none"
       sodipodi:type="arc" />
    <path
       transform="matrix(0.39731334,0,0,0.38542112,17.957471,1022.8217)"
       d="m 184.65552,23.7451 c 0,4.181279 -3.3896,7.570876 -7.57088,7.570876 -4.18128,0 -7.57088,-3.389597 -7.57088,-7.570876 0,-4.181279 3.3896,-7.570876 7.57088,-7.570876 4.18128,0 7.57088,3.389597 7.57088,7.570876 z"
       sodipodi:ry="7.5708756"
       sodipodi:rx="7.5708756"
       sodipodi:cy="23.7451"
       sodipodi:cx="177.08464"
       id="path3923"
       style="fill:#a09769;fill-opacity:1;stroke:none"
       sodipodi:type="arc" />
    <path
       transform="matrix(0.39731334,0,0,0.38542112,17.957471,1022.8217)"
       d="m 184.47085,46.088417 c 0,3.467402 -2.81088,6.278287 -6.27828,6.278287 -3.46741,0 -6.27829,-2.810885 -6.27829,-6.278287 0,-3.467402 2.81088,-6.278287 6.27829,-6.278287 3.4674,0 6.27828,2.810885 6.27828,6.278287 z"
       sodipodi:ry="6.2782874"
       sodipodi:rx="6.2782874"
       sodipodi:cy="46.088417"
       sodipodi:cx="178.19257"
       id="path3925"
       style="fill:#a09769;fill-opacity:1;stroke:none"
       sodipodi:type="arc" />
    <path
       transform="matrix(0.39731334,0,0,0.38542112,17.957471,1022.8217)"
       d="m 162.68151,50.427818 c 0,3.824341 -3.10024,6.924582 -6.92458,6.924582 -3.82434,0 -6.92458,-3.100241 -6.92458,-6.924582 0,-3.82434 3.10024,-6.924581 6.92458,-6.924581 3.82434,0 6.92458,3.100241 6.92458,6.924581 z"
       sodipodi:ry="6.9245815"
       sodipodi:rx="6.9245815"
       sodipodi:cy="50.427818"
       sodipodi:cx="155.75693"
       id="path3927"
       style="fill:#a09769;fill-opacity:1;stroke:none"
       sodipodi:type="arc" />
    <path
       transform="matrix(0.39731334,0,0,0.38542112,17.957471,1022.8217)"
       d="m 156.0339,39.902454 c 0,4.742183 -3.8443,8.586481 -8.58648,8.586481 -4.74218,0 -8.58648,-3.844298 -8.58648,-8.586481 0,-4.742182 3.8443,-8.586481 8.58648,-8.586481 4.74218,0 8.58648,3.844299 8.58648,8.586481 z"
       sodipodi:ry="8.5864811"
       sodipodi:rx="8.5864811"
       sodipodi:cy="39.902454"
       sodipodi:cx="147.44742"
       id="path3929"
       style="fill:#a09769;fill-opacity:1;stroke:none"
       sodipodi:type="arc" />
    <path
       sodipodi:type="arc"
       style="fill:#c6c0a5;fill-opacity:1;stroke:none"
       id="path3931"
       sodipodi:cx="149.57097"
       sodipodi:cy="21.344578"
       sodipodi:rx="16.249685"
       sodipodi:ry="16.249685"
       d="m 165.82065,21.344578 c 0,8.974453 -7.27523,16.249685 -16.24968,16.249685 -8.97445,0 -16.24969,-7.275232 -16.24969,-16.249685 0,-8.974454 7.27524,-16.2496855 16.24969,-16.2496855 8.97445,0 16.24968,7.2752315 16.24968,16.2496855 z"
       transform="matrix(0.31326319,0,0,0.30388672,30.528933,1024.562)" />
    <path
       sodipodi:type="arc"
       style="fill:#c6c0a5;fill-opacity:1;stroke:none"
       id="path3933"
       sodipodi:cx="177.08464"
       sodipodi:cy="23.7451"
       sodipodi:rx="7.5708756"
       sodipodi:ry="7.5708756"
       d="m 184.65552,23.7451 c 0,4.181279 -3.3896,7.570876 -7.57088,7.570876 -4.18128,0 -7.57088,-3.389597 -7.57088,-7.570876 0,-4.181279 3.3896,-7.570876 7.57088,-7.570876 4.18128,0 7.57088,3.389597 7.57088,7.570876 z"
       transform="matrix(0.28907314,0,0,0.28042072,37.125148,1025.3149)" />
    <path
       sodipodi:type="arc"
       style="fill:#c6c0a5;fill-opacity:1;stroke:none"
       id="path3935"
       sodipodi:cx="178.19257"
       sodipodi:cy="46.088417"
       sodipodi:rx="6.2782874"
       sodipodi:ry="6.2782874"
       d="m 184.47085,46.088417 c 0,3.467402 -2.81088,6.278287 -6.27828,6.278287 -3.46741,0 -6.27829,-2.810885 -6.27829,-6.278287 0,-3.467402 2.81088,-6.278287 6.27829,-6.278287 3.4674,0 6.27828,2.810885 6.27828,6.278287 z"
       transform="matrix(0.32479949,0,0,0.31507772,30.15048,1025.7987)" />
    <path
       transform="matrix(0.45532443,0,0,0.44169584,2.4303295,1022.7895)"
       d="m 184.47085,46.088417 c 0,3.467402 -2.81088,6.278287 -6.27828,6.278287 -3.46741,0 -6.27829,-2.810885 -6.27829,-6.278287 0,-3.467402 2.81088,-6.278287 6.27829,-6.278287 3.4674,0 6.27828,2.810885 6.27828,6.278287 z"
       sodipodi:ry="6.2782874"
       sodipodi:rx="6.2782874"
       sodipodi:cy="46.088417"
       sodipodi:cx="178.19257"
       id="path3937"
       style="fill:#c6c0a5;fill-opacity:1;stroke:none"
       sodipodi:type="arc" />
    <path
       sodipodi:type="arc"
       style="fill:#c6c0a5;fill-opacity:1;stroke:none"
       id="path3939"
       sodipodi:cx="178.19257"
       sodipodi:cy="46.088417"
       sodipodi:rx="6.2782874"
       sodipodi:ry="6.2782874"
       d="m 184.47085,46.088417 c 0,3.467402 -2.81088,6.278287 -6.27828,6.278287 -3.46741,0 -6.27829,-2.810885 -6.27829,-6.278287 0,-3.467402 2.81088,-6.278287 6.27829,-6.278287 3.4674,0 6.27828,2.810885 6.27828,6.278287 z"
       transform="matrix(0.39731337,0,0,0.38542114,5.3011632,1024.6766)" />
    <path
       transform="matrix(1.0789436,0,0,1.0466491,-110.78819,988.37197)"
       d="m 184.47085,46.088417 c 0,3.467402 -2.81088,6.278287 -6.27828,6.278287 -3.46741,0 -6.27829,-2.810885 -6.27829,-6.278287 0,-3.467402 2.81088,-6.278287 6.27829,-6.278287 3.4674,0 6.27828,2.810885 6.27828,6.278287 z"
       sodipodi:ry="6.2782874"
       sodipodi:rx="6.2782874"
       sodipodi:cy="46.088417"
       sodipodi:cx="178.19257"
       id="path3941"
       style="fill:#c6c0a5;fill-opacity:1;stroke:none"
       sodipodi:type="arc" />
  </g>
</svg>
