<?xml version="1.0" encoding="UTF-8" standalone="no"?>
<!-- Created with Inkscape (http://www.inkscape.org/) -->

<svg
   xmlns:dc="http://purl.org/dc/elements/1.1/"
   xmlns:cc="http://creativecommons.org/ns#"
   xmlns:rdf="http://www.w3.org/1999/02/22-rdf-syntax-ns#"
   xmlns:svg="http://www.w3.org/2000/svg"
   xmlns="http://www.w3.org/2000/svg"
   xmlns:xlink="http://www.w3.org/1999/xlink"
   xmlns:sodipodi="http://sodipodi.sourceforge.net/DTD/sodipodi-0.dtd"
   xmlns:inkscape="http://www.inkscape.org/namespaces/inkscape"
   width="550"
   height="400"
   id="svg2"
   version="1.1"
   inkscape:version="0.48.4 r9939"
   sodipodi:docname="intro2.svg"
   inkscape:export-filename="/home/henry/gproj/MoonWarHx/proj/assets/img/intro2.png"
   inkscape:export-xdpi="90"
   inkscape:export-ydpi="90">
  <defs
     id="defs4">
    <linearGradient
       id="linearGradient4112">
      <stop
         id="stop4114"
         offset="0"
         style="stop-color:#c3c3c3;stop-opacity:0;" />
      <stop
         style="stop-color:#616161;stop-opacity:0;"
         offset="0.91609126"
         id="stop4116" />
      <stop
         id="stop4118"
         offset="1"
         style="stop-color:#000000;stop-opacity:1;" />
    </linearGradient>
    <linearGradient
       id="linearGradient4053">
      <stop
         style="stop-color:#a0a0a0;stop-opacity:0;"
         offset="0"
         id="stop4055" />
      <stop
         style="stop-color:#a0a0a0;stop-opacity:0.27131784;"
         offset="1"
         id="stop4057" />
    </linearGradient>
    <linearGradient
       id="linearGradient4204">
      <stop
         style="stop-color:#c3c3c3;stop-opacity:0;"
         offset="0"
         id="stop4206" />
      <stop
         id="stop4110"
         offset="0.5"
         style="stop-color:#616161;stop-opacity:0;" />
      <stop
         style="stop-color:#000000;stop-opacity:1;"
         offset="1"
         id="stop4208" />
    </linearGradient>
    <radialGradient
       inkscape:collect="always"
       xlink:href="#linearGradient4204"
       id="radialGradient4218"
       cx="66"
       cy="33"
       fx="66"
       fy="33"
       r="289"
       gradientUnits="userSpaceOnUse" />
    <linearGradient
       inkscape:collect="always"
       xlink:href="#linearGradient4053"
       id="linearGradient4059"
       x1="309.90714"
       y1="206.14514"
       x2="526.87549"
       y2="206.14514"
       gradientUnits="userSpaceOnUse" />
    <linearGradient
       inkscape:collect="always"
       xlink:href="#linearGradient4053-8"
       id="linearGradient4059-5"
       x1="-45.767578"
       y1="207.55936"
       x2="108.26827"
       y2="205.43803"
       gradientUnits="userSpaceOnUse" />
    <linearGradient
       id="linearGradient4053-8">
      <stop
         style="stop-color:#a0a0a0;stop-opacity:1;"
         offset="0"
         id="stop4055-6" />
      <stop
         style="stop-color:#a0a0a0;stop-opacity:0;"
         offset="1"
         id="stop4057-3" />
    </linearGradient>
    <linearGradient
       gradientTransform="translate(-309.90713,-30.08102)"
       y2="206.14514"
       x2="526.87549"
       y1="206.14514"
       x1="309.90714"
       gradientUnits="userSpaceOnUse"
       id="linearGradient4076"
       xlink:href="#linearGradient4053-8"
       inkscape:collect="always" />
    <linearGradient
       inkscape:collect="always"
       xlink:href="#linearGradient4053"
       id="linearGradient4096"
       gradientUnits="userSpaceOnUse"
       x1="309.90714"
       y1="206.14514"
       x2="518.3902"
       y2="205.43803"
       gradientTransform="matrix(-1,0,0,1,551.11147,652.36218)" />
    <radialGradient
       inkscape:collect="always"
       xlink:href="#linearGradient4112"
       id="radialGradient4108"
       gradientUnits="userSpaceOnUse"
       cx="66"
       cy="33"
       fx="66"
       fy="33"
       r="289" />
  </defs>
  <sodipodi:namedview
     id="base"
     pagecolor="#ffffff"
     bordercolor="#666666"
     borderopacity="1.0"
     inkscape:pageopacity="0.0"
     inkscape:pageshadow="2"
     inkscape:zoom="1"
     inkscape:cx="251.68484"
     inkscape:cy="207.00298"
     inkscape:document-units="px"
     inkscape:current-layer="layer1"
     showgrid="false"
     inkscape:window-width="1301"
     inkscape:window-height="744"
     inkscape:window-x="65"
     inkscape:window-y="24"
     inkscape:window-maximized="1"
     inkscape:snap-page="false"
     inkscape:snap-grids="false"
     inkscape:snap-to-guides="false"
     showguides="true"
     inkscape:guide-bbox="true">
    <sodipodi:guide
       orientation="1,0"
       position="-394,436"
       id="guide4230" />
  </sodipodi:namedview>
  <metadata
     id="metadata7">
    <rdf:RDF>
      <cc:Work
         rdf:about="">
        <dc:format>image/svg+xml</dc:format>
        <dc:type
           rdf:resource="http://purl.org/dc/dcmitype/StillImage" />
        <dc:title></dc:title>
      </cc:Work>
    </rdf:RDF>
  </metadata>
  <g
     inkscape:label="Layer 1"
     inkscape:groupmode="layer"
     id="layer1"
     transform="translate(0,-652.36218)">
    <path
       transform="matrix(0.63507105,0,0,0.63507105,234.08531,837.40484)"
       d="m 355,33 a 289,289 0 1 1 -578,0 289,289 0 1 1 578,0 z"
       sodipodi:ry="289"
       sodipodi:rx="289"
       sodipodi:cy="33"
       sodipodi:cx="66"
       id="path4106"
       style="color:#000000;fill:url(#radialGradient4108);fill-opacity:1;fill-rule:nonzero;stroke:none;stroke-width:2;marker:none;visibility:visible;display:inline;overflow:visible;enable-background:accumulate"
       sodipodi:type="arc" />
    <rect
       style="color:#000000;fill:#000000;fill-opacity:1;fill-rule:nonzero;stroke:none;stroke-width:2;marker:none;visibility:visible;display:inline;overflow:visible;enable-background:accumulate"
       id="rect4220"
       width="550"
       height="400"
       x="0"
       y="652.36218" />
    <image
       y="764.24921"
       x="159.5"
       id="image3361"
       xlink:href="file:///home/henry/gproj/MoonWarHx/artwork/export/bossFire.png"
       height="248.22597"
       width="227" />
    <image
       y="682.86218"
       x="109"
       id="image3423"
       xlink:href="file:///home/henry/gproj/MoonWarHx/artwork/export/bossTop.png"
       height="181"
       width="328" />
    <path
       style="fill:url(#linearGradient4059);stroke:none;fill-opacity:1.0"
       d="m 309.91004,381.46555 c 0.16866,-0.50598 2.99017,-1.50516 6.27002,-2.22039 15.70029,-3.42377 40.01658,-13.46451 53.69307,-22.17108 61.92849,-39.42419 93.68613,-110.29453 81.31955,-181.47268 -9.67224,-55.67032 -45.92337,-104.09287 -96.4721,-128.86284 -12.67034,-6.208743 -21.08699,-9.392865 -33.33561,-12.611267 -4.98571,-1.310027 -9.18812,-2.75144 -9.33869,-3.20314 -0.35588,-1.067642 47.74686,-1.14593 57.67795,-0.09387 81.98386,8.685033 147.31614,73.809329 156.39463,155.896749 1.00368,9.07529 1.01005,30.04494 0.0117,38.60931 -6.31873,54.20653 -35.64256,100.80484 -82.01123,130.32353 -18.59629,11.83855 -44.08339,21.05892 -68.94291,24.94121 -9.75537,1.52349 -65.73321,2.26493 -65.26639,0.86447 l -2e-5,0 z"
       id="path4051"
       inkscape:connector-curvature="0"
       transform="translate(0,652.36218)" />
    <path
       inkscape:connector-curvature="0"
       id="path4094"
       d="m 241.20143,1033.8277 c -0.16866,-0.5059 -2.99017,-1.5051 -6.27002,-2.2204 -15.70029,-3.4237 -40.01658,-13.4645 -53.69307,-22.171 C 119.30985,970.01207 87.552211,899.14173 99.918791,827.96358 109.59103,772.29326 145.84216,723.87071 196.39089,699.10074 c 12.67034,-6.20874 21.08699,-9.39286 33.33561,-12.61127 4.98571,-1.31002 9.18812,-2.75144 9.33869,-3.20314 0.35588,-1.06764 -47.74686,-1.14593 -57.67795,-0.0939 -81.983859,8.68504 -139.537964,75.22354 -148.616454,157.31096 -1.00368,9.07529 -1.01005,30.04494 -0.0117,38.60931 6.31873,54.20653 34.935453,97.26931 81.304124,126.7881 18.59629,11.8385 37.01232,23.1802 61.87184,27.0625 9.75537,1.5235 65.73321,2.2649 65.26639,0.8644 l 2e-5,0 z"
       style="fill:url(#linearGradient4096);fill-opacity:1;stroke:none"
       sodipodi:nodetypes="ccssssssssssccc" />
    <path
       style="color:#000000;fill:none;stroke:#44a9b6;stroke-width:1;stroke-linecap:butt;stroke-linejoin:miter;stroke-miterlimit:4;stroke-opacity:1;stroke-dasharray:4, 1;stroke-dashoffset:0;marker:none;visibility:visible;display:inline;overflow:visible;enable-background:accumulate"
       d="m -165.5442,1034.1958 c -41.50724,-2.7827 -80.72061,-20.1539 -110.43773,-48.92282 -5.49919,-5.32372 -13.31227,-13.87955 -13.31227,-14.57779 0,-0.24881 1.35,-0.45239 3,-0.45239 2.66667,0 3,-0.11111 3,-1 0,-0.89418 -0.33333,-1 -3.15,-1 -1.7325,0 -3.39304,0.24304 -3.69008,0.54008 -0.6874,0.6874 -4.55458,-4.18976 -10.93437,-13.79008 -5.43908,-8.18473 -12.2608,-20.9009 -15.08795,-28.125 -0.18262,-0.46666 0.71899,-0.625 3.55891,-0.625 3.51508,0 3.80349,-0.0786 3.80349,-1.03673 0,-0.98026 -0.23121,-1.02793 -4.24365,-0.875 l -4.24366,0.16173 -2.03959,-5.75 c -4.15284,-11.70768 -7.15405,-23.46242 -8.68085,-34 -0.81454,-5.62175 -1.79074,-15.28872 -1.79246,-17.75 l -10e-4,-1.5 4.87563,0 c 4.73496,0 4.88042,-0.0339 5.04171,-1.17313 l 0.16608,-1.17314 -5.11302,0.17314 -5.11301,0.17313 0.30875,-11.25 c 0.40689,-14.82566 1.82145,-24.90273 5.42196,-38.625 l 1.54151,-5.875 3.93582,0 c 3.86488,0 3.93583,-0.0225 3.93583,-1.25 0,-1.21542 -0.0978,-1.25 -3.5337,-1.25 -4.13907,0 -4.09551,1.09094 -0.35937,-9 3.14569,-8.4962 10.28032,-23.06441 14.81462,-30.25 l 3.47065,-5.5 2.8039,-0.14995 c 2.39538,-0.1281 2.8039,-0.29201 2.8039,-1.125 0,-0.78101 -0.34827,-0.97505 -1.75,-0.97505 -0.9625,0 -1.75,-0.19907 -1.75,-0.44238 0,-0.60595 5.87685,-8.39468 10.19859,-13.51643 4.58675,-5.43582 13.35382,-14.29622 18.98668,-19.1888 l 4.43527,-3.85239 3.22638,0 c 2.80295,0 3.2045,-0.11484 3.05962,-0.875 -0.0917,-0.48125 -0.68369,-0.9486 -1.31548,-1.03855 -0.63178,-0.09 -1.06534,-0.42745 -0.96344,-0.75 0.10188,-0.32255 2.6461,-2.32009 5.65381,-4.43898 20.66523,-14.55839 44.20016,-24.44449 69.2927,-29.10715 12.29778,-2.28515 14.30337,-2.40902 42.85732,-2.64692 17.52727,-0.14604 27.57317,-0.0554 27.38623,0.24708 -0.16238,0.26274 -1.48155,0.63174 -2.93146,0.82 -7.15737,0.92931 -23.07608,5.42509 -32.88623,9.28777 -15.45484,6.08524 -32.14811,15.47534 -43.50003,24.46912 -3.37011,2.67004 -4.45395,3.19327 -5.24857,2.5338 -1.0219,-0.84811 -6.0014,-0.43422 -6.0014,0.49883 0,0.55323 0.77093,0.81559 2.93839,1 l 2.93839,0.25 -3.18839,2.72985 c -9.67194,8.28097 -20.59656,20.31726 -28.33032,31.21317 l -2.08891,2.94302 -3.12614,0.057 c -2.55173,0.0465 -3.15741,0.21776 -3.29625,0.93198 -0.14398,0.74071 0.21924,0.875 2.36658,0.875 1.39516,0 2.53666,0.1102 2.53666,0.24489 0,0.13469 -0.99532,1.79769 -2.21183,3.69556 -6.22656,9.71405 -13.67918,25.33719 -17.26093,36.18455 l -1.60972,4.875 -3.20876,0 c -3.08936,0 -3.20876,0.0465 -3.20876,1.25 0,1.18182 0.15,1.25 2.74999,1.25 1.5125,0 2.74757,0.16875 2.74459,0.375 -0.003,0.20625 -0.35092,1.5 -0.77321,2.875 -3.41713,11.12656 -5.67287,26.5128 -6.15754,42 -0.44566,14.24089 0.18478,23.4568 2.51399,36.75 1.70204,9.71376 6.15808,25.80164 8.95176,32.31904 l 0.93487,2.18096 -3.23223,0 c -2.8989,0 -3.23223,0.10313 -3.23223,1 0,0.90456 0.33333,1 3.49262,1 l 3.49264,0 3.93488,8.1764 c 5.58533,11.60589 11.29963,21.11568 18.0359,30.01552 1.39918,1.84857 2.54396,3.46162 2.54396,3.58456 0,0.12294 -1.1925,0.22352 -2.65,0.22352 -1.4575,0 -2.91999,0.27 -3.25,0.6 -0.46667,0.46667 -0.73334,0.46667 -1.19999,0 -0.33969,-0.33968 -1.96667,-0.6 -3.75,-0.6 -2.81342,0 -3.15,0.10653 -3.15,0.99691 0,0.95611 0.32108,0.99442 7.84381,0.93605 l 7.84382,-0.0609 4.3245,4.93895 c 24.21782,27.65887 56.326,47.27027 91.48786,55.88007 3.9875,0.9764 8.9375,2.0396 11,2.3626 2.0625,0.3231 3.96375,0.7806 4.225,1.0168 0.59114,0.5345 -43.24264,0.4345 -51.475,-0.1175 z m -109.75,-64.953 c 0,-0.89743 -0.33333,-1 -3.25,-1 -2.91667,0 -3.25,0.10257 -3.25,1 0,0.89744 0.33333,1 3.25,1 2.91667,0 3.25,-0.10256 3.25,-1 z m 8.5,0 c 0,-0.90476 -0.33333,-1 -3.5,-1 -3.16666,0 -3.5,0.0952 -3.5,1 0,0.90476 0.33334,1 3.5,1 3.16667,0 3.5,-0.0952 3.5,-1 z m 8,0 c 0,-0.89743 -0.33334,-1 -3.25,-1 -2.91666,0 -3.25,0.10257 -3.25,1 0,0.89744 0.33334,1 3.25,1 2.91666,0 3.25,-0.10256 3.25,-1 z m 16.5,-0.0227 c 0,-0.86631 -0.35775,-0.9773 -3.15,-0.9773 -1.78334,0 -3.41032,0.26032 -3.75,0.6 -0.46667,0.46667 -0.73334,0.46667 -1.2,0 -0.33969,-0.33968 -1.96667,-0.6 -3.75,-0.6 -2.79225,0 -3.15,0.11099 -3.15,0.97728 0,0.92626 0.39147,0.97727 7.5,0.97727 7.10852,0 7.5,-0.051 7.5,-0.97727 l 0,2e-5 z m -56.59387,-43.8523 c -0.14031,-0.73434 -0.82941,-0.89834 -4.28666,-1.02022 -3.8608,-0.1361 -4.11947,-0.0812 -4.11947,0.875 0,0.94763 0.30501,1.02022 4.28666,1.02022 3.8129,0 4.26819,-0.0967 4.11947,-0.875 z m 9.59387,-0.125 c 0,-0.91666 -0.33333,-1 -4,-1 -3.66667,0 -4,0.0833 -4,1 0,0.91667 0.33333,1 4,1 3.66667,0 4,-0.0833 4,-1 z m 10,-0.0202 c 0,-0.95616 -0.25867,-1.0111 -4.11947,-0.875 -3.45725,0.12188 -4.14635,0.28588 -4.28666,1.02022 -0.14872,0.7783 0.30657,0.875 4.11947,0.875 3.98165,-2e-5 4.28666,-0.0726 4.28666,-1.02024 l 0,2e-5 z m 9.5,0.0202 c 0,-0.91666 -0.33333,-1 -4,-1 -3.66666,0 -4,0.0833 -4,1 0,0.91667 0.33334,1 4,1 3.66667,0 4,-0.0833 4,-1 z m 10,0 c 0,-0.91666 -0.33334,-1 -4,-1 -3.66666,0 -4,0.0833 -4,1 0,0.91667 0.33334,1 4,1 3.66666,0 4,-0.0833 4,-1 z m -49.5,-60.75 c 0,-1.24074 -0.0333,-1.25 -4.5,-1.25 -4.0303,0 -4.5,0.0957 -4.5,0.91667 0,1.44806 0.41294,1.58333 4.83333,1.58333 4.11111,0 4.16667,-0.0167 4.16667,-1.25 z m 10.5,0 c 0,-1.23529 -0.05,-1.25 -4.25,-1.25 -4.2,0 -4.25,0.0147 -4.25,1.25 0,1.2353 0.05,1.25 4.25,1.25 4.2,0 4.25,-0.0147 4.25,-1.25 z m 10.90978,-0.125 c 0.15561,-1.09571 0.0417,-1.125 -4.375,-1.125 -4.52231,0 -4.53478,0.003 -4.53478,1.26947 l 0,1.26947 4.375,-0.14447 c 4.10545,-0.13557 4.38484,-0.21378 4.53478,-1.26947 z m 10.59022,0.125 c 0,-1.24074 -0.0333,-1.25 -4.5,-1.25 -4.0303,0 -4.5,0.0957 -4.5,0.91667 0,1.44806 0.41294,1.58333 4.83333,1.58333 4.11112,0 4.16667,-0.0167 4.16667,-1.25 z m 10.5,0 c 0,-1.23529 -0.05,-1.25 -4.25,-1.25 -4.2,0 -4.25,0.0147 -4.25,1.25 0,1.2353 0.05,1.25 4.25,1.25 4.2,0 4.25,-0.0147 4.25,-1.25 z m -38,-58 c 0,-1.22916 -0.0667,-1.25 -4,-1.25 -3.93333,0 -4,0.0208 -4,1.25 0,1.22917 0.0667,1.25 4,1.25 3.93333,0 4,-0.0208 4,-1.25 z m 10,0 c 0,-1.22916 -0.0667,-1.25 -4,-1.25 -3.93333,0 -4,0.0208 -4,1.25 0,1.22917 0.0667,1.25 4,1.25 3.93333,0 4,-0.0208 4,-1.25 z m 10,0 c 0,-1.22916 -0.0667,-1.25 -4,-1.25 -3.93333,0 -4,0.0208 -4,1.25 0,1.22917 0.0667,1.25 4,1.25 3.93333,0 4,-0.0208 4,-1.25 z m 10,0 c 0,-1.22916 -0.0667,-1.25 -4,-1.25 -3.93333,0 -4,0.0208 -4,1.25 0,1.22917 0.0667,1.25 4,1.25 3.93334,0 4,-0.0208 4,-1.25 z m 10,0 c 0,-1.22916 -0.0667,-1.25 -4,-1.25 -3.93333,0 -4,0.0208 -4,1.25 0,1.22917 0.0667,1.25 4,1.25 3.93334,0 4,-0.0208 4,-1.25 z m -21,-47.25 c 0,-0.91111 -0.33333,-1 -3.75,-1 -3.41667,0 -3.75,0.0889 -3.75,1 0,0.91111 0.33333,1 3.75,1 3.41667,0 3.75,-0.0889 3.75,-1 z m 17.5,-0.0214 c 0,-0.87547 -0.35815,-0.97855 -3.4,-0.97855 -1.97778,0 -3.65098,0.25098 -4,0.6 -0.46666,0.46667 -0.73333,0.46667 -1.2,0 -0.34902,-0.34902 -2.02222,-0.6 -4,-0.6 -3.04185,0 -3.4,0.10308 -3.4,0.97857 0,0.93066 0.39173,0.97858 8,0.97858 7.60828,0 8,-0.0479 8,-0.97858 l 0,-2e-5 z m 9,0.0214 c 0,-0.91111 -0.33334,-1 -3.75,-1 -3.41666,0 -3.75,0.0889 -3.75,1 0,0.91111 0.33334,1 3.75,1 3.41666,0 3.75,-0.0889 3.75,-1 z m 8.90636,0.125 c -0.13747,-0.72039 -0.80653,-0.90095 -3.78666,-1.0219 -3.36015,-0.13637 -3.6197,-0.0736 -3.6197,0.875 0,0.93925 0.30627,1.0219 3.78666,1.0219 3.33662,0 3.76682,-0.10399 3.6197,-0.875 z m 8.59364,-0.125 c 0,-0.90476 -0.33334,-1 -3.5,-1 -3.16667,0 -3.5,0.0952 -3.5,1 0,0.90476 0.33333,1 3.5,1 3.16666,0 3.5,-0.0952 3.5,-1 z m -2,-39.02586 c 0,-0.84298 -0.35679,-0.97414 -2.65,-0.97414 -1.4575,0 -2.92,0.27 -3.25,0.6 -0.46667,0.46667 -0.73334,0.46667 -1.2,0 -0.72406,-0.72406 -5.71416,-0.8052 -6.15,-0.1 -0.71728,1.16058 0.62627,1.44828 6.76352,1.44828 6.09574,0 6.48648,-0.0587 6.48648,-0.97414 l 0,0 z m 14.5,0 c 0,-0.84298 -0.35679,-0.97414 -2.65,-0.97414 -1.4575,0 -2.92,0.27 -3.25,0.6 -0.46667,0.46667 -0.73334,0.46667 -1.2,0 -0.33,-0.33 -1.7925,-0.6 -3.25,-0.6 -2.29322,0 -2.65,0.13116 -2.65,0.97414 0,0.91556 0.39085,0.97414 6.5,0.97414 6.10914,0 6.5,-0.0586 6.5,-0.97414 l 0,0 z m 14.75,0.0259 c 0,-0.9729 -4.98551,-1.34196 -6.06178,-0.44873 -0.55339,0.45927 -0.871,0.46595 -1.30941,0.0275 -0.31835,-0.31834 -1.77131,-0.57881 -3.22881,-0.57881 -2.30566,0 -2.65,0.12835 -2.65,0.98769 0,0.93956 0.32283,0.9822 6.625,0.875 5.50547,-0.0936 6.625,-0.23942 6.625,-0.86269 z m 7.15481,0.125 c -0.136,-0.70621 -0.69634,-0.875 -2.90481,-0.875 -2.20848,0 -2.76881,0.16879 -2.90482,0.875 -0.14573,0.75671 0.24698,0.875 2.90482,0.875 2.65783,0 3.05054,-0.11829 2.90481,-0.875 z"
       id="path4921"
       inkscape:connector-curvature="0" />
    <path
       transform="matrix(0.61257606,0,0,0.61257606,235.56997,1411.6108)"
       d="m 355,33 a 289,289 0 1 1 -578,0 289,289 0 1 1 578,0 z"
       sodipodi:ry="289"
       sodipodi:rx="289"
       sodipodi:cy="33"
       sodipodi:cx="66"
       id="path4222"
       style="color:#000000;fill:none;stroke:#44a9b6;stroke-width:2;stroke-opacity:1;marker:none;visibility:visible;display:inline;overflow:visible;enable-background:accumulate"
       sodipodi:type="arc" />
    <path
       style="color:#000000;fill:none;stroke:#44a9b6;stroke-width:1.22515213;stroke-opacity:1;marker:none;visibility:visible;display:inline;overflow:visible;enable-background:accumulate"
       d="m 294.99999,277.3277 c 97.77345,0 177.03448,79.26104 177.03448,177.03448 0,97.77344 -79.26103,177.03448 -177.03448,177.03448 l -142,0 c -97.773447,0 -177.034479,-79.26104 -177.034479,-177.03448 0,-97.77344 79.261032,-177.03448 177.034479,-177.03448 z"
       id="path4250"
       inkscape:connector-curvature="0"
       sodipodi:nodetypes="csccscc" />
    <path
       sodipodi:type="arc"
       style="color:#000000;fill:url(#radialGradient4218);fill-opacity:1.0;fill-rule:nonzero;stroke:none;stroke-width:2;marker:none;visibility:visible;display:inline;overflow:visible;enable-background:accumulate"
       id="path3434"
       sodipodi:cx="66"
       sodipodi:cy="33"
       sodipodi:rx="289"
       sodipodi:ry="289"
       d="M 355,33 C 355,192.61029 225.61029,322 66,322 -93.610293,322 -223,192.61029 -223,33 c 0,-159.61029 129.389707,-289 289,-289 159.61029,0 289,129.38971 289,289 z"
       transform="matrix(0.62283737,0,0,0.62283737,234.89273,837.80855)" />
  </g>
</svg>
