<?xml version="1.0" encoding="UTF-8" standalone="no"?>
<!-- Created with Inkscape (http://www.inkscape.org/) -->

<svg
   xmlns:dc="http://purl.org/dc/elements/1.1/"
   xmlns:cc="http://creativecommons.org/ns#"
   xmlns:rdf="http://www.w3.org/1999/02/22-rdf-syntax-ns#"
   xmlns:svg="http://www.w3.org/2000/svg"
   xmlns="http://www.w3.org/2000/svg"
   xmlns:xlink="http://www.w3.org/1999/xlink"
   xmlns:sodipodi="http://sodipodi.sourceforge.net/DTD/sodipodi-0.dtd"
   xmlns:inkscape="http://www.inkscape.org/namespaces/inkscape"
   width="550"
   height="400"
   id="svg2"
   version="1.1"
   inkscape:version="0.48.4 r9939"
   sodipodi:docname="intro3.svg"
   inkscape:export-filename="/home/henry/gproj/MoonWarHx/proj/assets/img/intro3.png"
   inkscape:export-xdpi="90"
   inkscape:export-ydpi="90">
  <defs
     id="defs4">
    <linearGradient
       id="linearGradient4204">
      <stop
         style="stop-color:#c3c3c3;stop-opacity:0;"
         offset="0"
         id="stop4206" />
      <stop
         style="stop-color:#000000;stop-opacity:1;"
         offset="1"
         id="stop4208" />
    </linearGradient>
    <radialGradient
       inkscape:collect="always"
       xlink:href="#linearGradient4204"
       id="radialGradient4218"
       cx="66"
       cy="33"
       fx="66"
       fy="33"
       r="289"
       gradientUnits="userSpaceOnUse" />
  </defs>
  <sodipodi:namedview
     id="base"
     pagecolor="#ffffff"
     bordercolor="#666666"
     borderopacity="1.0"
     inkscape:pageopacity="0.0"
     inkscape:pageshadow="2"
     inkscape:zoom="4"
     inkscape:cx="404.34942"
     inkscape:cy="76.591188"
     inkscape:document-units="px"
     inkscape:current-layer="layer1"
     showgrid="false"
     inkscape:window-width="1301"
     inkscape:window-height="744"
     inkscape:window-x="65"
     inkscape:window-y="24"
     inkscape:window-maximized="1"
     inkscape:snap-page="false"
     inkscape:snap-grids="false"
     inkscape:snap-to-guides="false"
     showguides="true"
     inkscape:guide-bbox="true">
    <sodipodi:guide
       orientation="1,0"
       position="-394,436"
       id="guide4230" />
  </sodipodi:namedview>
  <metadata
     id="metadata7">
    <rdf:RDF>
      <cc:Work
         rdf:about="">
        <dc:format>image/svg+xml</dc:format>
        <dc:type
           rdf:resource="http://purl.org/dc/dcmitype/StillImage" />
        <dc:title></dc:title>
      </cc:Work>
    </rdf:RDF>
  </metadata>
  <g
     inkscape:label="Layer 1"
     inkscape:groupmode="layer"
     id="layer1"
     transform="translate(0,-652.36218)">
    <path
       style="color:#000000;fill:none;stroke:#44a9b6;stroke-width:1;stroke-linecap:butt;stroke-linejoin:miter;stroke-miterlimit:4;stroke-opacity:1;stroke-dasharray:4, 1;stroke-dashoffset:0;marker:none;visibility:visible;display:inline;overflow:visible;enable-background:accumulate"
       d="m 197.20158,381.83366 c -41.50724,-2.78278 -80.72061,-20.15392 -110.437731,-48.92286 -5.499186,-5.32372 -13.31227,-13.87955 -13.31227,-14.57779 0,-0.24881 1.35,-0.45239 3,-0.45239 2.666666,0 3,-0.11111 3,-1 0,-0.89418 -0.333334,-1 -3.15,-1 -1.7325,0 -3.393036,0.24304 -3.690081,0.54008 -0.687399,0.6874 -4.554575,-4.18976 -10.934369,-13.79008 -5.439083,-8.18473 -12.2608,-20.9009 -15.087946,-28.125 -0.182627,-0.46666 0.718989,-0.625 3.558901,-0.625 3.515087,0 3.803495,-0.0786 3.803495,-1.03673 0,-0.98026 -0.231207,-1.02793 -4.243655,-0.875 l -4.243654,0.16173 -2.039588,-5.75 c -4.152843,-11.70768 -7.154053,-23.46242 -8.680851,-34 -0.81454,-5.62175 -1.790747,-15.28872 -1.792462,-17.75 l -10e-4,-1.5 4.875628,0 c 4.734959,0 4.880418,-0.0339 5.04171,-1.17313 l 0.166084,-1.17314 -5.113018,0.17314 -5.113018,0.17313 0.308756,-11.25 c 0.40689,-14.82566 1.821452,-24.90273 5.421961,-38.625 l 1.541508,-5.875 3.935822,0 c 3.864877,0 3.935822,-0.0225 3.935822,-1.25 0,-1.21542 -0.09775,-1.25 -3.533694,-1.25 -4.13907,0 -4.095508,1.09094 -0.359374,-9 3.145688,-8.4962 10.280318,-23.06441 14.814619,-30.25 l 3.47065,-5.5 2.8039,-0.14995 c 2.395385,-0.1281 2.803899,-0.29201 2.803899,-1.125 0,-0.78101 -0.348261,-0.97505 -1.75,-0.97505 -0.9625,0 -1.75,-0.19907 -1.75,-0.44238 0,-0.60595 5.876852,-8.394679 10.198596,-13.516434 4.586748,-5.435815 13.353819,-14.296215 18.986679,-19.188798 l 4.43527,-3.852387 3.226381,0 c 2.80295,0 3.2045,-0.114837 3.05962,-0.875 -0.0917,-0.48125 -0.68369,-0.948598 -1.31548,-1.038551 -0.63178,-0.08995 -1.06534,-0.427454 -0.96344,-0.75 0.10188,-0.322547 2.6461,-2.320089 5.65381,-4.438983 20.66523,-14.558388 44.20016,-24.444492 69.2927,-29.107145 12.29778,-2.285153 14.30337,-2.40902 42.85732,-2.646925 17.52727,-0.146033 27.57317,-0.0554 27.38623,0.24708 -0.16238,0.262744 -1.48155,0.631744 -2.93146,0.820002 -7.15737,0.929308 -23.07608,5.42509 -32.88623,9.287772 -15.45484,6.085242 -32.14811,15.475334 -43.50003,24.469122 -3.37011,2.670034 -4.45395,3.19327 -5.24857,2.533796 -1.0219,-0.84811 -6.0014,-0.434218 -6.0014,0.498832 0,0.553226 0.77093,0.815592 2.93839,1 l 2.93839,0.25 -3.18839,2.729853 c -9.67194,8.280967 -20.59656,20.317257 -28.33032,31.213166 l -2.08891,2.94302 -3.12614,0.057 c -2.55173,0.0465 -3.15741,0.21776 -3.29625,0.93198 -0.14398,0.74071 0.21924,0.875 2.36658,0.875 1.39516,0 2.53666,0.1102 2.53666,0.24489 0,0.13469 -0.99532,1.79769 -2.21183,3.69556 -6.22656,9.71405 -13.67918,25.33719 -17.26093,36.18455 l -1.60972,4.875 -3.20876,0 c -3.08936,0 -3.208766,0.0465 -3.208766,1.25 0,1.18182 0.150006,1.25 2.749996,1.25 1.5125,0 2.74757,0.16875 2.74459,0.375 -0.003,0.20625 -0.35092,1.5 -0.77321,2.875 -3.41713,11.12656 -5.672876,26.5128 -6.157546,42 -0.44566,14.24089 0.184785,23.4568 2.513996,36.75 1.70204,9.71376 6.15808,25.80164 8.95176,32.31904 l 0.93487,2.18096 -3.23223,0 c -2.8989,0 -3.23223,0.10313 -3.23223,1 0,0.90456 0.33333,1 3.49262,1 l 3.49264,0 3.93488,8.1764 c 5.58533,11.60589 11.29963,21.11568 18.0359,30.01552 1.39918,1.84857 2.54396,3.46162 2.54396,3.58456 0,0.12294 -1.1925,0.22352 -2.65,0.22352 -1.4575,0 -2.91999,0.27 -3.25,0.6 -0.46667,0.46667 -0.73334,0.46667 -1.19999,0 -0.33969,-0.33968 -1.96667,-0.6 -3.75,-0.6 -2.81342,0 -3.15,0.10653 -3.15,0.99691 0,0.95611 0.32108,0.99442 7.84381,0.93605 l 7.84382,-0.0609 4.3245,4.93895 c 24.21782,27.65884 56.326,47.27028 91.48786,55.88011 3.9875,0.97639 8.9375,2.03956 11,2.36259 2.0625,0.32303 3.96375,0.78059 4.225,1.01679 0.59114,0.53449 -43.24264,0.43443 -51.475,-0.11749 z M 87.451579,316.88062 c 0,-0.89743 -0.333335,-1 -3.25,-1 -2.916667,0 -3.25,0.10257 -3.25,1 0,0.89744 0.333333,1 3.25,1 2.916665,0 3.25,-0.10256 3.25,-1 z m 8.5,0 c 0,-0.90476 -0.333335,-1 -3.5,-1 -3.166665,0 -3.5,0.0952 -3.5,1 0,0.90476 0.333335,1 3.5,1 3.166665,0 3.5,-0.0952 3.5,-1 z m 8.000001,0 c 0,-0.89743 -0.33334,-1 -3.25,-1 -2.916666,0 -3.250001,0.10257 -3.250001,1 0,0.89744 0.333335,1 3.250001,1 2.91666,0 3.25,-0.10256 3.25,-1 z m 16.5,-0.0227 c 0,-0.86631 -0.35775,-0.9773 -3.15,-0.9773 -1.78334,0 -3.41032,0.26032 -3.75,0.6 -0.46667,0.46667 -0.73334,0.46667 -1.2,0 -0.33969,-0.33968 -1.96667,-0.6 -3.75,-0.6 -2.79225,0 -3.15,0.11099 -3.15,0.97728 0,0.92626 0.39147,0.97727 7.5,0.97727 7.10852,0 7.5,-0.051 7.5,-0.97727 l 0,2e-5 z m -56.593869,-43.8523 c -0.140315,-0.73434 -0.829415,-0.89834 -4.286662,-1.02022 -3.860801,-0.1361 -4.11947,-0.0812 -4.11947,0.875 0,0.94763 0.305012,1.02022 4.286662,1.02022 3.812894,0 4.268184,-0.0967 4.11947,-0.875 z m 9.593868,-0.125 c 0,-0.91666 -0.333334,-1 -4,-1 -3.666667,0 -4,0.0833 -4,1 0,0.91667 0.333333,1 4,1 3.666666,0 4,-0.0833 4,-1 z m 10,-0.0202 c 0,-0.95616 -0.25867,-1.0111 -4.11947,-0.875 -3.457248,0.12188 -4.146348,0.28588 -4.286663,1.02022 -0.148713,0.7783 0.306577,0.875 4.119471,0.875 3.981652,-2e-5 4.286662,-0.0726 4.286662,-1.02024 l 0,2e-5 z m 9.5,0.0202 c 0,-0.91666 -0.333335,-1 -4,-1 -3.666665,0 -4,0.0833 -4,1 0,0.91667 0.333335,1 4,1 3.666665,0 4,-0.0833 4,-1 z m 10.000001,0 c 0,-0.91666 -0.33334,-1 -4.000001,-1 -3.666665,0 -4,0.0833 -4,1 0,0.91667 0.333335,1 4,1 3.666661,0 4.000001,-0.0833 4.000001,-1 z m -49.500001,-60.75 c 0,-1.24074 -0.03334,-1.25 -4.5,-1.25 -4.030303,0 -4.5,0.0957 -4.5,0.91667 0,1.44806 0.412937,1.58333 4.833333,1.58333 4.111111,0 4.166667,-0.0167 4.166667,-1.25 z m 10.5,0 c 0,-1.23529 -0.05,-1.25 -4.25,-1.25 -4.2,0 -4.25,0.0147 -4.25,1.25 0,1.2353 0.05,1.25 4.25,1.25 4.2,0 4.25,-0.0147 4.25,-1.25 z m 10.909775,-0.125 c 0.155617,-1.09571 0.04173,-1.125 -4.375,-1.125 -4.522304,0 -4.534775,0.003 -4.534775,1.26947 l 0,1.26947 4.375,-0.14447 c 4.105454,-0.13557 4.384844,-0.21378 4.534775,-1.26947 z m 10.590225,0.125 c 0,-1.24074 -0.03335,-1.25 -4.5,-1.25 -4.030303,0 -4.5,0.0957 -4.5,0.91667 0,1.44806 0.412937,1.58333 4.833333,1.58333 4.111112,0 4.166667,-0.0167 4.166667,-1.25 z m 10.5,0 c 0,-1.23529 -0.05,-1.25 -4.25,-1.25 -4.2,0 -4.25,0.0147 -4.25,1.25 0,1.2353 0.05,1.25 4.25,1.25 4.2,0 4.25,-0.0147 4.25,-1.25 z m -38,-58 c 0,-1.22916 -0.06667,-1.25 -4,-1.25 -3.933334,0 -4,0.0208 -4,1.25 0,1.22917 0.06667,1.25 4,1.25 3.933333,0 4,-0.0208 4,-1.25 z m 10,0 c 0,-1.22916 -0.06667,-1.25 -4,-1.25 -3.933334,0 -4,0.0208 -4,1.25 0,1.22917 0.06667,1.25 4,1.25 3.933333,0 4,-0.0208 4,-1.25 z m 10,0 c 0,-1.22916 -0.06667,-1.25 -4,-1.25 -3.933334,0 -4,0.0208 -4,1.25 0,1.22917 0.06667,1.25 4,1.25 3.933333,0 4,-0.0208 4,-1.25 z m 10,0 c 0,-1.22916 -0.06667,-1.25 -4,-1.25 -3.933334,0 -4,0.0208 -4,1.25 0,1.22917 0.06667,1.25 4,1.25 3.933335,0 4,-0.0208 4,-1.25 z m 10,0 c 0,-1.22916 -0.06667,-1.25 -4,-1.25 -3.933335,0 -4,0.0208 -4,1.25 0,1.22917 0.06667,1.25 4,1.25 3.933335,0 4,-0.0208 4,-1.25 z m -21,-47.25 c 0,-0.91111 -0.333334,-1 -3.75,-1 -3.416667,0 -3.75,0.0889 -3.75,1 0,0.91111 0.333333,1 3.75,1 3.416666,0 3.75,-0.0889 3.75,-1 z m 17.5,-0.0214 c 0,-0.87547 -0.35815,-0.97855 -3.4,-0.97855 -1.97778,0 -3.65098,0.25098 -4,0.6 -0.466665,0.46667 -0.733335,0.46667 -1.2,0 -0.34902,-0.34902 -2.02222,-0.6 -4,-0.6 -3.041849,0 -3.4,0.10308 -3.4,0.97857 0,0.93066 0.391727,0.97858 8,0.97858 7.608275,0 8,-0.0479 8,-0.97858 l 0,-2e-5 z m 9.000001,0.0214 c 0,-0.91111 -0.33334,-1 -3.750001,-1 -3.416665,0 -3.75,0.0889 -3.75,1 0,0.91111 0.333335,1 3.75,1 3.416661,0 3.750001,-0.0889 3.750001,-1 z m 8.90636,0.125 c -0.13747,-0.72039 -0.80653,-0.90095 -3.78666,-1.0219 -3.36015,-0.13637 -3.6197,-0.0736 -3.6197,0.875 0,0.93925 0.30627,1.0219 3.78666,1.0219 3.33662,0 3.76682,-0.10399 3.6197,-0.875 z m 8.59364,-0.125 c 0,-0.90476 -0.33334,-1 -3.5,-1 -3.16667,0 -3.5,0.0952 -3.5,1 0,0.90476 0.33333,1 3.5,1 3.16666,0 3.5,-0.0952 3.5,-1 z m -2,-39.025861 c 0,-0.842984 -0.35679,-0.974138 -2.65,-0.974138 -1.4575,0 -2.92,0.27 -3.25,0.6 -0.46667,0.466667 -0.73334,0.466667 -1.2,0 -0.72406,-0.724062 -5.71416,-0.805202 -6.15,-0.1 -0.71728,1.16058 0.62627,1.448276 6.76352,1.448276 6.09574,0 6.48648,-0.05868 6.48648,-0.974138 l 0,0 z m 14.5,0 c 0,-0.842984 -0.35679,-0.974138 -2.65,-0.974138 -1.4575,0 -2.92,0.27 -3.25,0.6 -0.46667,0.466667 -0.73334,0.466667 -1.2,0 -0.33,-0.33 -1.7925,-0.6 -3.25,-0.6 -2.29322,0 -2.65,0.131154 -2.65,0.974138 0,0.915562 0.39085,0.974138 6.5,0.974138 6.10914,0 6.5,-0.05858 6.5,-0.974138 l 0,0 z m 14.75,0.02586 c 0,-0.972902 -4.98551,-1.341958 -6.06178,-0.448728 -0.55339,0.45927 -0.871,0.46595 -1.30941,0.02754 -0.31835,-0.318343 -1.77131,-0.578807 -3.22881,-0.578807 -2.30566,0 -2.65,0.128342 -2.65,0.987688 0,0.939558 0.32283,0.982196 6.625,0.875 5.50547,-0.09364 6.625,-0.239427 6.625,-0.862688 z m 7.15481,0.125 c -0.136,-0.706214 -0.69634,-0.875 -2.90481,-0.875 -2.20848,0 -2.76881,0.168786 -2.90482,0.875 -0.14573,0.756707 0.24698,0.875 2.90482,0.875 2.65783,0 3.05054,-0.118293 2.90481,-0.875 z"
       id="path4921"
       inkscape:connector-curvature="0"
       transform="translate(0,652.36218)" />
    <rect
       style="color:#000000;fill:#000000;fill-opacity:1;fill-rule:nonzero;stroke:none;stroke-width:2;marker:none;visibility:visible;display:inline;overflow:visible;enable-background:accumulate"
       id="rect4220"
       width="550"
       height="400"
       x="0"
       y="652.36218" />
    <image
       y="764.24921"
       x="159.5"
       id="image3361"
       xlink:href="file:///home/henry/gproj/MoonWarHx/artwork/export/bossFire.png"
       height="248.22597"
       width="227" />
    <image
       y="682.86218"
       x="109"
       id="image3423"
       xlink:href="file:///home/henry/gproj/MoonWarHx/artwork/export/bossTop.png"
       height="181"
       width="328" />
    <path
       sodipodi:type="arc"
       style="color:#000000;fill:url(#radialGradient4218);fill-opacity:1.0;fill-rule:nonzero;stroke:none;stroke-width:2;marker:none;visibility:visible;display:inline;overflow:visible;enable-background:accumulate"
       id="path3434"
       sodipodi:cx="66"
       sodipodi:cy="33"
       sodipodi:rx="289"
       sodipodi:ry="289"
       d="m 355,33 a 289,289 0 1 1 -578,0 289,289 0 1 1 578,0 z"
       transform="matrix(0.62283737,0,0,0.62283737,234.89273,837.80855)" />
    <path
       transform="matrix(0.61257606,0,0,0.61257606,235.56997,838.14717)"
       d="m 355,33 a 289,289 0 1 1 -578,0 289,289 0 1 1 578,0 z"
       sodipodi:ry="289"
       sodipodi:rx="289"
       sodipodi:cy="33"
       sodipodi:cx="66"
       id="path4222"
       style="color:#000000;fill:none;stroke:#44a9b6;stroke-width:2;stroke-opacity:1;marker:none;visibility:visible;display:inline;overflow:visible;enable-background:accumulate"
       sodipodi:type="arc" />
    <path
       style="color:#000000;fill:none;stroke:#44a9b6;stroke-width:1.748;stroke-linecap:butt;stroke-linejoin:miter;stroke-miterlimit:4;stroke-opacity:1;stroke-dasharray:none;stroke-dashoffset:0;marker:none;visibility:visible;display:inline;overflow:visible;enable-background:accumulate"
       d="m 62.511699,759.36218 65.726601,0"
       id="path4228"
       inkscape:connector-curvature="0" />
    <path
       style="color:#000000;fill:none;stroke:#44a9b6;stroke-width:1.45785534;stroke-linecap:butt;stroke-linejoin:miter;stroke-miterlimit:4;stroke-opacity:1;stroke-dasharray:none;stroke-dashoffset:0;marker:none;visibility:visible;display:inline;overflow:visible;enable-background:accumulate"
       d="m 98.525862,720.36218 66.948268,0"
       id="path4232"
       inkscape:connector-curvature="0" />
    <path
       style="color:#000000;fill:none;stroke:#44a9b6;stroke-width:2.13128424;stroke-linecap:butt;stroke-linejoin:miter;stroke-miterlimit:4;stroke-opacity:1;stroke-dasharray:none;stroke-dashoffset:0;marker:none;visibility:visible;display:inline;overflow:visible;enable-background:accumulate"
       d="m 34.135593,864.36218 64.728814,0"
       id="path4234"
       inkscape:connector-curvature="0" />
    <path
       style="color:#000000;fill:none;stroke:#44a9b6;stroke-width:1.95633709;stroke-linecap:butt;stroke-linejoin:miter;stroke-miterlimit:4;stroke-opacity:1;stroke-dasharray:none;stroke-dashoffset:0;marker:none;visibility:visible;display:inline;overflow:visible;enable-background:accumulate"
       d="m 45.989925,925.36218 66.020145,0"
       id="path4236"
       inkscape:connector-curvature="0" />
    <path
       style="color:#000000;fill:none;stroke:#44a9b6;stroke-width:1.64430749;stroke-linecap:butt;stroke-linejoin:miter;stroke-miterlimit:4;stroke-opacity:1;stroke-dasharray:none;stroke-dashoffset:0;marker:none;visibility:visible;display:inline;overflow:visible;enable-background:accumulate"
       d="m 72.717064,969.36218 65.565866,0"
       id="path4238"
       inkscape:connector-curvature="0" />
    <path
       inkscape:connector-curvature="0"
       id="path4240"
       d="m 498.15909,759.36218 -75.06818,0"
       style="color:#000000;fill:none;stroke:#44a9b6;stroke-width:1.83402193;stroke-linecap:butt;stroke-linejoin:miter;stroke-miterlimit:4;stroke-opacity:1;stroke-dasharray:none;stroke-dashoffset:0;marker:none;visibility:visible;display:inline;overflow:visible;enable-background:accumulate"
       sodipodi:nodetypes="cc" />
    <path
       inkscape:connector-curvature="0"
       id="path4242"
       d="m 461.40625,720.36218 -74.8125,0"
       style="color:#000000;fill:none;stroke:#44a9b6;stroke-width:1.54110348;stroke-linecap:butt;stroke-linejoin:miter;stroke-miterlimit:4;stroke-opacity:1;stroke-dasharray:none;stroke-dashoffset:0;marker:none;visibility:visible;display:inline;overflow:visible;enable-background:accumulate" />
    <path
       inkscape:connector-curvature="0"
       id="path4244"
       d="m 527.52966,864.36218 -74.05932,0"
       style="color:#000000;fill:none;stroke:#44a9b6;stroke-width:2.2093792;stroke-linecap:butt;stroke-linejoin:miter;stroke-miterlimit:4;stroke-opacity:1;stroke-dasharray:none;stroke-dashoffset:0;marker:none;visibility:visible;display:inline;overflow:visible;enable-background:accumulate"
       sodipodi:nodetypes="cc" />
    <path
       inkscape:connector-curvature="0"
       id="path4246"
       d="m 513.90725,925.36218 -72.8145,0"
       style="color:#000000;fill:none;stroke:#44a9b6;stroke-width:2.04038215;stroke-linecap:butt;stroke-linejoin:miter;stroke-miterlimit:4;stroke-opacity:1;stroke-dasharray:none;stroke-dashoffset:0;marker:none;visibility:visible;display:inline;overflow:visible;enable-background:accumulate"
       sodipodi:nodetypes="cc" />
    <path
       inkscape:connector-curvature="0"
       id="path4248"
       d="m 488.19813,969.36218 -74.14626,0"
       style="color:#000000;fill:none;stroke:#44a9b6;stroke-width:1.70380104;stroke-linecap:butt;stroke-linejoin:miter;stroke-miterlimit:4;stroke-opacity:1;stroke-dasharray:none;stroke-dashoffset:0;marker:none;visibility:visible;display:inline;overflow:visible;enable-background:accumulate"
       sodipodi:nodetypes="cc" />
    <path
       transform="matrix(0.61257606,0,0,0.61257606,235.56997,838.14717)"
       style="color:#000000;fill:none;stroke:#44a9b6;stroke-width:2;stroke-opacity:1;marker:none;visibility:visible;display:inline;overflow:visible;enable-background:accumulate"
       d="m 188.43378,-256 c 159.61029,0 289,129.38971 289,289 0,159.61029 -129.38971,289 -289,289 l -231.807953,0 C -202.98447,322 -332.37417,192.61029 -332.37417,33 c 0,-159.61029 129.3897,-289 288.999997,-289 z"
       id="path4250"
       inkscape:connector-curvature="0"
       sodipodi:nodetypes="csccscc" />
    <path
       style="color:#000000;fill:none;stroke:#44a9b6;stroke-width:2;stroke-linecap:butt;stroke-linejoin:miter;stroke-miterlimit:4;stroke-opacity:1;stroke-dasharray:none;stroke-dashoffset:0;marker:none;visibility:visible;display:inline;overflow:visible;enable-background:accumulate"
       d="m 40,154 66,0"
       id="path4253"
       inkscape:connector-curvature="0"
       transform="translate(0,652.36218)" />
    <path
       style="color:#000000;fill:none;stroke:#44a9b6;stroke-width:2;stroke-linecap:butt;stroke-linejoin:miter;stroke-miterlimit:4;stroke-opacity:1;stroke-dasharray:none;stroke-dashoffset:0;marker:none;visibility:visible;display:inline;overflow:visible;enable-background:accumulate"
       d="m 448,162 74,0"
       id="path4255"
       inkscape:connector-curvature="0"
       transform="translate(0,652.36218)"
       sodipodi:nodetypes="cc" />
  </g>
</svg>
