<?xml version="1.0" encoding="UTF-8" standalone="no"?>
<!-- Created with Inkscape (http://www.inkscape.org/) -->

<svg
   xmlns:dc="http://purl.org/dc/elements/1.1/"
   xmlns:cc="http://creativecommons.org/ns#"
   xmlns:rdf="http://www.w3.org/1999/02/22-rdf-syntax-ns#"
   xmlns:svg="http://www.w3.org/2000/svg"
   xmlns="http://www.w3.org/2000/svg"
   xmlns:xlink="http://www.w3.org/1999/xlink"
   xmlns:sodipodi="http://sodipodi.sourceforge.net/DTD/sodipodi-0.dtd"
   xmlns:inkscape="http://www.inkscape.org/namespaces/inkscape"
   width="1052.3622"
   height="744.09448"
   id="svg2"
   version="1.1"
   inkscape:version="0.48.3.1 r9886"
   sodipodi:docname="drawing.svg">
  <defs
     id="defs4">
    <filter
       id="filter4515"
       inkscape:collect="always">
      <feGaussianBlur
         id="feGaussianBlur4517"
         stdDeviation="0.28683441"
         inkscape:collect="always" />
    </filter>
    <linearGradient
       gradientUnits="userSpaceOnUse"
       y2="10.391336"
       x2="10.90198"
       y1="10.391336"
       x1="3.8742573"
       id="linearGradient4503"
       xlink:href="#linearGradient4497"
       inkscape:collect="always" />
    <linearGradient
       id="linearGradient4497">
      <stop
         id="stop4499"
         offset="0"
         style="stop-color:#ffab00;stop-opacity:0.52066118;" />
      <stop
         style="stop-color:#ff0000;stop-opacity:0.77685952;"
         offset="0.42777777"
         id="stop4509" />
      <stop
         style="stop-color:#d42600;stop-opacity:1;"
         offset="0.5"
         id="stop4507" />
      <stop
         style="stop-color:#ff0000;stop-opacity:0.76033056;"
         offset="0.58333331"
         id="stop4505" />
      <stop
         id="stop4501"
         offset="1"
         style="stop-color:#ffb700;stop-opacity:0.52066118;" />
    </linearGradient>
    <radialGradient
       gradientUnits="userSpaceOnUse"
       gradientTransform="matrix(-0.5454677,0.09391858,-0.07497127,-0.47952483,20.612349,2.2493899)"
       r="7.4992926"
       fy="1.1627831"
       fx="13.280882"
       cy="1.1627831"
       cx="13.280882"
       id="radialGradient6443"
       xlink:href="#linearGradient6437"
       inkscape:collect="always" />
    <radialGradient
       gradientUnits="userSpaceOnUse"
       gradientTransform="matrix(1.6176407,0.00325614,-0.01048884,2.021371,-10.929315,-2.542597)"
       r="7.4992924"
       fy="3.9139922"
       fx="13.393506"
       cy="3.9139922"
       cx="13.393506"
       id="radialGradient6435"
       xlink:href="#linearGradient6423"
       inkscape:collect="always" />
    <linearGradient
       id="linearGradient6423">
      <stop
         id="stop6425"
         offset="0"
         style="stop-color:#e40015;stop-opacity:1;" />
      <stop
         id="stop6427"
         offset="1"
         style="stop-color:#130000;stop-opacity:1;" />
    </linearGradient>
    <linearGradient
       id="linearGradient6437">
      <stop
         id="stop6439"
         offset="0"
         style="stop-color:#fdfdf9;stop-opacity:1;" />
      <stop
         id="stop6441"
         offset="1"
         style="stop-color:#040002;stop-opacity:1;" />
    </linearGradient>
  </defs>
  <sodipodi:namedview
     id="base"
     pagecolor="#ffffff"
     bordercolor="#666666"
     borderopacity="1.0"
     inkscape:pageopacity="0.0"
     inkscape:pageshadow="2"
     inkscape:zoom="0.060104076"
     inkscape:cx="1079.7718"
     inkscape:cy="-1747.2678"
     inkscape:document-units="px"
     inkscape:current-layer="layer4"
     showgrid="true"
     inkscape:window-width="1366"
     inkscape:window-height="709"
     inkscape:window-x="0"
     inkscape:window-y="27"
     inkscape:window-maximized="1"
     showguides="true"
     inkscape:guide-bbox="true">
    <inkscape:grid
       type="xygrid"
       id="grid2985"
       empspacing="5"
       visible="true"
       enabled="true"
       snapvisiblegridlinesonly="true"
       spacingx="16px"
       spacingy="16px" />
  </sodipodi:namedview>
  <metadata
     id="metadata7">
    <rdf:RDF>
      <cc:Work
         rdf:about="">
        <dc:format>image/svg+xml</dc:format>
        <dc:type
           rdf:resource="http://purl.org/dc/dcmitype/StillImage" />
        <dc:title />
      </cc:Work>
    </rdf:RDF>
  </metadata>
  <g
     inkscape:label="Layer 1"
     inkscape:groupmode="layer"
     id="layer1"
     transform="translate(0,-308.2677)">
    <rect
       style="fill:#008080;fill-opacity:1;stroke:none"
       id="rect2987"
       width="3600"
       height="48.000011"
       x="0"
       y="1036.3622"
       ry="0" />
    <rect
       style="fill:#008080;fill-opacity:1;stroke:none"
       id="rect2991"
       width="3408"
       height="48.000008"
       x="0"
       y="284.36218"
       ry="0" />
    <rect
       style="fill:#008000;fill-opacity:1;stroke:none"
       id="rect2995"
       width="16.571428"
       height="0"
       x="-48.57143"
       y="444.36218"
       transform="scale(-1,1)" />
    <g
       inkscape:label="Layer 1"
       id="layer1-6"
       transform="translate(5.7678209,344.25049)">
      <path
         transform="matrix(1.7484258,0,0,1.8638183,-4.7676467,-11.277178)"
         sodipodi:end="3.1415927"
         sodipodi:start="0"
         d="m 10.90198,6.4495049 a 3.5138614,7.8836637 0 1 1 -7.0277227,-4e-7 l 3.5138614,4e-7 z"
         sodipodi:ry="7.8836637"
         sodipodi:rx="3.5138614"
         sodipodi:cy="6.4495049"
         sodipodi:cx="7.3881187"
         id="path3983"
         style="fill:url(#linearGradient4503);fill-opacity:1;stroke:none;filter:url(#filter4515)"
         sodipodi:type="arc" />
    </g>
    <g
       inkscape:label="Layer 1"
       id="layer1-64"
       transform="translate(429.90576,448.25503)"
       inkscape:transform-center-y="8.0339505">
      <path
         inkscape:connector-curvature="0"
         id="path6460"
         d="m 15.480984,8.9560748 -0.08873,6.8813812 -2.484313,-3.249541 z"
         style="fill:#000000;fill-opacity:1;stroke:none" />
      <path
         style="fill:#000000;fill-opacity:1;stroke:none"
         d="M 8.5663587,9.2282651 8.5167246,16.109646 7.1269675,12.860105 z"
         id="path6462"
         inkscape:connector-curvature="0" />
      <path
         transform="matrix(1.04942,0,0,1.4274067,-3.4338992,-1.8849667)"
         sodipodi:end="6.272469"
         sodipodi:start="3.1415927"
         d="m 3.313736,6.2549999 a 7.4995079,4.9052014 0 0 1 14.998585,-0.052564 l -7.499077,0.052565 z"
         sodipodi:ry="4.9052014"
         sodipodi:rx="7.4995079"
         sodipodi:cy="6.2550001"
         sodipodi:cx="10.813244"
         id="path5900"
         style="fill:url(#radialGradient6443);fill-opacity:1;stroke:none"
         sodipodi:type="arc" />
      <path
         style="fill:#000000;fill-opacity:1;stroke:none"
         d="M 0.43035218,9.0613388 0.51907818,15.94272 3.0033902,12.693179 z"
         id="path6458"
         inkscape:connector-curvature="0" />
      <path
         sodipodi:type="arc"
         style="fill:url(#radialGradient6435);fill-opacity:1;stroke:none"
         id="path5913"
         sodipodi:cx="10.813244"
         sodipodi:cy="6.2550001"
         sodipodi:rx="7.4995079"
         sodipodi:ry="4.9052014"
         d="m 3.313736,6.2549999 a 7.4995079,4.9052014 0 0 1 14.998585,-0.052564 l -7.499077,0.052565 z"
         sodipodi:start="3.1415927"
         sodipodi:end="6.272469"
         transform="matrix(1.04942,0,0,-1.7603476,-3.3902974,17.765471)" />
    </g>
    <rect
       ry="0"
       y="412.36218"
       x="0"
       height="48"
       width="96"
       id="rect3227"
       style="fill:#008080;fill-opacity:1;stroke:none" />
    <rect
       style="fill:#008080;fill-opacity:1;stroke:none"
       id="rect3229"
       width="160"
       height="48"
       x="-1.4210855e-14"
       y="460.36218"
       ry="0" />
    <rect
       ry="0"
       y="508.36218"
       x="-5.6843419e-14"
       height="48"
       width="224"
       id="rect3231"
       style="fill:#008080;fill-opacity:1;stroke:none" />
    <rect
       style="fill:#008080;fill-opacity:1;stroke:none"
       id="rect3233"
       width="288"
       height="48"
       x="0"
       y="556.36218"
       ry="0" />
    <rect
       ry="0"
       y="604.36218"
       x="1.1368684e-13"
       height="48"
       width="352"
       id="rect3235"
       style="fill:#008080;fill-opacity:1;stroke:none" />
    <rect
       ry="0"
       y="652.36218"
       x="0"
       height="48"
       width="1152"
       id="rect4040"
       style="fill:#008080;fill-opacity:1;stroke:none" />
    <rect
       style="fill:#188a8c;fill-opacity:1;stroke:none"
       id="rect4053"
       width="96"
       height="64"
       x="1056"
       y="588.36218" />
    <rect
       style="fill:#008080;fill-opacity:1;stroke:none"
       id="rect4072"
       width="112"
       height="16"
       x="1248"
       y="588.36218" />
    <rect
       style="fill:#008080;fill-opacity:1;stroke:none"
       id="rect4076"
       width="96"
       height="96"
       x="1456"
       y="508.36218" />
    <rect
       y="652.36218"
       x="2464"
       height="48"
       width="736"
       id="rect4078"
       style="fill:#188a8c;fill-opacity:1;stroke:none" />
    <rect
       style="fill:#00ff00;fill-opacity:1;stroke:none"
       id="rect4080"
       width="80"
       height="80"
       x="0"
       y="-67.637817" />
    <rect
       y="12.362183"
       x="0"
       height="80"
       width="80"
       id="rect4082"
       style="fill:#008080;fill-opacity:1;stroke:none" />
    <rect
       style="fill:#800000;fill-opacity:1;stroke:none"
       id="rect4084"
       width="80"
       height="80"
       x="0"
       y="-215.90552"
       transform="translate(0,308.2677)" />
    <rect
       y="588.36218"
       x="1648"
       height="16"
       width="112"
       id="rect4086"
       style="fill:#008080;fill-opacity:1;stroke:none" />
    <rect
       y="508.36218"
       x="1856"
       height="96"
       width="96"
       id="rect4090"
       style="fill:#008080;fill-opacity:1;stroke:none" />
    <rect
       y="588.36218"
       x="2464"
       height="64"
       width="96"
       id="rect4092"
       style="fill:#188a8c;fill-opacity:1;stroke:none" />
    <rect
       style="fill:#008080;fill-opacity:1;stroke:none"
       id="rect4094"
       width="112"
       height="16"
       x="2048"
       y="588.36218" />
    <rect
       style="fill:#008080;fill-opacity:1;stroke:none"
       id="rect4098"
       width="96"
       height="96"
       x="2256"
       y="508.36218" />
    <rect
       style="fill:#00ff00;fill-opacity:1;stroke:none"
       id="rect4102"
       width="1312"
       height="48"
       x="1152"
       y="344.09448"
       transform="translate(0,308.2677)" />
    <rect
       style="fill:#188a8c;fill-opacity:1;stroke:none"
       id="rect4104"
       width="288"
       height="48"
       x="3264"
       y="652.36218" />
    <rect
       style="fill:#188a8c;fill-opacity:1;stroke:none"
       id="rect4132"
       width="32"
       height="368"
       x="3408"
       y="284.36218" />
    <rect
       style="fill:#00ff00;fill-opacity:1;stroke:none"
       id="rect4158"
       width="336"
       height="336"
       x="3072"
       y="392.09448"
       transform="translate(0,308.2677)" />
    <rect
       style="fill:#00ff00;fill-opacity:1;stroke:none"
       id="rect4164"
       width="240"
       height="3248"
       x="3120"
       y="1084.3622" />
    <rect
       style="fill:#008080;fill-opacity:1;stroke:none"
       id="rect4166"
       width="7200"
       height="480"
       x="2720"
       y="2972.3621" />
    <rect
       style="fill:#008080;fill-opacity:1;stroke:none"
       id="rect4168"
       width="880"
       height="879.99976"
       x="2800"
       y="4332.3623" />
    <rect
       style="fill:#ffffff;fill-opacity:1;stroke:none"
       id="rect4170"
       width="720"
       height="720"
       x="2880"
       y="4104.0947"
       transform="translate(0,308.2677)" />
    <rect
       ry="0"
       y="1612.3622"
       x="2880"
       height="48.000057"
       width="3840"
       id="rect4174"
       style="fill:#008080;fill-opacity:1;stroke:none" />
    <rect
       style="fill:#188a8c;fill-opacity:1;stroke:none"
       id="rect4176"
       width="48.51165"
       height="528"
       x="2880"
       y="1084.3622" />
    <rect
       y="1084.3622"
       x="3551.4883"
       height="208"
       width="48.51165"
       id="rect4178"
       style="fill:#188a8c;fill-opacity:1;stroke:none" />
    <rect
       style="fill:#188a8c;fill-opacity:1;stroke:none"
       id="rect4180"
       width="3120"
       height="48"
       x="3600"
       y="1244.3622" />
    <path
       style="fill:none;stroke:#000000;stroke-width:8.25033665;stroke-linecap:butt;stroke-linejoin:miter;stroke-miterlimit:4;stroke-opacity:1;stroke-dasharray:none"
       d="m 5707.8051,4596.4874 c 25.0232,6.6198 48.9954,19.7247 75.0696,19.8597 15.8868,0.083 27.2168,-15.7708 42.6294,-19.2509 13.7856,-3.1126 29.1489,4.0585 42.6295,0 9.5323,-2.8697 11.7826,-16.381 21.3147,-19.2507 26.9612,-8.1169 58.2977,8.1168 85.2589,0 9.5322,-2.8698 11.7825,-16.3811 21.3148,-19.2508 13.4805,-4.0585 28.4196,0 42.6294,0 14.2098,0 28.4197,0 42.6295,0 42.6294,0 85.2589,0 127.8883,0 198.9374,0 397.8749,0 596.8122,0 10.0498,0 105.6076,-0.8725 106.5736,0 11.2338,10.1461 10.0809,28.3555 21.3148,38.5015 5.0239,4.5375 14.5744,-2.0291 21.3146,0 154.3914,46.4806 -33.6049,-5.55 63.9442,38.5017 6.3549,2.8697 16.2908,-4.5375 21.3148,0 5.0239,4.5375 -5.024,14.7133 0,19.2508 44.1008,39.8306 -1.724,-60.8664 42.6294,19.2507 3.1775,5.7396 -5.0239,14.7134 0,19.2509 5.0239,4.5375 14.96,-2.8697 21.3147,0 8.9871,4.0584 14.2098,12.8338 21.3148,19.2508 7.1048,6.4169 14.2098,12.8338 21.3147,19.2507 16.6486,15.0366 51.6825,41.1409 63.9442,57.7524 8.8125,11.9389 12.5021,26.5628 21.3146,38.5016 11.1471,15.1016 31.4825,23.4 42.6295,38.5016 8.8126,11.9388 12.5022,26.5627 21.3147,38.5017 5.5735,7.5507 16.8212,11.1339 21.3147,19.2507 3.1774,5.7395 -3.1773,13.5113 0,19.2508 44.3534,80.1172 -1.4714,-20.5798 42.6294,19.2508 5.024,4.5374 -3.1773,13.5113 0,19.2507 4.4936,8.1169 15.7413,11.7002 21.3148,19.2509 8.8125,11.9388 10.0809,28.3555 21.3148,38.5015 10.0478,9.075 32.5815,-9.0748 42.6294,0 5.0239,4.5375 -5.0239,14.7134 0,19.2509 5.0239,4.5374 14.9599,-2.8697 21.3147,0 8.9871,4.0584 11.7825,16.3811 21.3148,19.2508 31.9721,9.6253 74.6015,-9.6255 106.5735,0 9.5323,2.8697 11.7826,16.381 21.3148,19.2508 13.4806,4.0583 28.4196,0 42.6294,0 49.7344,0 99.4687,0 149.2031,0 56.8393,0 113.6785,0 170.5178,0 7.1048,0 14.2098,0 21.3146,0 14.2098,0 30.8063,7.119 42.6296,0 13.2188,-7.9593 10.0808,-28.3555 21.3146,-38.5016 3.3078,-2.9875 55.6502,2.4969 63.9443,0 15.0718,-4.5375 27.5576,-14.7134 42.6294,-19.2509 20.2209,-6.0875 43.7232,6.0877 63.9441,0 9.5323,-2.8697 11.7825,-16.381 21.3148,-19.2507 13.4806,-4.0584 28.4196,0 42.6294,0 7.1049,0 14.9599,2.8697 21.3147,0 8.987,-4.0584 14.2098,-12.8338 21.3147,-19.2508 14.2099,0 29.1488,4.0584 42.6295,0 9.5322,-2.8697 11.7825,-16.381 21.3148,-19.2509 20.2209,-6.0875 43.7232,6.0877 63.9441,0 15.0718,-4.5373 27.5576,-14.7133 42.6294,-19.2507 17.1562,-5.1649 71.6384,6.1509 85.2589,0 17.9742,-8.1169 24.6553,-30.3847 42.6294,-38.5016 6.3549,-2.8697 14.5744,2.0292 21.3148,0 15.0718,-4.5374 27.5576,-14.7134 42.6294,-19.2507 13.4807,-4.0585 29.9198,5.7394 42.6295,0 8.987,-4.0585 12.3276,-15.1924 21.3146,-19.2509 6.3549,-2.8697 14.9599,2.8697 21.3148,0 8.9871,-4.0584 11.7825,-16.381 21.3148,-19.2508 13.4805,-4.0585 30.8061,7.1189 42.6294,0 13.2188,-7.9592 8.0959,-30.5423 21.3147,-38.5016 11.8233,-7.1189 29.1489,4.0585 42.6294,0 9.5323,-2.8698 11.7825,-16.3811 21.3148,-19.2508 13.4805,-4.0584 28.4196,0 42.6294,0 7.1049,0 14.9599,2.8697 21.3147,0 8.9872,-4.0584 12.3277,-15.1924 21.3148,-19.2508 6.3547,-2.8697 14.9599,2.8698 21.3146,0 8.9872,-4.0583 12.3278,-15.1923 21.3148,-19.2507 12.7096,-5.7395 32.5816,9.0748 42.6295,0 5.0239,-4.5375 -5.024,-14.7134 0,-19.2509 0.6855,-0.619 58.7748,0 63.9442,0 7.1048,0 14.2098,0 21.3146,0 7.105,0 16.2908,-4.5375 21.3148,0 11.2338,10.1462 12.5022,26.5628 21.3147,38.5016 20.9093,28.3271 64.3496,48.6762 85.2588,77.0032 8.8127,11.9388 10.081,28.3555 21.3148,38.5017 5.0239,4.5373 16.2908,-4.5375 21.3147,0 5.024,4.5373 0,12.8338 0,19.2507 7.1049,0 14.9599,-2.8697 21.3148,0 47.128,21.2823 6.6143,11.9478 21.3146,38.5016 44.3534,80.1172 -1.4714,-20.5798 42.6296,19.2507 11.2337,10.1462 10.0808,28.3556 21.3146,38.5017 5.024,4.5374 16.2908,-4.5375 21.3148,0 11.2339,10.146 10.0808,28.3555 21.3147,38.5016 11.2338,10.1461 29.9198,10.6416 42.6294,19.2508 24.1149,16.3348 38.8633,42.6508 63.9442,57.7524 13.2188,7.9592 29.4106,11.2915 42.6295,19.2508 8.3602,5.0338 14.2098,12.8338 21.3146,19.2507 7.105,6.417 16.8212,11.1339 21.3148,19.2508 3.1774,5.7396 -6.3549,16.3811 0,19.2509 120.7835,0 7.1049,-12.8339 42.6294,19.2507 10.0479,9.075 32.5816,-9.0749 42.6295,0 13.3489,12.0564 -16.4615,41.4982 -30.9418,61.0681 40.6614,86.8629 85.9075,126.5935 150.7179,185.1282 10.0478,9.0749 23.7887,15.7458 30.1435,27.2248 20.7895,37.5526 -36.5055,24.3517 30.1436,54.4494 8.9871,4.0585 23.0387,-6.4169 30.1432,0 40.192,36.2996 -63.9438,26.1238 30.144,54.4495 28.597,8.6092 60.287,0 90.431,0 80.383,0 160.765,0 241.148,0 140.67,0 281.34,0 422.01,0 20.394,0 177.168,1.6679 180.862,0 20.095,-9.0749 11.449,-43.1935 30.143,-54.4495 16.721,-10.0677 40.792,4.4019 60.287,0 21.797,-4.9215 38.973,-20.8078 60.287,-27.2247 45.755,-13.7747 17.224,22.0396 90.431,0 13.481,-4.0585 17.434,-21.4853 30.144,-27.2247 8.987,-4.0585 20.611,2.8697 30.143,0 218.343,-65.7334 -47.524,7.849 90.431,-54.4495 8.987,-4.0585 23.039,6.4169 30.144,0 7.105,-6.417 -7.105,-20.8079 0,-27.2247 117.642,-106.251 16.188,6.3018 90.43,-27.2248 12.71,-5.7395 17.434,-21.4853 30.144,-27.2247 8.987,-4.0585 21.156,4.0584 30.143,0 25.42,-11.479 34.868,-42.9706 60.288,-54.4495 8.987,-4.0584 21.156,4.0585 30.143,0 12.71,-5.7395 18.32,-20.1058 30.144,-27.2247 18.694,-11.256 41.593,-15.9688 60.287,-27.2248 86.256,-51.9359 -46.168,-5.1007 90.431,-54.4494 29.501,-10.658 60.929,-16.5668 90.43,-27.2248 20.861,-7.5363 39.427,-19.6885 60.287,-27.2247 29.502,-10.6579 62.012,-14.3909 90.431,-27.2247 32.403,-14.6329 58.027,-39.8167 90.431,-54.4495 98.04,-44.2736 71.702,-6.873 150.718,-54.4495 11.823,-7.1189 17.434,-21.4853 30.143,-27.2247 8.988,-4.0585 21.156,4.0584 30.144,0 25.419,-11.479 34.867,-42.9706 60.287,-54.4495 8.988,-4.0584 21.156,4.0584 30.144,0 25.419,-11.4789 36.64,-40.2116 60.287,-54.4495 18.694,-11.256 38.972,-20.8078 60.287,-27.2247 9.532,-2.8697 23.038,6.4169 30.143,0 7.106,-6.417 -7.105,-20.8079 0,-27.2247 1.213,-1.0956 109.505,0 120.575,0 10.047,0 25.649,-8.1169 30.143,0 8.988,16.2336 -8.987,38.2158 0,54.4494 4.494,8.1168 20.096,0 30.144,0 10.047,0 23.038,6.4169 30.143,0 13.848,-12.507 77.641,-140.2443 90.431,-163.3484 70.692,-127.6937 -14.21,32.0847 60.287,-136.1237 2.021,-4.5638 60.027,-107.4884 60.287,-108.8989 6.608,-35.8058 0,-72.5993 0,-108.899 0,-108.8989 0,-217.7978 0,-326.6968 0,-36.2996 0,-72.5993 0,-108.8989 0,-45.3746 8.26,-91.3666 0,-136.1237 -15.797,-85.6045 -90.972,-267.031 -120.574,-353.9216 -21.512,-63.1448 -49.942,-125.1708 -60.287,-190.5731 -12.789,-80.8534 0,-163.3484 0,-245.0227 0,-18.1498 0,-36.2996 0,-54.4494 0,-9.0749 7.105,-20.8079 0,-27.2248 -7.106,-6.4169 -23.038,6.4169 -30.144,0 -8.153,-7.364 9.637,-78.7732 0,-81.6742 -28.596,-8.6092 -60.697,4.4758 -90.43,0 -31.342,-4.7178 -59.089,-22.5069 -90.431,-27.2247 -29.734,-4.4758 -60.287,0 -90.431,0 -130.621,0 -261.244,0 -391.866,0 -80.383,0 -160.766,0 -241.149,0 -70.335,0 -141.287,8.3956 -211.005,0 -82.13,-9.8903 -158.931,-45.1675 -241.148,-54.4495 -79.762,-9.0048 -160.766,0 -241.149,0 -40.191,0 -80.383,0 -120.574,0 -40.191,0 -80.93,5.9677 -120.574,0 -22.162,-3.336 -38.973,-20.8078 -60.288,-27.2247 -19.064,-5.7395 -42.313,8.1168 -60.287,0 -12.709,-5.7395 -16.663,-23.1663 -30.143,-27.2247 -19.065,-5.7396 -41.223,5.7394 -60.287,0 -13.481,-4.0585 -16.663,-23.1663 -30.144,-27.2248 -19.064,-5.7395 -41.223,5.7394 -60.287,0 -13.481,-4.0584 -16.663,-23.1663 -30.144,-27.2247 -19.064,-5.7395 -42.313,8.1168 -60.287,0 -94.72,-42.7742 -20.206,-63.5443 -120.574,-81.6742 -29.558,-5.3392 -60.697,4.4757 -90.431,0 -83.747,52.9579 -76.98,-44.6063 -120.574,-54.4495 -29.244,-6.603 -61.834,8.6092 -90.431,0 -9.532,-2.8697 8.987,-23.1663 0,-27.2247 -24.115,-10.8899 -66.316,10.8899 -90.43,0 -12.71,-5.7396 -17.434,-21.4854 -30.144,-27.2248 -11.952,-5.3972 -84.2683,5.5657 -90.4308,0 -7.1048,-6.417 7.105,-20.8078 0,-27.2247 -7.1048,-6.417 -23.0386,6.4169 -30.1435,0 -6.1625,-5.5657 5.9759,-70.8798 0,-81.6742 -6.3549,-11.4789 -23.7887,-15.7458 -30.1436,-27.2248 -9.1519,-16.5315 9.152,-146.817 0,-163.3484 -6.3549,-11.4789 -23.7887,-15.7458 -30.1436,-27.2247 -7.9916,-14.4356 6.8356,-117.6027 0,-136.1237 -8.9871,-24.3506 -47.5775,-31.4916 -60.2871,-54.4495 -4.4936,-8.1168 4.4936,-19.1079 0,-27.2247 -6.3549,-11.4789 -22.2614,-16.5463 -30.1436,-27.2247 -12.4628,-16.8842 -17.6807,-37.5655 -30.1435,-54.4495 -17.3407,-23.4922 -66.886,-60.4094 -90.4307,-81.6742 -10.0479,-9.075 -23.7887,-15.7458 -30.1436,-27.2247 -4.4936,-8.1169 7.1049,-20.8079 0,-27.2248 -7.1049,-6.417 -21.1565,4.0585 -30.1436,0 -25.4192,-11.4789 -34.8678,-42.9705 -60.2871,-54.4495 -8.9872,-4.0584 -23.0386,6.4169 -30.1436,0 -7.1048,-6.4169 4.4936,-19.1079 0,-27.2247 -62.7251,-113.3028 2.081,29.1042 -60.2871,-27.2247 -7.1049,-6.417 4.4935,-19.108 0,-27.2248 -6.3549,-11.4789 -23.7887,-15.7458 -30.1436,-27.2247 -8.9871,-16.2337 8.9871,-38.2158 0,-54.4495 -6.3549,-11.4789 -25.65,-15.0495 -30.1436,-27.2247 -9.5322,-25.8277 0,-54.4495 0,-81.6742 0,-18.1499 0,-36.2997 0,-54.4495 0,-27.2247 -13.4805,-57.3237 0,-81.6742 10.0478,-18.1498 47.8244,-10.3407 60.2872,-27.2248 11.1471,-15.1015 -4.874,-36.8415 0,-54.4494 5.4492,-19.6863 23.0387,-35.1987 30.1435,-54.4495 3.1774,-8.6092 0,-18.1498 0,-27.2247 0,-18.1498 0,-36.2997 0,-54.4495 0,-29.69166 -6.5088,-200.16216 0,-217.79789 7.105,-19.2508 24.6944,-34.76322 30.1436,-54.44947 7.3109,-26.41187 0,-54.44947 0,-81.67421 0,-45.37455 0,-90.74912 0,-136.12368 0,-26.83581 0,-81.28528 0,-54.44947 0,18.14982 0,72.5993 0,54.44947 0,-27.22473 13.4806,-57.32366 0,-81.67421 -10.0478,-18.14982 -44.4,-12.87604 -60.2871,-27.22473 -14.2098,-12.83387 8.9871,-38.21578 0,-54.44948 -62.7252,-113.30282 2.081,29.10422 -60.2872,-27.22473 -7.1048,-6.41694 4.4936,-19.10789 0,-27.22474 -5.3905,-9.7371 -108.0386,-101.35108 -120.5743,-108.89894 -37.3885,-22.51208 -83.1857,-31.93738 -120.5742,-54.44947 -11.8233,-7.11895 -17.434,-21.48526 -30.1436,-27.22474 -8.9871,-4.05842 -21.1564,4.05842 -30.1436,0 -12.7096,-5.73948 -20.0957,-18.149828 -30.1435,-27.224736 0,-9.074908 8.9871,-23.166312 0,-27.224736 -60.2872,-27.224736 -45.2154,13.612368 -90.4308,0 -21.3147,-6.416936 -38.9723,-20.8078 -60.2871,-27.224736 -28.5967,-8.609213 -61.834,8.609224 -90.4307,0 -13.4806,-4.058424 -17.434,-21.485261 -30.1436,-27.2247361 -8.9871,-4.058424 -20.0957,0 -30.1435,0 -20.0958,0 -40.1914,0 -60.2872,0 -45.7175,0 -200.6769,6.0921121 -241.1485,0 -31.3419,-4.717818 -59.0889,-22.5069179 -90.4307,-27.2247359 -44.8246,-6.747368 -129.8155,0 -180.8615,0 -120.5742,0 -241.1485,0 -361.7228,0 -29.612,0 -160.9246,6.002118 -180.8614,0 -21.3148,-6.416936 -38.9724,-20.8078 -60.2872,-27.224736 -19.0644,-5.739475 -42.313,8.116848 -60.2871,0 -12.7096,-5.739475 -16.663,-23.166312 -30.1436,-27.224736 -19.0644,-5.739475 -42.313,8.116848 -60.2871,0 -8.9871,-4.058424 7.105,-20.8078 0,-27.224738 -14.2098,-12.83386 -42.313,8.11685 -60.2871,0 -125.4503,-56.65141 32.2245,1.87948 -30.1436,-54.44947 -7.105,-6.41694 -20.6113,2.86974 -30.1436,0 -21.3147,-6.41694 -41.5929,-15.96869 -60.2871,-27.22474 -11.8233,-7.11894 -18.3203,-20.10578 -30.1436,-27.22473 -18.6942,-11.25605 -42.313,-15.04947 -60.2871,-27.22474 -22.7358,-15.40063 -34.8678,-42.97051 -60.2872,-54.44947 -37.0546,-16.73331 -80.7399,-16.94555 -120.5742,-27.22474 -30.5516,-7.88378 -59.8792,-19.34095 -90.4308,-27.22473 -39.8343,-10.27919 -82.109,-13.32848 -120.5742,-27.22474 -13.1935,-4.76637 -18.3203,-20.10578 -30.1436,-27.22473 -18.6942,-11.25605 -41.5929,-15.96869 -60.2871,-27.22474 -11.8233,-7.11894 -17.434,-21.48526 -30.1436,-27.22474 -8.9871,-4.05842 -23.0386,6.41694 -30.1436,0 -7.1049,-6.41693 -10.0478,-27.22473 0,-27.22473 14.2098,0 44.3534,27.22473 30.1436,27.22473 -18.3572,0 -78.9572,-33.72443 -90.4307,-54.44947 -13.4806,-24.35054 13.4805,-57.32366 0,-81.67421 -4.4936,-8.11684 -23.0386,6.41694 -30.1436,0 -14.2098,-12.83386 8.9871,-38.21577 0,-54.44945 -6.3549,-11.47892 -22.2614,-16.54632 -30.1436,-27.22473 -12.4628,-16.88413 -23.0386,-35.19865 -30.1435,-54.44947 -6.3549,-17.21845 14.2098,-41.61563 0,-54.44948 -7.105,-6.41698 -23.0386,6.41687 -30.1436,0 -14.2098,-12.83385 8.9871,-38.21579 0,-54.44947 -6.3549,-11.47893 -23.7887,-15.74581 -30.1436,-27.22473 -8.9871,-16.23368 8.9872,-38.2158 0,-54.44948 -6.3548,-11.47892 -23.7887,-15.7458 -30.1435,-27.22473 -15.9314,-28.77742 15.9313,-25.67206 0,-54.44943 -6.3549,-11.479 -23.7887,-15.7459 -30.1436,-27.2248 -4.4936,-8.1169 4.4935,-19.1079 0,-27.2247 -6.3549,-11.4789 -23.7887,-15.7458 -30.1436,-27.2248 -4.4935,-8.1168 7.105,-20.8078 0,-27.2247 -7.1049,-6.417 -23.0386,6.4169 -30.1436,0 -7.1049,-6.417 7.105,-20.8079 0,-27.2247 -7.1049,-6.417 -23.0386,6.4168 -30.1435,0 -1.9316,-1.7446 -56.5439,-103.8278 -60.2872,-108.899 -7.8821,-10.6784 -23.7887,-15.7458 -30.1435,-27.2247 -4.4936,-8.1169 4.4935,-19.108 0,-27.2247 -12.7096,-22.958 -47.5776,-31.4917 -60.2872,-54.4495 -4.4935,-8.1169 7.105,-20.8079 0,-27.2247 -7.1049,-6.417 -21.1564,4.0584 -30.1435,0 -91.9247,-41.5118 55.1309,-21.5828 -90.4307,-54.4495 -19.4957,-4.402 -42.3131,8.1168 -60.2872,0 -8.9871,-4.0585 7.105,-20.8079 0,-27.2248 -65.8267,-59.4526 -48.9413,-5.6591 -120.5743,-27.2247 -13.4805,-4.0584 -17.4339,-21.4853 -30.1435,-27.2247 -17.9742,-8.1169 -42.313,8.1168 -60.2872,0 -12.7096,-5.7395 -16.663,-23.1663 -30.1435,-27.2248 -19.0645,-5.7395 -40.1914,0 -60.2872,0 -34.892,0 -123.8061,6.0765 -150.7178,0 -21.7968,-4.9215 -38.4904,-22.3031 -60.2872,-27.2247 -22.9232,-5.1759 -125.476,0 -150.7178,0 -100.4785,0 -200.9572,0 -301.4357,0 -60.2872,0 -120.5743,0 -180.8614,0 -10.0479,0 -20.0958,0 -30.1436,0 -10.0478,0 -21.7832,-5.0339 -30.1436,0 -23.6465,14.2379 -34.8678,42.9705 -60.2871,54.4495 -17.9741,8.1168 -41.2227,-5.7395 -60.2872,0 -13.4805,4.0584 -17.4339,21.4852 -30.1435,27.2247 -17.7853,8.0315 -69.697,-6.2421 -90.4307,0 -21.3148,6.4169 -38.9724,20.8078 -60.2872,27.2247 -9.5322,2.8697 -21.1564,-4.0584 -30.1435,0 -12.7097,5.7395 -18.3203,20.1058 -30.1436,27.2248 -18.6942,11.256 -40.1914,18.1497 -60.2872,27.2247 -20.0957,9.0749 -38.2558,23.2451 -60.2871,27.2248 -29.5582,5.3392 -60.8725,-5.3393 -90.4307,0 -44.0628,7.9592 -76.9805,44.6063 -120.5743,54.4494 -19.4956,4.4019 -41.2226,-5.7395 -60.2871,0 -13.4806,4.0585 -17.434,21.4852 -30.1436,27.2248 -8.9871,4.0584 -21.1564,-4.0585 -30.1436,0 -12.7096,5.7394 -17.4339,21.4852 -30.1435,27.2247 -8.9872,4.0584 -21.1565,-4.0584 -30.1436,0 -25.4192,11.4789 -33.3259,46.3326 -60.2871,54.4495 -19.0645,5.7394 -41.2227,-5.7396 -60.2872,0 -26.9612,8.1168 -34.8678,42.9705 -60.2871,54.4494 -17.9741,8.1168 -42.313,-8.1169 -60.2872,0 -12.7096,5.7394 -17.4339,21.4853 -30.1435,27.2248 -8.9871,4.0584 -21.1565,-4.0585 -30.1436,0 -91.9246,41.5117 55.1309,21.5828 -90.4307,54.4494 -19.4957,4.402 -40.7915,-4.402 -60.2871,0 -21.7969,4.9216 -38.4904,22.3032 -60.2872,27.2248 -19.4956,4.4019 -41.2226,-5.7395 -60.2871,0 -13.4806,4.0584 -16.663,23.1663 -30.1436,27.2247 -38.129,11.4789 -82.4453,-11.4789 -120.5743,0 -13.4805,4.0585 -17.4339,21.4852 -30.1435,27.2248 -8.9872,4.0584 -20.0958,0 -30.1436,0 -20.0958,0 -41.2227,-5.7396 -60.2871,0 -13.4806,4.0584 -16.6631,23.16625 -30.1436,27.22469 -27.1292,8.16742 -63.3015,-8.16742 -90.4307,0 -21.3148,6.41687 -38.4904,22.30316 -60.2872,27.22474 -38.9914,8.80393 -82.4453,-11.47893 -120.5742,0 -13.4806,4.05844 -17.434,21.48522 -30.1436,27.22473 -17.8331,8.05308 -154.298,-5.99782 -180.8614,0 -21.7968,4.92158 -38.4904,22.30316 -60.2872,27.22474 -19.4956,4.40191 -40.7915,-4.40202 -60.2871,0 -21.7968,4.92158 -38.4903,22.30316 -60.2871,27.22474 -48.7393,11.00489 -101.1622,-7.45958 -150.7179,0 -31.3418,4.71782 -60.2871,18.14975 -90.4307,27.22473 -30.1436,9.07488 -60.9292,16.5668 -90.4307,27.22474 -20.8607,7.53624 -38.1251,23.88872 -60.2872,27.22473 -315.1932,0 11.6095,-16.23367 -180.8614,27.22474 -38.9914,8.80393 -84.626,-16.23367 -120.5743,0 -8.9871,4.05845 8.9872,23.16629 0,27.22474 -17.9741,8.11678 -41.2226,-5.73952 -60.2871,0 -13.4806,4.05844 -17.4339,21.48521 -30.1436,27.22473 -17.9741,8.11678 -42.313,-8.11689 -60.2871,0 -12.7096,5.73941 -17.434,21.48522 -30.1436,27.22474 -8.9871,4.05844 -21.1564,-4.05845 -30.1435,0 -25.4193,11.47893 -34.8678,42.97054 -60.2872,54.44947 -8.9871,4.05845 -21.1565,-4.05845 -30.1435,0 -36.1723,16.33482 -54.2585,65.33934 -90.4308,81.67419 -8.987,4.05842 -23.0386,-6.41694 -30.1435,0 -7.1049,6.41693 7.1049,20.8078 0,27.22473 -7.1049,6.41694 -21.1565,-4.05842 -30.1436,0 -18.2761,8.25319 -107.6645,100.1542 -120.5743,108.89895 -35.94828,24.35054 -83.18576,31.93739 -120.57426,54.44947 -11.82328,7.11895 -18.32028,20.10579 -30.14356,27.22473 -70.39718,42.38703 -170.75139,66.51192 -241.14856,108.89895 -11.82329,7.11895 -17.43392,21.48526 -30.14357,27.22473 -8.98708,4.05843 -21.1565,-4.05842 -30.14357,0 -12.70965,5.73948 -17.43392,21.48526 -30.14357,27.22474 -17.97415,8.11685 -46.07733,-12.83386 -60.28714,0 -7.10491,6.41694 7.10491,20.8078 0,27.22474 -7.10491,6.41693 -20.61134,-2.86974 -30.14357,0 -21.31472,6.41693 -38.49028,22.30317 -60.28714,27.22473 -19.4957,4.40198 -41.22267,-5.73947 -60.28714,0 -13.48061,4.058426 -17.43392,21.485263 -30.14357,27.224738 -8.98708,4.058424 -21.15649,-4.058424 -30.14357,0 -12.70965,5.739475 -17.43392,21.485261 -30.14357,27.224736 -8.98707,4.058424 -23.03866,-6.416936 -30.14357,0 -7.1049,6.416936 7.10491,20.8078 0,27.224736 -7.1049,6.416936 -21.15649,-4.058424 -30.14357,0 -12.70964,5.739475 -17.43392,21.48526066 -30.14357,27.2247359 -8.98707,4.0584241 -23.03866,-6.41693557 -30.14357,0 -7.1049,6.4169361 7.10491,20.8078001 0,27.2247361 -7.1049,6.416936 -23.03866,-6.416936 -30.143567,0 -7.104908,6.416936 7.104907,20.8078 0,27.224736 -7.104908,6.416936 -23.038662,-6.416936 -30.143569,0 -7.104908,6.416936 7.104907,20.8078 0,27.224736 -7.104908,6.416936 -21.156494,-4.058424 -30.14357,0 -12.709646,5.739475 -17.4339254,21.485256 -30.1435697,27.224736 -8.9870763,4.05842 -23.0386583,-6.41694 -30.1435693,0 -7.104912,6.41694 7.104911,20.8078 0,27.22474 -7.104912,6.41693 -23.038658,-6.41694 -30.14357,0 -40.191425,36.29964 63.9441668,26.12376 -30.14357,54.44947 -19.064465,5.73947 -41.222665,-5.73948 -60.287135,0 -13.48062,4.05842 -17.43392,21.48526 -30.14357,27.22473 -8.98708,4.05843 -21.1565,-4.05842 -30.14357,0 -125.45032,56.65142 32.22455,-1.87947 -30.14357,54.44948 -14.20981,12.83386 -46.07733,-12.83386 -60.28714,0 -7.10491,6.41693 7.10491,20.8078 0,27.22473 -7.10491,6.41694 -23.03866,-6.41693 -30.14357,0 -7.10491,6.41694 7.10491,20.8078 0,27.22474 -14.20981,12.83386 -46.07733,-12.83386 -60.28714,0 -7.10491,6.41693 4.49354,19.10789 0,27.22473 -6.35482,11.47896 -23.78875,15.74578 -30.14357,27.22474 -4.49354,8.11685 4.49354,19.10789 0,27.22474 -6.35482,11.47895 -23.78875,15.74578 -30.14357,27.22473 -4.49354,8.11685 4.49354,19.10789 0,27.22474 -6.35482,11.47896 -23.78875,15.74578 -30.14357,27.22474 -5.97584,10.79438 6.16244,76.10848 0,81.6742 -40.19142,36.29966 -30.14357,-45.37456 -30.14357,27.22474 0,36.29965 0,72.5993 0,108.89894 0,9.07492 7.10491,33.64167 42.47005,45.16381 8.77402,14.73061 8.13699,26.39662 2.7453,36.5104 -7.85815,14.74042 -24.41541,25.31662 -30.14357,40.8371 -4.76612,12.91383 0,27.22474 0,40.83711 0,9.07492 5.57355,19.67395 0,27.22473 -6.23141,8.44204 -23.91215,5.17034 -30.14357,13.61237 -3.17754,4.30479 2.94495,46.47014 0,54.44947 -2.24676,6.08764 -13.34859,7.38703 -15.07178,13.61237 -3.35561,12.12271 0,77.20974 0,95.28654 0,11.5362 -3.2973,74.2292 0,81.6742 6.72738,15.19 20.82397,26.8085 30.14357,40.8371 11.55953,17.4004 21.79927,35.6088 30.14357,54.4495 0.78128,1.7641 29.84576,81.2259 30.14357,81.6742 7.31089,11.005 22.83268,16.2198 30.14357,27.2248 8.17383,12.3039 8.81357,27.6485 15.07178,40.8371 18.88192,39.7916 50.3488,87.0153 75.35893,122.5113 24.69457,54.5399 85.10488,101.6837 120.57428,149.7361 12.46283,16.884 20.09571,36.2996 30.14357,54.4494 20.09571,36.2996 37.99294,73.662 60.28714,108.899 8.98707,14.2044 23.0081,25.7998 30.143565,40.8371 8.15972,17.1957 7.378724,37.0791 15.071785,54.4494 5.277392,11.916 23.788751,15.7459 30.14357,27.2248 2.246769,4.0584 -3.552456,10.4039 0,13.6123 3.552456,3.2085 11.519329,-3.2084 15.071785,0 7.94353,7.1744 8.840373,18.7827 15.071784,27.2248 3.941091,5.3392 11.130694,8.2731 15.0717853,13.6124 6.2314162,8.442 5.7246606,21.5967 15.0717848,27.2247 8.3603219,5.0338 20.6113359,-2.8697 30.1435699,0 6.740307,2.0292 8.331477,11.5831 15.071785,13.6124 103.466466,31.1492 -70.202698,-52.121 75.358926,13.6123 6.35482,2.8697 8.17901,12.056 15.07178,13.6124 29.40183,6.6387 89.44448,-5.6231 120.57428,0 11.01569,1.9898 19.12788,11.6226 30.14357,13.6124 24.63183,4.4492 50.23929,0 75.35893,0 55.2632,0 110.52642,0 165.78963,0 13.53575,0 87.55838,1.7294 90.43071,0 11.82328,-7.119 17.43393,-21.4854 30.14357,-27.2248 17.97415,-8.1169 41.22267,5.7394 60.28714,0 6.7403,-2.0292 8.71696,-10.7426 15.07178,-13.6123 4.49354,-2.0293 10.04785,0 15.07179,0 15.07178,0 30.59357,3.3014 45.21535,0 6.89277,-1.5564 8.33148,-11.5832 15.07179,-13.6124 8.81817,-2.6548 77.49415,0 90.4307,0 5.02394,0 11.51933,3.2085 15.07179,0 3.55246,-3.2085 -3.55246,-10.4039 0,-13.6124 1.55259,-1.4023 71.60162,1.1312 75.35892,0 6.74031,-2.0292 8.33148,-11.5831 15.07175,-13.6123 9.5323,-2.8698 20.0958,0 30.1436,0 10.0479,0 20.0957,0 30.1436,0 40.1914,0 80.3828,0 120.5743,0 15.0717,0 30.1435,0 45.2153,0 15.0718,0 30.3487,2.2378 45.2154,0 15.6709,-2.359 29.5444,-11.2536 45.2153,-13.6124 19.8223,-2.9838 40.1914,0 60.2872,0 5.0239,0 10.5782,2.0292 15.0717,0 6.3549,-2.8697 8.717,-10.7427 15.0718,-13.6124 4.4936,-2.0292 10.0478,0 15.0718,0 10.0478,0 20.0958,0 30.1436,0 25.1196,0 50.2393,0 75.3589,0 80.3829,0 160.7657,0 241.1486,0 10.0478,0 20.0957,0 30.1435,0 10.0479,0 20.6114,2.8697 30.1436,0 6.7403,-2.0292 8.7169,-10.7426 15.0718,-13.6124 4.4936,-2.0292 10.0478,0 15.0718,0 5.0239,0 10.0478,0 15.0718,0 35.1675,0 70.3349,0 105.5025,0 15.0717,0 30.1435,0 45.2153,0 10.0478,0 20.2909,1.7798 30.1436,0 15.5785,-2.814 29.8027,-10.1322 45.2153,-13.6123 9.7479,-2.201 20.0958,0 30.1436,0 30.1436,0 60.2871,0 90.4307,0 30.1436,0 60.2872,0 90.4307,0 5.024,0 10.0478,0 15.0718,0 5.024,0 12.825,-4.0585 15.0718,0 4.4936,8.1168 -4.4936,19.1078 0,27.2247 4.4936,8.1168 23.0386,-6.417 30.1436,0 3.5524,3.2085 -2.2468,9.5539 0,13.6124 3.1773,5.7394 11.8944,7.8728 15.0717,13.6124 2.2468,4.0584 -2.2467,9.5539 0,13.6123 49.9869,45.1466 -7.1049,-12.8338 15.0718,27.2248 16.1045,29.0901 14.0391,-1.8656 30.1436,27.2247 2.2468,4.0584 -2.2468,9.5539 0,13.6124 16.1045,29.0901 14.0391,-1.8656 30.1436,27.2247 2.2467,4.0584 -3.5525,10.4039 0,13.6124 3.5524,3.2085 11.5193,-3.2085 15.0718,0 3.5524,3.2085 5.0239,13.6123 0,13.6123 -5.024,0 0,-18.1498 0,-13.6123 0,13.6123 0,27.2247 0,40.8371 0,22.6872 0,45.3746 0,68.0618 0,4.5375 4.4935,11.5832 0,13.6124 -8.9872,4.0584 -21.1565,-4.0585 -30.1436,0 -4.4936,2.0292 0,9.0749 0,13.6123 0,4.5375 0,9.0749 0,13.6124 0,31.7622 0,63.5244 0,95.2866 0,4.5375 0,9.0749 0,13.6124 0,4.5374 -3.5525,10.4038 0,13.6123 36.6063,33.0617 22.1318,-4.0479 45.2153,27.2248 6.2314,8.442 8.8404,18.7826 15.0718,27.2247 3.9411,5.3392 11.1307,8.2732 15.0718,13.6124 6.2314,8.442 7.1282,20.0503 15.0718,27.2247 3.5525,3.2085 10.5782,-2.0292 15.0718,0 6.3548,2.8697 10.0478,9.0749 15.0718,13.6124 5.0239,4.5375 11.1307,8.2731 15.0717,13.6123 6.2314,8.4421 7.1283,20.0504 15.0718,27.2248 3.5525,3.2085 11.5193,-3.2085 15.0718,0 7.9436,7.1743 8.8404,18.7826 15.0718,27.2247 3.9411,5.3392 11.1307,8.2732 15.0718,13.6124 6.2314,8.442 7.1282,20.0503 15.0718,27.2247 3.5525,3.2085 10.8916,-2.517 15.0718,0 11.8232,7.119 20.0957,18.1499 30.1435,27.2247 5.024,4.5375 8.7169,10.7427 15.0718,13.6124 4.4936,2.0292 11.5193,-3.2085 15.0718,0 3.5525,3.2085 -2.2468,9.5539 0,13.6124 6.3549,11.4789 23.7887,15.7458 30.1436,27.2247 2.2467,4.0585 -3.5525,10.4039 0,13.6124 3.5524,3.2085 11.5193,-3.2085 15.0717,0 0.4848,0.4378 0,37.5357 0,40.8371 0,4.5375 0,9.0749 0,13.6124 0,9.0748 5.5736,19.6739 0,27.2247 -6.2313,8.4421 -22.2,6.438 -30.1435,13.6124 -3.5525,3.2085 3.5525,10.4038 0,13.6123 -3.5525,3.2085 -12.825,-4.0584 -15.0718,0 -4.4936,8.1168 4.4936,19.1079 0,27.2248 -2.2468,4.0584 -11.5193,-3.2085 -15.0718,0 -3.5525,3.2085 2.2468,9.5539 0,13.6123 -3.1774,5.7394 -11.1307,8.2732 -15.0718,13.6124 -6.2314,8.4421 -8.8404,18.7827 -15.0718,27.2247 -3.9411,5.3392 -11.1307,8.2732 -15.0717,13.6124 -6.2314,8.4421 -11.5193,17.5994 -15.0718,27.2247 -1.5887,4.3046 3.5525,10.4039 0,13.6124 -3.5525,3.2085 -11.5193,-3.2085 -15.0718,0 -42.4382,0.845 -3.8379,30.691 -15.0718,40.8371 -3.5525,3.2085 -11.5193,-3.2085 -15.0718,0 -3.5525,3.2085 2.2468,9.5539 0,13.6124 -3.1774,5.7394 -11.8944,7.8728 -15.0718,13.6124 -2.2467,4.0584 0,9.0748 0,13.6123 0,9.0749 3.1774,18.6155 0,27.2248 -2.2467,6.0876 -10.0478,9.0748 -15.0718,13.6123 0,9.0749 3.1774,18.6155 0,27.2248 -2.2467,6.0876 -11.8944,7.8728 -15.0717,13.6123 -2.2468,4.0585 2.2467,9.5539 0,13.6124 -6.3549,11.4789 -23.7887,15.7458 -30.1436,27.2247 -2.2468,4.0585 0,9.0749 0,13.6124 0,4.5375 0,9.0749 0,13.6124 0,22.6872 0,45.3746 0,68.0618 0,9.0749 0,18.1499 0,27.2247 0,4.5375 -3.5525,10.4039 0,13.6124 7.9435,7.1744 22.2,6.438 30.1436,13.6124 3.5524,3.2085 -3.5525,10.4039 0,13.6123 3.5524,3.2085 11.5193,-3.2084 15.0717,0 3.0813,2.7829 -2.9879,35.4399 0,40.8372 3.1774,5.7394 11.8945,7.8728 15.0718,13.6123 4.4936,8.1168 -4.4935,19.1079 0,27.2248 3.1774,5.7394 11.8944,7.8728 15.0718,13.6123 2.2468,4.0585 0,9.0749 0,13.6124 0,4.5375 0,9.0749 0,13.6124 0,27.2247 0,54.4494 0,81.6742 0,14.8458 -3.2544,100.081 0,108.8989 3.5525,9.6254 12.3472,17.3816 15.0718,27.2247 6.5421,23.6345 -6.5421,58.0398 0,81.6743 2.7246,9.8431 12.8687,17.2757 15.0718,27.2247 2.9559,13.348 -3.6555,27.6311 0,40.8371 1.7232,6.2253 11.8944,7.8728 15.0718,13.6124 2.2468,4.0584 0,9.0748 0,13.6123 0,9.0749 -3.1774,18.6155 0,27.2248 2.2468,6.0876 11.8944,7.8728 15.0718,13.6123 2.2934,4.1428 0,34.7067 0,40.8371 0,36.2997 0,72.5994 0,108.899 0,9.2589 2.0002,65.3521 0,68.0618 -6.2314,8.4421 -23.9122,5.1703 -30.1436,13.6124 -5.5736,7.5507 0,18.1499 0,27.2247 -10.0478,4.5375 -22.2,6.438 -30.1436,13.6124 -3.5525,3.2085 1.5887,9.3077 0,13.6124 -36.3904,98.6 4.3453,-21.4614 -30.1436,40.8371 -4.4935,8.1167 7.105,20.8077 0,27.2247 -3.5524,3.2085 -11.5193,-3.2085 -15.0717,0 -3.5525,3.2085 0,9.0749 0,13.6124 0,4.5375 0,9.0748 0,13.6123 0,54.4495 0,108.899 0,163.3485 0,11.4274 -1.6184,92.3631 0,95.2865 5.0239,9.0749 23.9121,5.1703 30.1435,13.6124 5.5736,7.5507 0,18.1499 0,27.2247 0,4.5375 0,9.0749 0,13.6124 0,27.2247 0,54.4495 0,81.6742 0,9.0749 -2.4369,18.4208 0,27.2247 2.7246,9.8432 11.5193,17.5994 15.0718,27.2248 4.5216,12.2511 -4.5215,28.586 0,40.8371 2.2468,6.0877 12.825,7.5247 15.0718,13.6124 4.6433,12.581 -4.6862,55.3643 0,68.0618 3.5525,9.6254 11.5193,17.5994 15.0718,27.2247 1.5887,4.3046 0,9.0749 0,13.6124 0,11.5521 -2.7696,74.17 0,81.6742 2.2468,6.0877 11.8944,7.8729 15.0718,13.6124 4.7365,8.5556 -4.7365,45.8938 0,54.4494 3.1773,5.7396 11.8944,7.8729 15.0718,13.6124 4.6677,8.4317 -4.4595,50.4219 0,54.4495 3.5524,3.2085 11.5193,-3.2085 15.0717,0 7.105,6.4169 -7.1049,20.8077 0,27.2247 3.5525,3.2085 11.5193,-3.2085 15.0718,0 7.105,6.4169 -4.4935,19.1079 0,27.2248 3.1774,5.7395 11.8944,7.8728 15.0718,13.6123 2.2468,4.0585 -1.5887,9.3077 0,13.6124 3.5525,9.6254 11.5193,17.5994 15.0718,27.2247 3.1774,8.6093 -4.4936,19.1079 0,27.2248 3.1774,5.7395 11.8944,7.8728 15.0718,13.6123 4.4935,8.1168 -4.4936,19.1079 0,27.2248 3.1774,5.7395 11.8944,7.8728 15.0718,13.6123 2.2467,4.0585 -3.5525,10.4039 0,13.6124 3.5524,3.2085 12.825,-4.0584 15.0717,0 6.7404,12.1752 -6.7403,28.6618 0,40.8371 49.9869,45.1466 -7.1049,-12.8338 15.0718,27.2247 3.1774,5.7396 11.1307,8.2732 15.0718,13.6124 6.2314,8.4421 8.8404,18.7827 15.0718,27.2248 3.9411,5.3392 11.8944,7.8728 15.0718,13.6123 2.2468,4.0585 -2.2468,9.5539 0,13.6124 6.3549,11.4789 25.65,15.0494 30.1436,27.2247 3.1773,8.6092 -5.5736,19.6739 0,27.2248 6.2314,8.442 22.2,6.438 30.1435,13.6123 3.5525,3.2085 -2.2468,9.5539 0,13.6124 3.1774,5.7395 10.8089,8.4788 15.0718,13.6124 10.8685,13.088 19.2751,27.749 30.1436,40.8371 12.7888,15.4006 32.4265,25.4365 45.2153,40.8371 6.7404,8.1168 8.3315,19.1078 15.0718,27.2247 17.0518,20.5342 45.6654,32.4396 60.2872,54.4495 8.1738,12.3039 7.9668,28.0032 15.0717,40.8371 7.2457,13.088 56.3287,43.724 60.2872,54.4495 3.1774,8.6092 -4.4936,19.1078 0,27.2247 2.2468,4.0584 10.5782,-2.0292 15.0718,0 6.3548,2.8697 11.8944,7.8728 15.0718,13.6124 2.2467,4.0584 -2.2468,9.5539 0,13.6123 3.1773,5.7395 11.8944,7.8729 15.0717,13.6124 2.2468,4.0584 0,9.0749 0,13.6124 5.024,4.5375 11.8945,7.8728 15.0718,13.6123 8.0305,14.5057 -8.0305,12.7191 0,27.2248 3.1774,5.7395 10.0478,9.0748 15.0718,13.6123 5.024,4.5375 8.7169,10.7427 15.0718,13.6124 4.4936,2.0292 12.825,-4.0584 15.0718,0 0,77.1367 -10.0478,4.5375 15.0718,27.2247 10.0653,9.0907 -10.0653,18.1341 0,27.2248 0.6065,0.5477 54.7521,0 60.2871,0 12.9365,0 81.6125,-2.6548 90.4307,0 6.7404,2.0292 8.3315,11.5831 15.0718,13.6123 35.8455,10.7916 24.4416,-10.7915 60.2871,0 6.7404,2.0293 8.3315,11.5832 15.0718,13.6124 9.5323,2.8697 20.3958,-2.2009 30.1436,0 69.2743,15.6416 3.4195,13.6124 45.2153,13.6124 5.024,0 10.5783,-2.0292 15.0718,0 6.3549,2.8697 16.0318,19.9704 15.0718,13.6123 -3.823,-25.3208 -16.0765,-49.0045 -24.1148,-73.5067 1.3481,12.9879 3.3458,102.9456 24.1148,127.9562 6.7404,8.1168 23.4032,5.4955 30.1436,13.6124 9.5322,11.4789 7.9668,28.0032 15.0718,40.8371 79.4723,143.5538 -17.5198,-74.6948 45.2153,95.2866 3.5525,9.6253 10.8997,17.8043 15.0718,27.2247 11.8006,26.6449 20.0958,54.4495 30.1436,81.6742 5.0239,13.6124 11.956,26.767 15.0718,40.8371 1.9705,8.8987 -2.437,18.4208 0,27.2248 2.7246,9.8431 12.8686,17.2757 15.0717,27.2247 2.9559,13.3479 0,27.2247 0,40.8371 0,27.2247 0,54.4495 0,81.6742 0,63.5243 0,127.0488 0,190.5732 0,27.2247 0,54.4494 0,81.6742 0,9.0748 -2.4369,18.4208 0,27.2247 2.7247,9.8432 12.3472,17.3816 15.0718,27.2247 2.437,8.804 0,18.1499 0,27.2248 0,9.0748 0,18.1498 0,27.2247 0,4.5375 -1.5887,9.3077 0,13.6124 -9.0842,24.6375 24.4155,25.3166 30.1436,40.8371 0,61.9674 -7.105,0.7785 15.0718,40.8371 4.4936,8.1169 -7.105,20.8077 0,27.2247 3.5525,3.2085 11.5193,-3.2085 15.0718,0 0.014,0.013 -0.023,40.7754 0,40.8371 4.4935,12.1752 23.7887,15.7458 30.1435,27.2248 2.2468,4.0584 0,9.0748 0,13.6123 0,9.0749 -3.1773,18.6155 0,27.2248 4.4936,12.1752 25.6501,15.0495 30.1436,27.2247 3.1774,8.6092 -2.4369,18.4208 0,27.2247 2.7246,9.8432 11.5193,17.5994 15.0718,27.2248 1.5887,4.3045 -1.5887,9.3077 0,13.6123 3.5525,9.6254 11.5193,17.5994 15.0718,27.2248 4.814,13.0435 -4.6542,55.4511 0,68.0618 2.2468,6.0877 12.825,7.5247 15.0718,13.6124 0.023,0.062 -0.014,40.8241 0,40.8371 3.5524,3.2085 10.0478,0 15.0718,0 35.1675,0 70.3349,0 105.5024,0 45.2154,0 90.4308,0 135.6461,0 8.5789,0 58.7442,0.929 60.2871,0 9.3472,-5.628 7.1283,-20.0504 15.0718,-27.2248 7.9436,-7.1743 20.0958,-9.0748 30.1436,-13.6123 10.0478,-4.5375 19.4863,-10.4039 30.1436,-13.6124 9.5322,-2.8697 21.1564,4.0585 30.1435,0 6.3549,-2.8697 8.717,-10.7427 15.0718,-13.6124 4.4936,-2.0292 10.5783,2.0293 15.0718,0 6.3549,-2.8697 8.7169,-10.7426 15.0718,-13.6123 4.4936,-2.0292 10.0478,0 15.0718,0 10.0478,0 20.8144,3.3703 30.1436,0 16.8184,-6.076 28.3969,-21.1489 45.2153,-27.2248 9.3292,-3.3703 20.8144,3.3704 30.1436,0 16.8184,-6.076 28.3969,-21.1488 45.2153,-27.2247 9.3292,-3.3703 20.8144,3.3703 30.1436,0 16.8184,-6.076 28.3969,-21.1488 45.2154,-27.2247 9.3291,-3.3703 20.6113,2.8697 30.1435,0 13.4806,-4.0585 18.3203,-20.1058 30.1436,-27.2248 9.3472,-5.628 22.2,-6.438 30.1436,-13.6123 3.5524,-3.2085 -2.2468,-9.554 0,-13.6124 3.1773,-5.7395 10.0478,-9.0749 15.0717,-13.6124 0,-9.0748 -2.4369,-18.4208 0,-27.2247 5.4493,-19.6862 24.6944,-34.7633 30.1436,-54.4495 2.4369,-8.8039 -1.9705,-18.326 0,-27.2247 3.1158,-14.0701 11.956,-26.7671 15.0718,-40.8371 2.9559,-13.3481 -4.7661,-27.9233 0,-40.8371 3.5525,-9.6254 12.3472,-17.3816 15.0718,-27.2248 6.5421,-23.6344 -6.5421,-58.0397 0,-81.6742 2.7246,-9.8431 12.3472,-17.3815 15.0718,-27.2247 2.4369,-8.8039 0,-18.1499 0,-27.2247 0,-36.2997 0,-72.5994 0,-108.899 0,-13.6124 -2.4778,-27.41 0,-40.8371 2.6119,-14.1535 12.46,-26.6836 15.0718,-40.8371 2.4778,-13.4271 -2.9558,-27.4891 0,-40.8371 2.2031,-9.949 12.3471,-17.3816 15.0717,-27.2247 2.437,-8.804 0,-18.1499 0,-27.2248 0,-11.3989 -2.8654,-57.7101 0,-68.0618 2.7247,-9.8432 12.3472,-17.3816 15.0718,-27.2247 2.437,-8.804 -2.4369,-18.4208 0,-27.2248 2.7246,-9.8431 12.3472,-17.3816 15.0718,-27.2247 2.4369,-8.804 -2.4369,-18.4208 0,-27.2248 22.9683,-82.9769 5.1782,35.9514 45.2154,-54.4494 5.5975,-12.6388 -2.4778,-27.41 0,-40.8371 2.6118,-14.1535 10.0478,-27.2248 15.0718,-40.8371 5.0239,-13.6124 9.1714,-27.5148 15.0717,-40.8371 4.1721,-9.4204 10.0479,-18.1499 15.0718,-27.2248 5.024,-9.0748 8.8404,-18.7826 15.0718,-27.2247 3.9411,-5.3392 12.825,-7.5247 15.0718,-13.6124 3.1774,-8.6092 -3.1774,-18.6155 0,-27.2247 2.2468,-6.0877 11.8944,-7.8729 15.0718,-13.6124 2.2468,-4.0584 0,-9.0749 0,-13.6123 0,-9.0749 -3.1774,-18.6156 0,-27.2248 2.2468,-6.0877 11.8944,-7.8728 15.0718,-13.6124 8.0304,-14.5056 -8.0305,-12.719 0,-27.2247 3.1773,-5.7395 11.8944,-7.8728 15.0717,-13.6124 2.2468,-4.0584 -2.2467,-9.5539 0,-13.6123 4.0248,-7.2702 37.2806,-33.6707 45.2154,-40.8371 5.024,-4.5375 10.0478,-9.0749 15.0718,-13.6124 5.024,-4.5375 8.3314,-11.5831 15.0718,-13.6124 9.5322,-2.8697 21.7833,5.0339 30.1435,0 9.3472,-5.628 5.7247,-21.5967 15.0718,-27.2247 8.3604,-5.0339 20.0958,0 30.1436,0 30.1436,0 60.2871,0 90.4307,0 5.024,0 11.5193,-3.2085 15.0718,0 6.191,5.5915 14.7545,37.3624 30.1436,40.8371 114.2842,25.8045 -4.6327,-31.4088 60.2871,27.2247 3.5525,3.2085 10.3057,-1.4348 15.0718,0 109.1712,32.8667 -23.7623,-3.9245 45.2153,27.2248 8.9872,4.0584 23.0388,-6.417 30.1436,0 3.5525,3.2085 -3.5525,10.4039 0,13.6123 3.5525,3.2085 10.0478,0 15.0718,0 15.0718,0 30.1436,0 45.2153,0 5.024,0 10.8916,2.5169 15.0718,0 39.114,-23.551 22.977,-24.3219 45.2154,-54.4494 7.8822,-10.6784 25.65,-15.0495 30.1436,-27.2248 3.1773,-8.6092 -2.437,-18.4208 0,-27.2247 2.7246,-9.8432 12.3471,-17.3816 15.0717,-27.2247 2.437,-8.804 -2.4369,-18.4208 0,-27.2248 2.7247,-9.8431 12.8687,-17.2757 15.0718,-27.2247 2.9559,-13.3481 -2.9557,-27.4892 0,-40.8371 2.2032,-9.949 12.3472,-17.3816 15.0718,-27.2247 6.0924,-22.0099 -4.1297,-45.6833 0,-68.0619 2.6119,-14.1535 11.9562,-26.767 15.0718,-40.8371 1.9705,-8.8987 0,-18.1499 0,-27.2247 0,-31.7623 0,-63.5244 0,-95.2866 0,-77.1367 0,-154.2735 0,-231.4103 0,-63.5243 0,-127.0488 0,-190.5731 0,-8.1045 2.8271,-76.5676 0,-81.6742 -6.3549,-11.4789 -22.2614,-16.5463 -30.1436,-27.2248 -2.7867,-3.7754 0,-9.0748 0,-13.6123 0,-9.0749 0,-18.1499 0,-27.2248 0,-11.5521 2.7696,-74.1699 0,-81.6742 -2.2468,-6.0876 -12.825,-7.5247 -15.0718,-13.6123 -3.1773,-8.6093 3.1774,-18.6155 0,-27.2248 -2.2467,-6.0876 -12.825,-7.5247 -15.0717,-13.6123 0,-61.9675 7.1049,-0.7786 -15.0718,-40.8371 -1.9484,-3.5196 0,-72.0258 0,-81.6743 0,-4.5374 -3.5525,-10.4038 0,-13.6123 7.9435,-7.1744 20.7964,-7.9844 30.1435,-13.6124 11.8233,-7.1189 17.434,-21.4852 30.1436,-27.2247 4.4936,-2.0292 11.5193,3.2085 15.0718,0 3.5525,-3.2085 -3.5525,-10.4039 0,-13.6124 3.5525,-3.2085 11.5193,3.2085 15.0718,0 3.5525,-3.2085 -3.5525,-10.4039 0,-13.6124 3.5525,-3.2085 18.6242,3.2085 15.0718,0 -11.825,-10.6799 -28.134,-16.3348 -42.201,-24.5022"
       id="path4184"
       inkscape:connector-curvature="0"
       sodipodi:nodetypes="ccssssssssssccsssssssssssscsssssssssscssssscsssssccscssssssccssssssssscscsssssscscssscssssssscsscssssssssssssssssssssssssssssssscccccsscsssscsccsssssssssccssssssssssssssssssscsssssscsssssssssssscsscssssssssssssssssssssssssssssscssssssssssssssssssssssssssssssssssssssssssssssssssssssssssssssssssssssssssssssssssssssssssssssssssssssssssssssssssssscssssssssssssssssssssssssssssssssssssssssssssssssssssssssssssssscsssssssssssssscsssssssssssssssssssssssssssssssssssssssssssssssssssssssssssssscssssssssssssssssssssssssssssssssssssssssssssssssssscsssssscssssssssssscscsssssssssssssssscscsssssssscssssssssssssccssssssscsscsssscssssssssssssssssssssscsssscssssssssssscsssssssssssssssssccssscsssssscssscssscsssssssssssssssssscssssssssssssssssssssssssssssssssssssssssssssssssssscssssssssssssssscsssssccsssssssssc" />
    <rect
       style="fill:#188a8c;fill-opacity:1;stroke:none"
       id="rect4186"
       width="48.51165"
       height="384"
       x="3551.4883"
       y="652.36218" />
    <g
       id="g4200"
       transform="translate(-112,64)">
      <rect
         style="fill:#00ff00;fill-opacity:1;stroke:none"
         id="rect4188"
         width="336"
         height="336"
         x="6880"
         y="1212.3622" />
      <rect
         style="fill:#188a8c;fill-opacity:1;stroke:none"
         id="rect4190"
         width="48.51165"
         height="288"
         x="6831.4883"
         y="1164.3622" />
      <rect
         y="1164.3622"
         x="7216"
         height="288"
         width="48.51165"
         id="rect4192"
         style="fill:#188a8c;fill-opacity:1;stroke:none" />
      <rect
         style="fill:#188a8c;fill-opacity:1;stroke:none"
         id="rect4194"
         width="432"
         height="48"
         x="6832"
         y="1548.3622" />
      <rect
         y="1164.3622"
         x="6880"
         height="48"
         width="112"
         id="rect4196"
         style="fill:#188a8c;fill-opacity:1;stroke:none" />
      <rect
         style="fill:#188a8c;fill-opacity:1;stroke:none"
         id="rect4198"
         width="112"
         height="48"
         x="7104"
         y="1164.3622" />
    </g>
    <rect
       style="fill:#008080;fill-opacity:1;stroke:none"
       id="rect4208"
       width="48"
       height="96"
       x="7104"
       y="1208.0945"
       transform="translate(0,308.2677)" />
    <rect
       style="fill:#00ff00;fill-opacity:1;stroke:none"
       id="rect4210"
       width="112"
       height="2480"
       x="6880"
       y="1612.3622" />
    <g
       transform="translate(-3824,-512)"
       id="g4212">
      <rect
         y="1212.3622"
         x="6880"
         height="336"
         width="336"
         id="rect4214"
         style="fill:#00ff00;fill-opacity:1;stroke:none" />
      <rect
         y="1164.3622"
         x="6831.4883"
         height="288"
         width="48.51165"
         id="rect4216"
         style="fill:#188a8c;fill-opacity:1;stroke:none" />
      <rect
         style="fill:#188a8c;fill-opacity:1;stroke:none"
         id="rect4218"
         width="48.51165"
         height="288"
         x="7216"
         y="1164.3622" />
      <rect
         y="1548.3622"
         x="6832"
         height="48"
         width="432"
         id="rect4220"
         style="fill:#188a8c;fill-opacity:1;stroke:none" />
      <rect
         style="fill:#188a8c;fill-opacity:1;stroke:none"
         id="rect4222"
         width="112"
         height="48"
         x="6880"
         y="1164.3622" />
      <rect
         y="1164.3622"
         x="7104"
         height="48"
         width="112"
         id="rect4224"
         style="fill:#188a8c;fill-opacity:1;stroke:none" />
    </g>
    <g
       id="g4226"
       transform="translate(-3808,3584)">
      <rect
         style="fill:#00ff00;fill-opacity:1;stroke:none"
         id="rect4228"
         width="336"
         height="336"
         x="6880"
         y="1212.3622" />
      <rect
         style="fill:#188a8c;fill-opacity:1;stroke:none"
         id="rect4230"
         width="48.51165"
         height="288"
         x="6831.4883"
         y="1164.3622" />
      <rect
         y="1164.3622"
         x="7216"
         height="288"
         width="48.51165"
         id="rect4232"
         style="fill:#188a8c;fill-opacity:1;stroke:none" />
      <rect
         style="fill:#188a8c;fill-opacity:1;stroke:none"
         id="rect4234"
         width="432"
         height="48"
         x="6832"
         y="1548.3622" />
      <rect
         y="1164.3622"
         x="6880"
         height="48"
         width="112"
         id="rect4236"
         style="fill:#188a8c;fill-opacity:1;stroke:none" />
      <rect
         style="fill:#188a8c;fill-opacity:1;stroke:none"
         id="rect4238"
         width="112"
         height="48"
         x="7104"
         y="1164.3622" />
    </g>
    <g
       transform="translate(-112,2880)"
       id="g4240">
      <rect
         y="1212.3622"
         x="6880"
         height="336"
         width="336"
         id="rect4242"
         style="fill:#00ff00;fill-opacity:1;stroke:none" />
      <rect
         y="1164.3622"
         x="6831.4883"
         height="288"
         width="48.51165"
         id="rect4244"
         style="fill:#188a8c;fill-opacity:1;stroke:none" />
      <rect
         style="fill:#188a8c;fill-opacity:1;stroke:none"
         id="rect4246"
         width="48.51165"
         height="288"
         x="7216"
         y="1164.3622" />
      <rect
         y="1548.3622"
         x="6832"
         height="48"
         width="432"
         id="rect4248"
         style="fill:#188a8c;fill-opacity:1;stroke:none" />
      <rect
         style="fill:#188a8c;fill-opacity:1;stroke:none"
         id="rect4250"
         width="112"
         height="48"
         x="6880"
         y="1164.3622" />
      <rect
         y="1164.3622"
         x="7104"
         height="48"
         width="112"
         id="rect4252"
         style="fill:#188a8c;fill-opacity:1;stroke:none" />
    </g>
    <rect
       style="fill:#008080;fill-opacity:1;stroke:none"
       id="rect4254"
       width="3840"
       height="48.000057"
       x="2880"
       y="1612.3622"
       ry="0" />
    <rect
       ry="0"
       y="4428.3623"
       x="6080"
       height="48.000057"
       width="640"
       id="rect4256"
       style="fill:#008080;fill-opacity:1;stroke:none" />
    <rect
       style="fill:#008080;fill-opacity:1;stroke:none"
       id="rect4258"
       width="96"
       height="48"
       x="6016"
       y="4476.3623" />
    <rect
       y="4524.3623"
       x="5952"
       height="48"
       width="96"
       id="rect4260"
       style="fill:#008080;fill-opacity:1;stroke:none" />
    <rect
       style="fill:#008080;fill-opacity:1;stroke:none"
       id="rect4262"
       width="96"
       height="48"
       x="5888"
       y="4572.3623" />
    <rect
       y="4620.3623"
       x="5824"
       height="48"
       width="96"
       id="rect4264"
       style="fill:#008080;fill-opacity:1;stroke:none" />
    <rect
       y="4668.3623"
       x="5760"
       height="48"
       width="96"
       id="rect4266"
       style="fill:#008080;fill-opacity:1;stroke:none" />
    <rect
       style="fill:#008080;fill-opacity:1;stroke:none"
       id="rect4268"
       width="96"
       height="48"
       x="5696"
       y="4716.3623" />
    <rect
       style="fill:#008080;fill-opacity:1;stroke:none"
       id="rect4274"
       width="640"
       height="48.000057"
       x="5088"
       y="4764.3623"
       ry="0" />
    <rect
       y="4812.3623"
       x="5024"
       height="48"
       width="96"
       id="rect4276"
       style="fill:#008080;fill-opacity:1;stroke:none" />
    <rect
       style="fill:#008080;fill-opacity:1;stroke:none"
       id="rect4278"
       width="96"
       height="48"
       x="4960"
       y="4860.3623" />
    <rect
       y="4908.3623"
       x="4896"
       height="48"
       width="96"
       id="rect4280"
       style="fill:#008080;fill-opacity:1;stroke:none" />
    <rect
       style="fill:#008080;fill-opacity:1;stroke:none"
       id="rect4282"
       width="96"
       height="48"
       x="4832"
       y="4956.3623" />
    <rect
       style="fill:#008080;fill-opacity:1;stroke:none"
       id="rect4284"
       width="96"
       height="48"
       x="4768"
       y="5004.3623" />
    <rect
       y="5052.3623"
       x="4704"
       height="48"
       width="96"
       id="rect4286"
       style="fill:#008080;fill-opacity:1;stroke:none" />
    <rect
       ry="0"
       y="5132.3623"
       x="3680"
       height="80.000221"
       width="992"
       id="rect4288"
       style="fill:#008080;fill-opacity:1;stroke:none" />
    <rect
       style="fill:#008080;fill-opacity:1;stroke:none"
       id="rect4290"
       width="96"
       height="31.999878"
       x="4640"
       y="5100.3623" />
    <rect
       style="fill:#008080;fill-opacity:1;stroke:none"
       id="rect4292"
       width="48"
       height="95.999878"
       x="7104"
       y="4332.3623" />
    <rect
       style="fill:#008080;fill-opacity:1;stroke:none"
       id="rect4294"
       width="32"
       height="1312"
       x="3360"
       y="1352.0945"
       transform="translate(0,308.2677)" />
    <rect
       y="1660.3622"
       x="3088"
       height="1312"
       width="32"
       id="rect4296"
       style="fill:#008080;fill-opacity:1;stroke:none" />
    <rect
       y="1660.3622"
       x="6848"
       height="1312"
       width="32"
       id="rect4298"
       style="fill:#008080;fill-opacity:1;stroke:none" />
    <rect
       style="fill:#008080;fill-opacity:1;stroke:none"
       id="rect4300"
       width="32"
       height="1312"
       x="6992"
       y="1660.3621" />
    <rect
       y="1660.3622"
       x="2880"
       height="528"
       width="48.51165"
       id="rect4313"
       style="fill:#188a8c;fill-opacity:1;stroke:none" />
    <rect
       style="fill:#188a8c;fill-opacity:1;stroke:none"
       id="rect4315"
       width="48.51165"
       height="528"
       x="3551.4883"
       y="1660.3622" />
    <rect
       y="2140.3621"
       x="2927.4883"
       height="48.000103"
       width="624.51086"
       id="rect4329"
       style="fill:#188a8c;fill-opacity:1;stroke:none" />
  </g>
  <g
     inkscape:groupmode="layer"
     id="layer4"
     inkscape:label="Actor">
    <path
       transform="translate(800,-328)"
       d="m 528,352.09448 a 24,24 0 1 1 -48,0 24,24 0 1 1 48,0 z"
       sodipodi:ry="24"
       sodipodi:rx="24"
       sodipodi:cy="352.09448"
       sodipodi:cx="504"
       id="path4124"
       style="fill:#800000;fill-opacity:1;stroke:none"
       sodipodi:type="arc" />
    <path
       sodipodi:type="arc"
       style="fill:#800000;fill-opacity:1;stroke:none"
       id="path4126"
       sodipodi:cx="504"
       sodipodi:cy="352.09448"
       sodipodi:rx="24"
       sodipodi:ry="24"
       d="m 528,352.09448 a 24,24 0 1 1 -48,0 24,24 0 1 1 48,0 z"
       transform="translate(1200,-328)" />
    <path
       transform="translate(1608,-328)"
       d="m 528,352.09448 a 24,24 0 1 1 -48,0 24,24 0 1 1 48,0 z"
       sodipodi:ry="24"
       sodipodi:rx="24"
       sodipodi:cy="352.09448"
       sodipodi:cx="504"
       id="path4128"
       style="fill:#800000;fill-opacity:1;stroke:none"
       sodipodi:type="arc" />
    <path
       sodipodi:type="arc"
       style="fill:#800000;fill-opacity:1;stroke:none"
       id="path4130"
       sodipodi:cx="504"
       sodipodi:cy="352.09448"
       sodipodi:rx="24"
       sodipodi:ry="24"
       d="m 528,352.09448 a 24,24 0 1 1 -48,0 24,24 0 1 1 48,0 z"
       transform="translate(2008,-328)" />
    <path
       sodipodi:type="arc"
       style="fill:#600000;fill-opacity:1;stroke:none"
       id="path4042"
       sodipodi:cx="240"
       sodipodi:cy="584.09448"
       sodipodi:rx="160"
       sodipodi:ry="160"
       d="m 400,584.09448 a 160,160 0 1 1 -320,0 160,160 0 1 1 320,0 z"
       transform="translate(-80,-16)" />
    <path
       transform="translate(2640,-16)"
       d="m 400,584.09448 a 160,160 0 1 1 -320,0 160,160 0 1 1 320,0 z"
       sodipodi:ry="160"
       sodipodi:rx="160"
       sodipodi:cy="584.09448"
       sodipodi:cx="240"
       id="path4044"
       style="fill:#600000;fill-opacity:1;stroke:none"
       sodipodi:type="arc" />
    <rect
       style="fill:#600000;fill-opacity:1;stroke:none"
       id="rect4049"
       width="2560"
       height="80"
       x="240"
       y="520.09448" />
    <use
       x="0"
       y="0"
       xlink:href="#path4044"
       id="use4311"
       transform="translate(352,880)"
       width="1052.3622"
       height="744.09448" />
    <path
       transform="translate(3736,792)"
       d="m 528,352.09448 a 24,24 0 1 1 -48,0 24,24 0 1 1 48,0 z"
       sodipodi:ry="24"
       sodipodi:rx="24"
       sodipodi:cy="352.09448"
       sodipodi:cx="504"
       id="path4319"
       style="fill:#800000;fill-opacity:1;stroke:none"
       sodipodi:type="arc" />
    <path
       sodipodi:type="arc"
       style="fill:#800000;fill-opacity:1;stroke:none"
       id="path4321"
       sodipodi:cx="504"
       sodipodi:cy="352.09448"
       sodipodi:rx="24"
       sodipodi:ry="24"
       d="m 528,352.09448 a 24,24 0 1 1 -48,0 24,24 0 1 1 48,0 z"
       transform="translate(4480,792)" />
    <path
       transform="translate(5552,792)"
       d="m 528,352.09448 a 24,24 0 1 1 -48,0 24,24 0 1 1 48,0 z"
       sodipodi:ry="24"
       sodipodi:rx="24"
       sodipodi:cy="352.09448"
       sodipodi:cx="504"
       id="path4323"
       style="fill:#800000;fill-opacity:1;stroke:none"
       sodipodi:type="arc" />
    <path
       sodipodi:type="arc"
       style="fill:#800000;fill-opacity:1;stroke:none"
       id="path4325"
       sodipodi:cx="504"
       sodipodi:cy="352.09448"
       sodipodi:rx="24"
       sodipodi:ry="24"
       d="m 528,352.09448 a 24,24 0 1 1 -48,0 24,24 0 1 1 48,0 z"
       transform="translate(5040,792)" />
    <path
       transform="translate(6112,792)"
       d="m 528,352.09448 a 24,24 0 1 1 -48,0 24,24 0 1 1 48,0 z"
       sodipodi:ry="24"
       sodipodi:rx="24"
       sodipodi:cy="352.09448"
       sodipodi:cx="504"
       id="path4327"
       style="fill:#800000;fill-opacity:1;stroke:none"
       sodipodi:type="arc" />
  </g>
  <g
     inkscape:groupmode="layer"
     id="layer3"
     inkscape:label="Area">
    <path
       sodipodi:type="arc"
       style="fill:#800000;fill-opacity:1;stroke:none"
       id="path4060"
       sodipodi:cx="504"
       sodipodi:cy="352.09448"
       sodipodi:rx="24"
       sodipodi:ry="24"
       d="m 528,352.09448 a 24,24 0 1 1 -48,0 24,24 0 1 1 48,0 z"
       transform="translate(0,-8)" />
    <path
       transform="translate(208,-8)"
       d="m 528,352.09448 a 24,24 0 1 1 -48,0 24,24 0 1 1 48,0 z"
       sodipodi:ry="24"
       sodipodi:rx="24"
       sodipodi:cy="352.09448"
       sodipodi:cx="504"
       id="path4063"
       style="fill:#800000;fill-opacity:1;stroke:none"
       sodipodi:type="arc" />
    <path
       sodipodi:type="arc"
       style="fill:#800000;fill-opacity:1;stroke:none"
       id="path4065"
       sodipodi:cx="504"
       sodipodi:cy="352.09448"
       sodipodi:rx="24"
       sodipodi:ry="24"
       d="m 528,352.09448 a 24,24 0 1 1 -48,0 24,24 0 1 1 48,0 z"
       transform="translate(400,-8)" />
  </g>
  <g
     inkscape:groupmode="layer"
     id="layer2"
     inkscape:label="Camera"
     style="display:inline">
    <rect
       style="opacity:0.325;fill:#4b9fa4;fill-opacity:1;stroke:none"
       id="rect3251"
       width="640"
       height="480"
       x="0"
       y="-7.9055176" />
    <use
       x="0"
       y="0"
       xlink:href="#rect3251"
       id="use4172"
       transform="translate(2912,352)"
       width="1052.3622"
       height="744.09448" />
    <use
       height="744.09448"
       width="1052.3622"
       transform="translate(6608,3744)"
       id="use4302"
       xlink:href="#rect3251"
       y="0"
       x="0" />
    <rect
       style="fill:#008080;fill-opacity:1;stroke:none"
       id="rect4304"
       width="160"
       height="1440"
       x="3200"
       y="5224.0947" />
    <path
       style="fill:#008080;fill-opacity:1;stroke:none"
       d="m 3000.0004,6504.0949 559.9992,0 L 3280,6824.0945 z"
       id="rect4306"
       inkscape:connector-curvature="0"
       sodipodi:nodetypes="cccc" />
    <use
       x="0"
       y="0"
       xlink:href="#use4172"
       id="use4317"
       transform="translate(0,640)"
       width="1052.3622"
       height="744.09448" />
  </g>
</svg>
