<?xml version="1.0" encoding="UTF-8" standalone="no"?>
<!-- Created with Inkscape (http://www.inkscape.org/) -->

<svg
   xmlns:osb="http://www.openswatchbook.org/uri/2009/osb"
   xmlns:dc="http://purl.org/dc/elements/1.1/"
   xmlns:cc="http://creativecommons.org/ns#"
   xmlns:rdf="http://www.w3.org/1999/02/22-rdf-syntax-ns#"
   xmlns:svg="http://www.w3.org/2000/svg"
   xmlns="http://www.w3.org/2000/svg"
   xmlns:xlink="http://www.w3.org/1999/xlink"
   xmlns:sodipodi="http://sodipodi.sourceforge.net/DTD/sodipodi-0.dtd"
   xmlns:inkscape="http://www.inkscape.org/namespaces/inkscape"
   width="800"
   height="480"
   id="svg2"
   version="1.1"
   inkscape:version="0.48.4 r9939"
   sodipodi:docname="Scene1.svg">
  <defs
     id="defs4">
    <linearGradient
       id="linearGradient5675"
       osb:paint="solid">
      <stop
         style="stop-color:#006679;stop-opacity:0.5529412;"
         offset="0"
         id="stop5677" />
    </linearGradient>
    <linearGradient
       id="linearGradient5669"
       osb:paint="solid">
      <stop
         style="stop-color:#000000;stop-opacity:1;"
         offset="0"
         id="stop5671" />
    </linearGradient>
    <linearGradient
       id="linearGradient5439"
       osb:paint="solid">
      <stop
         style="stop-color:#00ffff;stop-opacity:1;"
         offset="0"
         id="stop5441" />
    </linearGradient>
    <linearGradient
       id="linearGradient3999">
      <stop
         style="stop-color:#00ffff;stop-opacity:1;"
         offset="0"
         id="stop4001" />
      <stop
         style="stop-color:#00ffff;stop-opacity:0;"
         offset="1"
         id="stop4003" />
    </linearGradient>
    <linearGradient
       id="linearGradient3993">
      <stop
         id="stop3995"
         offset="0"
         style="stop-color:#00ffff;stop-opacity:1;" />
      <stop
         id="stop3997"
         offset="1"
         style="stop-color:#00ffff;stop-opacity:0;" />
    </linearGradient>
    <linearGradient
       id="linearGradient3987">
      <stop
         style="stop-color:#00ffff;stop-opacity:1;"
         offset="0"
         id="stop3989" />
      <stop
         style="stop-color:#00ffff;stop-opacity:0;"
         offset="1"
         id="stop3991" />
    </linearGradient>
    <linearGradient
       id="linearGradient3981">
      <stop
         id="stop3983"
         offset="0"
         style="stop-color:#00ffff;stop-opacity:1;" />
      <stop
         id="stop3985"
         offset="1"
         style="stop-color:#00ffff;stop-opacity:0;" />
    </linearGradient>
    <linearGradient
       id="linearGradient3935">
      <stop
         style="stop-color:#00ffff;stop-opacity:1;"
         offset="0"
         id="stop3937" />
      <stop
         style="stop-color:#00ffff;stop-opacity:0;"
         offset="1"
         id="stop3939" />
    </linearGradient>
    <inkscape:perspective
       sodipodi:type="inkscape:persp3d"
       inkscape:vp_x="0 : 240 : 1"
       inkscape:vp_y="0 : 1000 : 0"
       inkscape:vp_z="800 : 240 : 1"
       inkscape:persp3d-origin="400 : 160 : 1"
       id="perspective3909" />
    <filter
       inkscape:collect="always"
       id="filter5493"
       x="-0.67856776"
       width="2.3571355"
       y="-1.3008434"
       height="3.6016867">
      <feGaussianBlur
         inkscape:collect="always"
         stdDeviation="52.60596"
         id="feGaussianBlur5495" />
    </filter>
    <radialGradient
       inkscape:collect="always"
       xlink:href="#linearGradient5439-4"
       id="radialGradient5459-0"
       cx="85.591354"
       cy="179.52261"
       fx="85.591354"
       fy="179.52261"
       r="35.381969"
       gradientTransform="matrix(1,0,0,0.4586414,0,97.186111)"
       gradientUnits="userSpaceOnUse" />
    <linearGradient
       id="linearGradient5439-4"
       osb:paint="solid">
      <stop
         style="stop-color:#00ffff;stop-opacity:1;"
         offset="0"
         id="stop5441-9" />
    </linearGradient>
    <filter
       color-interpolation-filters="sRGB"
       inkscape:collect="always"
       id="filter5473-4"
       x="-0.25624782"
       width="1.5124956"
       y="-0.55871058"
       height="2.1174212">
      <feGaussianBlur
         inkscape:collect="always"
         stdDeviation="7.5554602"
         id="feGaussianBlur5475-6" />
    </filter>
    <radialGradient
       r="35.381969"
       fy="179.52261"
       fx="85.591354"
       cy="179.52261"
       cx="85.591354"
       gradientTransform="matrix(1,0,0,0.4586414,-0.03143125,669.50529)"
       gradientUnits="userSpaceOnUse"
       id="radialGradient5590"
       xlink:href="#linearGradient5439-4"
       inkscape:collect="always" />
    <linearGradient
       inkscape:collect="always"
       xlink:href="#linearGradient5669"
       id="linearGradient5673"
       x1="52.731171"
       y1="791.38397"
       x2="113.90793"
       y2="791.38397"
       gradientUnits="userSpaceOnUse" />
    <linearGradient
       inkscape:collect="always"
       xlink:href="#linearGradient5675"
       id="linearGradient5679"
       x1="52.731171"
       y1="791.38397"
       x2="113.90793"
       y2="791.38397"
       gradientUnits="userSpaceOnUse" />
    <filter
       inkscape:collect="always"
       id="filter5842"
       x="-0.10273983"
       width="1.2054797"
       y="-0.22234843"
       height="1.4446969">
      <feGaussianBlur
         inkscape:collect="always"
         stdDeviation="0.84753603"
         id="feGaussianBlur5844" />
    </filter>
  </defs>
  <sodipodi:namedview
     id="base"
     pagecolor="#ffffff"
     bordercolor="#666666"
     borderopacity="1.0"
     inkscape:pageopacity="0.0"
     inkscape:pageshadow="2"
     inkscape:zoom="0.94045202"
     inkscape:cx="298.04094"
     inkscape:cy="211.16383"
     inkscape:document-units="px"
     inkscape:current-layer="layer1"
     showgrid="true"
     objecttolerance="1"
     gridtolerance="1"
     guidetolerance="1"
     inkscape:window-width="1366"
     inkscape:window-height="706"
     inkscape:window-x="-8"
     inkscape:window-y="-8"
     inkscape:window-maximized="1"
     inkscape:snap-grids="false"
     inkscape:snap-to-guides="false">
    <inkscape:grid
       type="xygrid"
       id="grid2985"
       empspacing="5"
       visible="true"
       enabled="false"
       snapvisiblegridlinesonly="true"
       spacingx="32px"
       spacingy="32px"
       dotted="true" />
    <inkscape:grid
       type="xygrid"
       id="grid3878"
       empspacing="5"
       visible="true"
       enabled="true"
       snapvisiblegridlinesonly="true"
       spacingx="16px"
       spacingy="16px"
       color="#c600ff"
       opacity="0.1254902" />
  </sodipodi:namedview>
  <metadata
     id="metadata7">
    <rdf:RDF>
      <cc:Work
         rdf:about="">
        <dc:format>image/svg+xml</dc:format>
        <dc:type
           rdf:resource="http://purl.org/dc/dcmitype/StillImage" />
        <dc:title />
      </cc:Work>
    </rdf:RDF>
  </metadata>
  <g
     inkscape:groupmode="layer"
     id="layer2"
     inkscape:label="层"
     style="display:inline"
     sodipodi:insensitive="true">
    <rect
       style="fill:#000327;fill-opacity:1"
       id="rect3891"
       width="800"
       height="485"
       x="1"
       y="-3" />
    <path
       sodipodi:type="star"
       style="fill:#ffff00;fill-opacity:1"
       id="path3893"
       sodipodi:sides="4"
       sodipodi:cx="348"
       sodipodi:cy="156"
       sodipodi:r1="3.6055536"
       sodipodi:r2="17.340719"
       sodipodi:arg1="2.5535904"
       sodipodi:arg2="3.3962914"
       inkscape:flatsided="false"
       inkscape:rounded="0"
       inkscape:randomized="0"
       d="M 345,158 331.21871,151.63094 346,153 352.36906,139.21871 351,154 364.78129,160.36906 350,159 l -6.36906,13.78129 z"
       transform="matrix(0.46368857,0,0,0.43389349,-86.36362,63.81262)" />
    <path
       transform="matrix(0.46368857,0,0,0.43389349,551.63638,60.81262)"
       d="M 345,158 331.21871,151.63094 346,153 352.36906,139.21871 351,154 364.78129,160.36906 350,159 l -6.36906,13.78129 z"
       inkscape:randomized="0"
       inkscape:rounded="0"
       inkscape:flatsided="false"
       sodipodi:arg2="3.3962914"
       sodipodi:arg1="2.5535904"
       sodipodi:r2="17.340719"
       sodipodi:r1="3.6055536"
       sodipodi:cy="156"
       sodipodi:cx="348"
       sodipodi:sides="4"
       id="path3895"
       style="fill:#ffff00;fill-opacity:1"
       sodipodi:type="star" />
    <path
       sodipodi:type="star"
       style="fill:#ffff00;fill-opacity:1"
       id="path3897"
       sodipodi:sides="4"
       sodipodi:cx="348"
       sodipodi:cy="156"
       sodipodi:r1="3.6055536"
       sodipodi:r2="17.340719"
       sodipodi:arg1="2.5535904"
       sodipodi:arg2="3.3962914"
       inkscape:flatsided="false"
       inkscape:rounded="0"
       inkscape:randomized="0"
       d="M 345,158 331.21871,151.63094 346,153 352.36906,139.21871 351,154 364.78129,160.36906 350,159 l -6.36906,13.78129 z"
       transform="matrix(0.46368857,0,0,0.43389349,226.63638,144.81262)" />
    <path
       transform="matrix(0.46368857,0,0,0.43389349,117.63638,90.81262)"
       d="M 345,158 331.21871,151.63094 346,153 352.36906,139.21871 351,154 364.78129,160.36906 350,159 l -6.36906,13.78129 z"
       inkscape:randomized="0"
       inkscape:rounded="0"
       inkscape:flatsided="false"
       sodipodi:arg2="3.3962914"
       sodipodi:arg1="2.5535904"
       sodipodi:r2="17.340719"
       sodipodi:r1="3.6055536"
       sodipodi:cy="156"
       sodipodi:cx="348"
       sodipodi:sides="4"
       id="path3899"
       style="fill:#ffff00;fill-opacity:1"
       sodipodi:type="star" />
    <path
       sodipodi:type="star"
       style="fill:#ffff00;fill-opacity:1"
       id="path3901"
       sodipodi:sides="4"
       sodipodi:cx="348"
       sodipodi:cy="156"
       sodipodi:r1="3.6055536"
       sodipodi:r2="17.340719"
       sodipodi:arg1="2.5535904"
       sodipodi:arg2="3.3962914"
       inkscape:flatsided="false"
       inkscape:rounded="0"
       inkscape:randomized="0"
       d="M 345,158 331.21871,151.63094 346,153 352.36906,139.21871 351,154 364.78129,160.36906 350,159 l -6.36906,13.78129 z"
       transform="matrix(0.46368857,0,0,0.43389349,430.63638,128.81262)" />
    <path
       transform="matrix(0.46368857,0,0,0.43389349,374.63638,314.81262)"
       d="M 345,158 331.21871,151.63094 346,153 352.36906,139.21871 351,154 364.78129,160.36906 350,159 l -6.36906,13.78129 z"
       inkscape:randomized="0"
       inkscape:rounded="0"
       inkscape:flatsided="false"
       sodipodi:arg2="3.3962914"
       sodipodi:arg1="2.5535904"
       sodipodi:r2="17.340719"
       sodipodi:r1="3.6055536"
       sodipodi:cy="156"
       sodipodi:cx="348"
       sodipodi:sides="4"
       id="path3903"
       style="fill:#ffff00;fill-opacity:1"
       sodipodi:type="star" />
    <path
       sodipodi:type="star"
       style="fill:#ffff00;fill-opacity:1"
       id="path3905"
       sodipodi:sides="4"
       sodipodi:cx="348"
       sodipodi:cy="156"
       sodipodi:r1="3.6055536"
       sodipodi:r2="17.340719"
       sodipodi:arg1="2.5535904"
       sodipodi:arg2="3.3962914"
       inkscape:flatsided="false"
       inkscape:rounded="0"
       inkscape:randomized="0"
       d="M 345,158 331.21871,151.63094 346,153 352.36906,139.21871 351,154 364.78129,160.36906 350,159 l -6.36906,13.78129 z"
       transform="matrix(0.46368857,0,0,0.43389349,60.63638,257.81262)" />
  </g>
  <g
     inkscape:label="Layer 1"
     inkscape:groupmode="layer"
     id="layer1"
     transform="translate(0,-572.36218)"
     style="display:inline">
    <rect
       style="fill:#33337b;fill-opacity:1;stroke:none"
       id="rect5848"
       width="29"
       height="27.75"
       x="698.75"
       y="799.86218" />
    <rect
       style="fill:#2b1100"
       id="rect2991"
       width="800"
       height="32"
       x="0"
       y="448"
       transform="translate(0,572.36218)" />
    <path
       style="fill:none;stroke:#000000;stroke-width:1px;stroke-linecap:butt;stroke-linejoin:miter;stroke-opacity:1"
       d="m 500.11836,717.65507 c 7.79456,-37.37744 30.76746,21.97676 0,0 z"
       id="path3017"
       inkscape:connector-curvature="0" />
    <path
       style="fill:none;stroke:#000000;stroke-width:1px;stroke-linecap:butt;stroke-linejoin:miter;stroke-opacity:1"
       d="m 562.11836,718.65507 c -34.00138,-2.29685 9.14584,24.3889 0,0 z"
       id="path3021"
       inkscape:connector-curvature="0" />
    <path
       style="fill:none;stroke:#000000;stroke-width:1px;stroke-linecap:butt;stroke-linejoin:miter;stroke-opacity:1"
       d="m 605.11836,716.65507 c 32.62064,-8.46307 -3.97254,31.78029 0,0 z"
       id="path3023"
       inkscape:connector-curvature="0" />
    <path
       style="fill:#ffe6d5"
       d="m 170.55042,1041.5112 c -1.34427,-2.5995 -1.33842,-2.9649 0.0561,-3.5 2.62618,-1.0077 7.92683,-0.6641 9.18648,0.5955 0.924,0.924 0.70431,1.7132 -0.97431,3.5 -3.03832,3.2342 -6.4136,2.9911 -8.26827,-0.5955 z"
       id="path3031"
       inkscape:connector-curvature="0" />
    <path
       style="fill:#ffe6d5"
       d="m 149.2,1034.2137 c -1.80376,-1.8037 -1.52731,-8.4604 0.38179,-9.193 2.61332,-1.0028 7.93958,-0.6856 9.17141,0.5462 1.3263,1.3263 0.27441,3.9442 -3.05248,7.5968 -2.2687,2.4908 -4.67175,2.879 -6.50072,1.05 z"
       id="path3033"
       inkscape:connector-curvature="0" />
    <path
       style="fill:#ffe6d5"
       d="m 119.25,1040.449 c -5.73921,-3.5422 -3.17945,-6.6271 4.86163,-5.859 3.1441,0.3004 3.38837,0.576 3.38837,3.8237 0,2.9945 -0.36107,3.5391 -2.5,3.7706 -1.375,0.1488 -3.9625,-0.632 -5.75,-1.7353 z"
       id="path3035"
       inkscape:connector-curvature="0" />
    <path
       style="fill:#ffe6d5"
       d="m 90.5,1041.3224 c -2.2,-1.1766 -4.1501,-2.2751 -4.33356,-2.4409 -0.62952,-0.5691 3.50838,-8.9677 5.04166,-10.2328 2.15145,-1.7753 5.45937,1.0742 7.22121,6.2206 2.57693,7.5272 -0.79316,10.2699 -7.92931,6.4531 z"
       id="path3037"
       inkscape:connector-curvature="0" />
    <path
       style="fill:#ffe6d5"
       d="M 48.03518,1042.4795 C 47.46583,1041.4156 47,1038.9406 47,1036.9795 c 0,-2.9255 0.36728,-3.5658 2.04545,-3.5658 2.32053,0 6.95455,4.1976 6.95455,6.2996 0,1.8341 -3.22801,4.7004 -5.29356,4.7004 -0.89984,0 -2.10191,-0.8704 -2.67126,-1.9342 z"
       id="path3039"
       inkscape:connector-curvature="0" />
    <path
       inkscape:connector-curvature="0"
       id="path3041"
       d="m 591.7092,692.88552 c 7.79456,-37.37744 30.76746,21.97676 0,0 z"
       style="fill:none;stroke:#000000;stroke-width:1px;stroke-linecap:butt;stroke-linejoin:miter;stroke-opacity:1" />
    <path
       inkscape:connector-curvature="0"
       id="path3043"
       d="m 670.7092,691.88552 c -34.00138,-2.29685 9.14584,24.3889 0,0 z"
       style="fill:none;stroke:#000000;stroke-width:1px;stroke-linecap:butt;stroke-linejoin:miter;stroke-opacity:1" />
    <path
       inkscape:connector-curvature="0"
       id="path3045"
       d="m 713.7092,689.88552 c 32.62064,-8.46307 -3.97254,31.78029 0,0 z"
       style="fill:none;stroke:#000000;stroke-width:1px;stroke-linecap:butt;stroke-linejoin:miter;stroke-opacity:1" />
    <path
       inkscape:connector-curvature="0"
       id="path3047"
       d="m 295.34315,1029.3622 c 29.67435,-6.7517 2.72051,21.7641 0,0 z"
       style="fill:#ffe6d5;stroke:#000000;stroke-width:1px;stroke-linecap:butt;stroke-linejoin:miter;stroke-opacity:1" />
    <path
       style="fill:#ffe6d5"
       d="m 23.25,1028.449 c -5.73921,-3.5422 -3.17945,-6.6271 4.86163,-5.859 3.1441,0.3004 3.38837,0.576 3.38837,3.8237 0,2.9945 -0.36107,3.5391 -2.5,3.7706 -1.375,0.1488 -3.9625,-0.632 -5.75,-1.7353 z"
       id="path3051"
       inkscape:connector-curvature="0" />
    <path
       style="fill:#ffe6d5"
       d="m 214.5,1039.3224 c -2.2,-1.1766 -4.1501,-2.2751 -4.33356,-2.4409 -0.62952,-0.5691 3.50838,-8.9677 5.04166,-10.2328 2.15145,-1.7753 5.45937,1.0742 7.22121,6.2206 2.57693,7.5272 -0.79316,10.2699 -7.92931,6.4531 z"
       id="path3057"
       inkscape:connector-curvature="0" />
    <path
       style="fill:#ffe6d5"
       d="m 263.25,1045.449 c -5.73921,-3.5422 -3.17945,-6.6271 4.86163,-5.859 3.1441,0.3004 3.38837,0.576 3.38837,3.8237 0,2.9945 -0.36107,3.5391 -2.5,3.7706 -1.375,0.1488 -3.9625,-0.632 -5.75,-1.7353 z"
       id="path3059"
       inkscape:connector-curvature="0" />
    <path
       style="fill:#ffe6d5"
       d="m 538.01981,1039.5066 c -1.80376,-1.8037 -1.52731,-8.4604 0.38179,-9.193 2.61332,-1.0028 7.93958,-0.6856 9.17141,0.5462 1.3263,1.3263 0.27441,3.9442 -3.05248,7.5968 -2.2687,2.4908 -4.67175,2.879 -6.50072,1.05 z"
       id="path3061"
       inkscape:connector-curvature="0" />
    <path
       style="fill:#999999"
       d=""
       id="path3063"
       inkscape:connector-curvature="0"
       transform="translate(0,572.36218)" />
    <path
       style="fill:#000000"
       d="m 418.32891,1106.5024 c -2.99797,-3.5529 -6.89765,-9.4608 -16.15575,-24.4757 -7.14797,-11.5926 -8.37877,-13.3731 -9.25986,-13.3956 -0.83588,-0.021 -5.07566,3.3832 -11.28752,9.0641 -8.41095,7.6919 -11.38966,10.171 -13.37765,11.1339 -1.34669,0.6522 -1.61659,0.6493 -2.36229,-0.026 -1.62017,-1.4663 -4.5966,-7.932 -7.97324,-17.3205 -3.47517,-9.6624 -4.43357,-11.693 -5.75863,-12.2015 -0.41295,-0.1585 -3.11738,0.9224 -6.00985,2.4019 l -5.25902,2.6899 -2.08602,-2.3083 c -1.14731,-1.2696 -3.66102,-5.0681 -5.58602,-8.4411 -2.0133,-3.5278 -3.9622,-6.3441 -4.58813,-6.6301 -1.66879,-0.7628 -3.09483,-0.1678 -7.42638,3.0983 -6.75949,5.0968 -7.193,4.554 -7.8837,-9.8726 -0.36431,-7.6095 -0.33977,-11.4703 0.0928,-14.5962 1.10179,-7.962 3.6191,-21.1078 4.8657,-25.4096 1.32055,-4.55694 4.6296,-11.42846 6.17851,-12.83021 0.88642,-0.80219 1.02063,-0.72156 2.82763,1.69884 1.04337,1.39756 2.05561,2.54101 2.24942,2.54101 0.19381,0 0.73445,0.14662 1.20144,0.32582 0.73268,0.28115 0.77029,0.17864 0.2744,-0.74794 -0.47107,-0.8802 -0.39372,-1.32199 0.42908,-2.45082 0.55206,-0.75738 1.7019,-4.18221 2.55519,-7.61073 1.57967,-6.34706 2.46027,-8.90231 3.74473,-10.86612 l 0.71934,-1.09978 2.87999,0.99432 c 1.584,0.54688 3.33311,0.88209 3.88691,0.7449 2.24137,-0.55522 5.83447,-6.5843 8.96305,-15.03965 1.01753,-2.75 2.46692,-5.9 3.22085,-7 1.6462,-2.40183 2.62834,-2.48558 9.0147,-0.76869 5.02672,1.35136 8.01117,1.18578 9.88473,-0.5484 0.70289,-0.6506 2.67387,-3.32041 4.37995,-5.93291 1.70608,-2.6125 3.47026,-5.05115 3.9204,-5.41922 1.29221,-1.05662 3.33069,-0.30928 8.88234,3.2564 3.09611,1.98856 5.82701,3.37198 6.95502,3.52328 1.79445,0.24068 2.02526,0.0805 6.82437,-4.73539 2.73191,-2.74148 5.4901,-5.15049 6.12931,-5.35337 1.73564,-0.55087 3.25689,1.2137 7.56836,8.77891 2.28879,4.01606 4.19275,6.78266 4.88625,7.10009 1.98196,0.90716 4.04591,-0.59842 8.11025,-5.91617 2.06443,-2.70107 4.0431,-5.00535 4.39706,-5.12063 0.35395,-0.11528 2.71645,1.8126 5.25,4.28418 4.56631,4.45462 9.94194,8.60192 11.14961,8.60192 0.34506,0 0.77222,-0.65945 0.94924,-1.46545 1.01553,-4.62367 3.04815,-2.00358 7.1096,9.16443 4.39012,12.07178 4.59589,12.24446 9.76412,8.19368 1.02638,-0.80445 2.07085,-1.33612 2.32105,-1.18148 0.25021,0.15463 1.17448,2.58913 2.05394,5.40999 3.35796,10.77066 4.04386,12.62545 5.38123,14.55184 1.2576,1.81148 1.39944,2.48493 1.62765,7.72835 0.20439,4.69599 0.40586,5.84187 1.10426,6.28066 0.66609,0.41848 1.20229,0.2794 2.4342,-0.63139 1.27739,-0.94441 1.66287,-1.03716 2.01308,-0.48436 0.62455,0.98586 0.55718,2.01609 -0.55154,8.43369 -1.24343,7.1975 -1.24146,8.1839 0.0208,10.432 0.56148,0.9999 1.74715,3.843 2.63482,6.318 1.2942,3.6085 1.81013,4.5 2.60413,4.5 0.86534,0 1.03778,-0.4728 1.36769,-3.75 0.5663,-5.6253 1.25816,-10.0525 1.62863,-10.4214 0.61634,-0.6138 2.14578,1.9042 3.99572,6.5782 1.52441,3.8515 2.08732,4.752 3.24323,5.1883 0.76927,0.2904 1.81357,1.1612 2.32067,1.9351 2.56998,3.9223 -1.16753,16.3126 -5.06576,16.7936 -0.55,0.068 -2.4947,-0.1669 -4.32157,-0.5217 -4.1583,-0.8076 -5.25375,-0.2297 -7.14791,3.7708 -0.72065,1.522 -2.51225,4.2658 -3.98135,6.0972 -2.59478,3.2348 -5.93229,8.7241 -7.22599,11.8849 l -0.63643,1.5549 -1.42991,-1.4299 c -2.8317,-2.8318 -6.96049,-1.7114 -19.50682,5.2933 l -7.75,4.3269 -4.85051,-0.3272 c -4.82809,-0.3258 -4.85639,-0.321 -6.12138,1.044 -1.64098,1.7706 -3.06144,4.8134 -6.41112,13.733 -4.09825,10.9131 -6.98618,16.0927 -10.2804,18.4384 l -1.50234,1.0698 -2.2184,-2.6291 z"
       id="path3073"
       inkscape:connector-curvature="0" />
    <path
       style="fill:#ff0000"
       d=""
       id="path3075"
       inkscape:connector-curvature="0"
       transform="translate(0,572.36218)" />
    <path
       style="fill:#d40000;fill-opacity:1"
       d="m 309.55162,1025.459 c 0,-2.0583 5.18133,-27.63101 6.18712,-30.53679 1.45367,-4.19962 3.63884,-8.59322 5.37937,-10.81593 1.06765,-1.36344 1.14426,-1.33707 3.56219,1.22581 1.35909,1.44056 2.98708,2.61921 3.61774,2.61921 0.83683,0 0.9376,-0.20907 0.37297,-0.77371 -0.56465,-0.56465 -0.42985,-1.36907 0.49888,-2.97697 0.69994,-1.21178 2.10049,-5.35047 3.11236,-9.19708 1.01186,-3.84662 2.29068,-7.68203 2.8418,-8.52314 0.98176,-1.49837 1.07308,-1.50657 4.51665,-0.40535 3.47552,1.11142 3.53469,1.10507 5.31871,-0.57092 2.5965,-2.43927 4.21529,-5.2949 7.30182,-12.88062 1.50018,-3.68696 3.3781,-7.61713 4.17318,-8.7337 l 1.44559,-2.03013 5.08005,1.31951 c 2.79403,0.72573 6.52237,1.32492 8.28516,1.33152 3.70934,0.0138 4.45836,-0.61821 9.58351,-8.08759 1.97546,-2.87906 3.9092,-4.94169 4.74568,-5.06202 0.77645,-0.11169 4.08343,1.40635 7.34887,3.37345 8.85497,5.33426 8.76296,5.34017 15.26062,-0.98301 3.01773,-2.93669 5.96692,-5.33943 6.55372,-5.33943 1.54428,0 3.24287,2.08816 7.59316,9.33475 5.36074,8.92972 6.86545,8.98 13.66615,0.45656 2.14508,-2.68844 4.14283,-4.88809 4.43946,-4.88809 0.29664,0 2.88367,2.15595 5.74897,4.79099 4.66734,4.29227 11.06435,8.98636 11.43813,8.39323 0.0782,-0.12413 0.54994,-1.17027 1.04824,-2.3248 l 0.90603,-2.0991 1.2953,1.59963 c 0.71241,0.8798 2.57126,4.97647 4.13075,9.10373 4.87949,12.91369 5.42745,13.46323 10.08757,10.11658 l 3.11106,-2.2342 1.43223,4.01361 c 0.78773,2.2075 2.25321,6.53529 3.25661,9.61731 1.0034,3.08203 2.44381,6.34782 3.20091,7.25732 1.10833,1.33143 1.37655,2.7137 1.37655,7.09396 0,6.45399 0.94694,7.93032 3.86164,6.02053 2.57828,-1.68935 2.78296,-0.42836 1.34897,8.31008 l -1.21362,7.3953 2.20428,4.7823 c 1.35515,2.9401 2.20426,5.9074 2.20426,7.7033 l 0,2.9211 -2.69559,0 c -2.50785,0 -2.7746,-0.2011 -3.83,-2.8879 -1.04303,-2.6553 -1.04435,-3.5059 -0.0164,-10.5571 1.20409,-8.2588 0.89341,-9.7448 -1.74238,-8.3341 -0.78654,0.421 -1.73318,0.7652 -2.10368,0.7652 -0.37047,0 -0.90113,-2.6003 -1.17924,-5.77874 -0.30127,-3.44332 -1.05994,-6.87121 -1.87721,-8.48181 -0.75434,-1.48666 -2.63608,-6.37236 -4.18158,-10.85714 -1.5455,-4.48478 -2.93362,-8.27907 -3.0847,-8.43176 -0.15106,-0.1527 -1.59815,0.59823 -3.21576,1.6687 -2.18262,1.4444 -3.22498,1.76749 -4.04188,1.25287 -0.60544,-0.38141 -2.58517,-4.51226 -4.39939,-9.17967 -4.62181,-11.89044 -6.15305,-13.97206 -7.55855,-10.27535 -1.06164,2.79233 -0.90328,2.88024 -11.85141,-6.57969 l -5.19705,-4.49059 -2.06502,2.38306 c -6.97594,8.05034 -8.13387,9.15377 -9.35851,8.91793 -1.22971,-0.23682 -2.39055,-1.80942 -7.95198,-10.77247 -1.34838,-2.17313 -3.04257,-4.26848 -3.76489,-4.65634 -1.48098,-0.79524 -1.79573,-0.58891 -9.14555,5.99464 l -4.5831,4.1053 -2.63573,-1.3469 c -1.44963,-0.74079 -4.76773,-2.49781 -7.37352,-3.90448 -2.60582,-1.40666 -5.21444,-2.37468 -5.79695,-2.15114 -0.58252,0.22353 -2.98182,3.05276 -5.33179,6.28719 -2.85129,3.92442 -4.87509,6.03197 -6.08358,6.33526 -0.99601,0.24999 -4.44324,-0.0926 -7.66052,-0.76127 -5.30242,-1.10207 -6.00437,-1.11438 -7.50414,-0.13169 -0.91,0.59625 -1.87315,1.80171 -2.14031,2.6788 -1.35086,4.43471 -8.84592,18.77063 -10.18957,19.48972 -1.14147,0.61089 -2.25399,0.593 -4.63834,-0.0746 -4.08938,-1.14496 -3.93834,-1.39173 -8.73776,14.27632 l -2.32211,7.58063 -2.19157,-2.60982 c -1.43339,-1.70695 -2.56878,-2.46508 -3.28195,-2.19141 -2.86933,1.10107 -8.23171,16.81985 -9.91617,29.06735 l -0.50213,3.6509 -3.08635,0 c -1.69749,0 -3.08635,-0.1428 -3.08635,-0.3172 z"
       id="path3077"
       inkscape:connector-curvature="0" />
    <path
       style="fill:#ff8080;stroke:#000000;stroke-width:1px;stroke-linecap:butt;stroke-linejoin:miter;stroke-opacity:1"
       d="m 338.5,995.86218 c 2.63711,13.77812 9.15624,40.34372 -0.5,50.00002 -0.56812,0.5681 -0.71545,4.5 -1.5,4.5 -0.4093,0 4.67727,-1.9515 8.5,-4.5 1.4686,-0.9791 11.26632,-8 12,-8 1.60745,0 4.00567,11.517 4.5,13 0.57857,1.7357 1.61939,8.1194 2.5,9 0.48807,0.4881 20.06952,-21.5695 22,-23.5 0.44225,-0.4423 2.9461,8.8922 3.5,10 2.07853,4.157 3.16223,12.6622 6,15.5 3.08317,3.0832 10.90024,-21.4003 12,-22.5 1.33325,-1.3333 17.81685,23.3168 20.5,26 0.62202,0.622 1.68607,-0.6861 2,-1 5.16256,-5.1626 8,-13.0183 8,-21 0,-1.0138 -0.40676,-2.5466 0.5,-3 1.98698,-0.9935 19.02391,13.9761 20,13 2.16498,-2.165 3.53388,-21.2729 4.5,-20.5 1.18129,0.945 14.93161,17.6368 16.5,14.5 0.11054,-0.2211 -8.55037,-29.1511 -10,-33.5 -0.58355,-1.7507 -1.62127,-16.37875 -0.5,-17.50002 0.69718,-0.69718 4.00068,-7.49932 3.5,-8 -3.32787,-3.32787 -17.33036,20.16962 -18,19.50002 -6.48615,-6.4862 -6.14926,-20.35076 -8.5,-18.00002 -3.56093,3.56093 -7.5526,10.15782 -9,14.50002 -0.66039,1.9811 -3,7.5883 -3,5.5 0,-3.8521 -10.50221,-19.33188 -12.5,-18.00002 -4.95093,3.30062 -5.76761,11.53522 -8,16.00002 -1.12793,2.2558 1.52212,7.5 -1,7.5 -0.46021,0 -0.39954,-2.2991 -0.5,-2.5 -1.9699,-3.9398 -6.9311,-16.21557 -10.5,-18.00002 -0.68384,-0.34192 -1.15332,-2.42334 -2,-2 -3.83058,1.91529 -7.86827,27.00002 -11,27.00002 -0.0588,0 0.0735,-1.4265 0,-1.5 -5.33749,-5.3375 -7.36892,-19.93448 -12.5,-22.50002 -3.85734,-1.92867 -7.53079,25.96922 -10.5,23.00002 -4.18925,-4.1893 -9.69784,-7.6979 -14,-12 -3.28582,-3.2858 -5.29358,-7.7936 -8.5,-11.00002 -0.87075,-0.87075 -3.101,-0.2798 -4.5,0 z"
       id="path3079"
       inkscape:connector-curvature="0" />
    <path
       style="fill:#d40000;fill-opacity:1;filter:url(#filter5493)"
       d="m 310.69912,453.12837 c -0.53475,-0.081 -0.97227,-0.19457 -0.97227,-0.25235 0,-1.30117 4.43942,-23.36404 5.67492,-28.20302 1.10615,-4.33234 4.1726,-10.84833 6.07467,-12.9082 l 0.72152,-0.78139 2.16134,1.96248 c 2.54035,2.30662 3.77492,3.02855 4.4576,2.60662 0.39896,-0.24656 0.40456,-0.39975 0.0311,-0.8498 -0.37969,-0.4575 -0.27123,-0.99198 0.65071,-3.20658 0.60849,-1.46167 1.96679,-5.48264 3.01843,-8.93549 2.25229,-7.39496 2.83996,-8.88299 3.6275,-9.1852 0.3223,-0.12368 1.98408,0.13988 3.69283,0.5857 3.05257,0.79641 3.12483,0.79906 4.13866,0.15186 2.61989,-1.67247 4.84002,-5.29967 8.68882,-14.19563 1.28619,-2.97285 2.98635,-6.48674 3.77813,-7.80863 l 1.43959,-2.40344 4.11166,1.00299 c 7.79481,1.90144 11.86229,1.97578 13.73574,0.25103 0.50156,-0.46175 2.26202,-2.66918 3.91213,-4.90541 3.52971,-4.78347 5.30145,-6.71751 6.15379,-6.71751 0.89817,0 1.98716,0.521 7.94846,3.80277 5.73274,3.15593 7.2298,3.63431 9.03433,2.88685 0.62682,-0.25964 3.21481,-2.35934 5.75108,-4.666 2.53627,-2.30667 5.06582,-4.43438 5.62121,-4.72826 0.99645,-0.52725 1.03157,-0.51172 2.65415,1.17355 0.90438,0.93932 2.916,3.76279 4.47027,6.27437 4.54176,7.33916 6.52777,9.09461 8.89892,7.8658 1.15442,-0.59826 4.35426,-3.89025 7.34373,-7.55521 2.16947,-2.65969 2.7702,-3.11028 3.55688,-2.66795 0.25994,0.14615 2.48766,2.01582 4.95049,4.15482 5.06911,4.40258 10.31292,8.29078 11.19562,8.30138 0.38076,0.005 0.92691,-0.72005 1.52685,-2.02581 0.89332,-1.94428 0.95738,-2.0021 1.46873,-1.32583 1.02453,1.35496 2.68023,4.92288 5.28803,11.39536 1.44391,3.58374 2.86987,6.98887 3.16881,7.56695 1.568,3.03217 3.1717,3.18366 6.85336,0.64741 1.42134,-0.97915 2.61543,-1.73487 2.65353,-1.67938 0.0381,0.0555 1.22339,3.52151 2.63397,7.70228 1.41058,4.18077 3.40738,9.35149 4.43735,11.49049 l 1.87266,3.88909 0.22053,4.6693 c 0.30876,6.5372 0.92731,7.55657 3.72064,6.13152 0.78113,-0.39851 1.58568,-0.72455 1.78788,-0.72455 0.62909,0 0.42625,3.45305 -0.57749,9.83061 -0.76147,4.83817 -0.88079,6.31765 -0.57032,7.07107 0.21594,0.52402 1.14708,2.7824 2.0692,5.01863 1.36167,3.30215 1.70809,4.58054 1.84428,6.8059 l 0.16769,2.74004 -1.19447,-0.004 c -2.78708,-0.009 -3.72833,-0.37174 -4.49217,-1.73081 -1.41346,-2.51492 5.22163,9.98744 -2.1112,-10.13065 -1.14076,-3.12975 2.46006,-0.10568 -0.27383,-5.03469 -1.6973,-3.06011 -0.23923,-1.26803 -1.72352,-3.26512 -1.15118,-1.5489 -0.71132,-0.89455 -1.26461,-4.91386 -0.81856,-5.94631 -1.41672,-8.3222 -3.33406,-13.24301 -1.06899,-2.74354 -2.87787,-7.53384 -4.01974,-10.64511 -1.58521,-4.31928 -2.20925,-5.63343 -2.63917,-5.55777 -0.30967,0.0545 -1.64637,0.73464 -2.97043,1.51142 -1.32406,0.77677 -2.72558,1.36858 -3.11449,1.31512 -0.94698,-0.13017 -2.05559,-2.27191 -5.82625,-11.25578 -3.17911,-7.57444 -4.56806,-10.00462 -5.60404,-9.80511 -0.31959,0.0616 -0.95308,0.78631 -1.40778,1.61057 -0.45469,0.82427 -0.99921,1.49867 -1.21004,1.49867 -0.68259,0 -8.13325,-6.015 -14.97881,-12.09255 -0.73857,-0.65571 -0.76089,-0.63846 -4.06586,3.14139 -4.61494,5.27806 -6.93365,7.53695 -7.73654,7.53695 -1.01164,0 -1.84436,-1.01247 -5.87938,-7.14844 -4.31612,-6.56343 -5.87507,-8.40791 -7.10636,-8.40791 -1.15359,0 -2.17822,0.7591 -7.9761,5.90912 l -4.86907,4.32499 -6.79819,-3.4931 c -3.73901,-1.92121 -7.28711,-3.59395 -7.88468,-3.7172 -1.34256,-0.2769 -1.94068,0.2728 -5.94246,5.46147 -1.57473,2.04177 -3.61295,4.46803 -4.52939,5.39169 -2.02152,2.03745 -2.32693,2.06206 -9.95996,0.80256 -4.57158,-0.75433 -5.4012,-0.80592 -6.38047,-0.39675 -1.59827,0.6678 -2.77831,2.22349 -4.09904,5.40391 -2.28844,5.51073 -7.38478,15.10128 -8.86388,16.6805 -0.82771,0.88373 -1.17447,0.89497 -6.06967,0.19665 -2.01592,-0.28757 -2.54055,0.0573 -3.61681,2.37735 -0.41876,0.90272 -2.0058,5.606 -3.52676,10.45173 l -2.76539,8.81042 -2.17742,-2.23161 c -1.19758,-1.22739 -2.45659,-2.23162 -2.79781,-2.23162 -2.0987,0 -5.62391,7.87079 -8.35962,18.66466 -1.0671,4.21031 -2.48006,11.82587 -2.48006,13.36706 0,0.8037 -0.1079,0.84594 -2.03293,0.79578 -1.11811,-0.0291 -2.47045,-0.11926 -3.0052,-0.20026 l 0,0 z"
       id="path3849"
       inkscape:connector-curvature="0"
       transform="translate(0,572.36218)"
       sodipodi:nodetypes="cssscsccssssssscsssssssssssscscssssscsscsssssssccsssssssssssccssssssscssssssssssscsssscccc" />
    <path
       style="fill:#d40000;fill-opacity:1"
       d=""
       id="path3853"
       inkscape:connector-curvature="0"
       transform="translate(0,572.36218)" />
    <path
       style="fill:#d40000;fill-opacity:1"
       d=""
       id="path3863"
       inkscape:connector-curvature="0"
       transform="translate(0,572.36218)" />
    <path
       style="fill:#ff2a2a;stroke:#000000;stroke-width:1px;stroke-linecap:butt;stroke-linejoin:miter;stroke-opacity:1"
       d="m 422.75,982.36218 c 10.19255,-0.60122 18.27853,-6.5 28,-6.5 3.71221,0 7.75,-2.10129 7.75,-2 0,0.37515 -6.28512,1.78512 -6.75,2.25 -0.99875,0.99875 -3.20524,1.20524 -4.25,2.25 -2.68207,2.68207 -8.3211,5.5711 -11.5,8.75 -0.64215,0.64215 -4.2999,-0.5 -5,-0.5 -2.86114,0 -7.39788,-0.64788 -9,-2.25 -0.50346,-0.50346 1.14495,-1.40758 0.75,-2 -0.24893,-0.37339 -0.80995,0.41199 -1.25,0.5 -0.44005,0.088 0.80995,-0.41199 1.25,-0.5 z"
       id="path3867"
       inkscape:connector-curvature="0" />
    <a
       id="a3871"
       transform="matrix(-1,0,0,1,750.40755,9.5)">
      <path
         style="fill:#ff2a2a;stroke:#000000;stroke-width:1px;stroke-linecap:butt;stroke-linejoin:miter;stroke-opacity:1"
         d="m 365.25,974.36218 c 10.19255,-0.60122 18.27853,-6.5 28,-6.5 3.71221,0 7.75,-2.10129 7.75,-2 0,0.37515 -6.28512,1.78512 -6.75,2.25 -0.99875,0.99875 -3.20524,1.20524 -4.25,2.25 -2.68207,2.68207 -8.3211,5.5711 -11.5,8.75 -0.64215,0.64215 -4.2999,-0.5 -5,-0.5 -2.86114,0 -7.39788,-0.64788 -9,-2.25 -0.50346,-0.50346 1.14495,-1.40758 0.75,-2 -0.24893,-0.37339 -0.80995,0.41199 -1.25,0.5 -0.44005,0.088 0.80995,-0.41199 1.25,-0.5 z"
         id="path3869"
         inkscape:connector-curvature="0" />
    </a>
    <rect
       style="fill:#2b1100;fill-opacity:1"
       id="rect3876"
       width="801"
       height="32"
       x="1"
       y="829.36218" />
    <path
       style="fill:#ffe6d5;stroke:#00828e;stroke-width:1.903;stroke-linecap:butt;stroke-linejoin:miter;stroke-miterlimit:4;stroke-opacity:1;stroke-dasharray:none;stroke-dashoffset:0"
       d="m 38.497621,829.82471 10.410039,-59.41201 74.28125,0 4.28545,22.85077 7.10667,-0.5 -8.89227,-41.77393 12.85637,0 11.5347,41.62264 1.94621,4.625 10.19621,-0.125 -16.17758,-40.40996 12.14213,-0.57125 19.64167,47.98662 5.71395,0 -17.85607,-43.98774 11.78501,-0.57127 19.99879,43.98774 8.2138,0 8.92803,-19.42316 37.49774,45.70155 z"
       id="path3886"
       inkscape:connector-curvature="0"
       sodipodi:nodetypes="ccccccccccccccccccccc"
       sodipodi:insensitive="true" />
    <rect
       style="fill:#c8f0f3;fill-opacity:1;stroke:#000000;stroke-width:0.16215782;stroke-linejoin:miter;stroke-miterlimit:4;stroke-opacity:1;stroke-dasharray:none;stroke-dashoffset:0"
       id="rect5513"
       width="12.772037"
       height="8.2182989"
       x="52.508766"
       y="775.86066"
       ry="1.8881652" />
    <text
       xml:space="preserve"
       style="font-size:10px;font-style:normal;font-variant:normal;font-weight:normal;font-stretch:normal;line-height:125%;letter-spacing:0px;word-spacing:0px;fill:url(#linearGradient5673);fill-opacity:1;stroke:url(#linearGradient5679);font-family:'汉仪综艺体简';-inkscape-font-specification:'汉仪综艺体简'"
       x="52.325897"
       y="794.97528"
       id="text5515"
       sodipodi:linespacing="125%"><tspan
         sodipodi:role="line"
         id="tspan5517"
         x="52.325897"
         y="794.97528"
         style="fill:url(#linearGradient5673);fill-opacity:1;stroke:url(#linearGradient5679)">Moon Base</tspan></text>
    <path
       style="fill:#cccccc;fill-opacity:1;stroke:#000000;stroke-width:1px;stroke-linecap:butt;stroke-linejoin:miter;stroke-opacity:1"
       d="m 78.25,815.86218 11.25,0 12,12.5 -34.25,0 z"
       id="path5523"
       inkscape:connector-curvature="0"
       sodipodi:nodetypes="ccccc" />
    <rect
       style="fill:#000000;fill-opacity:1;stroke:none"
       id="rect5527"
       width="11.136932"
       height="1.2374364"
       x="78.488853"
       y="817.95624"
       ry="0" />
    <rect
       ry="0"
       y="817.70624"
       x="76.363853"
       height="10.237436"
       width="0.63693237"
       id="rect5533"
       style="fill:#000000;fill-opacity:1;stroke:none" />
    <rect
       style="fill:#000000;fill-opacity:1;stroke:none"
       id="rect5535"
       width="11.136932"
       height="1.2374364"
       x="78.488853"
       y="820.34277"
       ry="0" />
    <rect
       ry="0"
       y="822.59668"
       x="78.488853"
       height="1.2374364"
       width="11.136932"
       id="rect5537"
       style="fill:#000000;fill-opacity:1;stroke:none" />
    <rect
       style="fill:#000000;fill-opacity:1;stroke:none"
       id="rect5539"
       width="11.136932"
       height="1.2374364"
       x="78.488853"
       y="824.85052"
       ry="0" />
    <rect
       style="fill:#000000;fill-opacity:1;stroke:none"
       id="rect5541"
       width="0.63693237"
       height="10.237436"
       x="90.988853"
       y="818.08124"
       ry="0" />
    <rect
       ry="0.875"
       y="810.86218"
       x="143.5"
       height="2"
       width="87.5"
       id="rect5545"
       style="fill:#00828e;fill-opacity:1;stroke:none" />
    <path
       inkscape:connector-curvature="0"
       id="path5564"
       d="m 654.91856,1042.9254 c -1.34427,-2.5995 -1.33842,-2.9649 0.0561,-3.5 2.62618,-1.0077 7.92683,-0.6641 9.18648,0.5955 0.924,0.924 0.70431,1.7132 -0.97431,3.5 -3.03832,3.2342 -6.4136,2.9911 -8.26827,-0.5955 z"
       style="fill:#ffe6d5" />
    <path
       inkscape:connector-curvature="0"
       id="path5566"
       d="m 633.56814,1035.6279 c -1.80376,-1.8037 -1.52731,-8.4604 0.38179,-9.193 2.61332,-1.0028 7.93958,-0.6856 9.17141,0.5462 1.3263,1.3263 0.27441,3.9442 -3.05248,7.5968 -2.2687,2.4908 -4.67175,2.879 -6.50072,1.05 z"
       style="fill:#ffe6d5" />
    <path
       inkscape:connector-curvature="0"
       id="path5568"
       d="m 603.61814,1041.8632 c -5.73921,-3.5422 -3.17945,-6.6271 4.86163,-5.859 3.1441,0.3004 3.38837,0.576 3.38837,3.8237 0,2.9945 -0.36107,3.5391 -2.5,3.7706 -1.375,0.1488 -3.9625,-0.632 -5.75,-1.7353 z"
       style="fill:#ffe6d5" />
    <path
       inkscape:connector-curvature="0"
       id="path5570"
       d="m 698.86814,1040.7366 c -2.2,-1.1766 -4.1501,-2.2751 -4.33356,-2.4409 -0.62952,-0.5691 3.50838,-8.9677 5.04166,-10.2328 2.15145,-1.7753 5.45937,1.0742 7.22121,6.2206 2.57693,7.5272 -0.79316,10.2699 -7.92931,6.4531 z"
       style="fill:#ffe6d5" />
    <path
       inkscape:connector-curvature="0"
       id="path5572"
       d="m 747.61814,1046.8632 c -5.73921,-3.5422 -3.17945,-6.6271 4.86163,-5.859 3.1441,0.3004 3.38837,0.576 3.38837,3.8237 0,2.9945 -0.36107,3.5391 -2.5,3.7706 -1.375,0.1488 -3.9625,-0.632 -5.75,-1.7353 z"
       style="fill:#ffe6d5" />
    <path
       style="fill:url(#radialGradient5590);fill-opacity:1;display:inline;filter:url(#filter5473-4)"
       d="m 50.403719,766.15502 c 0.67428,-5.71764 1.72472,-9.23522 3.91987,-13.1263 4.86816,-8.62923 12.82445,-14.29113 23.82489,-16.9544 1.21623,-0.29446 4.06327,-0.46673 7.6014,-0.45997 4.63357,0.009 6.21802,0.15187 8.75904,0.79054 11.884171,2.98701 21.174331,11.26115 24.882451,22.16116 0.82884,2.43638 1.8374,8.49729 1.47438,8.8603 -0.10389,0.10389 -16.05114,0.29109 -35.438341,0.41599 l -35.24946,0.22709 0.22577,-1.91441 z"
       id="path3943"
       inkscape:connector-curvature="0" />
    <path
       sodipodi:type="arc"
       style="fill:#00ffff;fill-opacity:1;display:inline"
       id="path3929"
       sodipodi:cx="68.942909"
       sodipodi:cy="178.59573"
       sodipodi:rx="9.8994951"
       sodipodi:ry="9.1481934"
       d="m 59.043414,178.59573 c 0,-5.0524 4.432156,-9.14819 9.899496,-9.14819 5.425956,0 9.840781,4.03628 9.898926,9.05016 l -9.898927,0.098 z"
       sodipodi:start="3.1415927"
       sodipodi:end="6.272469"
       transform="matrix(3.5759629,0,0,3.5759629,-161.68345,128.13267)" />
    <rect
       style="fill:#00828e;fill-opacity:1;stroke:none"
       id="rect5657"
       width="87.5"
       height="2"
       x="143.5"
       y="823.86218"
       ry="0.875" />
    <rect
       ry="0.875"
       y="815.61218"
       x="143.5"
       height="2"
       width="87.5"
       id="rect5659"
       style="fill:#00828e;fill-opacity:1;stroke:none" />
    <rect
       style="fill:#00828e;fill-opacity:1;stroke:none"
       id="rect5661"
       width="87.5"
       height="2"
       x="143.5"
       y="819.86218"
       ry="0.875" />
    <rect
       ry="1.8881652"
       y="775.86072"
       x="101.29913"
       height="8.2182989"
       width="12.772037"
       id="rect5663"
       style="fill:#c8f0f3;fill-opacity:1;stroke:#000000;stroke-width:0.16215782;stroke-linejoin:miter;stroke-miterlimit:4;stroke-opacity:1;stroke-dasharray:none;stroke-dashoffset:0" />
    <rect
       style="fill:#c8f0f3;fill-opacity:1;stroke:#000000;stroke-width:0.16215782;stroke-linejoin:miter;stroke-miterlimit:4;stroke-opacity:1;stroke-dasharray:none;stroke-dashoffset:0"
       id="rect5665"
       width="12.772037"
       height="8.2182989"
       x="85.389229"
       y="775.86066"
       ry="1.8881652" />
    <rect
       ry="1.8881652"
       y="775.86066"
       x="68.772224"
       height="8.2182989"
       width="12.772037"
       id="rect5667"
       style="fill:#c8f0f3;fill-opacity:1;stroke:#000000;stroke-width:0.16215782;stroke-linejoin:miter;stroke-miterlimit:4;stroke-opacity:1;stroke-dasharray:none;stroke-dashoffset:0" />
    <path
       style="fill:#00ffff;fill-opacity:1;stroke:#00828e;stroke-width:1.79999995;stroke-linecap:butt;stroke-linejoin:miter;stroke-miterlimit:4;stroke-opacity:1;stroke-dasharray:none"
       d="m 127.3676,793.29593 6.8943,36.74563"
       id="path5689"
       inkscape:connector-curvature="0"
       sodipodi:nodetypes="cc" />
    <path
       style="fill:#b3ada8;fill-opacity:1;stroke:#00828e;stroke-width:0.44999999;stroke-linejoin:miter;stroke-miterlimit:4;stroke-opacity:1;stroke-dasharray:none;stroke-dashoffset:0"
       d="m 131.83792,239.40847 c -1.7524,-9.38437 -3.18223,-17.19047 -3.17738,-17.34689 0.006,-0.18962 1.17507,-0.34477 3.5088,-0.46561 3.03318,-0.15704 3.5,-0.237 3.5,-0.59949 0,-0.31495 -8.04314,-38.51491 -8.59859,-40.83801 -0.0972,-0.40642 0.27995,-0.43748 5.30949,-0.43722 l 5.4141,2.7e-4 5.67212,20.4779 c 4.01323,14.4889 5.99496,21.23372 6.776,23.06223 l 1.10389,2.58432 6.09899,-0.0928 c 3.35445,-0.0511 6.12479,-0.11434 6.1563,-0.14063 0.0315,-0.0263 -3.54035,-9.03957 -7.9375,-20.02951 -4.39714,-10.98994 -7.9948,-20.05518 -7.9948,-20.14499 0,-0.0898 1.99687,-0.23801 4.4375,-0.32934 2.44062,-0.0913 4.65971,-0.1878 4.93129,-0.21437 0.42957,-0.042 1.76462,3.05695 10.26458,23.82668 l 9.77078,23.875 3.94182,0.069 c 3.83941,0.0671 3.9377,0.056 3.78358,-0.42961 -0.087,-0.2742 -4.07832,-10.14898 -8.86954,-21.94394 l -8.71131,-21.4454 1.78815,-0.1579 c 0.98348,-0.0868 3.14501,-0.22538 4.80339,-0.30785 l 3.01524,-0.14994 9.98476,21.99226 9.98476,21.99226 4.77101,0.003 4.77101,0.003 4.22899,-9.23861 4.22899,-9.23861 0.53678,0.55111 c 0.29523,0.30311 8.04521,9.71986 17.22217,20.92611 9.17696,11.20625 16.85597,20.57188 17.06446,20.8125 0.36088,0.4165 -2.38062,0.4375 -57.10728,0.4375 l -57.48637,0 -3.18618,-17.0625 z m 99.08142,13.5625 c 0.19012,-0.35524 0.19012,-0.64475 0,-1 -0.26601,-0.49704 -0.52346,-0.5 -43.60319,-0.5 -47.27752,0 -44.16373,-0.0975 -43.79496,1.37176 l 0.15768,0.62824 43.48644,0 c 43.23057,0 43.48801,-0.003 43.75403,-0.5 z m 0,-4 c 0.19012,-0.35524 0.19012,-0.64475 0,-1 -0.26601,-0.49704 -0.52346,-0.5 -43.60319,-0.5 -47.27752,0 -44.16373,-0.0975 -43.79496,1.37176 l 0.15768,0.62824 43.48644,0 c 43.23057,0 43.48801,-0.003 43.75403,-0.5 z m 0,-4.25 c 0.19012,-0.35524 0.19012,-0.64475 0,-1 -0.26601,-0.49704 -0.52346,-0.5 -43.60319,-0.5 -47.27752,0 -44.16373,-0.0975 -43.79496,1.37176 l 0.15768,0.62824 43.48644,0 c 43.23057,0 43.48801,-0.003 43.75403,-0.5 z m 0,-4.75 c 0.19012,-0.35524 0.19012,-0.64475 0,-1 -0.26601,-0.49704 -0.52346,-0.5 -43.60319,-0.5 -47.27752,0 -44.16373,-0.0975 -43.79496,1.37176 l 0.15768,0.62824 43.48644,0 c 43.23057,0 43.48801,-0.003 43.75403,-0.5 z"
       id="path5691"
       inkscape:connector-curvature="0"
       transform="translate(0,572.36218)" />
    <path
       inkscape:connector-curvature="0"
       id="path5727"
       d="m 659.86831,849.17816 c -1.34427,-2.5995 -1.33842,-2.9649 0.0561,-3.5 2.62618,-1.0077 7.92683,-0.6641 9.18648,0.5955 0.924,0.924 0.70431,1.7132 -0.97431,3.5 -3.03832,3.2342 -6.4136,2.9911 -8.26827,-0.5955 z"
       style="fill:#ffe6d5" />
    <path
       inkscape:connector-curvature="0"
       id="path5729"
       d="m 638.51789,841.88066 c -1.80376,-1.8037 -1.52731,-8.4604 0.38179,-9.193 2.61332,-1.0028 7.93958,-0.6856 9.17141,0.5462 1.3263,1.3263 0.27441,3.9442 -3.05248,7.5968 -2.2687,2.4908 -4.67175,2.879 -6.50072,1.05 z"
       style="fill:#ffe6d5" />
    <path
       inkscape:connector-curvature="0"
       id="path5731"
       d="m 608.56789,848.11596 c -5.73921,-3.5422 -3.17945,-6.6271 4.86163,-5.859 3.1441,0.3004 3.38837,0.576 3.38837,3.8237 0,2.9945 -0.36107,3.5391 -2.5,3.7706 -1.375,0.1488 -3.9625,-0.632 -5.75,-1.7353 z"
       style="fill:#ffe6d5" />
    <path
       inkscape:connector-curvature="0"
       id="path5733"
       d="m 579.81789,848.98936 c -2.2,-1.1766 -4.1501,-2.2751 -4.33356,-2.4409 -0.62952,-0.5691 3.50838,-8.9677 5.04166,-10.2328 2.15145,-1.7753 5.45937,1.0742 7.22121,6.2206 2.57693,7.5272 -0.79316,10.2699 -7.92931,6.4531 z"
       style="fill:#ffe6d5" />
    <path
       inkscape:connector-curvature="0"
       id="path5735"
       d="m 537.35307,850.14646 c -0.56935,-1.0639 -1.03518,-3.5389 -1.03518,-5.5 0,-2.9255 0.36728,-3.5658 2.04545,-3.5658 2.32053,0 6.95455,4.1976 6.95455,6.2996 0,1.8341 -3.22801,4.7004 -5.29356,4.7004 -0.89984,0 -2.10191,-0.8704 -2.67126,-1.9342 z"
       style="fill:#ffe6d5" />
    <path
       inkscape:connector-curvature="0"
       id="path5737"
       d="m 512.56789,836.11596 c -5.73921,-3.5422 -3.17945,-6.6271 4.86163,-5.859 3.1441,0.3004 3.38837,0.576 3.38837,3.8237 0,2.9945 -0.36107,3.5391 -2.5,3.7706 -1.375,0.1488 -3.9625,-0.632 -5.75,-1.7353 z"
       style="fill:#ffe6d5" />
    <path
       inkscape:connector-curvature="0"
       id="path5739"
       d="m 703.81789,846.98936 c -2.2,-1.1766 -4.1501,-2.2751 -4.33356,-2.4409 -0.62952,-0.5691 3.50838,-8.9677 5.04166,-10.2328 2.15145,-1.7753 5.45937,1.0742 7.22121,6.2206 2.57693,7.5272 -0.79316,10.2699 -7.92931,6.4531 z"
       style="fill:#ffe6d5" />
    <path
       inkscape:connector-curvature="0"
       id="path5741"
       d="m 752.56789,853.11596 c -5.73921,-3.5422 -3.17945,-6.6271 4.86163,-5.859 3.1441,0.3004 3.38837,0.576 3.38837,3.8237 0,2.9945 -0.36107,3.5391 -2.5,3.7706 -1.375,0.1488 -3.9625,-0.632 -5.75,-1.7353 z"
       style="fill:#ffe6d5" />
    <path
       style="fill:#ffe6d5"
       d="m 393.28905,847.76393 c -1.34427,-2.5995 -1.33842,-2.9649 0.0561,-3.5 2.62618,-1.0077 7.92683,-0.6641 9.18648,0.5955 0.924,0.924 0.70431,1.7132 -0.97431,3.5 -3.03832,3.2342 -6.4136,2.9911 -8.26827,-0.5955 z"
       id="path5743"
       inkscape:connector-curvature="0" />
    <path
       style="fill:#ffe6d5"
       d="m 371.93863,840.46643 c -1.80376,-1.8037 -1.52731,-8.4604 0.38179,-9.193 2.61332,-1.0028 7.93958,-0.6856 9.17141,0.5462 1.3263,1.3263 0.27441,3.9442 -3.05248,7.5968 -2.2687,2.4908 -4.67175,2.879 -6.50072,1.05 z"
       id="path5745"
       inkscape:connector-curvature="0" />
    <path
       style="fill:#ffe6d5"
       d="m 341.98863,846.70173 c -5.73921,-3.5422 -3.17945,-6.6271 4.86163,-5.859 3.1441,0.3004 3.38837,0.576 3.38837,3.8237 0,2.9945 -0.36107,3.5391 -2.5,3.7706 -1.375,0.1488 -3.9625,-0.632 -5.75,-1.7353 z"
       id="path5747"
       inkscape:connector-curvature="0" />
    <path
       style="fill:#ffe6d5"
       d="m 437.23863,845.57513 c -2.2,-1.1766 -4.1501,-2.2751 -4.33356,-2.4409 -0.62952,-0.5691 3.50838,-8.9677 5.04166,-10.2328 2.15145,-1.7753 5.45937,1.0742 7.22121,6.2206 2.57693,7.5272 -0.79316,10.2699 -7.92931,6.4531 z"
       id="path5749"
       inkscape:connector-curvature="0" />
    <path
       style="fill:#ffe6d5"
       d="m 485.98863,851.70173 c -5.73921,-3.5422 -3.17945,-6.6271 4.86163,-5.859 3.1441,0.3004 3.38837,0.576 3.38837,3.8237 0,2.9945 -0.36107,3.5391 -2.5,3.7706 -1.375,0.1488 -3.9625,-0.632 -5.75,-1.7353 z"
       id="path5751"
       inkscape:connector-curvature="0" />
    <path
       inkscape:connector-curvature="0"
       id="path5753"
       d="m 217.21947,853.4208 c -1.34427,-2.5995 -1.33842,-2.9649 0.0561,-3.5 2.62618,-1.0077 7.92683,-0.6641 9.18648,0.5955 0.924,0.924 0.70431,1.7132 -0.97431,3.5 -3.03832,3.2342 -6.4136,2.9911 -8.26827,-0.5955 z"
       style="fill:#ffe6d5" />
    <path
       inkscape:connector-curvature="0"
       id="path5755"
       d="m 195.86905,846.1233 c -1.80376,-1.8037 -1.52731,-8.4604 0.38179,-9.193 2.61332,-1.0028 7.93958,-0.6856 9.17141,0.5462 1.3263,1.3263 0.27441,3.9442 -3.05248,7.5968 -2.2687,2.4908 -4.67175,2.879 -6.50072,1.05 z"
       style="fill:#ffe6d5" />
    <path
       inkscape:connector-curvature="0"
       id="path5757"
       d="m 261.16905,851.232 c -2.2,-1.1766 -4.1501,-2.2751 -4.33356,-2.4409 -0.62952,-0.5691 3.50838,-8.9677 5.04166,-10.2328 2.15145,-1.7753 5.45937,1.0742 7.22121,6.2206 2.57693,7.5272 -0.79316,10.2699 -7.92931,6.4531 z"
       style="fill:#ffe6d5" />
    <path
       inkscape:connector-curvature="0"
       id="path5759"
       d="m 309.91905,857.3586 c -5.73921,-3.5422 -3.17945,-6.6271 4.86163,-5.859 3.1441,0.3004 3.38837,0.576 3.38837,3.8237 0,2.9945 -0.36107,3.5391 -2.5,3.7706 -1.375,0.1488 -3.9625,-0.632 -5.75,-1.7353 z"
       style="fill:#ffe6d5" />
    <path
       inkscape:connector-curvature="0"
       id="path5761"
       d="m 168.74747,853.77281 c -5.73921,-3.5422 -3.17945,-6.6271 4.86163,-5.859 3.1441,0.3004 3.38837,0.576 3.38837,3.8237 0,2.9945 -0.36107,3.5391 -2.5,3.7706 -1.375,0.1488 -3.9625,-0.632 -5.75,-1.7353 z"
       style="fill:#ffe6d5" />
    <path
       inkscape:connector-curvature="0"
       id="path5763"
       d="m 139.99747,854.64621 c -2.2,-1.1766 -4.1501,-2.2751 -4.33356,-2.4409 -0.62952,-0.5691 3.50838,-8.9677 5.04166,-10.2328 2.15145,-1.7753 5.45937,1.0742 7.22121,6.2206 2.57693,7.5272 -0.79316,10.2699 -7.92931,6.4531 z"
       style="fill:#ffe6d5" />
    <path
       inkscape:connector-curvature="0"
       id="path5765"
       d="m 97.532655,855.80331 c -0.56935,-1.0639 -1.03518,-3.5389 -1.03518,-5.5 0,-2.9255 0.36728,-3.5658 2.04545,-3.5658 2.320525,0 6.954545,4.1976 6.954545,6.2996 0,1.8341 -3.22801,4.7004 -5.29356,4.7004 -0.899835,0 -2.101905,-0.8704 -2.671255,-1.9342 z"
       style="fill:#ffe6d5" />
    <path
       inkscape:connector-curvature="0"
       id="path5767"
       d="m 72.747475,841.77281 c -5.73921,-3.5422 -3.17945,-6.6271 4.86163,-5.859 3.1441,0.3004 3.38837,0.576 3.38837,3.8237 0,2.9945 -0.36107,3.5391 -2.5,3.7706 -1.375,0.1488 -3.9625,-0.632 -5.75,-1.7353 z"
       style="fill:#ffe6d5" />
    <path
       inkscape:connector-curvature="0"
       id="path5769"
       d="m 12.267461,849.81778 c -2.2,-1.1766 -4.1501004,-2.2751 -4.3335604,-2.4409 -0.62952,-0.5691 3.5083804,-8.9677 5.0416604,-10.2328 2.15145,-1.7753 5.45937,1.0742 7.22121,6.2206 2.57693,7.5272 -0.79316,10.2699 -7.92931,6.4531 z"
       style="fill:#ffe6d5" />
    <path
       inkscape:connector-curvature="0"
       id="path5771"
       d="m 61.017461,855.94438 c -5.73921,-3.5422 -3.17945,-6.6271 4.86163,-5.859 3.1441,0.3004 3.38837,0.576 3.38837,3.8237 0,2.9945 -0.36107,3.5391 -2.5,3.7706 -1.375,0.1488 -3.9625,-0.632 -5.75,-1.7353 z"
       style="fill:#ffe6d5" />
    <path
       sodipodi:nodetypes="ccccc"
       inkscape:connector-curvature="0"
       id="path5804"
       d="m 707.25,816.1952 11.25,0 12,12.5 -34.25,0 z"
       style="fill:#cccccc;fill-opacity:1;stroke:#000000;stroke-width:1px;stroke-linecap:butt;stroke-linejoin:miter;stroke-opacity:1" />
    <rect
       ry="0"
       y="818.28931"
       x="707.48883"
       height="1.2374364"
       width="11.136932"
       id="rect5806"
       style="fill:#000000;fill-opacity:1;stroke:none" />
    <rect
       style="fill:#000000;fill-opacity:1;stroke:none"
       id="rect5808"
       width="0.63693237"
       height="10.237436"
       x="705.36383"
       y="818.03931"
       ry="0" />
    <rect
       ry="0"
       y="820.67578"
       x="707.48883"
       height="1.2374364"
       width="11.136932"
       id="rect5810"
       style="fill:#000000;fill-opacity:1;stroke:none" />
    <rect
       style="fill:#000000;fill-opacity:1;stroke:none"
       id="rect5812"
       width="11.136932"
       height="1.2374364"
       x="707.48883"
       y="822.92969"
       ry="0" />
    <rect
       ry="0"
       y="825.18359"
       x="707.48883"
       height="1.2374364"
       width="11.136932"
       id="rect5814"
       style="fill:#000000;fill-opacity:1;stroke:none" />
    <rect
       ry="0"
       y="818.41431"
       x="719.98883"
       height="10.237436"
       width="0.63693237"
       id="rect5816"
       style="fill:#000000;fill-opacity:1;stroke:none" />
    <path
       transform="matrix(1.6309881,0,0,1.6309881,600.6545,509.5323)"
       sodipodi:end="6.272469"
       sodipodi:start="3.1415927"
       d="m 59.043414,178.59573 c 0,-5.0524 4.432156,-9.14819 9.899496,-9.14819 5.425956,0 9.840781,4.03628 9.898926,9.05016 l -9.898927,0.098 z"
       sodipodi:ry="9.1481934"
       sodipodi:rx="9.8994951"
       sodipodi:cy="178.59573"
       sodipodi:cx="68.942909"
       id="path5818"
       style="fill:#00ffff;fill-opacity:1;display:inline;filter:url(#filter5842)"
       sodipodi:type="arc" />
    <rect
       y="992.19525"
       x="698.75"
       height="27.75"
       width="29"
       id="rect5856"
       style="fill:#33337b;fill-opacity:1;stroke:none" />
    <path
       style="fill:#cccccc;fill-opacity:1;stroke:#000000;stroke-width:1px;stroke-linecap:butt;stroke-linejoin:miter;stroke-opacity:1"
       d="m 707.25,1008.5282 11.25,0 12,12.5 -34.25,0 z"
       id="path5858"
       inkscape:connector-curvature="0"
       sodipodi:nodetypes="ccccc" />
    <rect
       style="fill:#000000;fill-opacity:1;stroke:none"
       id="rect5860"
       width="11.136932"
       height="1.2374364"
       x="707.48883"
       y="1010.6224"
       ry="0" />
    <rect
       ry="0"
       y="1010.3724"
       x="705.36383"
       height="10.237436"
       width="0.63693237"
       id="rect5862"
       style="fill:#000000;fill-opacity:1;stroke:none" />
    <rect
       style="fill:#000000;fill-opacity:1;stroke:none"
       id="rect5864"
       width="11.136932"
       height="1.2374364"
       x="707.48883"
       y="1013.0089"
       ry="0" />
    <rect
       ry="0"
       y="1015.2628"
       x="707.48883"
       height="1.2374364"
       width="11.136932"
       id="rect5866"
       style="fill:#000000;fill-opacity:1;stroke:none" />
    <rect
       style="fill:#000000;fill-opacity:1;stroke:none"
       id="rect5868"
       width="11.136932"
       height="1.2374364"
       x="707.48883"
       y="1017.5167"
       ry="0" />
    <rect
       style="fill:#000000;fill-opacity:1;stroke:none"
       id="rect5870"
       width="0.63693237"
       height="10.237436"
       x="719.98883"
       y="1010.7474"
       ry="0" />
    <path
       sodipodi:type="arc"
       style="fill:#00ffff;fill-opacity:1;display:inline;filter:url(#filter5842)"
       id="path5872"
       sodipodi:cx="68.942909"
       sodipodi:cy="178.59573"
       sodipodi:rx="9.8994951"
       sodipodi:ry="9.1481934"
       d="m 59.043414,178.59573 c 0,-5.0524 4.432156,-9.14819 9.899496,-9.14819 5.425956,0 9.840781,4.03628 9.898926,9.05016 l -9.898927,0.098 z"
       sodipodi:start="3.1415927"
       sodipodi:end="6.272469"
       transform="matrix(1.6309881,0,0,1.6309881,600.6545,701.86534)" />
    <rect
       style="fill:#33337b;fill-opacity:1;stroke:none"
       id="rect5874"
       width="29"
       height="27.75"
       x="69.424973"
       y="992.19525" />
    <path
       sodipodi:nodetypes="ccccc"
       inkscape:connector-curvature="0"
       id="path5876"
       d="m 77.924964,1008.5282 11.25,0 11.999996,12.5 -34.249996,0 z"
       style="fill:#cccccc;fill-opacity:1;stroke:#000000;stroke-width:1px;stroke-linecap:butt;stroke-linejoin:miter;stroke-opacity:1" />
    <rect
       ry="0"
       y="1010.6224"
       x="78.163788"
       height="1.2374364"
       width="11.136932"
       id="rect5878"
       style="fill:#000000;fill-opacity:1;stroke:none" />
    <rect
       style="fill:#000000;fill-opacity:1;stroke:none"
       id="rect5880"
       width="0.63693237"
       height="10.237436"
       x="76.038788"
       y="1010.3724"
       ry="0" />
    <rect
       ry="0"
       y="1013.0089"
       x="78.163788"
       height="1.2374364"
       width="11.136932"
       id="rect5882"
       style="fill:#000000;fill-opacity:1;stroke:none" />
    <rect
       style="fill:#000000;fill-opacity:1;stroke:none"
       id="rect5884"
       width="11.136932"
       height="1.2374364"
       x="78.163788"
       y="1015.2628"
       ry="0" />
    <rect
       ry="0"
       y="1017.5167"
       x="78.163788"
       height="1.2374364"
       width="11.136932"
       id="rect5886"
       style="fill:#000000;fill-opacity:1;stroke:none" />
    <rect
       ry="0"
       y="1010.7474"
       x="90.663788"
       height="10.237436"
       width="0.63693237"
       id="rect5888"
       style="fill:#000000;fill-opacity:1;stroke:none" />
    <path
       transform="matrix(1.6309881,0,0,1.6309881,-28.670536,701.86534)"
       sodipodi:end="6.272469"
       sodipodi:start="3.1415927"
       d="m 59.043414,178.59573 c 0,-5.0524 4.432156,-9.14819 9.899496,-9.14819 5.425956,0 9.840781,4.03628 9.898926,9.05016 l -9.898927,0.098 z"
       sodipodi:ry="9.1481934"
       sodipodi:rx="9.8994951"
       sodipodi:cy="178.59573"
       sodipodi:cx="68.942909"
       id="path5890"
       style="fill:#00ffff;fill-opacity:1;display:inline;filter:url(#filter5842)"
       sodipodi:type="arc" />
  </g>
  <g
     inkscape:groupmode="layer"
     id="layer3"
     inkscape:label="触发器"
     style="display:none">
    <rect
       style="fill:#aa9c9d;fill-opacity:0;stroke:none"
       id="rect5694"
       width="395"
       height="181"
       x="-11"
       y="292" />
    <rect
       style="fill:#006500;fill-opacity:0.51372549;stroke:none"
       id="rect5719"
       width="167.54861"
       height="71.064079"
       x="321.58371"
       y="408.80731" />
    <rect
       y="394.80731"
       x="338.57507"
       height="13.064079"
       width="139.98007"
       id="rect5721"
       style="fill:#006500;fill-opacity:0.51372549;stroke:none" />
    <rect
       style="fill:#006500;fill-opacity:0.51372549;stroke:none"
       id="rect5723"
       width="105.48007"
       height="20.064079"
       x="357.07507"
       y="373.30731" />
    <rect
       y="363.40784"
       x="379.34894"
       height="8.750371"
       width="60.932346"
       id="rect5725"
       style="fill:#006500;fill-opacity:0.51372549;stroke:none" />
    <rect
       y="225.03314"
       x="40.862316"
       height="30.564079"
       width="90.048615"
       id="rect4682"
       style="fill:#006500;fill-opacity:0.51372549;stroke:none" />
    <rect
       style="fill:#006500;fill-opacity:0.51372549;stroke:none"
       id="rect4684"
       width="72.548615"
       height="24.564079"
       x="49.362316"
       y="198.53314" />
    <text
       xml:space="preserve"
       style="font-size:9px;font-style:normal;font-weight:normal;line-height:125%;letter-spacing:0px;word-spacing:0px;fill:#ffffff;fill-opacity:1;stroke:none;font-family:Sans"
       x="76"
       y="154"
       id="text4686"
       sodipodi:linespacing="125%"><tspan
         sodipodi:role="line"
         id="tspan4688"
         x="76"
         y="154">9999</tspan></text>
    <rect
       style="fill:#7ca468;fill-opacity:0.5;stroke:none"
       id="rect3152"
       width="28.5"
       height="12.5"
       x="69.5"
       y="435.5" />
    <rect
       y="243.5"
       x="69.5"
       height="12.5"
       width="28.5"
       id="rect3922"
       style="fill:#7ca468;fill-opacity:0.5;stroke:none" />
    <rect
       style="fill:#7ca468;fill-opacity:0.5;stroke:none"
       id="rect3924"
       width="28.5"
       height="12.5"
       x="699.11792"
       y="243.5" />
    <rect
       y="435.38153"
       x="699.11792"
       height="12.5"
       width="28.5"
       id="rect3926"
       style="fill:#7ca468;fill-opacity:0.5;stroke:none" />
    <rect
       style="fill:#7ca468;fill-opacity:0.5;stroke:none"
       id="rect3928"
       width="28.5"
       height="12.5"
       x="699.11792"
       y="435.38153" />
    <path
       sodipodi:type="arc"
       style="fill:#fc69c7;fill-opacity:0.50499998;stroke:none"
       id="path3160"
       sodipodi:cx="338.28125"
       sodipodi:cy="371.40625"
       sodipodi:rx="80.46875"
       sodipodi:ry="80.46875"
       d="m 257.8125,371.40625 a 80.46875,80.46875 0 0 1 160.9375,0 l -80.46875,0 z"
       sodipodi:start="3.1415927"
       sodipodi:end="6.2831853"
       transform="translate(67.96875,80.46875)" />
  </g>
  <g
     inkscape:groupmode="layer"
     id="layer4"
     inkscape:label="动画"
     style="display:none">
    <rect
       style="fill:#fc69c7;fill-opacity:0.50499998;stroke:none"
       id="rect3930"
       width="174.71172"
       height="86.74733"
       x="49.718445"
       y="168.41481" />
    <rect
       y="368.96213"
       x="321.5126"
       height="98.46608"
       width="174.71172"
       id="rect3932"
       style="fill:#fc69c7;fill-opacity:0.50499998;stroke:none" />
  </g>
</svg>
