<?xml version="1.0" encoding="UTF-8" standalone="no"?>
<!-- Created with Inkscape (http://www.inkscape.org/) -->

<svg
   xmlns:dc="http://purl.org/dc/elements/1.1/"
   xmlns:cc="http://creativecommons.org/ns#"
   xmlns:rdf="http://www.w3.org/1999/02/22-rdf-syntax-ns#"
   xmlns:svg="http://www.w3.org/2000/svg"
   xmlns="http://www.w3.org/2000/svg"
   xmlns:xlink="http://www.w3.org/1999/xlink"
   xmlns:sodipodi="http://sodipodi.sourceforge.net/DTD/sodipodi-0.dtd"
   xmlns:inkscape="http://www.inkscape.org/namespaces/inkscape"
   width="200"
   height="150"
   id="svg2"
   version="1.1"
   inkscape:version="0.48.3.1 r9886"
   sodipodi:docname="Trans.svg"
   inkscape:export-filename="C:\Users\HenryT\Desktop\MoonWar\Trans.png"
   inkscape:export-xdpi="90"
   inkscape:export-ydpi="90">
  <defs
     id="defs4">
    <linearGradient
       id="linearGradient3817">
      <stop
         style="stop-color:#346338;stop-opacity:1;"
         offset="0"
         id="stop3819" />
      <stop
         style="stop-color:#1e2e23;stop-opacity:1;"
         offset="1"
         id="stop3821" />
    </linearGradient>
    <linearGradient
       id="linearGradient3809">
      <stop
         style="stop-color:#000000;stop-opacity:1;"
         offset="0"
         id="stop3811" />
      <stop
         style="stop-color:#000000;stop-opacity:0;"
         offset="1"
         id="stop3813" />
    </linearGradient>
    <linearGradient
       inkscape:collect="always"
       xlink:href="#linearGradient3817"
       id="linearGradient3815"
       x1="221.16139"
       y1="437.53571"
       x2="344.07382"
       y2="437.53571"
       gradientUnits="userSpaceOnUse"
       gradientTransform="translate(-206.55493,15.280849)" />
    <linearGradient
       inkscape:collect="always"
       xlink:href="#linearGradient3817"
       id="linearGradient3823"
       x1="267.99374"
       y1="430.33932"
       x2="267.73477"
       y2="442.89099"
       gradientUnits="userSpaceOnUse"
       gradientTransform="translate(-206.55493,15.280849)" />
  </defs>
  <sodipodi:namedview
     id="base"
     pagecolor="#ffffff"
     bordercolor="#666666"
     borderopacity="1.0"
     inkscape:pageopacity="0.0"
     inkscape:pageshadow="2"
     inkscape:zoom="7.591201"
     inkscape:cx="126.69883"
     inkscape:cy="132.09953"
     inkscape:document-units="px"
     inkscape:current-layer="layer2"
     showgrid="true"
     inkscape:snap-grids="false"
     inkscape:snap-to-guides="false"
     inkscape:snap-page="false"
     inkscape:window-width="1366"
     inkscape:window-height="710"
     inkscape:window-x="0"
     inkscape:window-y="27"
     inkscape:window-maximized="1">
    <inkscape:grid
       type="xygrid"
       id="grid2985"
       empspacing="5"
       visible="true"
       enabled="false"
       snapvisiblegridlinesonly="true"
       spacingx="5px"
       spacingy="5px" />
    <inkscape:grid
       type="xygrid"
       id="grid3041"
       empspacing="1"
       visible="true"
       enabled="true"
       snapvisiblegridlinesonly="true"
       spacingx="10px"
       spacingy="10px" />
  </sodipodi:namedview>
  <metadata
     id="metadata7">
    <rdf:RDF>
      <cc:Work
         rdf:about="">
        <dc:format>image/svg+xml</dc:format>
        <dc:type
           rdf:resource="http://purl.org/dc/dcmitype/StillImage" />
        <dc:title />
      </cc:Work>
    </rdf:RDF>
  </metadata>
  <g
     inkscape:label="Layer 1"
     inkscape:groupmode="layer"
     id="layer1"
     transform="translate(0,-902.36218)"
     style="display:none">
    <image
       y="572.36218"
       x="0"
       id="image2995"
       xlink:href="file:///C:/Users/HenryT/Desktop/MoonWar/MW4_c.png"
       height="480"
       width="800" />
  </g>
  <g
     inkscape:groupmode="layer"
     id="layer3"
     inkscape:label="Layer#1"
     style="display:none"
     sodipodi:insensitive="true"
     transform="translate(0,-330)">
    <image
       y="243.45563"
       x="328.71649"
       id="image3038"
       xlink:href="file:///C:/Users/HenryT/Desktop/MoonWar/MW3_c.png"
       height="109.62148"
       width="182.70247" />
  </g>
  <g
     inkscape:groupmode="layer"
     id="layer2"
     inkscape:label="Layer"
     style="display:inline"
     transform="translate(0,-330)">
    <path
       style="fill:#b3b3b3;stroke:#000000;stroke-width:0.30889434;stroke-linecap:butt;stroke-linejoin:miter;stroke-miterlimit:4;stroke-opacity:1;stroke-dasharray:none"
       d="m 151.55628,394.17645 0.12661,12.55631 -1.125,0.1918 0.13092,3.10939 4.54094,-0.0479 -0.1746,-3.07953 -0.95391,-0.36965 -0.26548,-12.21161"
       id="path3868"
       inkscape:connector-curvature="0"
       sodipodi:nodetypes="cccccccc" />
    <path
       sodipodi:type="arc"
       style="fill:#aac039;fill-opacity:0.54500002;fill-rule:nonzero;stroke:none"
       id="path3797"
       sodipodi:cx="311.75342"
       sodipodi:cy="396.22803"
       sodipodi:rx="57.695206"
       sodipodi:ry="33.723461"
       d="m 270.95675,372.38194 a 57.695206,33.723461 0 0 1 81.59334,0"
       sodipodi:start="3.9269908"
       sodipodi:end="5.4977871"
       transform="matrix(1.3991003,0,0,-1.4582184,-326.02718,1000.6613)"
       sodipodi:open="true" />
    <path
       style="fill:none;stroke:#000000;stroke-width:1px;stroke-linecap:butt;stroke-linejoin:miter;stroke-opacity:1"
       d="m 158.44507,455.28085 -25,-45 5,0 50,0 0,45 -120.000001,0 -10,10 -30,0 -15,-25 20,-30 85.000001,0 20,35 -10,10"
       id="path3771"
       inkscape:connector-curvature="0" />
    <path
       style="fill:none;stroke:#000000;stroke-width:1px;stroke-linecap:butt;stroke-linejoin:miter;stroke-opacity:1"
       d="m 123.44507,420.28085 15,0"
       id="path3775"
       inkscape:connector-curvature="0" />
    <path
       style="fill:none;stroke:#000000;stroke-width:1px;stroke-linecap:butt;stroke-linejoin:miter;stroke-opacity:1"
       d="m 163.44507,410.28085 0,35 25,0"
       id="path3777"
       inkscape:connector-curvature="0" />
    <path
       style="fill:none;stroke:#000000;stroke-width:1px;stroke-linecap:butt;stroke-linejoin:miter;stroke-opacity:1"
       d="M 13.445069,440.28085 135.63709,440.5174"
       id="path3779"
       inkscape:connector-curvature="0"
       sodipodi:nodetypes="cc" />
    <path
       style="fill:#417cb8;fill-opacity:1;fill-rule:nonzero;stroke:none"
       d="m 163.98456,427.83759 0,-17.04807 11.94029,0 11.9403,0 0,17.04807 0,17.04807 -11.9403,0 -11.94029,0 0,-17.04807 z"
       id="path3787"
       inkscape:connector-curvature="0" />
    <path
       style="fill:#417c46;fill-opacity:1;fill-rule:nonzero;stroke:none"
       d="m 68.302369,439.8407 -53.78454,-0.0541 9.64808,-14.49241 9.64807,-14.49241 42.11087,-0.004 42.110881,-0.004 2.61194,4.57899 c 1.43657,2.51844 2.61194,4.77209 2.61194,5.00811 0,0.23602 0.11994,0.43239 0.26652,0.43638 0.2253,0.006 11.03412,18.66773 11.03412,19.05057 0,0.0726 -2.8065,0.10814 -6.23667,0.079 -3.43018,-0.0291 -30.439721,-0.0772 -60.021211,-0.10702 l 0,0 z"
       id="path3789"
       inkscape:connector-curvature="0" />
    <path
       style="fill:url(#linearGradient3823);fill-opacity:1;fill-rule:nonzero;stroke:url(#linearGradient3815)"
       d="m 21.691249,452.84709 c -3.92422,-6.53784 -7.1123,-11.91035 -7.08461,-11.93891 0.0277,-0.0285 27.21223,0.0114 60.41011,0.0887 l 60.359771,0.14057 1.0311,1.81931 c 0.5671,1.00062 1.06688,1.90762 1.11061,2.01556 0.0437,0.10794 -2.06634,2.34371 -4.68905,4.96837 l -4.76858,4.77211 -29.960833,0 -29.960828,0 -5.00726,5.01066 -5.00726,5.01066 -14.64911,0 -14.64911,0 -7.13495,-11.887 z"
       id="path3791"
       inkscape:connector-curvature="0" />
    <path
       style="fill:#417c47;fill-opacity:1;fill-rule:nonzero;stroke:none"
       d="m 158.57626,454.23302 c -0.56686,-0.90393 -24.01601,-43.20627 -24.01601,-43.32496 0,-0.0652 6.3806,-0.11854 14.1791,-0.11854 l 14.17911,0 0,17.59062 0,17.59062 12.47335,0 12.47334,0 0,4.371 0,4.37101 -14.49402,0 -14.49401,0 -0.30086,-0.47975 0,0 z"
       id="path3793"
       inkscape:connector-curvature="0" />
    <path
       style="fill:#000000;fill-opacity:0.51000001;fill-rule:nonzero;stroke:none"
       d="m 134.5088,450.18003 c 2.49099,-2.493 4.5263,-4.67584 4.52293,-4.85075 -0.003,-0.1749 -3.10855,-5.73912 -6.90039,-12.36492 l -6.89426,-12.0469 6.62011,-0.0564 c 3.64106,-0.031 6.68962,0.0169 6.77458,0.10661 0.14213,0.14999 17.64454,31.59977 18.41445,33.08862 l 0.33948,0.65648 -13.70298,0 -13.70297,0 4.52905,-4.53274 0,0 z"
       id="path3795"
       inkscape:connector-curvature="0" />
    <path
       style="fill:none;stroke:#000000;stroke-width:1px;stroke-linecap:butt;stroke-linejoin:miter;stroke-opacity:1"
       d="m 138.13064,445.24888 14.50362,-0.17381"
       id="path3805"
       inkscape:connector-curvature="0"
       sodipodi:nodetypes="cc" />
    <path
       style="fill:#393939;fill-opacity:0.78500001;fill-rule:nonzero;stroke:none"
       d="m 134.44837,450.2335 4.39783,-4.46322 5.11164,-0.0446 c 2.8114,-0.0245 5.8472,-0.0457 6.74623,-0.047 l 1.6346,-0.002 2.43972,4.41004 c 1.34185,2.42552 2.44046,4.45514 2.44135,4.51026 9.4e-4,0.0551 -6.11181,0.10023 -13.58379,0.10023 l -13.58541,0 4.39783,-4.46321 z"
       id="path3807"
       inkscape:connector-curvature="0" />
    <path
       sodipodi:type="arc"
       style="fill:#8dc999;fill-opacity:1;fill-rule:nonzero;stroke:#000000;stroke-width:0.33111906;stroke-miterlimit:4;stroke-opacity:1;stroke-dasharray:none;display:inline"
       id="path3043"
       sodipodi:cx="395.91055"
       sodipodi:cy="323.15158"
       sodipodi:rx="2.0541339"
       sodipodi:ry="2.279392"
       d="m 397.96469,323.15158 a 2.0541339,2.279392 0 1 1 -4.10827,0 2.0541339,2.279392 0 1 1 4.10827,0 z"
       transform="matrix(1.307884,0,0,1.4673551,-365.15119,-82.962112)" />
    <path
       style="fill:none;stroke:#000000;stroke-width:0.46334153;stroke-linecap:butt;stroke-linejoin:miter;stroke-miterlimit:4;stroke-opacity:1;stroke-dasharray:none;display:inline"
       d="m 150.55244,389.08476 -5.85012,-0.0348 3.05037,4.9366 3.33442,-0.0658"
       id="path3813"
       inkscape:connector-curvature="0"
       sodipodi:nodetypes="cccc" />
    <path
       style="fill:none;stroke:#000000;stroke-width:0.46334153;stroke-linecap:butt;stroke-linejoin:miter;stroke-miterlimit:4;stroke-opacity:1;stroke-dasharray:none;display:inline"
       d="m 153.23946,387.94634 5.63326,1.10374 1.9746,5.02354 -7.04125,0.16184"
       id="path3815"
       inkscape:connector-curvature="0"
       sodipodi:nodetypes="cccc" />
    <path
       style="fill:none;stroke:#000000;stroke-width:0.46334153;stroke-linecap:butt;stroke-linejoin:miter;stroke-miterlimit:4;stroke-opacity:1;stroke-dasharray:none;display:inline"
       d="m 159.28401,389.70976 7.71161,0.099"
       id="path3817"
       inkscape:connector-curvature="0" />
    <path
       style="fill:none;stroke:#000000;stroke-width:0.46334153;stroke-linecap:butt;stroke-linejoin:miter;stroke-miterlimit:4;stroke-opacity:1;stroke-dasharray:none;display:inline"
       d="m 160.33613,392.92184 6.49497,-0.10604"
       id="path3819"
       inkscape:connector-curvature="0"
       sodipodi:nodetypes="cc" />
    <path
       style="fill:none;stroke:#000000;stroke-width:0.46334153;stroke-linecap:butt;stroke-linejoin:miter;stroke-miterlimit:4;stroke-opacity:1;stroke-dasharray:none;display:inline"
       d="m 166.9819,388.86867 0.0411,4.5408 9.77487,-0.36832 0.0135,-3.89213 z"
       id="path3821"
       inkscape:connector-curvature="0" />
    <path
       style="fill:#417c46;fill-opacity:1;fill-rule:nonzero;stroke:#000000;stroke-width:0.02183511;stroke-linejoin:miter;stroke-miterlimit:4;stroke-opacity:1;stroke-dasharray:none;stroke-dashoffset:0"
       d="m 167.26239,391.15332 0,-1.99491 0.33434,0.002 c 0.18387,10e-4 1.918,0.0511 3.85362,0.11116 1.9356,0.06 3.8756,0.11004 4.31112,0.111 l 0.79184,0.002 0,1.68504 0,1.68503 -0.89742,0.0474 c -0.49357,0.0262 -2.32273,0.0969 -4.06477,0.15732 -1.74205,0.0604 -3.42867,0.12776 -3.74804,0.14948 l -0.58069,0.0396 0,-1.99492 z"
       id="path3858"
       inkscape:connector-curvature="0" />
    <path
       style="fill:#417c46;fill-opacity:1;fill-rule:nonzero;stroke:#000000;stroke-width:0.02183511;stroke-linejoin:miter;stroke-miterlimit:4;stroke-opacity:1;stroke-dasharray:none;stroke-dashoffset:0"
       d="m 146.55139,391.54479 c -0.72586,-1.16911 -1.31974,-2.15579 -1.31974,-2.19263 0,-0.0549 4.77918,-5.8e-4 4.83116,0.0549 0.009,0.01 -0.0508,0.21899 -0.13129,0.46697 -0.18245,0.56216 -0.24493,1.6373 -0.1277,2.19747 0.0965,0.4613 0.30977,1.01554 0.50521,1.31319 0.0721,0.10988 0.13114,0.21995 0.13114,0.24461 0,0.0246 -0.57805,0.0439 -1.28455,0.043 l -1.28453,-0.002 -1.31973,-2.12564 z"
       id="path3862"
       inkscape:connector-curvature="0" />
    <path
       style="fill:#417c46;fill-opacity:1;fill-rule:nonzero;stroke:#000000;stroke-width:0.02183511;stroke-linejoin:miter;stroke-miterlimit:4;stroke-opacity:1;stroke-dasharray:none;stroke-dashoffset:0"
       d="m 154.79426,393.67858 c 1.0318,-1.3958 1.04405,-3.56014 0.0276,-4.88647 -0.14339,-0.18712 -0.21396,-0.32179 -0.15684,-0.29927 0.0571,0.0225 0.95905,0.20366 2.00427,0.40255 1.04523,0.19889 1.93883,0.3987 1.98577,0.44402 0.0887,0.0858 1.80556,4.40834 1.76672,4.44834 -0.012,0.0128 -0.95642,0.0597 -2.09843,0.10493 -1.14201,0.0452 -2.4683,0.10365 -2.94732,0.12969 l -0.87096,0.0473 0.28914,-0.39113 z"
       id="path3864"
       inkscape:connector-curvature="0" />
    <path
       style="fill:#4d4d4d;fill-opacity:1;fill-rule:nonzero;stroke:#000000;stroke-width:0.02183511;stroke-linejoin:miter;stroke-miterlimit:4;stroke-opacity:1;stroke-dasharray:none;stroke-dashoffset:0"
       d="m 160.40471,392.22538 c -0.0898,-0.21731 -0.32591,-0.81549 -0.5247,-1.32925 l -0.36141,-0.93414 2.16504,0.0497 c 1.19078,0.0273 2.82227,0.0497 3.62555,0.0498 l 1.46051,1.3e-4 0,1.22975 0,1.22975 -1.91186,0.0497 c -1.05151,0.0273 -2.4469,0.0497 -3.10085,0.0497 l -1.189,0 -0.16328,-0.39514 0,0 z"
       id="path3866"
       inkscape:connector-curvature="0" />
    <path
       style="fill:none;stroke:#000000;stroke-width:1px;stroke-linecap:butt;stroke-linejoin:miter;stroke-opacity:1"
       d="m 163.49444,429.95971 25.18623,-0.23433"
       id="path3870"
       inkscape:connector-curvature="0"
       sodipodi:nodetypes="cc" />
    <path
       style="fill:#417c46;fill-opacity:1;fill-rule:nonzero;stroke:#000000;stroke-width:0.05654746;stroke-linejoin:miter;stroke-miterlimit:4;stroke-opacity:1;stroke-dasharray:none;stroke-dashoffset:0"
       d="m 178.40521,429.69478 c -3.73213,-0.10547 -8.47152,-0.209 -10.53196,-0.23008 l -3.74627,-0.0383 0,-9.18896 0,-9.18897 11.87496,0 11.87497,0 0,9.4717 0,9.4717 -1.343,-0.0527 c -0.73865,-0.029 -4.39657,-0.13895 -8.1287,-0.24442 z"
       id="path3872"
       inkscape:connector-curvature="0" />
    <path
       sodipodi:nodetypes="cccccccc"
       inkscape:connector-curvature="0"
       id="path3021"
       d="m 59.344257,344.64542 -2.376288,12.23029 -1.125,0.51782 -0.198408,3.10939 10.007795,-0.0479 -0.438063,-3.21126 -0.95391,-0.36965 -2.636646,-12.07988"
       style="fill:#b3b3b3;stroke:#000000;stroke-width:0.30889434;stroke-linecap:butt;stroke-linejoin:miter;stroke-miterlimit:4;stroke-opacity:1;stroke-dasharray:none" />
    <path
       transform="matrix(1.307884,0,0,1.4673551,-457.36321,-132.49314)"
       d="m 397.96469,323.15158 a 2.0541339,2.279392 0 1 1 -4.10827,0 2.0541339,2.279392 0 1 1 4.10827,0 z"
       sodipodi:ry="2.279392"
       sodipodi:rx="2.0541339"
       sodipodi:cy="323.15158"
       sodipodi:cx="395.91055"
       id="path3023"
       style="fill:#8dc999;fill-opacity:1;fill-rule:nonzero;stroke:#000000;stroke-width:0.33111906;stroke-miterlimit:4;stroke-opacity:1;stroke-dasharray:none;display:inline"
       sodipodi:type="arc" />
    <path
       sodipodi:nodetypes="cccc"
       inkscape:connector-curvature="0"
       id="path3025"
       d="m 58.340417,339.55373 -5.85012,-0.0348 3.05037,4.9366 3.33442,-0.0658"
       style="fill:none;stroke:#000000;stroke-width:0.46334153;stroke-linecap:butt;stroke-linejoin:miter;stroke-miterlimit:4;stroke-opacity:1;stroke-dasharray:none;display:inline" />
    <path
       sodipodi:nodetypes="cccc"
       inkscape:connector-curvature="0"
       id="path3027"
       d="m 61.027437,338.41531 5.63326,1.10374 1.9746,5.02354 -7.04125,0.16184"
       style="fill:none;stroke:#000000;stroke-width:0.46334153;stroke-linecap:butt;stroke-linejoin:miter;stroke-miterlimit:4;stroke-opacity:1;stroke-dasharray:none;display:inline" />
    <path
       inkscape:connector-curvature="0"
       id="path3029"
       d="m 67.071987,340.17873 7.71161,0.099"
       style="fill:none;stroke:#000000;stroke-width:0.46334153;stroke-linecap:butt;stroke-linejoin:miter;stroke-miterlimit:4;stroke-opacity:1;stroke-dasharray:none;display:inline" />
    <path
       sodipodi:nodetypes="cc"
       inkscape:connector-curvature="0"
       id="path3031"
       d="m 68.124107,343.39081 6.49497,-0.10604"
       style="fill:none;stroke:#000000;stroke-width:0.46334153;stroke-linecap:butt;stroke-linejoin:miter;stroke-miterlimit:4;stroke-opacity:1;stroke-dasharray:none;display:inline" />
    <path
       inkscape:connector-curvature="0"
       id="path3033"
       d="m 74.769877,339.33764 0.0411,4.5408 9.77487,-0.36832 0.0135,-3.89213 z"
       style="fill:none;stroke:#000000;stroke-width:0.46334153;stroke-linecap:butt;stroke-linejoin:miter;stroke-miterlimit:4;stroke-opacity:1;stroke-dasharray:none;display:inline" />
    <path
       inkscape:connector-curvature="0"
       id="path3035"
       d="m 75.050367,341.62229 0,-1.99491 0.33434,0.002 c 0.18387,10e-4 1.918,0.0511 3.85362,0.11116 1.9356,0.06 3.8756,0.11004 4.31112,0.111 l 0.79184,0.002 0,1.68504 0,1.68503 -0.89742,0.0474 c -0.49357,0.0262 -2.32273,0.0969 -4.06477,0.15732 -1.74205,0.0604 -3.42867,0.12776 -3.74804,0.14948 l -0.58069,0.0396 0,-1.99492 z"
       style="fill:#417c46;fill-opacity:1;fill-rule:nonzero;stroke:#000000;stroke-width:0.02183511;stroke-linejoin:miter;stroke-miterlimit:4;stroke-opacity:1;stroke-dasharray:none;stroke-dashoffset:0" />
    <path
       inkscape:connector-curvature="0"
       id="path3037"
       d="m 54.339367,342.01376 c -0.72586,-1.16911 -1.31974,-2.15579 -1.31974,-2.19263 0,-0.0549 4.77918,-5.8e-4 4.83116,0.0549 0.009,0.01 -0.0508,0.21899 -0.13129,0.46697 -0.18245,0.56216 -0.24493,1.6373 -0.1277,2.19747 0.0965,0.4613 0.30977,1.01554 0.50521,1.31319 0.0721,0.10988 0.13114,0.21995 0.13114,0.24461 0,0.0246 -0.57805,0.0439 -1.28455,0.043 l -1.28453,-0.002 -1.31973,-2.12564 z"
       style="fill:#417c46;fill-opacity:1;fill-rule:nonzero;stroke:#000000;stroke-width:0.02183511;stroke-linejoin:miter;stroke-miterlimit:4;stroke-opacity:1;stroke-dasharray:none;stroke-dashoffset:0" />
    <path
       inkscape:connector-curvature="0"
       id="path3039"
       d="m 62.582237,344.14755 c 1.0318,-1.3958 1.04405,-3.56014 0.0276,-4.88647 -0.14339,-0.18712 -0.21396,-0.32179 -0.15684,-0.29927 0.0571,0.0225 0.95905,0.20366 2.00427,0.40255 1.04523,0.19889 1.93883,0.3987 1.98577,0.44402 0.0887,0.0858 1.80556,4.40834 1.76672,4.44834 -0.012,0.0128 -0.95642,0.0597 -2.09843,0.10493 -1.14201,0.0452 -2.4683,0.10365 -2.94732,0.12969 l -0.87096,0.0473 0.28914,-0.39113 z"
       style="fill:#417c46;fill-opacity:1;fill-rule:nonzero;stroke:#000000;stroke-width:0.02183511;stroke-linejoin:miter;stroke-miterlimit:4;stroke-opacity:1;stroke-dasharray:none;stroke-dashoffset:0" />
    <path
       inkscape:connector-curvature="0"
       id="path3041"
       d="m 68.192687,342.69435 c -0.0898,-0.21731 -0.32591,-0.81549 -0.5247,-1.32925 l -0.36141,-0.93414 2.16504,0.0497 c 1.19078,0.0273 2.82227,0.0497 3.62555,0.0498 l 1.46051,1.3e-4 0,1.22975 0,1.22975 -1.91186,0.0497 c -1.05151,0.0273 -2.4469,0.0497 -3.10085,0.0497 l -1.189,0 -0.16328,-0.39514 0,0 z"
       style="fill:#4d4d4d;fill-opacity:1;fill-rule:nonzero;stroke:#000000;stroke-width:0.02183511;stroke-linejoin:miter;stroke-miterlimit:4;stroke-opacity:1;stroke-dasharray:none;stroke-dashoffset:0" />
    <path
       sodipodi:type="arc"
       style="fill:#98989e;fill-opacity:1;stroke:none"
       id="path3044"
       sodipodi:cx="102.64933"
       sodipodi:cy="11.58176"
       sodipodi:rx="1.8629642"
       sodipodi:ry="1.8629642"
       d="m 104.51229,11.58176 a 1.8629642,1.8629642 0 1 1 -3.72592,0 1.8629642,1.8629642 0 1 1 3.72592,0 z"
       transform="translate(0,330)" />
    <path
       transform="matrix(0.50502524,0,0,0.50502524,51.088273,335.17379)"
       d="m 104.51229,11.58176 a 1.8629642,1.8629642 0 1 1 -3.72592,0 1.8629642,1.8629642 0 1 1 3.72592,0 z"
       sodipodi:ry="1.8629642"
       sodipodi:rx="1.8629642"
       sodipodi:cy="11.58176"
       sodipodi:cx="102.64933"
       id="path3046"
       style="fill:#c8c8c8;fill-opacity:1;stroke:none"
       sodipodi:type="arc" />
  </g>
</svg>
